<svg xmlns="http://www.w3.org/2000/svg" xmlns:xlink="http://www.w3.org/1999/xlink" contentScriptType="application/ecmascript" contentStyleType="text/css" height="2533px" preserveAspectRatio="none" style="width:639px;height:2533px;" version="1.1" viewBox="0 0 639 2533" width="639px" zoomAndPan="magnify">
  <defs>
    <filter height="300%" id="fksua6i4op8wp" width="300%" x="-1" y="-1">
      <feGaussianBlur result="blurOut" stdDeviation="2.0"/>
      <feColorMatrix in="blurOut" result="blurOut2" type="matrix" values="0 0 0 0 0 0 0 0 0 0 0 0 0 0 0 0 0 0 .4 0"/>
      <feOffset dx="4.0" dy="4.0" in="blurOut2" result="blurOut3"/>
      <feBlend in="SourceGraphic" in2="blurOut3" mode="normal"/>
    </filter>
  </defs>
  <g>
    <!--cluster com.credibledoc.substitution-->
    <polygon fill="#FFFFFF" filter="url(#fksua6i4op8wp)" points="14,1128,225,1128,232,1151.6094,235,1151.6094,235,1212,14,1212,14,1128" style="stroke: #000000; stroke-width: 1.5;"/>
    <line style="stroke: #000000; stroke-width: 1.5;" x1="14" x2="232" y1="1151.6094" y2="1151.6094"/>
    <text fill="#000000" font-family="sans-serif" font-size="14" font-weight="bold" lengthAdjust="spacingAndGlyphs" textLength="205" x="18" y="1144.5332">com.credibledoc.substitution</text>
    <!--cluster com.credibledoc.substitution.core.exception-->
    <polygon fill="#FFFFFF" filter="url(#fksua6i4op8wp)" points="274,24,595,24,602,47.6094,605,47.6094,605,108,274,108,274,24" style="stroke: #000000; stroke-width: 1.5;"/>
    <line style="stroke: #000000; stroke-width: 1.5;" x1="274" x2="602" y1="47.6094" y2="47.6094"/>
    <text fill="#000000" font-family="sans-serif" font-size="14" font-weight="bold" lengthAdjust="spacingAndGlyphs" textLength="315" x="278" y="40.5332">com.credibledoc.substitution.core.exception</text>
    <!--cluster com.credibledoc.combiner.node.log-->
    <polygon fill="#FFFFFF" filter="url(#fksua6i4op8wp)" points="305,132,564,132,571,155.6094,574,155.6094,574,283,305,283,305,132" style="stroke: #000000; stroke-width: 1.5;"/>
    <line style="stroke: #000000; stroke-width: 1.5;" x1="305" x2="571" y1="155.6094" y2="155.6094"/>
    <text fill="#000000" font-family="sans-serif" font-size="14" font-weight="bold" lengthAdjust="spacingAndGlyphs" textLength="253" x="309" y="148.5332">com.credibledoc.combiner.node.log</text>
    <!--cluster com.credibledoc.combiner.node.file-->
    <polygon fill="#FFFFFF" filter="url(#fksua6i4op8wp)" points="305.5,307,564.5,307,571.5,330.6094,574.5,330.6094,574.5,458,305.5,458,305.5,307" style="stroke: #000000; stroke-width: 1.5;"/>
    <line style="stroke: #000000; stroke-width: 1.5;" x1="305.5" x2="571.5" y1="330.6094" y2="330.6094"/>
    <text fill="#000000" font-family="sans-serif" font-size="14" font-weight="bold" lengthAdjust="spacingAndGlyphs" textLength="253" x="309.5" y="323.5332">com.credibledoc.combiner.node.file</text>
    <!--cluster com.credibledoc.substitution.core.content-->
    <polygon fill="#FFFFFF" filter="url(#fksua6i4op8wp)" points="282.5,482,587.5,482,594.5,505.6094,597.5,505.6094,597.5,700,282.5,700,282.5,482" style="stroke: #000000; stroke-width: 1.5;"/>
    <line style="stroke: #000000; stroke-width: 1.5;" x1="282.5" x2="594.5" y1="505.6094" y2="505.6094"/>
    <text fill="#000000" font-family="sans-serif" font-size="14" font-weight="bold" lengthAdjust="spacingAndGlyphs" textLength="299" x="286.5" y="498.5332">com.credibledoc.substitution.core.content</text>
    <!--cluster com.credibledoc.substitution.core.placeholder-->
    <polygon fill="#FFFFFF" filter="url(#fksua6i4op8wp)" points="267.5,724,602.5,724,609.5,747.6094,612.5,747.6094,612.5,875,267.5,875,267.5,724" style="stroke: #000000; stroke-width: 1.5;"/>
    <line style="stroke: #000000; stroke-width: 1.5;" x1="267.5" x2="609.5" y1="747.6094" y2="747.6094"/>
    <text fill="#000000" font-family="sans-serif" font-size="14" font-weight="bold" lengthAdjust="spacingAndGlyphs" textLength="329" x="271.5" y="740.5332">com.credibledoc.substitution.core.placeholder</text>
    <!--cluster com.credibledoc.substitution.core.resource-->
    <polygon fill="#FFFFFF" filter="url(#fksua6i4op8wp)" points="277.5,899,592.5,899,599.5,922.6094,602.5,922.6094,602.5,1050,277.5,1050,277.5,899" style="stroke: #000000; stroke-width: 1.5;"/>
    <line style="stroke: #000000; stroke-width: 1.5;" x1="277.5" x2="599.5" y1="922.6094" y2="922.6094"/>
    <text fill="#000000" font-family="sans-serif" font-size="14" font-weight="bold" lengthAdjust="spacingAndGlyphs" textLength="309" x="281.5" y="915.5332">com.credibledoc.substitution.core.resource</text>
    <!--cluster com.credibledoc.combiner.log.buffered-->
    <polygon fill="#FFFFFF" filter="url(#fksua6i4op8wp)" points="292.5,1074,576.5,1074,583.5,1097.6094,586.5,1097.6094,586.5,1158,292.5,1158,292.5,1074" style="stroke: #000000; stroke-width: 1.5;"/>
    <line style="stroke: #000000; stroke-width: 1.5;" x1="292.5" x2="583.5" y1="1097.6094" y2="1097.6094"/>
    <text fill="#000000" font-family="sans-serif" font-size="14" font-weight="bold" lengthAdjust="spacingAndGlyphs" textLength="278" x="296.5" y="1090.5332">com.credibledoc.combiner.log.buffered</text>
    <!--cluster com.credibledoc.substitution.core.configuration-->
    <polygon fill="#FFFFFF" filter="url(#fksua6i4op8wp)" points="262.5,1182,607.5,1182,614.5,1205.6094,617.5,1205.6094,617.5,1333,262.5,1333,262.5,1182" style="stroke: #000000; stroke-width: 1.5;"/>
    <line style="stroke: #000000; stroke-width: 1.5;" x1="262.5" x2="614.5" y1="1205.6094" y2="1205.6094"/>
    <text fill="#000000" font-family="sans-serif" font-size="14" font-weight="bold" lengthAdjust="spacingAndGlyphs" textLength="339" x="266.5" y="1198.5332">com.credibledoc.substitution.core.configuration</text>
    <!--cluster com.credibledoc.enricher.transformer-->
    <polygon fill="#FFFFFF" filter="url(#fksua6i4op8wp)" points="297.5,1357,571.5,1357,578.5,1380.6094,581.5,1380.6094,581.5,1441,297.5,1441,297.5,1357" style="stroke: #000000; stroke-width: 1.5;"/>
    <line style="stroke: #000000; stroke-width: 1.5;" x1="297.5" x2="578.5" y1="1380.6094" y2="1380.6094"/>
    <text fill="#000000" font-family="sans-serif" font-size="14" font-weight="bold" lengthAdjust="spacingAndGlyphs" textLength="268" x="301.5" y="1373.5332">com.credibledoc.enricher.transformer</text>
    <!--cluster com.credibledoc.combiner.log.reader-->
    <polygon fill="#FFFFFF" filter="url(#fksua6i4op8wp)" points="300,1465,570,1465,577,1488.6094,580,1488.6094,580,1549,300,1549,300,1465" style="stroke: #000000; stroke-width: 1.5;"/>
    <line style="stroke: #000000; stroke-width: 1.5;" x1="300" x2="577" y1="1488.6094" y2="1488.6094"/>
    <text fill="#000000" font-family="sans-serif" font-size="14" font-weight="bold" lengthAdjust="spacingAndGlyphs" textLength="264" x="304" y="1481.5332">com.credibledoc.combiner.log.reader</text>
    <!--cluster com.credibledoc.enricher.printable-->
    <polygon fill="#FFFFFF" filter="url(#fksua6i4op8wp)" points="308,1573,562,1573,569,1596.6094,572,1596.6094,572,1657,308,1657,308,1573" style="stroke: #000000; stroke-width: 1.5;"/>
    <line style="stroke: #000000; stroke-width: 1.5;" x1="308" x2="569" y1="1596.6094" y2="1596.6094"/>
    <text fill="#000000" font-family="sans-serif" font-size="14" font-weight="bold" lengthAdjust="spacingAndGlyphs" textLength="248" x="312" y="1589.5332">com.credibledoc.enricher.printable</text>
    <!--cluster com.credibledoc.combiner.state-->
    <polygon fill="#FFFFFF" filter="url(#fksua6i4op8wp)" points="319,1681,551,1681,558,1704.6094,561,1704.6094,561,1765,319,1765,319,1681" style="stroke: #000000; stroke-width: 1.5;"/>
    <line style="stroke: #000000; stroke-width: 1.5;" x1="319" x2="558" y1="1704.6094" y2="1704.6094"/>
    <text fill="#000000" font-family="sans-serif" font-size="14" font-weight="bold" lengthAdjust="spacingAndGlyphs" textLength="226" x="323" y="1697.5332">com.credibledoc.combiner.state</text>
    <!--cluster com.credibledoc.combiner.file-->
    <polygon fill="#FFFFFF" filter="url(#fksua6i4op8wp)" points="325.5,1789,544.5,1789,551.5,1812.6094,554.5,1812.6094,554.5,1873,325.5,1873,325.5,1789" style="stroke: #000000; stroke-width: 1.5;"/>
    <line style="stroke: #000000; stroke-width: 1.5;" x1="325.5" x2="551.5" y1="1812.6094" y2="1812.6094"/>
    <text fill="#000000" font-family="sans-serif" font-size="14" font-weight="bold" lengthAdjust="spacingAndGlyphs" textLength="213" x="329.5" y="1805.5332">com.credibledoc.combiner.file</text>
    <!--cluster com.credibledoc.combiner.context-->
    <polygon fill="#FFFFFF" filter="url(#fksua6i4op8wp)" points="310,1897,560,1897,567,1920.6094,570,1920.6094,570,1981,310,1981,310,1897" style="stroke: #000000; stroke-width: 1.5;"/>
    <line style="stroke: #000000; stroke-width: 1.5;" x1="310" x2="567" y1="1920.6094" y2="1920.6094"/>
    <text fill="#000000" font-family="sans-serif" font-size="14" font-weight="bold" lengthAdjust="spacingAndGlyphs" textLength="244" x="314" y="1913.5332">com.credibledoc.combiner.context</text>
    <!--cluster com.credibledoc.substitution.core.template-->
    <polygon fill="#FFFFFF" filter="url(#fksua6i4op8wp)" points="278.5,2005,590.5,2005,597.5,2028.6094,600.5,2028.6094,600.5,2089,278.5,2089,278.5,2005" style="stroke: #000000; stroke-width: 1.5;"/>
    <line style="stroke: #000000; stroke-width: 1.5;" x1="278.5" x2="597.5" y1="2028.6094" y2="2028.6094"/>
    <text fill="#000000" font-family="sans-serif" font-size="14" font-weight="bold" lengthAdjust="spacingAndGlyphs" textLength="306" x="282.5" y="2021.5332">com.credibledoc.substitution.core.template</text>
    <!--cluster com.credibledoc.combiner.tactic-->
    <polygon fill="#FFFFFF" filter="url(#fksua6i4op8wp)" points="317.5,2113,552.5,2113,559.5,2136.6094,562.5,2136.6094,562.5,2197,317.5,2197,317.5,2113" style="stroke: #000000; stroke-width: 1.5;"/>
    <line style="stroke: #000000; stroke-width: 1.5;" x1="317.5" x2="559.5" y1="2136.6094" y2="2136.6094"/>
    <text fill="#000000" font-family="sans-serif" font-size="14" font-weight="bold" lengthAdjust="spacingAndGlyphs" textLength="229" x="321.5" y="2129.5332">com.credibledoc.combiner.tactic</text>
    <!--cluster com.credibledoc.plantuml.svggenerator-->
    <polygon fill="#FFFFFF" filter="url(#fksua6i4op8wp)" points="291,2221,578,2221,585,2244.6094,588,2244.6094,588,2305,291,2305,291,2221" style="stroke: #000000; stroke-width: 1.5;"/>
    <line style="stroke: #000000; stroke-width: 1.5;" x1="291" x2="585" y1="2244.6094" y2="2244.6094"/>
    <text fill="#000000" font-family="sans-serif" font-size="14" font-weight="bold" lengthAdjust="spacingAndGlyphs" textLength="281" x="295" y="2237.5332">com.credibledoc.plantuml.svggenerator</text>
    <!--cluster com.credibledoc.enricher.line-->
    <polygon fill="#FFFFFF" filter="url(#fksua6i4op8wp)" points="326,2329,543,2329,550,2352.6094,553,2352.6094,553,2413,326,2413,326,2329" style="stroke: #000000; stroke-width: 1.5;"/>
    <line style="stroke: #000000; stroke-width: 1.5;" x1="326" x2="550" y1="2352.6094" y2="2352.6094"/>
    <text fill="#000000" font-family="sans-serif" font-size="14" font-weight="bold" lengthAdjust="spacingAndGlyphs" textLength="211" x="330" y="2345.5332">com.credibledoc.enricher.line</text>
    <!--cluster com.credibledoc.plantuml.exception-->
    <polygon fill="#FFFFFF" filter="url(#fksua6i4op8wp)" points="304,2437,565,2437,572,2460.6094,575,2460.6094,575,2521,304,2521,304,2437" style="stroke: #000000; stroke-width: 1.5;"/>
    <line style="stroke: #000000; stroke-width: 1.5;" x1="304" x2="572" y1="2460.6094" y2="2460.6094"/>
    <text fill="#000000" font-family="sans-serif" font-size="14" font-weight="bold" lengthAdjust="spacingAndGlyphs" textLength="255" x="308" y="2453.5332">com.credibledoc.plantuml.exception</text>
    <!--class com.credibledoc.substitution.reporting-->
    <rect fill="#98FB98" filter="url(#fksua6i4op8wp)" height="32" id="com.credibledoc.substitution.reporting" style="stroke: #00FF7F; stroke-width: 1.5;" width="81" x="84" y="1164"/>
    <ellipse cx="99" cy="1180" fill="#20B2AA" rx="11" ry="11" style="stroke: #00FF7F; stroke-width: 1.0;"/>
    <path d="M99.625,1181.5469 L99.625,1183.2969 L101.3281,1183.2969 Q101.9531,1183.2969 102.2109,1183.5313 Q102.4688,1183.7656 102.4688,1184.1563 Q102.4688,1184.5313 102.2109,1184.7656 Q101.9531,1185 101.3281,1185 L97.6563,1185 Q97.0313,1185 96.7734,1184.7656 Q96.5156,1184.5313 96.5156,1184.1406 Q96.5156,1183.7656 96.7813,1183.5313 Q97.0469,1183.2969 97.6563,1183.2969 L97.9219,1183.2969 L97.9219,1176.6406 L97.6563,1176.6406 Q97.0313,1176.6406 96.7734,1176.4063 Q96.5156,1176.1719 96.5156,1175.7813 Q96.5156,1175.4063 96.7734,1175.1719 Q97.0313,1174.9375 97.6563,1174.9375 L101.5625,1174.9375 Q103.2969,1174.9375 104.3047,1175.8828 Q105.3125,1176.8281 105.3125,1178.1719 Q105.3125,1178.9219 104.9688,1179.5938 Q104.7188,1180.0781 104.1172,1180.5703 Q103.5156,1181.0625 102.8828,1181.3047 Q102.25,1181.5469 101.2344,1181.5469 L99.625,1181.5469 Z M99.625,1179.8438 L101.1875,1179.8438 Q102.3125,1179.8438 102.9609,1179.3438 Q103.6094,1178.8438 103.6094,1178.1406 Q103.6094,1177.5313 103.0859,1177.0859 Q102.5625,1176.6406 101.5781,1176.6406 L99.625,1176.6406 L99.625,1179.8438 Z "/>
    <text fill="#000000" font-family="sans-serif" font-size="12" lengthAdjust="spacingAndGlyphs" textLength="49" x="113" y="1184.9102">reporting</text>
    <!--class com.credibledoc.substitution.core.exception.SubstitutionRuntimeException-->
    <rect fill="#98FB98" filter="url(#fksua6i4op8wp)" height="32" id="com.credibledoc.substitution.core.exception.SubstitutionRuntimeException" style="stroke: #00FF7F; stroke-width: 1.5;" width="197" x="341" y="60"/>
    <ellipse cx="356" cy="76" fill="#9ACD32" rx="11" ry="11" style="stroke: #00FF7F; stroke-width: 1.0;"/>
    <path d="M358.7656,71.875 Q358.9219,71.6563 359.1094,71.5469 Q359.2969,71.4375 359.5156,71.4375 Q359.8906,71.4375 360.125,71.6953 Q360.3594,71.9531 360.3594,72.5625 L360.3594,74.0156 Q360.3594,74.625 360.125,74.8906 Q359.8906,75.1563 359.5156,75.1563 Q359.1719,75.1563 358.9688,74.9531 Q358.7656,74.7656 358.6563,74.25 Q358.6094,73.8906 358.4219,73.7031 Q358.0938,73.3281 357.4844,73.1094 Q356.875,72.8906 356.25,72.8906 Q355.4844,72.8906 354.8516,73.2188 Q354.2188,73.5469 353.7266,74.2969 Q353.2344,75.0469 353.2344,76.0781 L353.2344,77.1719 Q353.2344,78.4063 354.125,79.2266 Q355.0156,80.0469 356.6094,80.0469 Q357.5469,80.0469 358.2031,79.7969 Q358.5938,79.6406 359.0156,79.2031 Q359.2813,78.9375 359.4297,78.8594 Q359.5781,78.7813 359.7813,78.7813 Q360.1094,78.7813 360.3672,79.0391 Q360.625,79.2969 360.625,79.6406 Q360.625,79.9844 360.2813,80.3906 Q359.7813,80.9688 358.9844,81.2969 Q357.9063,81.75 356.6094,81.75 Q355.0938,81.75 353.8906,81.125 Q352.9063,80.625 352.2188,79.5547 Q351.5313,78.4844 351.5313,77.2031 L351.5313,76.0469 Q351.5313,74.7188 352.1484,73.5703 Q352.7656,72.4219 353.8594,71.8047 Q354.9531,71.1875 356.1875,71.1875 Q356.9219,71.1875 357.5703,71.3516 Q358.2188,71.5156 358.7656,71.875 Z "/>
    <text fill="#000000" font-family="sans-serif" font-size="12" lengthAdjust="spacingAndGlyphs" textLength="165" x="370" y="80.9102">SubstitutionRuntimeException</text>
    <!--class com.credibledoc.combiner.node.log.NodeLog-->
    <rect fill="#98FB98" filter="url(#fksua6i4op8wp)" height="32" id="com.credibledoc.combiner.node.log.NodeLog" style="stroke: #00FF7F; stroke-width: 1.5;" width="83" x="398" y="168"/>
    <ellipse cx="413" cy="184" fill="#9ACD32" rx="11" ry="11" style="stroke: #00FF7F; stroke-width: 1.0;"/>
    <path d="M415.7656,179.875 Q415.9219,179.6563 416.1094,179.5469 Q416.2969,179.4375 416.5156,179.4375 Q416.8906,179.4375 417.125,179.6953 Q417.3594,179.9531 417.3594,180.5625 L417.3594,182.0156 Q417.3594,182.625 417.125,182.8906 Q416.8906,183.1563 416.5156,183.1563 Q416.1719,183.1563 415.9688,182.9531 Q415.7656,182.7656 415.6563,182.25 Q415.6094,181.8906 415.4219,181.7031 Q415.0938,181.3281 414.4844,181.1094 Q413.875,180.8906 413.25,180.8906 Q412.4844,180.8906 411.8516,181.2188 Q411.2188,181.5469 410.7266,182.2969 Q410.2344,183.0469 410.2344,184.0781 L410.2344,185.1719 Q410.2344,186.4063 411.125,187.2266 Q412.0156,188.0469 413.6094,188.0469 Q414.5469,188.0469 415.2031,187.7969 Q415.5938,187.6406 416.0156,187.2031 Q416.2813,186.9375 416.4297,186.8594 Q416.5781,186.7813 416.7813,186.7813 Q417.1094,186.7813 417.3672,187.0391 Q417.625,187.2969 417.625,187.6406 Q417.625,187.9844 417.2813,188.3906 Q416.7813,188.9688 415.9844,189.2969 Q414.9063,189.75 413.6094,189.75 Q412.0938,189.75 410.8906,189.125 Q409.9063,188.625 409.2188,187.5547 Q408.5313,186.4844 408.5313,185.2031 L408.5313,184.0469 Q408.5313,182.7188 409.1484,181.5703 Q409.7656,180.4219 410.8594,179.8047 Q411.9531,179.1875 413.1875,179.1875 Q413.9219,179.1875 414.5703,179.3516 Q415.2188,179.5156 415.7656,179.875 Z "/>
    <text fill="#000000" font-family="sans-serif" font-size="12" lengthAdjust="spacingAndGlyphs" textLength="51" x="427" y="188.9102">NodeLog</text>
    <!--class com.credibledoc.combiner.node.log.NodeLogService-->
    <rect fill="#98FB98" filter="url(#fksua6i4op8wp)" height="32" id="com.credibledoc.combiner.node.log.NodeLogService" style="stroke: #00FF7F; stroke-width: 1.5;" width="123" x="378" y="235"/>
    <ellipse cx="393" cy="251" fill="#9ACD32" rx="11" ry="11" style="stroke: #00FF7F; stroke-width: 1.0;"/>
    <path d="M395.7656,246.875 Q395.9219,246.6563 396.1094,246.5469 Q396.2969,246.4375 396.5156,246.4375 Q396.8906,246.4375 397.125,246.6953 Q397.3594,246.9531 397.3594,247.5625 L397.3594,249.0156 Q397.3594,249.625 397.125,249.8906 Q396.8906,250.1563 396.5156,250.1563 Q396.1719,250.1563 395.9688,249.9531 Q395.7656,249.7656 395.6563,249.25 Q395.6094,248.8906 395.4219,248.7031 Q395.0938,248.3281 394.4844,248.1094 Q393.875,247.8906 393.25,247.8906 Q392.4844,247.8906 391.8516,248.2188 Q391.2188,248.5469 390.7266,249.2969 Q390.2344,250.0469 390.2344,251.0781 L390.2344,252.1719 Q390.2344,253.4063 391.125,254.2266 Q392.0156,255.0469 393.6094,255.0469 Q394.5469,255.0469 395.2031,254.7969 Q395.5938,254.6406 396.0156,254.2031 Q396.2813,253.9375 396.4297,253.8594 Q396.5781,253.7813 396.7813,253.7813 Q397.1094,253.7813 397.3672,254.0391 Q397.625,254.2969 397.625,254.6406 Q397.625,254.9844 397.2813,255.3906 Q396.7813,255.9688 395.9844,256.2969 Q394.9063,256.75 393.6094,256.75 Q392.0938,256.75 390.8906,256.125 Q389.9063,255.625 389.2188,254.5547 Q388.5313,253.4844 388.5313,252.2031 L388.5313,251.0469 Q388.5313,249.7188 389.1484,248.5703 Q389.7656,247.4219 390.8594,246.8047 Q391.9531,246.1875 393.1875,246.1875 Q393.9219,246.1875 394.5703,246.3516 Q395.2188,246.5156 395.7656,246.875 Z "/>
    <text fill="#000000" font-family="sans-serif" font-size="12" lengthAdjust="spacingAndGlyphs" textLength="91" x="407" y="255.9102">NodeLogService</text>
    <!--class com.credibledoc.combiner.node.file.NodeFile-->
    <rect fill="#98FB98" filter="url(#fksua6i4op8wp)" height="32" id="com.credibledoc.combiner.node.file.NodeFile" style="stroke: #00FF7F; stroke-width: 1.5;" width="82" x="398.5" y="343"/>
    <ellipse cx="413.5" cy="359" fill="#9ACD32" rx="11" ry="11" style="stroke: #00FF7F; stroke-width: 1.0;"/>
    <path d="M416.2656,354.875 Q416.4219,354.6563 416.6094,354.5469 Q416.7969,354.4375 417.0156,354.4375 Q417.3906,354.4375 417.625,354.6953 Q417.8594,354.9531 417.8594,355.5625 L417.8594,357.0156 Q417.8594,357.625 417.625,357.8906 Q417.3906,358.1563 417.0156,358.1563 Q416.6719,358.1563 416.4688,357.9531 Q416.2656,357.7656 416.1563,357.25 Q416.1094,356.8906 415.9219,356.7031 Q415.5938,356.3281 414.9844,356.1094 Q414.375,355.8906 413.75,355.8906 Q412.9844,355.8906 412.3516,356.2188 Q411.7188,356.5469 411.2266,357.2969 Q410.7344,358.0469 410.7344,359.0781 L410.7344,360.1719 Q410.7344,361.4063 411.625,362.2266 Q412.5156,363.0469 414.1094,363.0469 Q415.0469,363.0469 415.7031,362.7969 Q416.0938,362.6406 416.5156,362.2031 Q416.7813,361.9375 416.9297,361.8594 Q417.0781,361.7813 417.2813,361.7813 Q417.6094,361.7813 417.8672,362.0391 Q418.125,362.2969 418.125,362.6406 Q418.125,362.9844 417.7813,363.3906 Q417.2813,363.9688 416.4844,364.2969 Q415.4063,364.75 414.1094,364.75 Q412.5938,364.75 411.3906,364.125 Q410.4063,363.625 409.7188,362.5547 Q409.0313,361.4844 409.0313,360.2031 L409.0313,359.0469 Q409.0313,357.7188 409.6484,356.5703 Q410.2656,355.4219 411.3594,354.8047 Q412.4531,354.1875 413.6875,354.1875 Q414.4219,354.1875 415.0703,354.3516 Q415.7188,354.5156 416.2656,354.875 Z "/>
    <text fill="#000000" font-family="sans-serif" font-size="12" lengthAdjust="spacingAndGlyphs" textLength="50" x="427.5" y="363.9102">NodeFile</text>
    <!--class com.credibledoc.combiner.node.file.NodeFileService-->
    <rect fill="#98FB98" filter="url(#fksua6i4op8wp)" height="32" id="com.credibledoc.combiner.node.file.NodeFileService" style="stroke: #00FF7F; stroke-width: 1.5;" width="122" x="378.5" y="410"/>
    <ellipse cx="393.5" cy="426" fill="#9ACD32" rx="11" ry="11" style="stroke: #00FF7F; stroke-width: 1.0;"/>
    <path d="M396.2656,421.875 Q396.4219,421.6563 396.6094,421.5469 Q396.7969,421.4375 397.0156,421.4375 Q397.3906,421.4375 397.625,421.6953 Q397.8594,421.9531 397.8594,422.5625 L397.8594,424.0156 Q397.8594,424.625 397.625,424.8906 Q397.3906,425.1563 397.0156,425.1563 Q396.6719,425.1563 396.4688,424.9531 Q396.2656,424.7656 396.1563,424.25 Q396.1094,423.8906 395.9219,423.7031 Q395.5938,423.3281 394.9844,423.1094 Q394.375,422.8906 393.75,422.8906 Q392.9844,422.8906 392.3516,423.2188 Q391.7188,423.5469 391.2266,424.2969 Q390.7344,425.0469 390.7344,426.0781 L390.7344,427.1719 Q390.7344,428.4063 391.625,429.2266 Q392.5156,430.0469 394.1094,430.0469 Q395.0469,430.0469 395.7031,429.7969 Q396.0938,429.6406 396.5156,429.2031 Q396.7813,428.9375 396.9297,428.8594 Q397.0781,428.7813 397.2813,428.7813 Q397.6094,428.7813 397.8672,429.0391 Q398.125,429.2969 398.125,429.6406 Q398.125,429.9844 397.7813,430.3906 Q397.2813,430.9688 396.4844,431.2969 Q395.4063,431.75 394.1094,431.75 Q392.5938,431.75 391.3906,431.125 Q390.4063,430.625 389.7188,429.5547 Q389.0313,428.4844 389.0313,427.2031 L389.0313,426.0469 Q389.0313,424.7188 389.6484,423.5703 Q390.2656,422.4219 391.3594,421.8047 Q392.4531,421.1875 393.6875,421.1875 Q394.4219,421.1875 395.0703,421.3516 Q395.7188,421.5156 396.2656,421.875 Z "/>
    <text fill="#000000" font-family="sans-serif" font-size="12" lengthAdjust="spacingAndGlyphs" textLength="90" x="407.5" y="430.9102">NodeFileService</text>
    <!--class com.credibledoc.substitution.core.content.ContentGeneratorService-->
    <rect fill="#98FB98" filter="url(#fksua6i4op8wp)" height="32" id="com.credibledoc.substitution.core.content.ContentGeneratorService" style="stroke: #00FF7F; stroke-width: 1.5;" width="170" x="354.5" y="518"/>
    <ellipse cx="369.5" cy="534" fill="#9ACD32" rx="11" ry="11" style="stroke: #00FF7F; stroke-width: 1.0;"/>
    <path d="M372.2656,529.875 Q372.4219,529.6563 372.6094,529.5469 Q372.7969,529.4375 373.0156,529.4375 Q373.3906,529.4375 373.625,529.6953 Q373.8594,529.9531 373.8594,530.5625 L373.8594,532.0156 Q373.8594,532.625 373.625,532.8906 Q373.3906,533.1563 373.0156,533.1563 Q372.6719,533.1563 372.4688,532.9531 Q372.2656,532.7656 372.1563,532.25 Q372.1094,531.8906 371.9219,531.7031 Q371.5938,531.3281 370.9844,531.1094 Q370.375,530.8906 369.75,530.8906 Q368.9844,530.8906 368.3516,531.2188 Q367.7188,531.5469 367.2266,532.2969 Q366.7344,533.0469 366.7344,534.0781 L366.7344,535.1719 Q366.7344,536.4063 367.625,537.2266 Q368.5156,538.0469 370.1094,538.0469 Q371.0469,538.0469 371.7031,537.7969 Q372.0938,537.6406 372.5156,537.2031 Q372.7813,536.9375 372.9297,536.8594 Q373.0781,536.7813 373.2813,536.7813 Q373.6094,536.7813 373.8672,537.0391 Q374.125,537.2969 374.125,537.6406 Q374.125,537.9844 373.7813,538.3906 Q373.2813,538.9688 372.4844,539.2969 Q371.4063,539.75 370.1094,539.75 Q368.5938,539.75 367.3906,539.125 Q366.4063,538.625 365.7188,537.5547 Q365.0313,536.4844 365.0313,535.2031 L365.0313,534.0469 Q365.0313,532.7188 365.6484,531.5703 Q366.2656,530.4219 367.3594,529.8047 Q368.4531,529.1875 369.6875,529.1875 Q370.4219,529.1875 371.0703,529.3516 Q371.7188,529.5156 372.2656,529.875 Z "/>
    <text fill="#000000" font-family="sans-serif" font-size="12" lengthAdjust="spacingAndGlyphs" textLength="138" x="383.5" y="538.9102">ContentGeneratorService</text>
    <!--class com.credibledoc.substitution.core.content.Content-->
    <rect fill="#98FB98" filter="url(#fksua6i4op8wp)" height="32" id="com.credibledoc.substitution.core.content.Content" style="stroke: #00FF7F; stroke-width: 1.5;" width="75" x="402" y="585"/>
    <ellipse cx="417" cy="601" fill="#9ACD32" rx="11" ry="11" style="stroke: #00FF7F; stroke-width: 1.0;"/>
    <path d="M419.7656,596.875 Q419.9219,596.6563 420.1094,596.5469 Q420.2969,596.4375 420.5156,596.4375 Q420.8906,596.4375 421.125,596.6953 Q421.3594,596.9531 421.3594,597.5625 L421.3594,599.0156 Q421.3594,599.625 421.125,599.8906 Q420.8906,600.1563 420.5156,600.1563 Q420.1719,600.1563 419.9688,599.9531 Q419.7656,599.7656 419.6563,599.25 Q419.6094,598.8906 419.4219,598.7031 Q419.0938,598.3281 418.4844,598.1094 Q417.875,597.8906 417.25,597.8906 Q416.4844,597.8906 415.8516,598.2188 Q415.2188,598.5469 414.7266,599.2969 Q414.2344,600.0469 414.2344,601.0781 L414.2344,602.1719 Q414.2344,603.4063 415.125,604.2266 Q416.0156,605.0469 417.6094,605.0469 Q418.5469,605.0469 419.2031,604.7969 Q419.5938,604.6406 420.0156,604.2031 Q420.2813,603.9375 420.4297,603.8594 Q420.5781,603.7813 420.7813,603.7813 Q421.1094,603.7813 421.3672,604.0391 Q421.625,604.2969 421.625,604.6406 Q421.625,604.9844 421.2813,605.3906 Q420.7813,605.9688 419.9844,606.2969 Q418.9063,606.75 417.6094,606.75 Q416.0938,606.75 414.8906,606.125 Q413.9063,605.625 413.2188,604.5547 Q412.5313,603.4844 412.5313,602.2031 L412.5313,601.0469 Q412.5313,599.7188 413.1484,598.5703 Q413.7656,597.4219 414.8594,596.8047 Q415.9531,596.1875 417.1875,596.1875 Q417.9219,596.1875 418.5703,596.3516 Q419.2188,596.5156 419.7656,596.875 Z "/>
    <text fill="#000000" font-family="sans-serif" font-size="12" lengthAdjust="spacingAndGlyphs" textLength="43" x="431" y="605.9102">Content</text>
    <!--class com.credibledoc.substitution.core.content.ContentGenerator-->
    <rect fill="#98FB98" filter="url(#fksua6i4op8wp)" height="32" id="com.credibledoc.substitution.core.content.ContentGenerator" style="stroke: #00FF7F; stroke-width: 1.5;" width="130" x="374.5" y="652"/>
    <ellipse cx="389.5" cy="668" fill="#9ACD32" rx="11" ry="11" style="stroke: #00FF7F; stroke-width: 1.0;"/>
    <path d="M392.2656,663.875 Q392.4219,663.6563 392.6094,663.5469 Q392.7969,663.4375 393.0156,663.4375 Q393.3906,663.4375 393.625,663.6953 Q393.8594,663.9531 393.8594,664.5625 L393.8594,666.0156 Q393.8594,666.625 393.625,666.8906 Q393.3906,667.1563 393.0156,667.1563 Q392.6719,667.1563 392.4688,666.9531 Q392.2656,666.7656 392.1563,666.25 Q392.1094,665.8906 391.9219,665.7031 Q391.5938,665.3281 390.9844,665.1094 Q390.375,664.8906 389.75,664.8906 Q388.9844,664.8906 388.3516,665.2188 Q387.7188,665.5469 387.2266,666.2969 Q386.7344,667.0469 386.7344,668.0781 L386.7344,669.1719 Q386.7344,670.4063 387.625,671.2266 Q388.5156,672.0469 390.1094,672.0469 Q391.0469,672.0469 391.7031,671.7969 Q392.0938,671.6406 392.5156,671.2031 Q392.7813,670.9375 392.9297,670.8594 Q393.0781,670.7813 393.2813,670.7813 Q393.6094,670.7813 393.8672,671.0391 Q394.125,671.2969 394.125,671.6406 Q394.125,671.9844 393.7813,672.3906 Q393.2813,672.9688 392.4844,673.2969 Q391.4063,673.75 390.1094,673.75 Q388.5938,673.75 387.3906,673.125 Q386.4063,672.625 385.7188,671.5547 Q385.0313,670.4844 385.0313,669.2031 L385.0313,668.0469 Q385.0313,666.7188 385.6484,665.5703 Q386.2656,664.4219 387.3594,663.8047 Q388.4531,663.1875 389.6875,663.1875 Q390.4219,663.1875 391.0703,663.3516 Q391.7188,663.5156 392.2656,663.875 Z "/>
    <text fill="#000000" font-family="sans-serif" font-size="12" lengthAdjust="spacingAndGlyphs" textLength="98" x="403.5" y="672.9102">ContentGenerator</text>
    <!--class com.credibledoc.substitution.core.placeholder.PlaceholderService-->
    <rect fill="#98FB98" filter="url(#fksua6i4op8wp)" height="32" id="com.credibledoc.substitution.core.placeholder.PlaceholderService" style="stroke: #00FF7F; stroke-width: 1.5;" width="138" x="370.5" y="760"/>
    <ellipse cx="385.5" cy="776" fill="#9ACD32" rx="11" ry="11" style="stroke: #00FF7F; stroke-width: 1.0;"/>
    <path d="M388.2656,771.875 Q388.4219,771.6563 388.6094,771.5469 Q388.7969,771.4375 389.0156,771.4375 Q389.3906,771.4375 389.625,771.6953 Q389.8594,771.9531 389.8594,772.5625 L389.8594,774.0156 Q389.8594,774.625 389.625,774.8906 Q389.3906,775.1563 389.0156,775.1563 Q388.6719,775.1563 388.4688,774.9531 Q388.2656,774.7656 388.1563,774.25 Q388.1094,773.8906 387.9219,773.7031 Q387.5938,773.3281 386.9844,773.1094 Q386.375,772.8906 385.75,772.8906 Q384.9844,772.8906 384.3516,773.2188 Q383.7188,773.5469 383.2266,774.2969 Q382.7344,775.0469 382.7344,776.0781 L382.7344,777.1719 Q382.7344,778.4063 383.625,779.2266 Q384.5156,780.0469 386.1094,780.0469 Q387.0469,780.0469 387.7031,779.7969 Q388.0938,779.6406 388.5156,779.2031 Q388.7813,778.9375 388.9297,778.8594 Q389.0781,778.7813 389.2813,778.7813 Q389.6094,778.7813 389.8672,779.0391 Q390.125,779.2969 390.125,779.6406 Q390.125,779.9844 389.7813,780.3906 Q389.2813,780.9688 388.4844,781.2969 Q387.4063,781.75 386.1094,781.75 Q384.5938,781.75 383.3906,781.125 Q382.4063,780.625 381.7188,779.5547 Q381.0313,778.4844 381.0313,777.2031 L381.0313,776.0469 Q381.0313,774.7188 381.6484,773.5703 Q382.2656,772.4219 383.3594,771.8047 Q384.4531,771.1875 385.6875,771.1875 Q386.4219,771.1875 387.0703,771.3516 Q387.7188,771.5156 388.2656,771.875 Z "/>
    <text fill="#000000" font-family="sans-serif" font-size="12" lengthAdjust="spacingAndGlyphs" textLength="106" x="399.5" y="780.9102">PlaceholderService</text>
    <!--class com.credibledoc.substitution.core.placeholder.Placeholder-->
    <rect fill="#98FB98" filter="url(#fksua6i4op8wp)" height="32" id="com.credibledoc.substitution.core.placeholder.Placeholder" style="stroke: #00FF7F; stroke-width: 1.5;" width="98" x="390.5" y="827"/>
    <ellipse cx="405.5" cy="843" fill="#9ACD32" rx="11" ry="11" style="stroke: #00FF7F; stroke-width: 1.0;"/>
    <path d="M408.2656,838.875 Q408.4219,838.6563 408.6094,838.5469 Q408.7969,838.4375 409.0156,838.4375 Q409.3906,838.4375 409.625,838.6953 Q409.8594,838.9531 409.8594,839.5625 L409.8594,841.0156 Q409.8594,841.625 409.625,841.8906 Q409.3906,842.1563 409.0156,842.1563 Q408.6719,842.1563 408.4688,841.9531 Q408.2656,841.7656 408.1563,841.25 Q408.1094,840.8906 407.9219,840.7031 Q407.5938,840.3281 406.9844,840.1094 Q406.375,839.8906 405.75,839.8906 Q404.9844,839.8906 404.3516,840.2188 Q403.7188,840.5469 403.2266,841.2969 Q402.7344,842.0469 402.7344,843.0781 L402.7344,844.1719 Q402.7344,845.4063 403.625,846.2266 Q404.5156,847.0469 406.1094,847.0469 Q407.0469,847.0469 407.7031,846.7969 Q408.0938,846.6406 408.5156,846.2031 Q408.7813,845.9375 408.9297,845.8594 Q409.0781,845.7813 409.2813,845.7813 Q409.6094,845.7813 409.8672,846.0391 Q410.125,846.2969 410.125,846.6406 Q410.125,846.9844 409.7813,847.3906 Q409.2813,847.9688 408.4844,848.2969 Q407.4063,848.75 406.1094,848.75 Q404.5938,848.75 403.3906,848.125 Q402.4063,847.625 401.7188,846.5547 Q401.0313,845.4844 401.0313,844.2031 L401.0313,843.0469 Q401.0313,841.7188 401.6484,840.5703 Q402.2656,839.4219 403.3594,838.8047 Q404.4531,838.1875 405.6875,838.1875 Q406.4219,838.1875 407.0703,838.3516 Q407.7188,838.5156 408.2656,838.875 Z "/>
    <text fill="#000000" font-family="sans-serif" font-size="12" lengthAdjust="spacingAndGlyphs" textLength="66" x="419.5" y="847.9102">Placeholder</text>
    <!--class com.credibledoc.substitution.core.resource.TemplateResource-->
    <rect fill="#98FB98" filter="url(#fksua6i4op8wp)" height="32" id="com.credibledoc.substitution.core.resource.TemplateResource" style="stroke: #00FF7F; stroke-width: 1.5;" width="138" x="370.5" y="935"/>
    <ellipse cx="385.5" cy="951" fill="#9ACD32" rx="11" ry="11" style="stroke: #00FF7F; stroke-width: 1.0;"/>
    <path d="M388.2656,946.875 Q388.4219,946.6563 388.6094,946.5469 Q388.7969,946.4375 389.0156,946.4375 Q389.3906,946.4375 389.625,946.6953 Q389.8594,946.9531 389.8594,947.5625 L389.8594,949.0156 Q389.8594,949.625 389.625,949.8906 Q389.3906,950.1563 389.0156,950.1563 Q388.6719,950.1563 388.4688,949.9531 Q388.2656,949.7656 388.1563,949.25 Q388.1094,948.8906 387.9219,948.7031 Q387.5938,948.3281 386.9844,948.1094 Q386.375,947.8906 385.75,947.8906 Q384.9844,947.8906 384.3516,948.2188 Q383.7188,948.5469 383.2266,949.2969 Q382.7344,950.0469 382.7344,951.0781 L382.7344,952.1719 Q382.7344,953.4063 383.625,954.2266 Q384.5156,955.0469 386.1094,955.0469 Q387.0469,955.0469 387.7031,954.7969 Q388.0938,954.6406 388.5156,954.2031 Q388.7813,953.9375 388.9297,953.8594 Q389.0781,953.7813 389.2813,953.7813 Q389.6094,953.7813 389.8672,954.0391 Q390.125,954.2969 390.125,954.6406 Q390.125,954.9844 389.7813,955.3906 Q389.2813,955.9688 388.4844,956.2969 Q387.4063,956.75 386.1094,956.75 Q384.5938,956.75 383.3906,956.125 Q382.4063,955.625 381.7188,954.5547 Q381.0313,953.4844 381.0313,952.2031 L381.0313,951.0469 Q381.0313,949.7188 381.6484,948.5703 Q382.2656,947.4219 383.3594,946.8047 Q384.4531,946.1875 385.6875,946.1875 Q386.4219,946.1875 387.0703,946.3516 Q387.7188,946.5156 388.2656,946.875 Z "/>
    <text fill="#000000" font-family="sans-serif" font-size="12" lengthAdjust="spacingAndGlyphs" textLength="106" x="399.5" y="955.9102">TemplateResource</text>
    <!--class com.credibledoc.substitution.core.resource.ResourceService-->
    <rect fill="#98FB98" filter="url(#fksua6i4op8wp)" height="32" id="com.credibledoc.substitution.core.resource.ResourceService" style="stroke: #00FF7F; stroke-width: 1.5;" width="126" x="376.5" y="1002"/>
    <ellipse cx="391.5" cy="1018" fill="#9ACD32" rx="11" ry="11" style="stroke: #00FF7F; stroke-width: 1.0;"/>
    <path d="M394.2656,1013.875 Q394.4219,1013.6563 394.6094,1013.5469 Q394.7969,1013.4375 395.0156,1013.4375 Q395.3906,1013.4375 395.625,1013.6953 Q395.8594,1013.9531 395.8594,1014.5625 L395.8594,1016.0156 Q395.8594,1016.625 395.625,1016.8906 Q395.3906,1017.1563 395.0156,1017.1563 Q394.6719,1017.1563 394.4688,1016.9531 Q394.2656,1016.7656 394.1563,1016.25 Q394.1094,1015.8906 393.9219,1015.7031 Q393.5938,1015.3281 392.9844,1015.1094 Q392.375,1014.8906 391.75,1014.8906 Q390.9844,1014.8906 390.3516,1015.2188 Q389.7188,1015.5469 389.2266,1016.2969 Q388.7344,1017.0469 388.7344,1018.0781 L388.7344,1019.1719 Q388.7344,1020.4063 389.625,1021.2266 Q390.5156,1022.0469 392.1094,1022.0469 Q393.0469,1022.0469 393.7031,1021.7969 Q394.0938,1021.6406 394.5156,1021.2031 Q394.7813,1020.9375 394.9297,1020.8594 Q395.0781,1020.7813 395.2813,1020.7813 Q395.6094,1020.7813 395.8672,1021.0391 Q396.125,1021.2969 396.125,1021.6406 Q396.125,1021.9844 395.7813,1022.3906 Q395.2813,1022.9688 394.4844,1023.2969 Q393.4063,1023.75 392.1094,1023.75 Q390.5938,1023.75 389.3906,1023.125 Q388.4063,1022.625 387.7188,1021.5547 Q387.0313,1020.4844 387.0313,1019.2031 L387.0313,1018.0469 Q387.0313,1016.7188 387.6484,1015.5703 Q388.2656,1014.4219 389.3594,1013.8047 Q390.4531,1013.1875 391.6875,1013.1875 Q392.4219,1013.1875 393.0703,1013.3516 Q393.7188,1013.5156 394.2656,1013.875 Z "/>
    <text fill="#000000" font-family="sans-serif" font-size="12" lengthAdjust="spacingAndGlyphs" textLength="94" x="405.5" y="1022.9102">ResourceService</text>
    <!--class com.credibledoc.combiner.log.buffered.LogBufferedReader-->
    <rect fill="#98FB98" filter="url(#fksua6i4op8wp)" height="32" id="com.credibledoc.combiner.log.buffered.LogBufferedReader" style="stroke: #00FF7F; stroke-width: 1.5;" width="140" x="369.5" y="1110"/>
    <ellipse cx="384.5" cy="1126" fill="#9ACD32" rx="11" ry="11" style="stroke: #00FF7F; stroke-width: 1.0;"/>
    <path d="M387.2656,1121.875 Q387.4219,1121.6563 387.6094,1121.5469 Q387.7969,1121.4375 388.0156,1121.4375 Q388.3906,1121.4375 388.625,1121.6953 Q388.8594,1121.9531 388.8594,1122.5625 L388.8594,1124.0156 Q388.8594,1124.625 388.625,1124.8906 Q388.3906,1125.1563 388.0156,1125.1563 Q387.6719,1125.1563 387.4688,1124.9531 Q387.2656,1124.7656 387.1563,1124.25 Q387.1094,1123.8906 386.9219,1123.7031 Q386.5938,1123.3281 385.9844,1123.1094 Q385.375,1122.8906 384.75,1122.8906 Q383.9844,1122.8906 383.3516,1123.2188 Q382.7188,1123.5469 382.2266,1124.2969 Q381.7344,1125.0469 381.7344,1126.0781 L381.7344,1127.1719 Q381.7344,1128.4063 382.625,1129.2266 Q383.5156,1130.0469 385.1094,1130.0469 Q386.0469,1130.0469 386.7031,1129.7969 Q387.0938,1129.6406 387.5156,1129.2031 Q387.7813,1128.9375 387.9297,1128.8594 Q388.0781,1128.7813 388.2813,1128.7813 Q388.6094,1128.7813 388.8672,1129.0391 Q389.125,1129.2969 389.125,1129.6406 Q389.125,1129.9844 388.7813,1130.3906 Q388.2813,1130.9688 387.4844,1131.2969 Q386.4063,1131.75 385.1094,1131.75 Q383.5938,1131.75 382.3906,1131.125 Q381.4063,1130.625 380.7188,1129.5547 Q380.0313,1128.4844 380.0313,1127.2031 L380.0313,1126.0469 Q380.0313,1124.7188 380.6484,1123.5703 Q381.2656,1122.4219 382.3594,1121.8047 Q383.4531,1121.1875 384.6875,1121.1875 Q385.4219,1121.1875 386.0703,1121.3516 Q386.7188,1121.5156 387.2656,1121.875 Z "/>
    <text fill="#000000" font-family="sans-serif" font-size="12" lengthAdjust="spacingAndGlyphs" textLength="108" x="398.5" y="1130.9102">LogBufferedReader</text>
    <!--class com.credibledoc.substitution.core.configuration.ConfigurationService-->
    <rect fill="#98FB98" filter="url(#fksua6i4op8wp)" height="32" id="com.credibledoc.substitution.core.configuration.ConfigurationService" style="stroke: #00FF7F; stroke-width: 1.5;" width="146" x="366.5" y="1218"/>
    <ellipse cx="381.5" cy="1234" fill="#9ACD32" rx="11" ry="11" style="stroke: #00FF7F; stroke-width: 1.0;"/>
    <path d="M384.2656,1229.875 Q384.4219,1229.6563 384.6094,1229.5469 Q384.7969,1229.4375 385.0156,1229.4375 Q385.3906,1229.4375 385.625,1229.6953 Q385.8594,1229.9531 385.8594,1230.5625 L385.8594,1232.0156 Q385.8594,1232.625 385.625,1232.8906 Q385.3906,1233.1563 385.0156,1233.1563 Q384.6719,1233.1563 384.4688,1232.9531 Q384.2656,1232.7656 384.1563,1232.25 Q384.1094,1231.8906 383.9219,1231.7031 Q383.5938,1231.3281 382.9844,1231.1094 Q382.375,1230.8906 381.75,1230.8906 Q380.9844,1230.8906 380.3516,1231.2188 Q379.7188,1231.5469 379.2266,1232.2969 Q378.7344,1233.0469 378.7344,1234.0781 L378.7344,1235.1719 Q378.7344,1236.4063 379.625,1237.2266 Q380.5156,1238.0469 382.1094,1238.0469 Q383.0469,1238.0469 383.7031,1237.7969 Q384.0938,1237.6406 384.5156,1237.2031 Q384.7813,1236.9375 384.9297,1236.8594 Q385.0781,1236.7813 385.2813,1236.7813 Q385.6094,1236.7813 385.8672,1237.0391 Q386.125,1237.2969 386.125,1237.6406 Q386.125,1237.9844 385.7813,1238.3906 Q385.2813,1238.9688 384.4844,1239.2969 Q383.4063,1239.75 382.1094,1239.75 Q380.5938,1239.75 379.3906,1239.125 Q378.4063,1238.625 377.7188,1237.5547 Q377.0313,1236.4844 377.0313,1235.2031 L377.0313,1234.0469 Q377.0313,1232.7188 377.6484,1231.5703 Q378.2656,1230.4219 379.3594,1229.8047 Q380.4531,1229.1875 381.6875,1229.1875 Q382.4219,1229.1875 383.0703,1229.3516 Q383.7188,1229.5156 384.2656,1229.875 Z "/>
    <text fill="#000000" font-family="sans-serif" font-size="12" lengthAdjust="spacingAndGlyphs" textLength="114" x="395.5" y="1238.9102">ConfigurationService</text>
    <!--class com.credibledoc.substitution.core.configuration.Configuration-->
    <rect fill="#98FB98" filter="url(#fksua6i4op8wp)" height="32" id="com.credibledoc.substitution.core.configuration.Configuration" style="stroke: #00FF7F; stroke-width: 1.5;" width="106" x="386.5" y="1285"/>
    <ellipse cx="401.5" cy="1301" fill="#9ACD32" rx="11" ry="11" style="stroke: #00FF7F; stroke-width: 1.0;"/>
    <path d="M404.2656,1296.875 Q404.4219,1296.6563 404.6094,1296.5469 Q404.7969,1296.4375 405.0156,1296.4375 Q405.3906,1296.4375 405.625,1296.6953 Q405.8594,1296.9531 405.8594,1297.5625 L405.8594,1299.0156 Q405.8594,1299.625 405.625,1299.8906 Q405.3906,1300.1563 405.0156,1300.1563 Q404.6719,1300.1563 404.4688,1299.9531 Q404.2656,1299.7656 404.1563,1299.25 Q404.1094,1298.8906 403.9219,1298.7031 Q403.5938,1298.3281 402.9844,1298.1094 Q402.375,1297.8906 401.75,1297.8906 Q400.9844,1297.8906 400.3516,1298.2188 Q399.7188,1298.5469 399.2266,1299.2969 Q398.7344,1300.0469 398.7344,1301.0781 L398.7344,1302.1719 Q398.7344,1303.4063 399.625,1304.2266 Q400.5156,1305.0469 402.1094,1305.0469 Q403.0469,1305.0469 403.7031,1304.7969 Q404.0938,1304.6406 404.5156,1304.2031 Q404.7813,1303.9375 404.9297,1303.8594 Q405.0781,1303.7813 405.2813,1303.7813 Q405.6094,1303.7813 405.8672,1304.0391 Q406.125,1304.2969 406.125,1304.6406 Q406.125,1304.9844 405.7813,1305.3906 Q405.2813,1305.9688 404.4844,1306.2969 Q403.4063,1306.75 402.1094,1306.75 Q400.5938,1306.75 399.3906,1306.125 Q398.4063,1305.625 397.7188,1304.5547 Q397.0313,1303.4844 397.0313,1302.2031 L397.0313,1301.0469 Q397.0313,1299.7188 397.6484,1298.5703 Q398.2656,1297.4219 399.3594,1296.8047 Q400.4531,1296.1875 401.6875,1296.1875 Q402.4219,1296.1875 403.0703,1296.3516 Q403.7188,1296.5156 404.2656,1296.875 Z "/>
    <text fill="#000000" font-family="sans-serif" font-size="12" lengthAdjust="spacingAndGlyphs" textLength="74" x="415.5" y="1305.9102">Configuration</text>
    <!--class com.credibledoc.enricher.transformer.TransformerService-->
    <rect fill="#98FB98" filter="url(#fksua6i4op8wp)" height="32" id="com.credibledoc.enricher.transformer.TransformerService" style="stroke: #00FF7F; stroke-width: 1.5;" width="140" x="369.5" y="1393"/>
    <ellipse cx="384.5" cy="1409" fill="#9ACD32" rx="11" ry="11" style="stroke: #00FF7F; stroke-width: 1.0;"/>
    <path d="M387.2656,1404.875 Q387.4219,1404.6563 387.6094,1404.5469 Q387.7969,1404.4375 388.0156,1404.4375 Q388.3906,1404.4375 388.625,1404.6953 Q388.8594,1404.9531 388.8594,1405.5625 L388.8594,1407.0156 Q388.8594,1407.625 388.625,1407.8906 Q388.3906,1408.1563 388.0156,1408.1563 Q387.6719,1408.1563 387.4688,1407.9531 Q387.2656,1407.7656 387.1563,1407.25 Q387.1094,1406.8906 386.9219,1406.7031 Q386.5938,1406.3281 385.9844,1406.1094 Q385.375,1405.8906 384.75,1405.8906 Q383.9844,1405.8906 383.3516,1406.2188 Q382.7188,1406.5469 382.2266,1407.2969 Q381.7344,1408.0469 381.7344,1409.0781 L381.7344,1410.1719 Q381.7344,1411.4063 382.625,1412.2266 Q383.5156,1413.0469 385.1094,1413.0469 Q386.0469,1413.0469 386.7031,1412.7969 Q387.0938,1412.6406 387.5156,1412.2031 Q387.7813,1411.9375 387.9297,1411.8594 Q388.0781,1411.7813 388.2813,1411.7813 Q388.6094,1411.7813 388.8672,1412.0391 Q389.125,1412.2969 389.125,1412.6406 Q389.125,1412.9844 388.7813,1413.3906 Q388.2813,1413.9688 387.4844,1414.2969 Q386.4063,1414.75 385.1094,1414.75 Q383.5938,1414.75 382.3906,1414.125 Q381.4063,1413.625 380.7188,1412.5547 Q380.0313,1411.4844 380.0313,1410.2031 L380.0313,1409.0469 Q380.0313,1407.7188 380.6484,1406.5703 Q381.2656,1405.4219 382.3594,1404.8047 Q383.4531,1404.1875 384.6875,1404.1875 Q385.4219,1404.1875 386.0703,1404.3516 Q386.7188,1404.5156 387.2656,1404.875 Z "/>
    <text fill="#000000" font-family="sans-serif" font-size="12" lengthAdjust="spacingAndGlyphs" textLength="108" x="398.5" y="1413.9102">TransformerService</text>
    <!--class com.credibledoc.combiner.log.reader.ReaderService-->
    <rect fill="#98FB98" filter="url(#fksua6i4op8wp)" height="32" id="com.credibledoc.combiner.log.reader.ReaderService" style="stroke: #00FF7F; stroke-width: 1.5;" width="113" x="383" y="1501"/>
    <ellipse cx="398" cy="1517" fill="#9ACD32" rx="11" ry="11" style="stroke: #00FF7F; stroke-width: 1.0;"/>
    <path d="M400.7656,1512.875 Q400.9219,1512.6563 401.1094,1512.5469 Q401.2969,1512.4375 401.5156,1512.4375 Q401.8906,1512.4375 402.125,1512.6953 Q402.3594,1512.9531 402.3594,1513.5625 L402.3594,1515.0156 Q402.3594,1515.625 402.125,1515.8906 Q401.8906,1516.1563 401.5156,1516.1563 Q401.1719,1516.1563 400.9688,1515.9531 Q400.7656,1515.7656 400.6563,1515.25 Q400.6094,1514.8906 400.4219,1514.7031 Q400.0938,1514.3281 399.4844,1514.1094 Q398.875,1513.8906 398.25,1513.8906 Q397.4844,1513.8906 396.8516,1514.2188 Q396.2188,1514.5469 395.7266,1515.2969 Q395.2344,1516.0469 395.2344,1517.0781 L395.2344,1518.1719 Q395.2344,1519.4063 396.125,1520.2266 Q397.0156,1521.0469 398.6094,1521.0469 Q399.5469,1521.0469 400.2031,1520.7969 Q400.5938,1520.6406 401.0156,1520.2031 Q401.2813,1519.9375 401.4297,1519.8594 Q401.5781,1519.7813 401.7813,1519.7813 Q402.1094,1519.7813 402.3672,1520.0391 Q402.625,1520.2969 402.625,1520.6406 Q402.625,1520.9844 402.2813,1521.3906 Q401.7813,1521.9688 400.9844,1522.2969 Q399.9063,1522.75 398.6094,1522.75 Q397.0938,1522.75 395.8906,1522.125 Q394.9063,1521.625 394.2188,1520.5547 Q393.5313,1519.4844 393.5313,1518.2031 L393.5313,1517.0469 Q393.5313,1515.7188 394.1484,1514.5703 Q394.7656,1513.4219 395.8594,1512.8047 Q396.9531,1512.1875 398.1875,1512.1875 Q398.9219,1512.1875 399.5703,1512.3516 Q400.2188,1512.5156 400.7656,1512.875 Z "/>
    <text fill="#000000" font-family="sans-serif" font-size="12" lengthAdjust="spacingAndGlyphs" textLength="81" x="412" y="1521.9102">ReaderService</text>
    <!--class com.credibledoc.enricher.printable.Printable-->
    <rect fill="#98FB98" filter="url(#fksua6i4op8wp)" height="32" id="com.credibledoc.enricher.printable.Printable" style="stroke: #00FF7F; stroke-width: 1.5;" width="81" x="399" y="1609"/>
    <ellipse cx="414" cy="1625" fill="#9ACD32" rx="11" ry="11" style="stroke: #00FF7F; stroke-width: 1.0;"/>
    <path d="M416.7656,1620.875 Q416.9219,1620.6563 417.1094,1620.5469 Q417.2969,1620.4375 417.5156,1620.4375 Q417.8906,1620.4375 418.125,1620.6953 Q418.3594,1620.9531 418.3594,1621.5625 L418.3594,1623.0156 Q418.3594,1623.625 418.125,1623.8906 Q417.8906,1624.1563 417.5156,1624.1563 Q417.1719,1624.1563 416.9688,1623.9531 Q416.7656,1623.7656 416.6563,1623.25 Q416.6094,1622.8906 416.4219,1622.7031 Q416.0938,1622.3281 415.4844,1622.1094 Q414.875,1621.8906 414.25,1621.8906 Q413.4844,1621.8906 412.8516,1622.2188 Q412.2188,1622.5469 411.7266,1623.2969 Q411.2344,1624.0469 411.2344,1625.0781 L411.2344,1626.1719 Q411.2344,1627.4063 412.125,1628.2266 Q413.0156,1629.0469 414.6094,1629.0469 Q415.5469,1629.0469 416.2031,1628.7969 Q416.5938,1628.6406 417.0156,1628.2031 Q417.2813,1627.9375 417.4297,1627.8594 Q417.5781,1627.7813 417.7813,1627.7813 Q418.1094,1627.7813 418.3672,1628.0391 Q418.625,1628.2969 418.625,1628.6406 Q418.625,1628.9844 418.2813,1629.3906 Q417.7813,1629.9688 416.9844,1630.2969 Q415.9063,1630.75 414.6094,1630.75 Q413.0938,1630.75 411.8906,1630.125 Q410.9063,1629.625 410.2188,1628.5547 Q409.5313,1627.4844 409.5313,1626.2031 L409.5313,1625.0469 Q409.5313,1623.7188 410.1484,1622.5703 Q410.7656,1621.4219 411.8594,1620.8047 Q412.9531,1620.1875 414.1875,1620.1875 Q414.9219,1620.1875 415.5703,1620.3516 Q416.2188,1620.5156 416.7656,1620.875 Z "/>
    <text fill="#000000" font-family="sans-serif" font-size="12" lengthAdjust="spacingAndGlyphs" textLength="49" x="428" y="1629.9102">Printable</text>
    <!--class com.credibledoc.combiner.state.FilesMergerState-->
    <rect fill="#98FB98" filter="url(#fksua6i4op8wp)" height="32" id="com.credibledoc.combiner.state.FilesMergerState" style="stroke: #00FF7F; stroke-width: 1.5;" width="125" x="377" y="1717"/>
    <ellipse cx="392" cy="1733" fill="#9ACD32" rx="11" ry="11" style="stroke: #00FF7F; stroke-width: 1.0;"/>
    <path d="M394.7656,1728.875 Q394.9219,1728.6563 395.1094,1728.5469 Q395.2969,1728.4375 395.5156,1728.4375 Q395.8906,1728.4375 396.125,1728.6953 Q396.3594,1728.9531 396.3594,1729.5625 L396.3594,1731.0156 Q396.3594,1731.625 396.125,1731.8906 Q395.8906,1732.1563 395.5156,1732.1563 Q395.1719,1732.1563 394.9688,1731.9531 Q394.7656,1731.7656 394.6563,1731.25 Q394.6094,1730.8906 394.4219,1730.7031 Q394.0938,1730.3281 393.4844,1730.1094 Q392.875,1729.8906 392.25,1729.8906 Q391.4844,1729.8906 390.8516,1730.2188 Q390.2188,1730.5469 389.7266,1731.2969 Q389.2344,1732.0469 389.2344,1733.0781 L389.2344,1734.1719 Q389.2344,1735.4063 390.125,1736.2266 Q391.0156,1737.0469 392.6094,1737.0469 Q393.5469,1737.0469 394.2031,1736.7969 Q394.5938,1736.6406 395.0156,1736.2031 Q395.2813,1735.9375 395.4297,1735.8594 Q395.5781,1735.7813 395.7813,1735.7813 Q396.1094,1735.7813 396.3672,1736.0391 Q396.625,1736.2969 396.625,1736.6406 Q396.625,1736.9844 396.2813,1737.3906 Q395.7813,1737.9688 394.9844,1738.2969 Q393.9063,1738.75 392.6094,1738.75 Q391.0938,1738.75 389.8906,1738.125 Q388.9063,1737.625 388.2188,1736.5547 Q387.5313,1735.4844 387.5313,1734.2031 L387.5313,1733.0469 Q387.5313,1731.7188 388.1484,1730.5703 Q388.7656,1729.4219 389.8594,1728.8047 Q390.9531,1728.1875 392.1875,1728.1875 Q392.9219,1728.1875 393.5703,1728.3516 Q394.2188,1728.5156 394.7656,1728.875 Z "/>
    <text fill="#000000" font-family="sans-serif" font-size="12" lengthAdjust="spacingAndGlyphs" textLength="93" x="406" y="1737.9102">FilesMergerState</text>
    <!--class com.credibledoc.combiner.file.FileService-->
    <rect fill="#98FB98" filter="url(#fksua6i4op8wp)" height="32" id="com.credibledoc.combiner.file.FileService" style="stroke: #00FF7F; stroke-width: 1.5;" width="92" x="393.5" y="1825"/>
    <ellipse cx="408.5" cy="1841" fill="#9ACD32" rx="11" ry="11" style="stroke: #00FF7F; stroke-width: 1.0;"/>
    <path d="M411.2656,1836.875 Q411.4219,1836.6563 411.6094,1836.5469 Q411.7969,1836.4375 412.0156,1836.4375 Q412.3906,1836.4375 412.625,1836.6953 Q412.8594,1836.9531 412.8594,1837.5625 L412.8594,1839.0156 Q412.8594,1839.625 412.625,1839.8906 Q412.3906,1840.1563 412.0156,1840.1563 Q411.6719,1840.1563 411.4688,1839.9531 Q411.2656,1839.7656 411.1563,1839.25 Q411.1094,1838.8906 410.9219,1838.7031 Q410.5938,1838.3281 409.9844,1838.1094 Q409.375,1837.8906 408.75,1837.8906 Q407.9844,1837.8906 407.3516,1838.2188 Q406.7188,1838.5469 406.2266,1839.2969 Q405.7344,1840.0469 405.7344,1841.0781 L405.7344,1842.1719 Q405.7344,1843.4063 406.625,1844.2266 Q407.5156,1845.0469 409.1094,1845.0469 Q410.0469,1845.0469 410.7031,1844.7969 Q411.0938,1844.6406 411.5156,1844.2031 Q411.7813,1843.9375 411.9297,1843.8594 Q412.0781,1843.7813 412.2813,1843.7813 Q412.6094,1843.7813 412.8672,1844.0391 Q413.125,1844.2969 413.125,1844.6406 Q413.125,1844.9844 412.7813,1845.3906 Q412.2813,1845.9688 411.4844,1846.2969 Q410.4063,1846.75 409.1094,1846.75 Q407.5938,1846.75 406.3906,1846.125 Q405.4063,1845.625 404.7188,1844.5547 Q404.0313,1843.4844 404.0313,1842.2031 L404.0313,1841.0469 Q404.0313,1839.7188 404.6484,1838.5703 Q405.2656,1837.4219 406.3594,1836.8047 Q407.4531,1836.1875 408.6875,1836.1875 Q409.4219,1836.1875 410.0703,1836.3516 Q410.7188,1836.5156 411.2656,1836.875 Z "/>
    <text fill="#000000" font-family="sans-serif" font-size="12" lengthAdjust="spacingAndGlyphs" textLength="60" x="422.5" y="1845.9102">FileService</text>
    <!--class com.credibledoc.combiner.context.Context-->
    <rect fill="#98FB98" filter="url(#fksua6i4op8wp)" height="32" id="com.credibledoc.combiner.context.Context" style="stroke: #00FF7F; stroke-width: 1.5;" width="73" x="403" y="1933"/>
    <ellipse cx="418" cy="1949" fill="#9ACD32" rx="11" ry="11" style="stroke: #00FF7F; stroke-width: 1.0;"/>
    <path d="M420.7656,1944.875 Q420.9219,1944.6563 421.1094,1944.5469 Q421.2969,1944.4375 421.5156,1944.4375 Q421.8906,1944.4375 422.125,1944.6953 Q422.3594,1944.9531 422.3594,1945.5625 L422.3594,1947.0156 Q422.3594,1947.625 422.125,1947.8906 Q421.8906,1948.1563 421.5156,1948.1563 Q421.1719,1948.1563 420.9688,1947.9531 Q420.7656,1947.7656 420.6563,1947.25 Q420.6094,1946.8906 420.4219,1946.7031 Q420.0938,1946.3281 419.4844,1946.1094 Q418.875,1945.8906 418.25,1945.8906 Q417.4844,1945.8906 416.8516,1946.2188 Q416.2188,1946.5469 415.7266,1947.2969 Q415.2344,1948.0469 415.2344,1949.0781 L415.2344,1950.1719 Q415.2344,1951.4063 416.125,1952.2266 Q417.0156,1953.0469 418.6094,1953.0469 Q419.5469,1953.0469 420.2031,1952.7969 Q420.5938,1952.6406 421.0156,1952.2031 Q421.2813,1951.9375 421.4297,1951.8594 Q421.5781,1951.7813 421.7813,1951.7813 Q422.1094,1951.7813 422.3672,1952.0391 Q422.625,1952.2969 422.625,1952.6406 Q422.625,1952.9844 422.2813,1953.3906 Q421.7813,1953.9688 420.9844,1954.2969 Q419.9063,1954.75 418.6094,1954.75 Q417.0938,1954.75 415.8906,1954.125 Q414.9063,1953.625 414.2188,1952.5547 Q413.5313,1951.4844 413.5313,1950.2031 L413.5313,1949.0469 Q413.5313,1947.7188 414.1484,1946.5703 Q414.7656,1945.4219 415.8594,1944.8047 Q416.9531,1944.1875 418.1875,1944.1875 Q418.9219,1944.1875 419.5703,1944.3516 Q420.2188,1944.5156 420.7656,1944.875 Z "/>
    <text fill="#000000" font-family="sans-serif" font-size="12" lengthAdjust="spacingAndGlyphs" textLength="41" x="432" y="1953.9102">Context</text>
    <!--class com.credibledoc.substitution.core.template.TemplateService-->
    <rect fill="#98FB98" filter="url(#fksua6i4op8wp)" height="32" id="com.credibledoc.substitution.core.template.TemplateService" style="stroke: #00FF7F; stroke-width: 1.5;" width="124" x="377.5" y="2041"/>
    <ellipse cx="392.5" cy="2057" fill="#9ACD32" rx="11" ry="11" style="stroke: #00FF7F; stroke-width: 1.0;"/>
    <path d="M395.2656,2052.875 Q395.4219,2052.6563 395.6094,2052.5469 Q395.7969,2052.4375 396.0156,2052.4375 Q396.3906,2052.4375 396.625,2052.6953 Q396.8594,2052.9531 396.8594,2053.5625 L396.8594,2055.0156 Q396.8594,2055.625 396.625,2055.8906 Q396.3906,2056.1563 396.0156,2056.1563 Q395.6719,2056.1563 395.4688,2055.9531 Q395.2656,2055.7656 395.1563,2055.25 Q395.1094,2054.8906 394.9219,2054.7031 Q394.5938,2054.3281 393.9844,2054.1094 Q393.375,2053.8906 392.75,2053.8906 Q391.9844,2053.8906 391.3516,2054.2188 Q390.7188,2054.5469 390.2266,2055.2969 Q389.7344,2056.0469 389.7344,2057.0781 L389.7344,2058.1719 Q389.7344,2059.4063 390.625,2060.2266 Q391.5156,2061.0469 393.1094,2061.0469 Q394.0469,2061.0469 394.7031,2060.7969 Q395.0938,2060.6406 395.5156,2060.2031 Q395.7813,2059.9375 395.9297,2059.8594 Q396.0781,2059.7813 396.2813,2059.7813 Q396.6094,2059.7813 396.8672,2060.0391 Q397.125,2060.2969 397.125,2060.6406 Q397.125,2060.9844 396.7813,2061.3906 Q396.2813,2061.9688 395.4844,2062.2969 Q394.4063,2062.75 393.1094,2062.75 Q391.5938,2062.75 390.3906,2062.125 Q389.4063,2061.625 388.7188,2060.5547 Q388.0313,2059.4844 388.0313,2058.2031 L388.0313,2057.0469 Q388.0313,2055.7188 388.6484,2054.5703 Q389.2656,2053.4219 390.3594,2052.8047 Q391.4531,2052.1875 392.6875,2052.1875 Q393.4219,2052.1875 394.0703,2052.3516 Q394.7188,2052.5156 395.2656,2052.875 Z "/>
    <text fill="#000000" font-family="sans-serif" font-size="12" lengthAdjust="spacingAndGlyphs" textLength="92" x="406.5" y="2061.9102">TemplateService</text>
    <!--class com.credibledoc.combiner.tactic.Tactic-->
    <rect fill="#98FB98" filter="url(#fksua6i4op8wp)" height="32" id="com.credibledoc.combiner.tactic.Tactic" style="stroke: #00FF7F; stroke-width: 1.5;" width="64" x="407.5" y="2149"/>
    <ellipse cx="422.5" cy="2165" fill="#9ACD32" rx="11" ry="11" style="stroke: #00FF7F; stroke-width: 1.0;"/>
    <path d="M425.2656,2160.875 Q425.4219,2160.6563 425.6094,2160.5469 Q425.7969,2160.4375 426.0156,2160.4375 Q426.3906,2160.4375 426.625,2160.6953 Q426.8594,2160.9531 426.8594,2161.5625 L426.8594,2163.0156 Q426.8594,2163.625 426.625,2163.8906 Q426.3906,2164.1563 426.0156,2164.1563 Q425.6719,2164.1563 425.4688,2163.9531 Q425.2656,2163.7656 425.1563,2163.25 Q425.1094,2162.8906 424.9219,2162.7031 Q424.5938,2162.3281 423.9844,2162.1094 Q423.375,2161.8906 422.75,2161.8906 Q421.9844,2161.8906 421.3516,2162.2188 Q420.7188,2162.5469 420.2266,2163.2969 Q419.7344,2164.0469 419.7344,2165.0781 L419.7344,2166.1719 Q419.7344,2167.4063 420.625,2168.2266 Q421.5156,2169.0469 423.1094,2169.0469 Q424.0469,2169.0469 424.7031,2168.7969 Q425.0938,2168.6406 425.5156,2168.2031 Q425.7813,2167.9375 425.9297,2167.8594 Q426.0781,2167.7813 426.2813,2167.7813 Q426.6094,2167.7813 426.8672,2168.0391 Q427.125,2168.2969 427.125,2168.6406 Q427.125,2168.9844 426.7813,2169.3906 Q426.2813,2169.9688 425.4844,2170.2969 Q424.4063,2170.75 423.1094,2170.75 Q421.5938,2170.75 420.3906,2170.125 Q419.4063,2169.625 418.7188,2168.5547 Q418.0313,2167.4844 418.0313,2166.2031 L418.0313,2165.0469 Q418.0313,2163.7188 418.6484,2162.5703 Q419.2656,2161.4219 420.3594,2160.8047 Q421.4531,2160.1875 422.6875,2160.1875 Q423.4219,2160.1875 424.0703,2160.3516 Q424.7188,2160.5156 425.2656,2160.875 Z "/>
    <text fill="#000000" font-family="sans-serif" font-size="12" lengthAdjust="spacingAndGlyphs" textLength="32" x="436.5" y="2169.9102">Tactic</text>
    <!--class com.credibledoc.plantuml.svggenerator.SvgGeneratorService-->
    <rect fill="#98FB98" filter="url(#fksua6i4op8wp)" height="32" id="com.credibledoc.plantuml.svggenerator.SvgGeneratorService" style="stroke: #00FF7F; stroke-width: 1.5;" width="147" x="366" y="2257"/>
    <ellipse cx="381" cy="2273" fill="#9ACD32" rx="11" ry="11" style="stroke: #00FF7F; stroke-width: 1.0;"/>
    <path d="M383.7656,2268.875 Q383.9219,2268.6563 384.1094,2268.5469 Q384.2969,2268.4375 384.5156,2268.4375 Q384.8906,2268.4375 385.125,2268.6953 Q385.3594,2268.9531 385.3594,2269.5625 L385.3594,2271.0156 Q385.3594,2271.625 385.125,2271.8906 Q384.8906,2272.1563 384.5156,2272.1563 Q384.1719,2272.1563 383.9688,2271.9531 Q383.7656,2271.7656 383.6563,2271.25 Q383.6094,2270.8906 383.4219,2270.7031 Q383.0938,2270.3281 382.4844,2270.1094 Q381.875,2269.8906 381.25,2269.8906 Q380.4844,2269.8906 379.8516,2270.2188 Q379.2188,2270.5469 378.7266,2271.2969 Q378.2344,2272.0469 378.2344,2273.0781 L378.2344,2274.1719 Q378.2344,2275.4063 379.125,2276.2266 Q380.0156,2277.0469 381.6094,2277.0469 Q382.5469,2277.0469 383.2031,2276.7969 Q383.5938,2276.6406 384.0156,2276.2031 Q384.2813,2275.9375 384.4297,2275.8594 Q384.5781,2275.7813 384.7813,2275.7813 Q385.1094,2275.7813 385.3672,2276.0391 Q385.625,2276.2969 385.625,2276.6406 Q385.625,2276.9844 385.2813,2277.3906 Q384.7813,2277.9688 383.9844,2278.2969 Q382.9063,2278.75 381.6094,2278.75 Q380.0938,2278.75 378.8906,2278.125 Q377.9063,2277.625 377.2188,2276.5547 Q376.5313,2275.4844 376.5313,2274.2031 L376.5313,2273.0469 Q376.5313,2271.7188 377.1484,2270.5703 Q377.7656,2269.4219 378.8594,2268.8047 Q379.9531,2268.1875 381.1875,2268.1875 Q381.9219,2268.1875 382.5703,2268.3516 Q383.2188,2268.5156 383.7656,2268.875 Z "/>
    <text fill="#000000" font-family="sans-serif" font-size="12" lengthAdjust="spacingAndGlyphs" textLength="115" x="395" y="2277.9102">SvgGeneratorService</text>
    <!--class com.credibledoc.enricher.line.LineProcessor-->
    <rect fill="#98FB98" filter="url(#fksua6i4op8wp)" height="32" id="com.credibledoc.enricher.line.LineProcessor" style="stroke: #00FF7F; stroke-width: 1.5;" width="113" x="383" y="2365"/>
    <ellipse cx="398" cy="2381" fill="#9ACD32" rx="11" ry="11" style="stroke: #00FF7F; stroke-width: 1.0;"/>
    <path d="M400.7656,2376.875 Q400.9219,2376.6563 401.1094,2376.5469 Q401.2969,2376.4375 401.5156,2376.4375 Q401.8906,2376.4375 402.125,2376.6953 Q402.3594,2376.9531 402.3594,2377.5625 L402.3594,2379.0156 Q402.3594,2379.625 402.125,2379.8906 Q401.8906,2380.1563 401.5156,2380.1563 Q401.1719,2380.1563 400.9688,2379.9531 Q400.7656,2379.7656 400.6563,2379.25 Q400.6094,2378.8906 400.4219,2378.7031 Q400.0938,2378.3281 399.4844,2378.1094 Q398.875,2377.8906 398.25,2377.8906 Q397.4844,2377.8906 396.8516,2378.2188 Q396.2188,2378.5469 395.7266,2379.2969 Q395.2344,2380.0469 395.2344,2381.0781 L395.2344,2382.1719 Q395.2344,2383.4063 396.125,2384.2266 Q397.0156,2385.0469 398.6094,2385.0469 Q399.5469,2385.0469 400.2031,2384.7969 Q400.5938,2384.6406 401.0156,2384.2031 Q401.2813,2383.9375 401.4297,2383.8594 Q401.5781,2383.7813 401.7813,2383.7813 Q402.1094,2383.7813 402.3672,2384.0391 Q402.625,2384.2969 402.625,2384.6406 Q402.625,2384.9844 402.2813,2385.3906 Q401.7813,2385.9688 400.9844,2386.2969 Q399.9063,2386.75 398.6094,2386.75 Q397.0938,2386.75 395.8906,2386.125 Q394.9063,2385.625 394.2188,2384.5547 Q393.5313,2383.4844 393.5313,2382.2031 L393.5313,2381.0469 Q393.5313,2379.7188 394.1484,2378.5703 Q394.7656,2377.4219 395.8594,2376.8047 Q396.9531,2376.1875 398.1875,2376.1875 Q398.9219,2376.1875 399.5703,2376.3516 Q400.2188,2376.5156 400.7656,2376.875 Z "/>
    <text fill="#000000" font-family="sans-serif" font-size="12" lengthAdjust="spacingAndGlyphs" textLength="81" x="412" y="2385.9102">LineProcessor</text>
    <!--class com.credibledoc.plantuml.exception.PlantumlRuntimeException-->
    <rect fill="#98FB98" filter="url(#fksua6i4op8wp)" height="32" id="com.credibledoc.plantuml.exception.PlantumlRuntimeException" style="stroke: #00FF7F; stroke-width: 1.5;" width="181" x="349" y="2473"/>
    <ellipse cx="364" cy="2489" fill="#9ACD32" rx="11" ry="11" style="stroke: #00FF7F; stroke-width: 1.0;"/>
    <path d="M366.7656,2484.875 Q366.9219,2484.6563 367.1094,2484.5469 Q367.2969,2484.4375 367.5156,2484.4375 Q367.8906,2484.4375 368.125,2484.6953 Q368.3594,2484.9531 368.3594,2485.5625 L368.3594,2487.0156 Q368.3594,2487.625 368.125,2487.8906 Q367.8906,2488.1563 367.5156,2488.1563 Q367.1719,2488.1563 366.9688,2487.9531 Q366.7656,2487.7656 366.6563,2487.25 Q366.6094,2486.8906 366.4219,2486.7031 Q366.0938,2486.3281 365.4844,2486.1094 Q364.875,2485.8906 364.25,2485.8906 Q363.4844,2485.8906 362.8516,2486.2188 Q362.2188,2486.5469 361.7266,2487.2969 Q361.2344,2488.0469 361.2344,2489.0781 L361.2344,2490.1719 Q361.2344,2491.4063 362.125,2492.2266 Q363.0156,2493.0469 364.6094,2493.0469 Q365.5469,2493.0469 366.2031,2492.7969 Q366.5938,2492.6406 367.0156,2492.2031 Q367.2813,2491.9375 367.4297,2491.8594 Q367.5781,2491.7813 367.7813,2491.7813 Q368.1094,2491.7813 368.3672,2492.0391 Q368.625,2492.2969 368.625,2492.6406 Q368.625,2492.9844 368.2813,2493.3906 Q367.7813,2493.9688 366.9844,2494.2969 Q365.9063,2494.75 364.6094,2494.75 Q363.0938,2494.75 361.8906,2494.125 Q360.9063,2493.625 360.2188,2492.5547 Q359.5313,2491.4844 359.5313,2490.2031 L359.5313,2489.0469 Q359.5313,2487.7188 360.1484,2486.5703 Q360.7656,2485.4219 361.8594,2484.8047 Q362.9531,2484.1875 364.1875,2484.1875 Q364.9219,2484.1875 365.5703,2484.3516 Q366.2188,2484.5156 366.7656,2484.875 Z "/>
    <text fill="#000000" font-family="sans-serif" font-size="12" lengthAdjust="spacingAndGlyphs" textLength="149" x="378" y="2493.9102">PlantumlRuntimeException</text>
    <!--link com.credibledoc.substitution.reporting to com.credibledoc.combiner.node.file.NodeFile-->
    <path d="M125.708,1163.87 C127.366,1061.85 141.538,506.69 254.5,392 C290.28,355.67 351.447,351.5 393.363,353.71 " fill="none" id="com.credibledoc.substitution.reporting-com.credibledoc.combiner.node.file.NodeFile" style="stroke: #2E8B57; stroke-width: 1.0; stroke-dasharray: 7.0,7.0;"/>
    <polygon fill="#2E8B57" points="398.376,354,389.6299,349.4716,393.3849,353.7025,389.154,357.4575,398.376,354" style="stroke: #2E8B57; stroke-width: 1.0;"/>
    <!--link com.credibledoc.substitution.reporting to com.credibledoc.combiner.log.buffered.LogBufferedReader-->
    <path d="M165.142,1173.16 C215.062,1164.55 301.839,1149.58 364.244,1138.81 " fill="none" id="com.credibledoc.substitution.reporting-com.credibledoc.combiner.log.buffered.LogBufferedReader" style="stroke: #2E8B57; stroke-width: 1.0; stroke-dasharray: 7.0,7.0;"/>
    <polygon fill="#2E8B57" points="369.448,1137.91,359.8991,1135.4978,364.5207,1138.7598,361.2588,1143.3814,369.448,1137.91" style="stroke: #2E8B57; stroke-width: 1.0;"/>
    <!--link com.credibledoc.substitution.reporting to com.credibledoc.plantuml.svggenerator.SvgGeneratorService-->
    <path d="M125.398,1196.05 C124.961,1312.75 127.504,2030.854 254.5,2197 C280.011,2230.375 322.774,2249.19 360.656,2259.747 " fill="none" id="com.credibledoc.substitution.reporting-com.credibledoc.plantuml.svggenerator.SvgGeneratorService" style="stroke: #2E8B57; stroke-width: 1.0; stroke-dasharray: 7.0,7.0;"/>
    <polygon fill="#2E8B57" points="365.727,2261.12,358.0837,2254.9088,360.9005,2259.8144,355.9948,2262.6312,365.727,2261.12" style="stroke: #2E8B57; stroke-width: 1.0;"/>
    <!--link com.credibledoc.substitution.reporting to com.credibledoc.combiner.state.FilesMergerState-->
    <path d="M125.051,1196.33 C124.116,1262.59 129.258,1514.67 254.5,1657 C284.544,1691.145 332.319,1710.268 371.658,1720.79 " fill="none" id="com.credibledoc.substitution.reporting-com.credibledoc.combiner.state.FilesMergerState" style="stroke: #2E8B57; stroke-width: 1.0; stroke-dasharray: 7.0,7.0;"/>
    <polygon fill="#2E8B57" points="376.903,1722.156,369.2032,1716.0149,372.0647,1720.8946,367.185,1723.7562,376.903,1722.156" style="stroke: #2E8B57; stroke-width: 1.0;"/>
    <!--link com.credibledoc.substitution.reporting to com.credibledoc.substitution.core.resource.ResourceService-->
    <path d="M147.052,1163.71 C172.025,1145.3 214.836,1115.15 254.5,1094 C297.989,1070.81 350.12,1049.88 387.771,1035.88 " fill="none" id="com.credibledoc.substitution.reporting-com.credibledoc.substitution.core.resource.ResourceService" style="stroke: #2E8B57; stroke-width: 1.0; stroke-dasharray: 7.0,7.0;"/>
    <polygon fill="#2E8B57" points="392.753,1034.03,382.9241,1033.4027,388.0639,1035.7655,385.701,1040.9053,392.753,1034.03" style="stroke: #2E8B57; stroke-width: 1.0;"/>
    <!--link com.credibledoc.substitution.reporting to com.credibledoc.combiner.node.log.NodeLog-->
    <path d="M125.184,1163.79 C123.294,1049.04 117.781,359.91 254.5,217 C289.64,180.27 350.661,176.13 392.738,178.45 " fill="none" id="com.credibledoc.substitution.reporting-com.credibledoc.combiner.node.log.NodeLog" style="stroke: #2E8B57; stroke-width: 1.0; stroke-dasharray: 7.0,7.0;"/>
    <polygon fill="#2E8B57" points="397.772,178.77,389.0389,174.2167,392.7817,178.4583,388.5401,182.2011,397.772,178.77" style="stroke: #2E8B57; stroke-width: 1.0;"/>
    <!--link com.credibledoc.substitution.reporting to com.credibledoc.combiner.node.log.NodeLogService-->
    <path d="M125.831,1163.91 C128.302,1058.29 146.887,464.35 254.5,327 C283.176,290.4 332.527,271.28 372.904,261.37 " fill="none" id="com.credibledoc.substitution.reporting-com.credibledoc.combiner.node.log.NodeLogService" style="stroke: #2E8B57; stroke-width: 1.0; stroke-dasharray: 7.0,7.0;"/>
    <polygon fill="#2E8B57" points="377.781,260.21,368.098,258.41,372.9178,261.3715,369.9563,266.1912,377.781,260.21" style="stroke: #2E8B57; stroke-width: 1.0;"/>
    <!--link com.credibledoc.substitution.reporting to com.credibledoc.substitution.core.placeholder.PlaceholderService-->
    <path d="M125.723,1163.89 C127.459,1105.77 141.714,905.32 254.5,809 C284.609,783.29 327.809,774.59 364.784,772.52 " fill="none" id="com.credibledoc.substitution.reporting-com.credibledoc.substitution.core.placeholder.PlaceholderService" style="stroke: #2E8B57; stroke-width: 1.0; stroke-dasharray: 7.0,7.0;"/>
    <polygon fill="#2E8B57" points="370.192,772.27,361.0121,768.7021,365.1976,772.5076,361.3922,776.6931,370.192,772.27" style="stroke: #2E8B57; stroke-width: 1.0;"/>
    <!--link com.credibledoc.substitution.reporting to com.credibledoc.combiner.tactic.Tactic-->
    <path d="M125.665,1196.07 C127.094,1305.56 140.277,1941.835 254.5,2089 C290.544,2135.439 359.915,2153.718 402.418,2160.757 " fill="none" id="com.credibledoc.substitution.reporting-com.credibledoc.combiner.tactic.Tactic" style="stroke: #2E8B57; stroke-width: 1.0; stroke-dasharray: 7.0,7.0;"/>
    <polygon fill="#2E8B57" points="407.464,2161.561,399.206,2156.1939,402.5264,2160.7738,397.9465,2164.0941,407.464,2161.561" style="stroke: #2E8B57; stroke-width: 1.0;"/>
    <!--link com.credibledoc.substitution.reporting to com.credibledoc.substitution.core.content.ContentGeneratorService-->
    <path d="M126.52,1163.88 C132.426,1075.81 165.139,653.72 254.5,567 C279.26,542.97 315.188,533.21 348.738,530.01 " fill="none" id="com.credibledoc.substitution.reporting-com.credibledoc.substitution.core.content.ContentGeneratorService" style="stroke: #2E8B57; stroke-width: 1.0; stroke-dasharray: 7.0,7.0;"/>
    <polygon fill="#2E8B57" points="354.1,529.55,344.7923,526.3302,349.1181,529.9754,345.4729,534.3012,354.1,529.55" style="stroke: #2E8B57; stroke-width: 1.0;"/>
    <!--link com.credibledoc.substitution.reporting to com.credibledoc.substitution.core.resource.TemplateResource-->
    <path d="M131.025,1163.85 C145.002,1125.62 185.639,1029.42 254.5,984 C286.906,962.63 329.201,954.02 365.068,950.92 " fill="none" id="com.credibledoc.substitution.reporting-com.credibledoc.substitution.core.resource.TemplateResource" style="stroke: #2E8B57; stroke-width: 1.0; stroke-dasharray: 7.0,7.0;"/>
    <polygon fill="#2E8B57" points="370.311,950.5,361.0218,947.2273,365.3268,950.897,361.657,955.202,370.311,950.5" style="stroke: #2E8B57; stroke-width: 1.0;"/>
    <!--link com.credibledoc.substitution.reporting to com.credibledoc.substitution.core.exception.SubstitutionRuntimeException-->
    <path d="M125.373,1163.77 C124.757,1045.82 126.264,320 254.5,152 C276.786,122.8 312.278,104.75 346.171,93.62 " fill="none" id="com.credibledoc.substitution.reporting-com.credibledoc.substitution.core.exception.SubstitutionRuntimeException" style="stroke: #2E8B57; stroke-width: 1.0; stroke-dasharray: 7.0,7.0;"/>
    <polygon fill="#2E8B57" points="351.159,92.03,341.3692,90.9532,346.3953,93.549,343.7995,98.5751,351.159,92.03" style="stroke: #2E8B57; stroke-width: 1.0;"/>
    <!--link com.credibledoc.substitution.reporting to com.credibledoc.combiner.file.FileService-->
    <path d="M127.057,1196.2 C135.506,1281.1 178.295,1674.171 254.5,1765 C288.121,1805.073 346.3,1824.327 388.248,1833.372 " fill="none" id="com.credibledoc.substitution.reporting-com.credibledoc.combiner.file.FileService" style="stroke: #2E8B57; stroke-width: 1.0; stroke-dasharray: 7.0,7.0;"/>
    <polygon fill="#2E8B57" points="393.281,1834.425,385.2912,1828.6662,388.387,1833.4008,383.6525,1836.4966,393.281,1834.425" style="stroke: #2E8B57; stroke-width: 1.0;"/>
    <!--link com.credibledoc.substitution.reporting to com.credibledoc.combiner.node.file.NodeFileService-->
    <path d="M126.529,1163.75 C132.696,1070.98 167.476,608.84 254.5,502 C283.746,466.1 332.78,446.96 372.879,436.87 " fill="none" id="com.credibledoc.substitution.reporting-com.credibledoc.combiner.node.file.NodeFileService" style="stroke: #2E8B57; stroke-width: 1.0; stroke-dasharray: 7.0,7.0;"/>
    <polygon fill="#2E8B57" points="378.223,435.56,368.5311,433.8085,373.3656,436.7458,370.4284,441.5803,378.223,435.56" style="stroke: #2E8B57; stroke-width: 1.0;"/>
    <!--link com.credibledoc.substitution.reporting to com.credibledoc.substitution.core.configuration.Configuration-->
    <path d="M144.161,1196.28 C168.043,1216.19 211.492,1249.42 254.5,1267 C294.911,1283.52 343.602,1292.06 380.742,1296.45 " fill="none" id="com.credibledoc.substitution.reporting-com.credibledoc.substitution.core.configuration.Configuration" style="stroke: #2E8B57; stroke-width: 1.0; stroke-dasharray: 7.0,7.0;"/>
    <polygon fill="#2E8B57" points="386.135,1297.07,377.6478,1292.0733,381.1674,1296.5019,376.7388,1300.0214,386.135,1297.07" style="stroke: #2E8B57; stroke-width: 1.0;"/>
    <!--link com.credibledoc.substitution.reporting to com.credibledoc.substitution.core.content.Content-->
    <path d="M126.975,1163.77 C134.798,1081.34 174.138,710.09 254.5,634 C292.354,598.16 355.146,594.3 396.678,596.4 " fill="none" id="com.credibledoc.substitution.reporting-com.credibledoc.substitution.core.content.Content" style="stroke: #2E8B57; stroke-width: 1.0; stroke-dasharray: 7.0,7.0;"/>
    <polygon fill="#2E8B57" points="401.886,596.7,393.1309,592.1891,396.8943,596.4125,392.6709,600.1759,401.886,596.7" style="stroke: #2E8B57; stroke-width: 1.0;"/>
    <!--link com.credibledoc.substitution.reporting to com.credibledoc.substitution.core.content.ContentGenerator-->
    <path d="M125.546,1163.79 C126.589,1101.24 138.516,872.72 254.5,744 C284.169,711.07 330.287,692.06 368.929,681.29 " fill="none" id="com.credibledoc.substitution.reporting-com.credibledoc.substitution.core.content.ContentGenerator" style="stroke: #2E8B57; stroke-width: 1.0; stroke-dasharray: 7.0,7.0;"/>
    <polygon fill="#2E8B57" points="374.086,679.89,364.3522,678.3888,369.2608,681.2005,366.4491,686.1091,374.086,679.89" style="stroke: #2E8B57; stroke-width: 1.0;"/>
    <!--link com.credibledoc.substitution.reporting to com.credibledoc.substitution.core.configuration.ConfigurationService-->
    <path d="M165.142,1186.84 C214.262,1195.31 299.067,1209.94 361.225,1220.67 " fill="none" id="com.credibledoc.substitution.reporting-com.credibledoc.substitution.core.configuration.ConfigurationService" style="stroke: #2E8B57; stroke-width: 1.0; stroke-dasharray: 7.0,7.0;"/>
    <polygon fill="#2E8B57" points="366.412,1221.56,358.2228,1216.0886,361.4847,1220.7102,356.8631,1223.9722,366.412,1221.56" style="stroke: #2E8B57; stroke-width: 1.0;"/>
    <!--link com.credibledoc.substitution.reporting to com.credibledoc.substitution.core.placeholder.Placeholder-->
    <path d="M129.224,1163.81 C140.361,1118.84 177.514,990.97 254.5,919 C290.986,884.89 344.913,865.07 384.963,854.28 " fill="none" id="com.credibledoc.substitution.reporting-com.credibledoc.substitution.core.placeholder.Placeholder" style="stroke: #2E8B57; stroke-width: 1.0; stroke-dasharray: 7.0,7.0;"/>
    <polygon fill="#2E8B57" points="390.271,852.88,380.5494,851.3019,385.4356,854.1523,382.5851,859.0385,390.271,852.88" style="stroke: #2E8B57; stroke-width: 1.0;"/>
    <!--link com.credibledoc.substitution.reporting to com.credibledoc.substitution.core.template.TemplateService-->
    <path d="M126.004,1196.09 C129.493,1297.93 153.006,1852.73 254.5,1981 C283.249,2017.333 332.341,2036.454 372.59,2046.427 " fill="none" id="com.credibledoc.substitution.reporting-com.credibledoc.substitution.core.template.TemplateService" style="stroke: #2E8B57; stroke-width: 1.0; stroke-dasharray: 7.0,7.0;"/>
    <polygon fill="#2E8B57" points="377.452,2047.598,369.6399,2041.6005,372.5912,2046.4264,367.7653,2049.3777,377.452,2047.598" style="stroke: #2E8B57; stroke-width: 1.0;"/>
    <!--link com.credibledoc.substitution.reporting to com.credibledoc.combiner.context.Context-->
    <path d="M126.459,1196.3 C132.29,1290.39 165.738,1763.588 254.5,1873 C290.071,1916.846 355.169,1935.681 397.627,1943.571 " fill="none" id="com.credibledoc.substitution.reporting-com.credibledoc.combiner.context.Context" style="stroke: #2E8B57; stroke-width: 1.0; stroke-dasharray: 7.0,7.0;"/>
    <polygon fill="#2E8B57" points="402.689,1944.48,394.5383,1938.9514,397.7678,1943.5958,393.1235,1946.8253,402.689,1944.48" style="stroke: #2E8B57; stroke-width: 1.0;"/>
    <!--link com.credibledoc.substitution.reporting to com.credibledoc.enricher.transformer.TransformerService-->
    <path d="M135.255,1196.05 C154.531,1226.57 200.357,1293.44 254.5,1333 C290.956,1359.64 338.119,1378.88 375.568,1391.34 " fill="none" id="com.credibledoc.substitution.reporting-com.credibledoc.enricher.transformer.TransformerService" style="stroke: #2E8B57; stroke-width: 1.0; stroke-dasharray: 7.0,7.0;"/>
    <polygon fill="#2E8B57" points="380.552,1392.97,373.2483,1386.3628,375.8014,1391.4107,370.7534,1393.9638,380.552,1392.97" style="stroke: #2E8B57; stroke-width: 1.0;"/>
    <!--link com.credibledoc.substitution.reporting to com.credibledoc.plantuml.exception.PlantumlRuntimeException-->
    <path d="M126.206,1196.34 C132.32,1334.92 177.931,2310.517 254.5,2413 C276.287,2442.1607 311.291,2460.191 344.948,2471.3135 " fill="none" id="com.credibledoc.substitution.reporting-com.credibledoc.plantuml.exception.PlantumlRuntimeException" style="stroke: #2E8B57; stroke-width: 1.0; stroke-dasharray: 7.0,7.0;"/>
    <polygon fill="#2E8B57" points="349.903,2472.905,342.5568,2466.345,345.1424,2471.3764,340.111,2473.962,349.903,2472.905" style="stroke: #2E8B57; stroke-width: 1.0;"/>
    <!--link com.credibledoc.substitution.reporting to com.credibledoc.enricher.printable.Printable-->
    <path d="M126.554,1196.02 C131.077,1252.15 153.524,1442.27 254.5,1549 C291.705,1588.325 352.264,1607.979 393.671,1617.312 " fill="none" id="com.credibledoc.substitution.reporting-com.credibledoc.enricher.printable.Printable" style="stroke: #2E8B57; stroke-width: 1.0; stroke-dasharray: 7.0,7.0;"/>
    <polygon fill="#2E8B57" points="398.623,1618.4,390.6911,1612.5618,393.7395,1617.327,388.9743,1620.3754,398.623,1618.4" style="stroke: #2E8B57; stroke-width: 1.0;"/>
    <!--link com.credibledoc.substitution.reporting to com.credibledoc.enricher.line.LineProcessor-->
    <path d="M126.367,1196.13 C133.521,1327 184.32,2212.035 254.5,2305 C283.715,2343.7 336.171,2362.808 377.62,2372.175 " fill="none" id="com.credibledoc.substitution.reporting-com.credibledoc.enricher.line.LineProcessor" style="stroke: #2E8B57; stroke-width: 1.0; stroke-dasharray: 7.0,7.0;"/>
    <polygon fill="#2E8B57" points="382.618,2373.27,374.6808,2367.4389,377.7335,2372.2014,372.9711,2375.2541,382.618,2373.27" style="stroke: #2E8B57; stroke-width: 1.0;"/>
    <!--link com.credibledoc.substitution.reporting to com.credibledoc.combiner.log.reader.ReaderService-->
    <path d="M129.224,1196.19 C140.361,1241.16 177.514,1369.03 254.5,1441 C288.812,1473.08 338.547,1492.51 377.661,1503.69 " fill="none" id="com.credibledoc.substitution.reporting-com.credibledoc.combiner.log.reader.ReaderService" style="stroke: #2E8B57; stroke-width: 1.0; stroke-dasharray: 7.0,7.0;"/>
    <polygon fill="#2E8B57" points="382.862,1505.15,375.2728,1498.8727,378.047,1503.8026,373.117,1506.5768,382.862,1505.15" style="stroke: #2E8B57; stroke-width: 1.0;"/>
    <!--
@startuml
left to right direction
hide empty members

skinparam class {
    BackgroundColor PaleGreen
    ArrowColor SeaGreen
    BorderColor SpringGreen
}

Class com.credibledoc.substitution.reporting << (P,LightSeaGreen) >>
Class com.credibledoc.substitution.core.exception.SubstitutionRuntimeException << (C,YellowGreen) >>
Class com.credibledoc.combiner.node.log.NodeLog << (C,YellowGreen) >>
Class com.credibledoc.combiner.node.file.NodeFile << (C,YellowGreen) >>
Class com.credibledoc.substitution.core.content.ContentGeneratorService << (C,YellowGreen) >>
Class com.credibledoc.substitution.core.placeholder.PlaceholderService << (C,YellowGreen) >>
Class com.credibledoc.substitution.core.resource.TemplateResource << (C,YellowGreen) >>
Class com.credibledoc.combiner.log.buffered.LogBufferedReader << (C,YellowGreen) >>
Class com.credibledoc.substitution.core.configuration.ConfigurationService << (C,YellowGreen) >>
Class com.credibledoc.enricher.transformer.TransformerService << (C,YellowGreen) >>
Class com.credibledoc.combiner.log.reader.ReaderService << (C,YellowGreen) >>
Class com.credibledoc.combiner.node.log.NodeLogService << (C,YellowGreen) >>
Class com.credibledoc.enricher.printable.Printable << (C,YellowGreen) >>
Class com.credibledoc.substitution.core.content.Content << (C,YellowGreen) >>
Class com.credibledoc.substitution.core.configuration.Configuration << (C,YellowGreen) >>
Class com.credibledoc.combiner.state.FilesMergerState << (C,YellowGreen) >>
Class com.credibledoc.combiner.file.FileService << (C,YellowGreen) >>
Class com.credibledoc.combiner.context.Context << (C,YellowGreen) >>
Class com.credibledoc.substitution.core.template.TemplateService << (C,YellowGreen) >>
Class com.credibledoc.combiner.tactic.Tactic << (C,YellowGreen) >>
Class com.credibledoc.substitution.core.resource.ResourceService << (C,YellowGreen) >>
Class com.credibledoc.substitution.core.content.ContentGenerator << (C,YellowGreen) >>
Class com.credibledoc.plantuml.svggenerator.SvgGeneratorService << (C,YellowGreen) >>
Class com.credibledoc.enricher.line.LineProcessor << (C,YellowGreen) >>
Class com.credibledoc.plantuml.exception.PlantumlRuntimeException << (C,YellowGreen) >>
Class com.credibledoc.combiner.node.file.NodeFileService << (C,YellowGreen) >>
Class com.credibledoc.substitution.core.placeholder.Placeholder << (C,YellowGreen) >>
com.credibledoc.substitution.reporting ..> com.credibledoc.combiner.node.file.NodeFile
com.credibledoc.substitution.reporting ..> com.credibledoc.combiner.log.buffered.LogBufferedReader
com.credibledoc.substitution.reporting ..> com.credibledoc.plantuml.svggenerator.SvgGeneratorService
com.credibledoc.substitution.reporting ..> com.credibledoc.combiner.state.FilesMergerState
com.credibledoc.substitution.reporting ..> com.credibledoc.substitution.core.resource.ResourceService
com.credibledoc.substitution.reporting ..> com.credibledoc.combiner.node.log.NodeLog
com.credibledoc.substitution.reporting ..> com.credibledoc.combiner.node.log.NodeLogService
com.credibledoc.substitution.reporting ..> com.credibledoc.substitution.core.placeholder.PlaceholderService
com.credibledoc.substitution.reporting ..> com.credibledoc.combiner.tactic.Tactic
com.credibledoc.substitution.reporting ..> com.credibledoc.substitution.core.content.ContentGeneratorService
com.credibledoc.substitution.reporting ..> com.credibledoc.substitution.core.resource.TemplateResource
com.credibledoc.substitution.reporting ..> com.credibledoc.substitution.core.exception.SubstitutionRuntimeException
com.credibledoc.substitution.reporting ..> com.credibledoc.combiner.file.FileService
com.credibledoc.substitution.reporting ..> com.credibledoc.combiner.node.file.NodeFileService
com.credibledoc.substitution.reporting ..> com.credibledoc.substitution.core.configuration.Configuration
com.credibledoc.substitution.reporting ..> com.credibledoc.substitution.core.content.Content
com.credibledoc.substitution.reporting ..> com.credibledoc.substitution.core.content.ContentGenerator
com.credibledoc.substitution.reporting ..> com.credibledoc.substitution.core.configuration.ConfigurationService
com.credibledoc.substitution.reporting ..> com.credibledoc.substitution.core.placeholder.Placeholder
com.credibledoc.substitution.reporting ..> com.credibledoc.substitution.core.template.TemplateService
com.credibledoc.substitution.reporting ..> com.credibledoc.combiner.context.Context
com.credibledoc.substitution.reporting ..> com.credibledoc.enricher.transformer.TransformerService
com.credibledoc.substitution.reporting ..> com.credibledoc.plantuml.exception.PlantumlRuntimeException
com.credibledoc.substitution.reporting ..> com.credibledoc.enricher.printable.Printable
com.credibledoc.substitution.reporting ..> com.credibledoc.enricher.line.LineProcessor
com.credibledoc.substitution.reporting ..> com.credibledoc.combiner.log.reader.ReaderService
@enduml

PlantUML version 1.2019.05(Sat Apr 20 18:45:36 CEST 2019)
(GPL source distribution)
Java Runtime: Java(TM) SE Runtime Environment
JVM: Java HotSpot(TM) 64-Bit Server VM
Java Version: 1.8.0_71-b15
Operating System: Windows 10
OS Version: 10.0
Default Encoding: UTF-8
Language: en
Country: US
-->
  </g>
</svg>
