<svg xmlns="http://www.w3.org/2000/svg" xmlns:xlink="http://www.w3.org/1999/xlink" contentStyleType="text/css" height="151px" preserveAspectRatio="none" style="width:911px;height:151px;background:#FFFFFF;" version="1.1" viewBox="0 0 911 151" width="911px" zoomAndPan="magnify">
  <defs/>
  <g>
    <ellipse cx="143.5" cy="20" fill="#222222" rx="10" ry="10" style="stroke:#222222;stroke-width:1.0;"/>
    <rect fill="#F1F1F1" height="35.0938" rx="12.5" ry="12.5" style="stroke:#181818;stroke-width:0.5;" width="265" x="11" y="50"/>
    <text fill="#000000" font-family="sans-serif" font-size="12" lengthAdjust="spacing" textLength="245" x="21" y="72.457">Application credible-doc-generator launched.</text>
    <path d="M260.5,109.4648 L260.5,118.6406 L240.5,122.6406 L260.5,126.6406 L260.5,135.8164 A0,0 0 0 0 260.5,135.8164 L899.5,135.8164 A0,0 0 0 0 899.5,135.8164 L899.5,119.4648 L889.5,109.4648 L260.5,109.4648 A0,0 0 0 0 260.5,109.4648 " fill="#FEFFDD" style="stroke:#181818;stroke-width:0.5;"/>
    <path d="M889.5,109.4648 L889.5,119.4648 L899.5,119.4648 L889.5,109.4648 " fill="#FEFFDD" style="stroke:#181818;stroke-width:0.5;"/>
    <text fill="#000000" font-family="sans-serif" font-size="13" lengthAdjust="spacing" textLength="618" x="266.5" y="127.96">file:/C:/Users/semenko/git/credible-doc-master/credible-doc-generator/target/classes/substitution.properties</text>
    <rect fill="#F1F1F1" height="35.0938" rx="12.5" ry="12.5" style="stroke:#181818;stroke-width:0.5;" width="194" x="46.5" y="105.0938"/>
    <text fill="#000000" font-family="sans-serif" font-size="12" lengthAdjust="spacing" textLength="174" x="56.5" y="127.5508">Configuration properties loaded</text>
    <line style="stroke:#181818;stroke-width:1.0;" x1="143.5" x2="143.5" y1="30" y2="50"/>
    <polygon fill="#181818" points="139.5,40,143.5,50,147.5,40,143.5,44" style="stroke:#181818;stroke-width:1.0;"/>
    <line style="stroke:#181818;stroke-width:1.0;" x1="143.5" x2="143.5" y1="85.0938" y2="105.0938"/>
    <polygon fill="#181818" points="139.5,95.0938,143.5,105.0938,147.5,95.0938,143.5,99.0938" style="stroke:#181818;stroke-width:1.0;"/>
    <!--MD5=[bc52977093eb36caeb116aa66be1cefb]
@startuml
start
:Application credible-doc-generator launched.;

:Configuration properties loaded;
note right
file:/C:/Users/semenko/git/credible-doc-master/credible-doc-generator/target/classes/substitution.properties
end note

@enduml

PlantUML version 1.2022.12(Sun Oct 23 20:12:26 CEST 2022)
(GPL source distribution)
Java Runtime: Java(TM) SE Runtime Environment
JVM: Java HotSpot(TM) 64-Bit Server VM
Default Encoding: UTF-8
Language: en
Country: GB
-->
  </g>
</svg>
