<svg xmlns="http://www.w3.org/2000/svg" xmlns:xlink="http://www.w3.org/1999/xlink" contentScriptType="application/ecmascript" contentStyleType="text/css" height="536px" preserveAspectRatio="none" style="width:990px;height:536px;" version="1.1" viewBox="0 0 990 536" width="990px" zoomAndPan="magnify">
  <defs>
    <filter height="300%" id="f1w4pi0k5zzzpn" width="300%" x="-1" y="-1">
      <feGaussianBlur result="blurOut" stdDeviation="2.0"/>
      <feColorMatrix in="blurOut" result="blurOut2" type="matrix" values="0 0 0 0 0 0 0 0 0 0 0 0 0 0 0 0 0 0 .4 0"/>
      <feOffset dx="4.0" dy="4.0" in="blurOut2" result="blurOut3"/>
      <feBlend in="SourceGraphic" in2="blurOut3" mode="normal"/>
    </filter>
  </defs>
  <g>
    <ellipse cx="142.5" cy="20" fill="#000000" filter="url(#f1w4pi0k5zzzpn)" rx="10" ry="10" style="stroke: none; stroke-width: 1.0;"/>
    <rect fill="#FEFECE" filter="url(#f1w4pi0k5zzzpn)" height="35.0938" rx="12.5" ry="12.5" style="stroke: #A80036; stroke-width: 1.5;" width="265" x="10" y="50"/>
    <text fill="#000000" font-family="sans-serif" font-size="12" lengthAdjust="spacingAndGlyphs" textLength="245" x="20" y="72.457">Application credible-doc-generator launched.</text>
    <path d="M259.5,109.4648 L259.5,118.6406 L239.5,122.6406 L259.5,126.6406 L259.5,135.8164 A0,0 0 0 0 259.5,135.8164 L924.5,135.8164 A0,0 0 0 0 924.5,135.8164 L924.5,119.4648 L914.5,109.4648 L259.5,109.4648 A0,0 0 0 0 259.5,109.4648 " fill="#FBFB77" filter="url(#f1w4pi0k5zzzpn)" style="stroke: #A80036; stroke-width: 1.0;"/>
    <path d="M914.5,109.4648 L914.5,119.4648 L924.5,119.4648 L914.5,109.4648 " fill="#FBFB77" style="stroke: #A80036; stroke-width: 1.0;"/>
    <text fill="#000000" font-family="sans-serif" font-size="13" lengthAdjust="spacingAndGlyphs" textLength="644" x="265.5" y="127.96">file:/C:/Users/semenko/git/credibledoc/credible-doc/credible-doc-generator/target/classes/substitution.properties</text>
    <rect fill="#FEFECE" filter="url(#f1w4pi0k5zzzpn)" height="35.0938" rx="12.5" ry="12.5" style="stroke: #A80036; stroke-width: 1.5;" width="194" x="45.5" y="105.0938"/>
    <text fill="#000000" font-family="sans-serif" font-size="12" lengthAdjust="spacingAndGlyphs" textLength="174" x="55.5" y="127.5508">Configuration properties loaded</text>
    <path d="M222.5,164.5586 L222.5,173.7344 L202.5,177.7344 L222.5,181.7344 L222.5,190.9102 A0,0 0 0 0 222.5,190.9102 L685.5,190.9102 A0,0 0 0 0 685.5,190.9102 L685.5,174.5586 L675.5,164.5586 L222.5,164.5586 A0,0 0 0 0 222.5,164.5586 " fill="#FBFB77" filter="url(#f1w4pi0k5zzzpn)" style="stroke: #A80036; stroke-width: 1.0;"/>
    <path d="M675.5,164.5586 L675.5,174.5586 L685.5,174.5586 L675.5,164.5586 " fill="#FBFB77" style="stroke: #A80036; stroke-width: 1.0;"/>
    <text fill="#000000" font-family="sans-serif" font-size="13" lengthAdjust="spacingAndGlyphs" textLength="442" x="228.5" y="183.0537">Diagram of the application launching created from credible-doc-generator.log.</text>
    <rect fill="#FEFECE" filter="url(#f1w4pi0k5zzzpn)" height="35.0938" rx="12.5" ry="12.5" style="stroke: #A80036; stroke-width: 1.5;" width="120" x="82.5" y="160.1875"/>
    <text fill="#000000" font-family="sans-serif" font-size="12" lengthAdjust="spacingAndGlyphs" textLength="97" x="92.5" y="182.6445">Content replaced.</text>
    <path d="M222.5,219.6523 L222.5,228.8281 L202.5,232.8281 L222.5,236.8281 L222.5,246.0039 A0,0 0 0 0 222.5,246.0039 L699.5,246.0039 A0,0 0 0 0 699.5,246.0039 L699.5,229.6523 L689.5,219.6523 L222.5,219.6523 A0,0 0 0 0 222.5,219.6523 " fill="#FBFB77" filter="url(#f1w4pi0k5zzzpn)" style="stroke: #A80036; stroke-width: 1.0;"/>
    <path d="M689.5,219.6523 L689.5,229.6523 L699.5,229.6523 L689.5,219.6523 " fill="#FBFB77" style="stroke: #A80036; stroke-width: 1.0;"/>
    <text fill="#000000" font-family="sans-serif" font-size="13" lengthAdjust="spacingAndGlyphs" textLength="456" x="228.5" y="238.1475">Diagram of the application launching created from credible-doc-generator_1.log.</text>
    <rect fill="#FEFECE" filter="url(#f1w4pi0k5zzzpn)" height="35.0938" rx="12.5" ry="12.5" style="stroke: #A80036; stroke-width: 1.5;" width="120" x="82.5" y="215.2813"/>
    <text fill="#000000" font-family="sans-serif" font-size="12" lengthAdjust="spacingAndGlyphs" textLength="97" x="92.5" y="237.7383">Content replaced.</text>
    <path d="M222.5,274.7461 L222.5,283.9219 L202.5,287.9219 L222.5,291.9219 L222.5,301.0977 A0,0 0 0 0 222.5,301.0977 L507.5,301.0977 A0,0 0 0 0 507.5,301.0977 L507.5,284.7461 L497.5,274.7461 L222.5,274.7461 A0,0 0 0 0 222.5,274.7461 " fill="#FBFB77" filter="url(#f1w4pi0k5zzzpn)" style="stroke: #A80036; stroke-width: 1.0;"/>
    <path d="M497.5,274.7461 L497.5,284.7461 L507.5,284.7461 L497.5,274.7461 " fill="#FBFB77" style="stroke: #A80036; stroke-width: 1.0;"/>
    <text fill="#000000" font-family="sans-serif" font-size="13" lengthAdjust="spacingAndGlyphs" textLength="264" x="228.5" y="293.2412">Diagram of the previous application launching.</text>
    <rect fill="#FEFECE" filter="url(#f1w4pi0k5zzzpn)" height="35.0938" rx="12.5" ry="12.5" style="stroke: #A80036; stroke-width: 1.5;" width="120" x="82.5" y="270.375"/>
    <text fill="#000000" font-family="sans-serif" font-size="12" lengthAdjust="spacingAndGlyphs" textLength="97" x="92.5" y="292.832">Content replaced.</text>
    <path d="M222.5,329.8398 L222.5,339.0156 L202.5,343.0156 L222.5,347.0156 L222.5,356.1914 A0,0 0 0 0 222.5,356.1914 L766.5,356.1914 A0,0 0 0 0 766.5,356.1914 L766.5,339.8398 L756.5,329.8398 L222.5,329.8398 A0,0 0 0 0 222.5,329.8398 " fill="#FBFB77" filter="url(#f1w4pi0k5zzzpn)" style="stroke: #A80036; stroke-width: 1.0;"/>
    <path d="M756.5,329.8398 L756.5,339.8398 L766.5,339.8398 L756.5,329.8398 " fill="#FBFB77" style="stroke: #A80036; stroke-width: 1.0;"/>
    <text fill="#000000" font-family="sans-serif" font-size="13" lengthAdjust="spacingAndGlyphs" textLength="523" x="228.5" y="348.335">Credibledoc modules - based activity diagram generated from credible-doc-generator_1.log.</text>
    <rect fill="#FEFECE" filter="url(#f1w4pi0k5zzzpn)" height="35.0938" rx="12.5" ry="12.5" style="stroke: #A80036; stroke-width: 1.5;" width="120" x="82.5" y="325.4688"/>
    <text fill="#000000" font-family="sans-serif" font-size="12" lengthAdjust="spacingAndGlyphs" textLength="97" x="92.5" y="347.9258">Content replaced.</text>
    <path d="M222.5,384.9336 L222.5,394.1094 L202.5,398.1094 L222.5,402.1094 L222.5,411.2852 A0,0 0 0 0 222.5,411.2852 L978.5,411.2852 A0,0 0 0 0 978.5,411.2852 L978.5,394.9336 L968.5,384.9336 L222.5,384.9336 A0,0 0 0 0 222.5,384.9336 " fill="#FBFB77" filter="url(#f1w4pi0k5zzzpn)" style="stroke: #A80036; stroke-width: 1.0;"/>
    <path d="M968.5,384.9336 L968.5,394.9336 L978.5,394.9336 L968.5,384.9336 " fill="#FBFB77" style="stroke: #A80036; stroke-width: 1.0;"/>
    <text fill="#000000" font-family="sans-serif" font-size="13" lengthAdjust="spacingAndGlyphs" textLength="735" x="228.5" y="403.4287">Dependency of the `com.credibledoc.substitution.doc` package on other classes in the `com.credibledoc.substitution` package.</text>
    <rect fill="#FEFECE" filter="url(#f1w4pi0k5zzzpn)" height="35.0938" rx="12.5" ry="12.5" style="stroke: #A80036; stroke-width: 1.5;" width="120" x="82.5" y="380.5625"/>
    <text fill="#000000" font-family="sans-serif" font-size="12" lengthAdjust="spacingAndGlyphs" textLength="97" x="92.5" y="403.0195">Content replaced.</text>
    <path d="M222.5,440.0273 L222.5,449.2031 L202.5,453.2031 L222.5,457.2031 L222.5,466.3789 A0,0 0 0 0 222.5,466.3789 L544.5,466.3789 A0,0 0 0 0 544.5,466.3789 L544.5,450.0273 L534.5,440.0273 L222.5,440.0273 A0,0 0 0 0 222.5,440.0273 " fill="#FBFB77" filter="url(#f1w4pi0k5zzzpn)" style="stroke: #A80036; stroke-width: 1.0;"/>
    <path d="M534.5,440.0273 L534.5,450.0273 L544.5,450.0273 L534.5,440.0273 " fill="#FBFB77" style="stroke: #A80036; stroke-width: 1.0;"/>
    <text fill="#000000" font-family="sans-serif" font-size="13" lengthAdjust="spacingAndGlyphs" textLength="301" x="228.5" y="458.5225">Current name of the credible-doc-generator-X.X.X.jar.</text>
    <rect fill="#FEFECE" filter="url(#f1w4pi0k5zzzpn)" height="35.0938" rx="12.5" ry="12.5" style="stroke: #A80036; stroke-width: 1.5;" width="120" x="82.5" y="435.6563"/>
    <text fill="#000000" font-family="sans-serif" font-size="12" lengthAdjust="spacingAndGlyphs" textLength="97" x="92.5" y="458.1133">Content replaced.</text>
    <path d="M222.5,495.1211 L222.5,504.2969 L202.5,508.2969 L222.5,512.2969 L222.5,521.4727 A0,0 0 0 0 222.5,521.4727 L666.5,521.4727 A0,0 0 0 0 666.5,521.4727 L666.5,505.1211 L656.5,495.1211 L222.5,495.1211 A0,0 0 0 0 222.5,495.1211 " fill="#FBFB77" filter="url(#f1w4pi0k5zzzpn)" style="stroke: #A80036; stroke-width: 1.0;"/>
    <path d="M656.5,495.1211 L656.5,505.1211 L666.5,505.1211 L656.5,495.1211 " fill="#FBFB77" style="stroke: #A80036; stroke-width: 1.0;"/>
    <text fill="#000000" font-family="sans-serif" font-size="13" lengthAdjust="spacingAndGlyphs" textLength="423" x="228.5" y="513.6162">List of resources from classpath of the credible-doc-generator application.</text>
    <rect fill="#FEFECE" filter="url(#f1w4pi0k5zzzpn)" height="35.0938" rx="12.5" ry="12.5" style="stroke: #A80036; stroke-width: 1.5;" width="120" x="82.5" y="490.75"/>
    <text fill="#000000" font-family="sans-serif" font-size="12" lengthAdjust="spacingAndGlyphs" textLength="97" x="92.5" y="513.207">Content replaced.</text>
    <line style="stroke: #A80036; stroke-width: 1.5;" x1="142.5" x2="142.5" y1="30" y2="50"/>
    <polygon fill="#A80036" points="138.5,40,142.5,50,146.5,40,142.5,44" style="stroke: #A80036; stroke-width: 1.0;"/>
    <line style="stroke: #A80036; stroke-width: 1.5;" x1="142.5" x2="142.5" y1="85.0938" y2="105.0938"/>
    <polygon fill="#A80036" points="138.5,95.0938,142.5,105.0938,146.5,95.0938,142.5,99.0938" style="stroke: #A80036; stroke-width: 1.0;"/>
    <line style="stroke: #A80036; stroke-width: 1.5;" x1="142.5" x2="142.5" y1="140.1875" y2="160.1875"/>
    <polygon fill="#A80036" points="138.5,150.1875,142.5,160.1875,146.5,150.1875,142.5,154.1875" style="stroke: #A80036; stroke-width: 1.0;"/>
    <line style="stroke: #A80036; stroke-width: 1.5;" x1="142.5" x2="142.5" y1="195.2813" y2="215.2813"/>
    <polygon fill="#A80036" points="138.5,205.2813,142.5,215.2813,146.5,205.2813,142.5,209.2813" style="stroke: #A80036; stroke-width: 1.0;"/>
    <line style="stroke: #A80036; stroke-width: 1.5;" x1="142.5" x2="142.5" y1="250.375" y2="270.375"/>
    <polygon fill="#A80036" points="138.5,260.375,142.5,270.375,146.5,260.375,142.5,264.375" style="stroke: #A80036; stroke-width: 1.0;"/>
    <line style="stroke: #A80036; stroke-width: 1.5;" x1="142.5" x2="142.5" y1="305.4688" y2="325.4688"/>
    <polygon fill="#A80036" points="138.5,315.4688,142.5,325.4688,146.5,315.4688,142.5,319.4688" style="stroke: #A80036; stroke-width: 1.0;"/>
    <line style="stroke: #A80036; stroke-width: 1.5;" x1="142.5" x2="142.5" y1="360.5625" y2="380.5625"/>
    <polygon fill="#A80036" points="138.5,370.5625,142.5,380.5625,146.5,370.5625,142.5,374.5625" style="stroke: #A80036; stroke-width: 1.0;"/>
    <line style="stroke: #A80036; stroke-width: 1.5;" x1="142.5" x2="142.5" y1="415.6563" y2="435.6563"/>
    <polygon fill="#A80036" points="138.5,425.6563,142.5,435.6563,146.5,425.6563,142.5,429.6563" style="stroke: #A80036; stroke-width: 1.0;"/>
    <line style="stroke: #A80036; stroke-width: 1.5;" x1="142.5" x2="142.5" y1="470.75" y2="490.75"/>
    <polygon fill="#A80036" points="138.5,480.75,142.5,490.75,146.5,480.75,142.5,484.75" style="stroke: #A80036; stroke-width: 1.0;"/>
    <!--
@startuml
start
:Application credible-doc-generator launched.;

:Configuration properties loaded;
note right
file:/C:/Users/semenko/git/credibledoc/credible-doc/credible-doc-generator/target/classes/substitution.properties
end note

:Content replaced. ;
note right
Diagram of the application launching created from credible-doc-generator.log.
end note

:Content replaced. ;
note right
Diagram of the application launching created from credible-doc-generator_1.log.
end note

:Content replaced. ;
note right
Diagram of the previous application launching.
end note

:Content replaced. ;
note right
Credibledoc modules - based activity diagram generated from credible-doc-generator_1.log.
end note

:Content replaced. ;
note right
Dependency of the `com.credibledoc.substitution.doc` package on other classes in the `com.credibledoc.substitution` package.
end note

:Content replaced. ;
note right
Current name of the credible-doc-generator-X.X.X.jar.
end note

:Content replaced. ;
note right
List of resources from classpath of the credible-doc-generator application.
end note

@enduml

PlantUML version 1.2019.05(Sat Apr 20 18:45:36 CEST 2019)
(GPL source distribution)
Java Runtime: Java(TM) SE Runtime Environment
JVM: Java HotSpot(TM) 64-Bit Server VM
Java Version: 1.8.0_71-b15
Operating System: Windows 7
OS Version: 6.1
Default Encoding: UTF-8
Language: cs
Country: CZ
-->
  </g>
</svg>
