<svg xmlns="http://www.w3.org/2000/svg" xmlns:xlink="http://www.w3.org/1999/xlink" contentScriptType="application/ecmascript" contentStyleType="text/css" height="157px" preserveAspectRatio="none" style="width:937px;height:157px;" version="1.1" viewBox="0 0 937 157" width="937px" zoomAndPan="magnify">
  <defs>
    <filter height="300%" id="1" width="300%" x="-1" y="-1">
      <feGaussianBlur result="blurOut" stdDeviation="2.0"/>
      <feColorMatrix in="blurOut" result="blurOut2" type="matrix" values="0 0 0 0 0 0 0 0 0 0 0 0 0 0 0 0 0 0 .4 0"/>
      <feOffset dx="4.0" dy="4.0" in="blurOut2" result="blurOut3"/>
      <feBlend in="SourceGraphic" in2="blurOut3" mode="normal"/>
    </filter>
  </defs>
  <g>
    <ellipse cx="143.5" cy="20" fill="#000000" filter="url(#1)" rx="10" ry="10" style="stroke: none; stroke-width: 1.0;"/>
    <rect fill="#FEFECE" filter="url(#1)" height="35.0938" rx="12.5" ry="12.5" style="stroke: #A80036; stroke-width: 1.5;" width="265" x="11" y="50"/>
    <text fill="#000000" font-family="sans-serif" font-size="12" lengthAdjust="spacingAndGlyphs" textLength="245" x="21" y="72.457">Application credible-doc-generator launched.</text>
    <path d="M260.5,109.4648 L260.5,118.6406 L240.5,122.6406 L260.5,126.6406 L260.5,135.8164 A0,0 0 0 0 260.5,135.8164 L925.5,135.8164 A0,0 0 0 0 925.5,135.8164 L925.5,119.4648 L915.5,109.4648 L260.5,109.4648 A0,0 0 0 0 260.5,109.4648 " fill="#FBFB77" filter="url(#1)" style="stroke: #A80036; stroke-width: 1.0;"/>
    <path d="M915.5,109.4648 L915.5,119.4648 L925.5,119.4648 L915.5,109.4648 " fill="#FBFB77" style="stroke: #A80036; stroke-width: 1.0;"/>
    <text fill="#000000" font-family="sans-serif" font-size="13" lengthAdjust="spacingAndGlyphs" textLength="644" x="266.5" y="127.96">file:/C:/Users/semenko/git/credibledoc/credible-doc/credible-doc-generator/target/classes/substitution.properties</text>
    <rect fill="#FEFECE" filter="url(#1)" height="35.0938" rx="12.5" ry="12.5" style="stroke: #A80036; stroke-width: 1.5;" width="194" x="46.5" y="105.0938"/>
    <text fill="#000000" font-family="sans-serif" font-size="12" lengthAdjust="spacingAndGlyphs" textLength="174" x="56.5" y="127.5508">Configuration properties loaded</text>
    <line style="stroke: #A80036; stroke-width: 1.5;" x1="143.5" x2="143.5" y1="30" y2="50"/>
    <polygon fill="#A80036" points="139.5,40,143.5,50,147.5,40,143.5,44" style="stroke: #A80036; stroke-width: 1.0;"/>
    <line style="stroke: #A80036; stroke-width: 1.5;" x1="143.5" x2="143.5" y1="85.0938" y2="105.0938"/>
    <polygon fill="#A80036" points="139.5,95.0938,143.5,105.0938,147.5,95.0938,143.5,99.0938" style="stroke: #A80036; stroke-width: 1.0;"/>
    <!--MD5=[17a707b5df66f76c355dcf162fb0d75d]
@startuml
start
:Application credible-doc-generator launched.;

:Configuration properties loaded;
note right
file:/C:/Users/semenko/git/credibledoc/credible-doc/credible-doc-generator/target/classes/substitution.properties
end note

@enduml

PlantUML version 1.2020.14(Sat Jun 20 16:14:34 CEST 2020)
(GPL source distribution)
Java Runtime: Java(TM) SE Runtime Environment
JVM: Java HotSpot(TM) 64-Bit Server VM
Default Encoding: UTF-8
Language: en
Country: US
-->
  </g>
</svg>
