<svg xmlns="http://www.w3.org/2000/svg" xmlns:xlink="http://www.w3.org/1999/xlink" contentStyleType="text/css" height="1620px" preserveAspectRatio="none" style="width:725px;height:1620px;background:#FFFFFF;" version="1.1" viewBox="0 0 725 1620" width="725px" zoomAndPan="magnify">
  <defs/>
  <g>
    <!--MD5=[6bd5fed661691d3bad4a21d0634ed63c]
cluster com.credibledoc.substitution-->
    <g id="cluster_com.credibledoc.substitution">
      <path d="M8.5,788 L214.5,788 A3.75,3.75 0 0 1 217,790.5 L224,811.6094 L224.5,811.6094 A2.5,2.5 0 0 1 227,814.1094 L227,869.5 A2.5,2.5 0 0 1 224.5,872 L8.5,872 A2.5,2.5 0 0 1 6,869.5 L6,790.5 A2.5,2.5 0 0 1 8.5,788 " fill="none" style="stroke:#000000;stroke-width:1.5;"/>
      <line style="stroke:#000000;stroke-width:1.5;" x1="6" x2="224" y1="811.6094" y2="811.6094"/>
      <text fill="#000000" font-family="sans-serif" font-size="14" font-weight="bold" lengthAdjust="spacing" textLength="205" x="10" y="804.5332">com.credibledoc.substitution</text>
    </g>
    <!--MD5=[b4b367a8f3b794c0512c242c02d7d20b]
cluster com.credibledoc.substitution.reporting.report.document-->
    <g id="cluster_com.credibledoc.substitution.reporting.report.document">
      <path d="M282.5,6 L680.5,6 A3.75,3.75 0 0 1 683,8.5 L690,29.6094 L690.5,29.6094 A2.5,2.5 0 0 1 693,32.1094 L693,87.5 A2.5,2.5 0 0 1 690.5,90 L282.5,90 A2.5,2.5 0 0 1 280,87.5 L280,8.5 A2.5,2.5 0 0 1 282.5,6 " fill="none" style="stroke:#000000;stroke-width:1.5;"/>
      <line style="stroke:#000000;stroke-width:1.5;" x1="280" x2="690" y1="29.6094" y2="29.6094"/>
      <text fill="#000000" font-family="sans-serif" font-size="14" font-weight="bold" lengthAdjust="spacing" textLength="397" x="284" y="22.5332">com.credibledoc.substitution.reporting.report.document</text>
    </g>
    <!--MD5=[6aaa9b1fe7b3b9cd355b4aa4b9b93fb8]
cluster com.credibledoc.substitution.core.exception-->
    <g id="cluster_com.credibledoc.substitution.core.exception">
      <path d="M323,114 L639,114 A3.75,3.75 0 0 1 641.5,116.5 L648.5,137.6094 L649,137.6094 A2.5,2.5 0 0 1 651.5,140.1094 L651.5,195.5 A2.5,2.5 0 0 1 649,198 L323,198 A2.5,2.5 0 0 1 320.5,195.5 L320.5,116.5 A2.5,2.5 0 0 1 323,114 " fill="none" style="stroke:#000000;stroke-width:1.5;"/>
      <line style="stroke:#000000;stroke-width:1.5;" x1="320.5" x2="648.5" y1="137.6094" y2="137.6094"/>
      <text fill="#000000" font-family="sans-serif" font-size="14" font-weight="bold" lengthAdjust="spacing" textLength="315" x="324.5" y="130.5332">com.credibledoc.substitution.core.exception</text>
    </g>
    <!--MD5=[604668a39e118144da349442eead69dc]
cluster com.credibledoc.substitution.reporting.reportdocument-->
    <g id="cluster_com.credibledoc.substitution.reporting.reportdocument">
      <path d="M284,222 L678,222 A3.75,3.75 0 0 1 680.5,224.5 L687.5,245.6094 L688,245.6094 A2.5,2.5 0 0 1 690.5,248.1094 L690.5,370.5 A2.5,2.5 0 0 1 688,373 L284,373 A2.5,2.5 0 0 1 281.5,370.5 L281.5,224.5 A2.5,2.5 0 0 1 284,222 " fill="none" style="stroke:#000000;stroke-width:1.5;"/>
      <line style="stroke:#000000;stroke-width:1.5;" x1="281.5" x2="687.5" y1="245.6094" y2="245.6094"/>
      <text fill="#000000" font-family="sans-serif" font-size="14" font-weight="bold" lengthAdjust="spacing" textLength="393" x="285.5" y="238.5332">com.credibledoc.substitution.reporting.reportdocument</text>
    </g>
    <!--MD5=[089cbeb571dbef2d151d2e2cf16503b4]
cluster com.credibledoc.substitution.content.generator.jar-->
    <g id="cluster_com.credibledoc.substitution.content.generator.jar">
      <path d="M301.5,397 L661.5,397 A3.75,3.75 0 0 1 664,399.5 L671,420.6094 L671.5,420.6094 A2.5,2.5 0 0 1 674,423.1094 L674,478.5 A2.5,2.5 0 0 1 671.5,481 L301.5,481 A2.5,2.5 0 0 1 299,478.5 L299,399.5 A2.5,2.5 0 0 1 301.5,397 " fill="none" style="stroke:#000000;stroke-width:1.5;"/>
      <line style="stroke:#000000;stroke-width:1.5;" x1="299" x2="671" y1="420.6094" y2="420.6094"/>
      <text fill="#000000" font-family="sans-serif" font-size="14" font-weight="bold" lengthAdjust="spacing" textLength="359" x="303" y="413.5332">com.credibledoc.substitution.content.generator.jar</text>
    </g>
    <!--MD5=[f78070935425e6a95d03db3dc2e77f87]
cluster com.credibledoc.substitution.core.context-->
    <g id="cluster_com.credibledoc.substitution.core.context">
      <path d="M331.5,505 L630.5,505 A3.75,3.75 0 0 1 633,507.5 L640,528.6094 L640.5,528.6094 A2.5,2.5 0 0 1 643,531.1094 L643,586.5 A2.5,2.5 0 0 1 640.5,589 L331.5,589 A2.5,2.5 0 0 1 329,586.5 L329,507.5 A2.5,2.5 0 0 1 331.5,505 " fill="none" style="stroke:#000000;stroke-width:1.5;"/>
      <line style="stroke:#000000;stroke-width:1.5;" x1="329" x2="640" y1="528.6094" y2="528.6094"/>
      <text fill="#000000" font-family="sans-serif" font-size="14" font-weight="bold" lengthAdjust="spacing" textLength="298" x="333" y="521.5332">com.credibledoc.substitution.core.context</text>
    </g>
    <!--MD5=[78253e8a40f9af2549829117a9d7d7ac]
cluster com.credibledoc.substitution.core.placeholder-->
    <g id="cluster_com.credibledoc.substitution.core.placeholder">
      <path d="M316.5,613 L646.5,613 A3.75,3.75 0 0 1 649,615.5 L656,636.6094 L656.5,636.6094 A2.5,2.5 0 0 1 659,639.1094 L659,761.5 A2.5,2.5 0 0 1 656.5,764 L316.5,764 A2.5,2.5 0 0 1 314,761.5 L314,615.5 A2.5,2.5 0 0 1 316.5,613 " fill="none" style="stroke:#000000;stroke-width:1.5;"/>
      <line style="stroke:#000000;stroke-width:1.5;" x1="314" x2="656" y1="636.6094" y2="636.6094"/>
      <text fill="#000000" font-family="sans-serif" font-size="14" font-weight="bold" lengthAdjust="spacing" textLength="329" x="318" y="629.5332">com.credibledoc.substitution.core.placeholder</text>
    </g>
    <!--MD5=[4d226a5b58f759dcb301ddf5905e7a50]
cluster com.credibledoc.substitution.core.resource-->
    <g id="cluster_com.credibledoc.substitution.core.resource">
      <path d="M326.5,788 L636.5,788 A3.75,3.75 0 0 1 639,790.5 L646,811.6094 L646.5,811.6094 A2.5,2.5 0 0 1 649,814.1094 L649,1003.5 A2.5,2.5 0 0 1 646.5,1006 L326.5,1006 A2.5,2.5 0 0 1 324,1003.5 L324,790.5 A2.5,2.5 0 0 1 326.5,788 " fill="none" style="stroke:#000000;stroke-width:1.5;"/>
      <line style="stroke:#000000;stroke-width:1.5;" x1="324" x2="646" y1="811.6094" y2="811.6094"/>
      <text fill="#000000" font-family="sans-serif" font-size="14" font-weight="bold" lengthAdjust="spacing" textLength="309" x="328" y="804.5332">com.credibledoc.substitution.core.resource</text>
    </g>
    <!--MD5=[22609b558f7955e0789638ecc9c88945]
cluster com.credibledoc.substitution.reporting.reportdocument.creator-->
    <g id="cluster_com.credibledoc.substitution.reporting.reportdocument.creator">
      <path d="M257,1030 L706,1030 A3.75,3.75 0 0 1 708.5,1032.5 L715.5,1053.6094 L716,1053.6094 A2.5,2.5 0 0 1 718.5,1056.1094 L718.5,1111.5 A2.5,2.5 0 0 1 716,1114 L257,1114 A2.5,2.5 0 0 1 254.5,1111.5 L254.5,1032.5 A2.5,2.5 0 0 1 257,1030 " fill="none" style="stroke:#000000;stroke-width:1.5;"/>
      <line style="stroke:#000000;stroke-width:1.5;" x1="254.5" x2="715.5" y1="1053.6094" y2="1053.6094"/>
      <text fill="#000000" font-family="sans-serif" font-size="14" font-weight="bold" lengthAdjust="spacing" textLength="448" x="258.5" y="1046.5332">com.credibledoc.substitution.reporting.reportdocument.creator</text>
    </g>
    <!--MD5=[9702c35b080beb7f5ae80df4f8631438]
cluster com.credibledoc.substitution.core.template-->
    <g id="cluster_com.credibledoc.substitution.core.template">
      <path d="M327.5,1138 L634.5,1138 A3.75,3.75 0 0 1 637,1140.5 L644,1161.6094 L644.5,1161.6094 A2.5,2.5 0 0 1 647,1164.1094 L647,1219.5 A2.5,2.5 0 0 1 644.5,1222 L327.5,1222 A2.5,2.5 0 0 1 325,1219.5 L325,1140.5 A2.5,2.5 0 0 1 327.5,1138 " fill="none" style="stroke:#000000;stroke-width:1.5;"/>
      <line style="stroke:#000000;stroke-width:1.5;" x1="325" x2="644" y1="1161.6094" y2="1161.6094"/>
      <text fill="#000000" font-family="sans-serif" font-size="14" font-weight="bold" lengthAdjust="spacing" textLength="306" x="329" y="1154.5332">com.credibledoc.substitution.core.template</text>
    </g>
    <!--MD5=[6fea2340843c4c33bcaaaffa683def55]
cluster com.credibledoc.substitution.core.configuration-->
    <g id="cluster_com.credibledoc.substitution.core.configuration">
      <path d="M311.5,1246 L651.5,1246 A3.75,3.75 0 0 1 654,1248.5 L661,1269.6094 L661.5,1269.6094 A2.5,2.5 0 0 1 664,1272.1094 L664,1327.5 A2.5,2.5 0 0 1 661.5,1330 L311.5,1330 A2.5,2.5 0 0 1 309,1327.5 L309,1248.5 A2.5,2.5 0 0 1 311.5,1246 " fill="none" style="stroke:#000000;stroke-width:1.5;"/>
      <line style="stroke:#000000;stroke-width:1.5;" x1="309" x2="661" y1="1269.6094" y2="1269.6094"/>
      <text fill="#000000" font-family="sans-serif" font-size="14" font-weight="bold" lengthAdjust="spacing" textLength="339" x="313" y="1262.5332">com.credibledoc.substitution.core.configuration</text>
    </g>
    <!--MD5=[ce9195034ca59eb29b58526b44be340b]
cluster com.credibledoc.substitution.reporting.replacement-->
    <g id="cluster_com.credibledoc.substitution.reporting.replacement">
      <path d="M297.5,1354 L665.5,1354 A3.75,3.75 0 0 1 668,1356.5 L675,1377.6094 L675.5,1377.6094 A2.5,2.5 0 0 1 678,1380.1094 L678,1435.5 A2.5,2.5 0 0 1 675.5,1438 L297.5,1438 A2.5,2.5 0 0 1 295,1435.5 L295,1356.5 A2.5,2.5 0 0 1 297.5,1354 " fill="none" style="stroke:#000000;stroke-width:1.5;"/>
      <line style="stroke:#000000;stroke-width:1.5;" x1="295" x2="675" y1="1377.6094" y2="1377.6094"/>
      <text fill="#000000" font-family="sans-serif" font-size="14" font-weight="bold" lengthAdjust="spacing" textLength="367" x="299" y="1370.5332">com.credibledoc.substitution.reporting.replacement</text>
    </g>
    <!--MD5=[0f12076e88e759fddd5320f7dca15cee]
cluster com.credibledoc.substitution.core.content-->
    <g id="cluster_com.credibledoc.substitution.core.content">
      <path d="M331,1462 L631,1462 A3.75,3.75 0 0 1 633.5,1464.5 L640.5,1485.6094 L641,1485.6094 A2.5,2.5 0 0 1 643.5,1488.1094 L643.5,1610.5 A2.5,2.5 0 0 1 641,1613 L331,1613 A2.5,2.5 0 0 1 328.5,1610.5 L328.5,1464.5 A2.5,2.5 0 0 1 331,1462 " fill="none" style="stroke:#000000;stroke-width:1.5;"/>
      <line style="stroke:#000000;stroke-width:1.5;" x1="328.5" x2="640.5" y1="1485.6094" y2="1485.6094"/>
      <text fill="#000000" font-family="sans-serif" font-size="14" font-weight="bold" lengthAdjust="spacing" textLength="299" x="332.5" y="1478.5332">com.credibledoc.substitution.core.content</text>
    </g>
    <!--MD5=[184e894e943eea80494633c4a85fc481]
class com.credibledoc.substitution.doc-->
    <g id="elem_com.credibledoc.substitution.doc">
      <rect codeLine="10" fill="#98FB98" height="32" id="com.credibledoc.substitution.doc" rx="2.5" ry="2.5" style="stroke:#00FF7F;stroke-width:0.5;" width="55" x="89" y="824"/>
      <ellipse cx="104" cy="840" fill="#20B2AA" rx="11" ry="11" style="stroke:#181818;stroke-width:1.0;"/>
      <path d="M104.625,841.5469 L104.625,843.2969 L106.3281,843.2969 Q106.9531,843.2969 107.2109,843.5313 Q107.4688,843.7656 107.4688,844.1563 Q107.4688,844.5313 107.2109,844.7656 Q106.9531,845 106.3281,845 L102.6563,845 Q102.0313,845 101.7734,844.7656 Q101.5156,844.5313 101.5156,844.1406 Q101.5156,843.7656 101.7813,843.5313 Q102.0469,843.2969 102.6563,843.2969 L102.9219,843.2969 L102.9219,836.6406 L102.6563,836.6406 Q102.0313,836.6406 101.7734,836.4063 Q101.5156,836.1719 101.5156,835.7813 Q101.5156,835.4063 101.7734,835.1719 Q102.0313,834.9375 102.6563,834.9375 L106.5625,834.9375 Q108.2969,834.9375 109.3047,835.8828 Q110.3125,836.8281 110.3125,838.1719 Q110.3125,838.9219 109.9688,839.5938 Q109.7188,840.0781 109.1172,840.5703 Q108.5156,841.0625 107.8828,841.3047 Q107.25,841.5469 106.2344,841.5469 L104.625,841.5469 Z M104.625,839.8438 L106.1875,839.8438 Q107.3125,839.8438 107.9609,839.3438 Q108.6094,838.8438 108.6094,838.1406 Q108.6094,837.5313 108.0859,837.0859 Q107.5625,836.6406 106.5781,836.6406 L104.625,836.6406 L104.625,839.8438 Z " fill="#000000"/>
      <text fill="#000000" font-family="sans-serif" font-size="14" lengthAdjust="spacing" textLength="23" x="118" y="845.7285">doc</text>
    </g>
    <!--MD5=[c5a4acc6e28859c4ed5f977e6e109c29]
class com.credibledoc.substitution.reporting.report.document.Document-->
    <g id="elem_com.credibledoc.substitution.reporting.report.document.Document">
      <rect codeLine="11" fill="#98FB98" height="32" id="com.credibledoc.substitution.reporting.report.document.Document" rx="2.5" ry="2.5" style="stroke:#00FF7F;stroke-width:0.5;" width="96" x="438" y="42"/>
      <ellipse cx="453" cy="58" fill="#9ACD32" rx="11" ry="11" style="stroke:#181818;stroke-width:1.0;"/>
      <path d="M455.7656,53.875 Q455.9219,53.6563 456.1094,53.5469 Q456.2969,53.4375 456.5156,53.4375 Q456.8906,53.4375 457.125,53.6953 Q457.3594,53.9531 457.3594,54.5625 L457.3594,56.0156 Q457.3594,56.625 457.125,56.8906 Q456.8906,57.1563 456.5156,57.1563 Q456.1719,57.1563 455.9688,56.9531 Q455.7656,56.7656 455.6563,56.25 Q455.6094,55.8906 455.4219,55.7031 Q455.0938,55.3281 454.4844,55.1094 Q453.875,54.8906 453.25,54.8906 Q452.4844,54.8906 451.8516,55.2188 Q451.2188,55.5469 450.7266,56.2969 Q450.2344,57.0469 450.2344,58.0781 L450.2344,59.1719 Q450.2344,60.4063 451.125,61.2266 Q452.0156,62.0469 453.6094,62.0469 Q454.5469,62.0469 455.2031,61.7969 Q455.5938,61.6406 456.0156,61.2031 Q456.2813,60.9375 456.4297,60.8594 Q456.5781,60.7813 456.7813,60.7813 Q457.1094,60.7813 457.3672,61.0391 Q457.625,61.2969 457.625,61.6406 Q457.625,61.9844 457.2813,62.3906 Q456.7813,62.9688 455.9844,63.2969 Q454.9063,63.75 453.6094,63.75 Q452.0938,63.75 450.8906,63.125 Q449.9063,62.625 449.2188,61.5547 Q448.5313,60.4844 448.5313,59.2031 L448.5313,58.0469 Q448.5313,56.7188 449.1484,55.5703 Q449.7656,54.4219 450.8594,53.8047 Q451.9531,53.1875 453.1875,53.1875 Q453.9219,53.1875 454.5703,53.3516 Q455.2188,53.5156 455.7656,53.875 Z " fill="#000000"/>
      <text fill="#000000" font-family="sans-serif" font-size="14" lengthAdjust="spacing" textLength="64" x="467" y="63.7285">Document</text>
    </g>
    <!--MD5=[13694b838c4692c931c3f77704ea2c78]
class com.credibledoc.substitution.core.exception.SubstitutionRuntimeException-->
    <g id="elem_com.credibledoc.substitution.core.exception.SubstitutionRuntimeException">
      <rect codeLine="12" fill="#98FB98" height="32" id="com.credibledoc.substitution.core.exception.SubstitutionRuntimeException" rx="2.5" ry="2.5" style="stroke:#00FF7F;stroke-width:0.5;" width="219" x="376.5" y="150"/>
      <ellipse cx="391.5" cy="166" fill="#9ACD32" rx="11" ry="11" style="stroke:#181818;stroke-width:1.0;"/>
      <path d="M394.2656,161.875 Q394.4219,161.6563 394.6094,161.5469 Q394.7969,161.4375 395.0156,161.4375 Q395.3906,161.4375 395.625,161.6953 Q395.8594,161.9531 395.8594,162.5625 L395.8594,164.0156 Q395.8594,164.625 395.625,164.8906 Q395.3906,165.1563 395.0156,165.1563 Q394.6719,165.1563 394.4688,164.9531 Q394.2656,164.7656 394.1563,164.25 Q394.1094,163.8906 393.9219,163.7031 Q393.5938,163.3281 392.9844,163.1094 Q392.375,162.8906 391.75,162.8906 Q390.9844,162.8906 390.3516,163.2188 Q389.7188,163.5469 389.2266,164.2969 Q388.7344,165.0469 388.7344,166.0781 L388.7344,167.1719 Q388.7344,168.4063 389.625,169.2266 Q390.5156,170.0469 392.1094,170.0469 Q393.0469,170.0469 393.7031,169.7969 Q394.0938,169.6406 394.5156,169.2031 Q394.7813,168.9375 394.9297,168.8594 Q395.0781,168.7813 395.2813,168.7813 Q395.6094,168.7813 395.8672,169.0391 Q396.125,169.2969 396.125,169.6406 Q396.125,169.9844 395.7813,170.3906 Q395.2813,170.9688 394.4844,171.2969 Q393.4063,171.75 392.1094,171.75 Q390.5938,171.75 389.3906,171.125 Q388.4063,170.625 387.7188,169.5547 Q387.0313,168.4844 387.0313,167.2031 L387.0313,166.0469 Q387.0313,164.7188 387.6484,163.5703 Q388.2656,162.4219 389.3594,161.8047 Q390.4531,161.1875 391.6875,161.1875 Q392.4219,161.1875 393.0703,161.3516 Q393.7188,161.5156 394.2656,161.875 Z " fill="#000000"/>
      <text fill="#000000" font-family="sans-serif" font-size="14" lengthAdjust="spacing" textLength="187" x="405.5" y="171.7285">SubstitutionRuntimeException</text>
    </g>
    <!--MD5=[de6fb2299aece456650c4cd9b365442a]
class com.credibledoc.substitution.reporting.reportdocument.ReportDocumentType-->
    <g id="elem_com.credibledoc.substitution.reporting.reportdocument.ReportDocumentType">
      <rect codeLine="13" fill="#98FB98" height="32" id="com.credibledoc.substitution.reporting.reportdocument.ReportDocumentType" rx="2.5" ry="2.5" style="stroke:#00FF7F;stroke-width:0.5;" width="171" x="400.5" y="258"/>
      <ellipse cx="415.5" cy="274" fill="#9ACD32" rx="11" ry="11" style="stroke:#181818;stroke-width:1.0;"/>
      <path d="M418.2656,269.875 Q418.4219,269.6563 418.6094,269.5469 Q418.7969,269.4375 419.0156,269.4375 Q419.3906,269.4375 419.625,269.6953 Q419.8594,269.9531 419.8594,270.5625 L419.8594,272.0156 Q419.8594,272.625 419.625,272.8906 Q419.3906,273.1563 419.0156,273.1563 Q418.6719,273.1563 418.4688,272.9531 Q418.2656,272.7656 418.1563,272.25 Q418.1094,271.8906 417.9219,271.7031 Q417.5938,271.3281 416.9844,271.1094 Q416.375,270.8906 415.75,270.8906 Q414.9844,270.8906 414.3516,271.2188 Q413.7188,271.5469 413.2266,272.2969 Q412.7344,273.0469 412.7344,274.0781 L412.7344,275.1719 Q412.7344,276.4063 413.625,277.2266 Q414.5156,278.0469 416.1094,278.0469 Q417.0469,278.0469 417.7031,277.7969 Q418.0938,277.6406 418.5156,277.2031 Q418.7813,276.9375 418.9297,276.8594 Q419.0781,276.7813 419.2813,276.7813 Q419.6094,276.7813 419.8672,277.0391 Q420.125,277.2969 420.125,277.6406 Q420.125,277.9844 419.7813,278.3906 Q419.2813,278.9688 418.4844,279.2969 Q417.4063,279.75 416.1094,279.75 Q414.5938,279.75 413.3906,279.125 Q412.4063,278.625 411.7188,277.5547 Q411.0313,276.4844 411.0313,275.2031 L411.0313,274.0469 Q411.0313,272.7188 411.6484,271.5703 Q412.2656,270.4219 413.3594,269.8047 Q414.4531,269.1875 415.6875,269.1875 Q416.4219,269.1875 417.0703,269.3516 Q417.7188,269.5156 418.2656,269.875 Z " fill="#000000"/>
      <text fill="#000000" font-family="sans-serif" font-size="14" lengthAdjust="spacing" textLength="139" x="429.5" y="279.7285">ReportDocumentType</text>
    </g>
    <!--MD5=[dd460d3c26151f28537ffa24ebd17c35]
class com.credibledoc.substitution.reporting.reportdocument.ReportDocument-->
    <g id="elem_com.credibledoc.substitution.reporting.reportdocument.ReportDocument">
      <rect codeLine="25" fill="#98FB98" height="32" id="com.credibledoc.substitution.reporting.reportdocument.ReportDocument" rx="2.5" ry="2.5" style="stroke:#00FF7F;stroke-width:0.5;" width="139" x="416.5" y="325"/>
      <ellipse cx="431.5" cy="341" fill="#9ACD32" rx="11" ry="11" style="stroke:#181818;stroke-width:1.0;"/>
      <path d="M434.2656,336.875 Q434.4219,336.6563 434.6094,336.5469 Q434.7969,336.4375 435.0156,336.4375 Q435.3906,336.4375 435.625,336.6953 Q435.8594,336.9531 435.8594,337.5625 L435.8594,339.0156 Q435.8594,339.625 435.625,339.8906 Q435.3906,340.1563 435.0156,340.1563 Q434.6719,340.1563 434.4688,339.9531 Q434.2656,339.7656 434.1563,339.25 Q434.1094,338.8906 433.9219,338.7031 Q433.5938,338.3281 432.9844,338.1094 Q432.375,337.8906 431.75,337.8906 Q430.9844,337.8906 430.3516,338.2188 Q429.7188,338.5469 429.2266,339.2969 Q428.7344,340.0469 428.7344,341.0781 L428.7344,342.1719 Q428.7344,343.4063 429.625,344.2266 Q430.5156,345.0469 432.1094,345.0469 Q433.0469,345.0469 433.7031,344.7969 Q434.0938,344.6406 434.5156,344.2031 Q434.7813,343.9375 434.9297,343.8594 Q435.0781,343.7813 435.2813,343.7813 Q435.6094,343.7813 435.8672,344.0391 Q436.125,344.2969 436.125,344.6406 Q436.125,344.9844 435.7813,345.3906 Q435.2813,345.9688 434.4844,346.2969 Q433.4063,346.75 432.1094,346.75 Q430.5938,346.75 429.3906,346.125 Q428.4063,345.625 427.7188,344.5547 Q427.0313,343.4844 427.0313,342.2031 L427.0313,341.0469 Q427.0313,339.7188 427.6484,338.5703 Q428.2656,337.4219 429.3594,336.8047 Q430.4531,336.1875 431.6875,336.1875 Q432.4219,336.1875 433.0703,336.3516 Q433.7188,336.5156 434.2656,336.875 Z " fill="#000000"/>
      <text fill="#000000" font-family="sans-serif" font-size="14" lengthAdjust="spacing" textLength="107" x="445.5" y="346.7285">ReportDocument</text>
    </g>
    <!--MD5=[104fd32fb6caa548d2ce9768d17dcbe3]
class com.credibledoc.substitution.content.generator.jar.LocalJarNameContentGenerator-->
    <g id="elem_com.credibledoc.substitution.content.generator.jar.LocalJarNameContentGenerator">
      <rect codeLine="14" fill="#98FB98" height="32" id="com.credibledoc.substitution.content.generator.jar.LocalJarNameContentGenerator" rx="2.5" ry="2.5" style="stroke:#00FF7F;stroke-width:0.5;" width="236" x="368" y="433"/>
      <ellipse cx="383" cy="449" fill="#9ACD32" rx="11" ry="11" style="stroke:#181818;stroke-width:1.0;"/>
      <path d="M385.7656,444.875 Q385.9219,444.6563 386.1094,444.5469 Q386.2969,444.4375 386.5156,444.4375 Q386.8906,444.4375 387.125,444.6953 Q387.3594,444.9531 387.3594,445.5625 L387.3594,447.0156 Q387.3594,447.625 387.125,447.8906 Q386.8906,448.1563 386.5156,448.1563 Q386.1719,448.1563 385.9688,447.9531 Q385.7656,447.7656 385.6563,447.25 Q385.6094,446.8906 385.4219,446.7031 Q385.0938,446.3281 384.4844,446.1094 Q383.875,445.8906 383.25,445.8906 Q382.4844,445.8906 381.8516,446.2188 Q381.2188,446.5469 380.7266,447.2969 Q380.2344,448.0469 380.2344,449.0781 L380.2344,450.1719 Q380.2344,451.4063 381.125,452.2266 Q382.0156,453.0469 383.6094,453.0469 Q384.5469,453.0469 385.2031,452.7969 Q385.5938,452.6406 386.0156,452.2031 Q386.2813,451.9375 386.4297,451.8594 Q386.5781,451.7813 386.7813,451.7813 Q387.1094,451.7813 387.3672,452.0391 Q387.625,452.2969 387.625,452.6406 Q387.625,452.9844 387.2813,453.3906 Q386.7813,453.9688 385.9844,454.2969 Q384.9063,454.75 383.6094,454.75 Q382.0938,454.75 380.8906,454.125 Q379.9063,453.625 379.2188,452.5547 Q378.5313,451.4844 378.5313,450.2031 L378.5313,449.0469 Q378.5313,447.7188 379.1484,446.5703 Q379.7656,445.4219 380.8594,444.8047 Q381.9531,444.1875 383.1875,444.1875 Q383.9219,444.1875 384.5703,444.3516 Q385.2188,444.5156 385.7656,444.875 Z " fill="#000000"/>
      <text fill="#000000" font-family="sans-serif" font-size="14" lengthAdjust="spacing" textLength="204" x="397" y="454.7285">LocalJarNameContentGenerator</text>
    </g>
    <!--MD5=[49c5b8dc52a382acc6ecd565342c1456]
class com.credibledoc.substitution.core.context.SubstitutionContext-->
    <g id="elem_com.credibledoc.substitution.core.context.SubstitutionContext">
      <rect codeLine="15" fill="#98FB98" height="32" id="com.credibledoc.substitution.core.context.SubstitutionContext" rx="2.5" ry="2.5" style="stroke:#00FF7F;stroke-width:0.5;" width="154" x="409" y="541"/>
      <ellipse cx="424" cy="557" fill="#9ACD32" rx="11" ry="11" style="stroke:#181818;stroke-width:1.0;"/>
      <path d="M426.7656,552.875 Q426.9219,552.6563 427.1094,552.5469 Q427.2969,552.4375 427.5156,552.4375 Q427.8906,552.4375 428.125,552.6953 Q428.3594,552.9531 428.3594,553.5625 L428.3594,555.0156 Q428.3594,555.625 428.125,555.8906 Q427.8906,556.1563 427.5156,556.1563 Q427.1719,556.1563 426.9688,555.9531 Q426.7656,555.7656 426.6563,555.25 Q426.6094,554.8906 426.4219,554.7031 Q426.0938,554.3281 425.4844,554.1094 Q424.875,553.8906 424.25,553.8906 Q423.4844,553.8906 422.8516,554.2188 Q422.2188,554.5469 421.7266,555.2969 Q421.2344,556.0469 421.2344,557.0781 L421.2344,558.1719 Q421.2344,559.4063 422.125,560.2266 Q423.0156,561.0469 424.6094,561.0469 Q425.5469,561.0469 426.2031,560.7969 Q426.5938,560.6406 427.0156,560.2031 Q427.2813,559.9375 427.4297,559.8594 Q427.5781,559.7813 427.7813,559.7813 Q428.1094,559.7813 428.3672,560.0391 Q428.625,560.2969 428.625,560.6406 Q428.625,560.9844 428.2813,561.3906 Q427.7813,561.9688 426.9844,562.2969 Q425.9063,562.75 424.6094,562.75 Q423.0938,562.75 421.8906,562.125 Q420.9063,561.625 420.2188,560.5547 Q419.5313,559.4844 419.5313,558.2031 L419.5313,557.0469 Q419.5313,555.7188 420.1484,554.5703 Q420.7656,553.4219 421.8594,552.8047 Q422.9531,552.1875 424.1875,552.1875 Q424.9219,552.1875 425.5703,552.3516 Q426.2188,552.5156 426.7656,552.875 Z " fill="#000000"/>
      <text fill="#000000" font-family="sans-serif" font-size="14" lengthAdjust="spacing" textLength="122" x="438" y="562.7285">SubstitutionContext</text>
    </g>
    <!--MD5=[e564e4e147ca37e9e2799dcfbb8f5901]
class com.credibledoc.substitution.core.placeholder.PlaceholderService-->
    <g id="elem_com.credibledoc.substitution.core.placeholder.PlaceholderService">
      <rect codeLine="16" fill="#98FB98" height="32" id="com.credibledoc.substitution.core.placeholder.PlaceholderService" rx="2.5" ry="2.5" style="stroke:#00FF7F;stroke-width:0.5;" width="154" x="409" y="649"/>
      <ellipse cx="424" cy="665" fill="#9ACD32" rx="11" ry="11" style="stroke:#181818;stroke-width:1.0;"/>
      <path d="M426.7656,660.875 Q426.9219,660.6563 427.1094,660.5469 Q427.2969,660.4375 427.5156,660.4375 Q427.8906,660.4375 428.125,660.6953 Q428.3594,660.9531 428.3594,661.5625 L428.3594,663.0156 Q428.3594,663.625 428.125,663.8906 Q427.8906,664.1563 427.5156,664.1563 Q427.1719,664.1563 426.9688,663.9531 Q426.7656,663.7656 426.6563,663.25 Q426.6094,662.8906 426.4219,662.7031 Q426.0938,662.3281 425.4844,662.1094 Q424.875,661.8906 424.25,661.8906 Q423.4844,661.8906 422.8516,662.2188 Q422.2188,662.5469 421.7266,663.2969 Q421.2344,664.0469 421.2344,665.0781 L421.2344,666.1719 Q421.2344,667.4063 422.125,668.2266 Q423.0156,669.0469 424.6094,669.0469 Q425.5469,669.0469 426.2031,668.7969 Q426.5938,668.6406 427.0156,668.2031 Q427.2813,667.9375 427.4297,667.8594 Q427.5781,667.7813 427.7813,667.7813 Q428.1094,667.7813 428.3672,668.0391 Q428.625,668.2969 428.625,668.6406 Q428.625,668.9844 428.2813,669.3906 Q427.7813,669.9688 426.9844,670.2969 Q425.9063,670.75 424.6094,670.75 Q423.0938,670.75 421.8906,670.125 Q420.9063,669.625 420.2188,668.5547 Q419.5313,667.4844 419.5313,666.2031 L419.5313,665.0469 Q419.5313,663.7188 420.1484,662.5703 Q420.7656,661.4219 421.8594,660.8047 Q422.9531,660.1875 424.1875,660.1875 Q424.9219,660.1875 425.5703,660.3516 Q426.2188,660.5156 426.7656,660.875 Z " fill="#000000"/>
      <text fill="#000000" font-family="sans-serif" font-size="14" lengthAdjust="spacing" textLength="122" x="438" y="670.7285">PlaceholderService</text>
    </g>
    <!--MD5=[56a034bd30a3bed0b5d1d9cdd1ada984]
class com.credibledoc.substitution.core.placeholder.Placeholder-->
    <g id="elem_com.credibledoc.substitution.core.placeholder.Placeholder">
      <rect codeLine="27" fill="#98FB98" height="32" id="com.credibledoc.substitution.core.placeholder.Placeholder" rx="2.5" ry="2.5" style="stroke:#00FF7F;stroke-width:0.5;" width="107" x="432.5" y="716"/>
      <ellipse cx="447.5" cy="732" fill="#9ACD32" rx="11" ry="11" style="stroke:#181818;stroke-width:1.0;"/>
      <path d="M450.2656,727.875 Q450.4219,727.6563 450.6094,727.5469 Q450.7969,727.4375 451.0156,727.4375 Q451.3906,727.4375 451.625,727.6953 Q451.8594,727.9531 451.8594,728.5625 L451.8594,730.0156 Q451.8594,730.625 451.625,730.8906 Q451.3906,731.1563 451.0156,731.1563 Q450.6719,731.1563 450.4688,730.9531 Q450.2656,730.7656 450.1563,730.25 Q450.1094,729.8906 449.9219,729.7031 Q449.5938,729.3281 448.9844,729.1094 Q448.375,728.8906 447.75,728.8906 Q446.9844,728.8906 446.3516,729.2188 Q445.7188,729.5469 445.2266,730.2969 Q444.7344,731.0469 444.7344,732.0781 L444.7344,733.1719 Q444.7344,734.4063 445.625,735.2266 Q446.5156,736.0469 448.1094,736.0469 Q449.0469,736.0469 449.7031,735.7969 Q450.0938,735.6406 450.5156,735.2031 Q450.7813,734.9375 450.9297,734.8594 Q451.0781,734.7813 451.2813,734.7813 Q451.6094,734.7813 451.8672,735.0391 Q452.125,735.2969 452.125,735.6406 Q452.125,735.9844 451.7813,736.3906 Q451.2813,736.9688 450.4844,737.2969 Q449.4063,737.75 448.1094,737.75 Q446.5938,737.75 445.3906,737.125 Q444.4063,736.625 443.7188,735.5547 Q443.0313,734.4844 443.0313,733.2031 L443.0313,732.0469 Q443.0313,730.7188 443.6484,729.5703 Q444.2656,728.4219 445.3594,727.8047 Q446.4531,727.1875 447.6875,727.1875 Q448.4219,727.1875 449.0703,727.3516 Q449.7188,727.5156 450.2656,727.875 Z " fill="#000000"/>
      <text fill="#000000" font-family="sans-serif" font-size="14" lengthAdjust="spacing" textLength="75" x="461.5" y="737.7285">Placeholder</text>
    </g>
    <!--MD5=[b6d80539f3bead6292ad36c14bd5bb90]
class com.credibledoc.substitution.core.resource.TemplateResource-->
    <g id="elem_com.credibledoc.substitution.core.resource.TemplateResource">
      <rect codeLine="17" fill="#98FB98" height="32" id="com.credibledoc.substitution.core.resource.TemplateResource" rx="2.5" ry="2.5" style="stroke:#00FF7F;stroke-width:0.5;" width="152" x="410" y="824"/>
      <ellipse cx="425" cy="840" fill="#9ACD32" rx="11" ry="11" style="stroke:#181818;stroke-width:1.0;"/>
      <path d="M427.7656,835.875 Q427.9219,835.6563 428.1094,835.5469 Q428.2969,835.4375 428.5156,835.4375 Q428.8906,835.4375 429.125,835.6953 Q429.3594,835.9531 429.3594,836.5625 L429.3594,838.0156 Q429.3594,838.625 429.125,838.8906 Q428.8906,839.1563 428.5156,839.1563 Q428.1719,839.1563 427.9688,838.9531 Q427.7656,838.7656 427.6563,838.25 Q427.6094,837.8906 427.4219,837.7031 Q427.0938,837.3281 426.4844,837.1094 Q425.875,836.8906 425.25,836.8906 Q424.4844,836.8906 423.8516,837.2188 Q423.2188,837.5469 422.7266,838.2969 Q422.2344,839.0469 422.2344,840.0781 L422.2344,841.1719 Q422.2344,842.4063 423.125,843.2266 Q424.0156,844.0469 425.6094,844.0469 Q426.5469,844.0469 427.2031,843.7969 Q427.5938,843.6406 428.0156,843.2031 Q428.2813,842.9375 428.4297,842.8594 Q428.5781,842.7813 428.7813,842.7813 Q429.1094,842.7813 429.3672,843.0391 Q429.625,843.2969 429.625,843.6406 Q429.625,843.9844 429.2813,844.3906 Q428.7813,844.9688 427.9844,845.2969 Q426.9063,845.75 425.6094,845.75 Q424.0938,845.75 422.8906,845.125 Q421.9063,844.625 421.2188,843.5547 Q420.5313,842.4844 420.5313,841.2031 L420.5313,840.0469 Q420.5313,838.7188 421.1484,837.5703 Q421.7656,836.4219 422.8594,835.8047 Q423.9531,835.1875 425.1875,835.1875 Q425.9219,835.1875 426.5703,835.3516 Q427.2188,835.5156 427.7656,835.875 Z " fill="#000000"/>
      <text fill="#000000" font-family="sans-serif" font-size="14" lengthAdjust="spacing" textLength="120" x="439" y="845.7285">TemplateResource</text>
    </g>
    <!--MD5=[00153bfefca05d263e9c6344f4443f50]
class com.credibledoc.substitution.core.resource.ResourceService-->
    <g id="elem_com.credibledoc.substitution.core.resource.ResourceService">
      <rect codeLine="21" fill="#98FB98" height="32" id="com.credibledoc.substitution.core.resource.ResourceService" rx="2.5" ry="2.5" style="stroke:#00FF7F;stroke-width:0.5;" width="140" x="416" y="891"/>
      <ellipse cx="431" cy="907" fill="#9ACD32" rx="11" ry="11" style="stroke:#181818;stroke-width:1.0;"/>
      <path d="M433.7656,902.875 Q433.9219,902.6563 434.1094,902.5469 Q434.2969,902.4375 434.5156,902.4375 Q434.8906,902.4375 435.125,902.6953 Q435.3594,902.9531 435.3594,903.5625 L435.3594,905.0156 Q435.3594,905.625 435.125,905.8906 Q434.8906,906.1563 434.5156,906.1563 Q434.1719,906.1563 433.9688,905.9531 Q433.7656,905.7656 433.6563,905.25 Q433.6094,904.8906 433.4219,904.7031 Q433.0938,904.3281 432.4844,904.1094 Q431.875,903.8906 431.25,903.8906 Q430.4844,903.8906 429.8516,904.2188 Q429.2188,904.5469 428.7266,905.2969 Q428.2344,906.0469 428.2344,907.0781 L428.2344,908.1719 Q428.2344,909.4063 429.125,910.2266 Q430.0156,911.0469 431.6094,911.0469 Q432.5469,911.0469 433.2031,910.7969 Q433.5938,910.6406 434.0156,910.2031 Q434.2813,909.9375 434.4297,909.8594 Q434.5781,909.7813 434.7813,909.7813 Q435.1094,909.7813 435.3672,910.0391 Q435.625,910.2969 435.625,910.6406 Q435.625,910.9844 435.2813,911.3906 Q434.7813,911.9688 433.9844,912.2969 Q432.9063,912.75 431.6094,912.75 Q430.0938,912.75 428.8906,912.125 Q427.9063,911.625 427.2188,910.5547 Q426.5313,909.4844 426.5313,908.2031 L426.5313,907.0469 Q426.5313,905.7188 427.1484,904.5703 Q427.7656,903.4219 428.8594,902.8047 Q429.9531,902.1875 431.1875,902.1875 Q431.9219,902.1875 432.5703,902.3516 Q433.2188,902.5156 433.7656,902.875 Z " fill="#000000"/>
      <text fill="#000000" font-family="sans-serif" font-size="14" lengthAdjust="spacing" textLength="108" x="445" y="912.7285">ResourceService</text>
    </g>
    <!--MD5=[43b55aca9cee8087ee601639b7ccee93]
class com.credibledoc.substitution.core.resource.ResourceType-->
    <g id="elem_com.credibledoc.substitution.core.resource.ResourceType">
      <rect codeLine="24" fill="#98FB98" height="32" id="com.credibledoc.substitution.core.resource.ResourceType" rx="2.5" ry="2.5" style="stroke:#00FF7F;stroke-width:0.5;" width="125" x="423.5" y="958"/>
      <ellipse cx="438.5" cy="974" fill="#9ACD32" rx="11" ry="11" style="stroke:#181818;stroke-width:1.0;"/>
      <path d="M441.2656,969.875 Q441.4219,969.6563 441.6094,969.5469 Q441.7969,969.4375 442.0156,969.4375 Q442.3906,969.4375 442.625,969.6953 Q442.8594,969.9531 442.8594,970.5625 L442.8594,972.0156 Q442.8594,972.625 442.625,972.8906 Q442.3906,973.1563 442.0156,973.1563 Q441.6719,973.1563 441.4688,972.9531 Q441.2656,972.7656 441.1563,972.25 Q441.1094,971.8906 440.9219,971.7031 Q440.5938,971.3281 439.9844,971.1094 Q439.375,970.8906 438.75,970.8906 Q437.9844,970.8906 437.3516,971.2188 Q436.7188,971.5469 436.2266,972.2969 Q435.7344,973.0469 435.7344,974.0781 L435.7344,975.1719 Q435.7344,976.4063 436.625,977.2266 Q437.5156,978.0469 439.1094,978.0469 Q440.0469,978.0469 440.7031,977.7969 Q441.0938,977.6406 441.5156,977.2031 Q441.7813,976.9375 441.9297,976.8594 Q442.0781,976.7813 442.2813,976.7813 Q442.6094,976.7813 442.8672,977.0391 Q443.125,977.2969 443.125,977.6406 Q443.125,977.9844 442.7813,978.3906 Q442.2813,978.9688 441.4844,979.2969 Q440.4063,979.75 439.1094,979.75 Q437.5938,979.75 436.3906,979.125 Q435.4063,978.625 434.7188,977.5547 Q434.0313,976.4844 434.0313,975.2031 L434.0313,974.0469 Q434.0313,972.7188 434.6484,971.5703 Q435.2656,970.4219 436.3594,969.8047 Q437.4531,969.1875 438.6875,969.1875 Q439.4219,969.1875 440.0703,969.3516 Q440.7188,969.5156 441.2656,969.875 Z " fill="#000000"/>
      <text fill="#000000" font-family="sans-serif" font-size="14" lengthAdjust="spacing" textLength="93" x="452.5" y="979.7285">ResourceType</text>
    </g>
    <!--MD5=[7607ff8ca570e4ff0c0e24433c905d6e]
class com.credibledoc.substitution.reporting.reportdocument.creator.ReportDocumentCreator-->
    <g id="elem_com.credibledoc.substitution.reporting.reportdocument.creator.ReportDocumentCreator">
      <rect codeLine="18" fill="#98FB98" height="32" id="com.credibledoc.substitution.reporting.reportdocument.creator.ReportDocumentCreator" rx="2.5" ry="2.5" style="stroke:#00FF7F;stroke-width:0.5;" width="187" x="392.5" y="1066"/>
      <ellipse cx="407.5" cy="1082" fill="#9ACD32" rx="11" ry="11" style="stroke:#181818;stroke-width:1.0;"/>
      <path d="M410.2656,1077.875 Q410.4219,1077.6563 410.6094,1077.5469 Q410.7969,1077.4375 411.0156,1077.4375 Q411.3906,1077.4375 411.625,1077.6953 Q411.8594,1077.9531 411.8594,1078.5625 L411.8594,1080.0156 Q411.8594,1080.625 411.625,1080.8906 Q411.3906,1081.1563 411.0156,1081.1563 Q410.6719,1081.1563 410.4688,1080.9531 Q410.2656,1080.7656 410.1563,1080.25 Q410.1094,1079.8906 409.9219,1079.7031 Q409.5938,1079.3281 408.9844,1079.1094 Q408.375,1078.8906 407.75,1078.8906 Q406.9844,1078.8906 406.3516,1079.2188 Q405.7188,1079.5469 405.2266,1080.2969 Q404.7344,1081.0469 404.7344,1082.0781 L404.7344,1083.1719 Q404.7344,1084.4063 405.625,1085.2266 Q406.5156,1086.0469 408.1094,1086.0469 Q409.0469,1086.0469 409.7031,1085.7969 Q410.0938,1085.6406 410.5156,1085.2031 Q410.7813,1084.9375 410.9297,1084.8594 Q411.0781,1084.7813 411.2813,1084.7813 Q411.6094,1084.7813 411.8672,1085.0391 Q412.125,1085.2969 412.125,1085.6406 Q412.125,1085.9844 411.7813,1086.3906 Q411.2813,1086.9688 410.4844,1087.2969 Q409.4063,1087.75 408.1094,1087.75 Q406.5938,1087.75 405.3906,1087.125 Q404.4063,1086.625 403.7188,1085.5547 Q403.0313,1084.4844 403.0313,1083.2031 L403.0313,1082.0469 Q403.0313,1080.7188 403.6484,1079.5703 Q404.2656,1078.4219 405.3594,1077.8047 Q406.4531,1077.1875 407.6875,1077.1875 Q408.4219,1077.1875 409.0703,1077.3516 Q409.7188,1077.5156 410.2656,1077.875 Z " fill="#000000"/>
      <text fill="#000000" font-family="sans-serif" font-size="14" lengthAdjust="spacing" textLength="155" x="421.5" y="1087.7285">ReportDocumentCreator</text>
    </g>
    <!--MD5=[c6ed0641fbc9f581e2ff59c7e46144b2]
class com.credibledoc.substitution.core.template.TemplateService-->
    <g id="elem_com.credibledoc.substitution.core.template.TemplateService">
      <rect codeLine="19" fill="#98FB98" height="32" id="com.credibledoc.substitution.core.template.TemplateService" rx="2.5" ry="2.5" style="stroke:#00FF7F;stroke-width:0.5;" width="138" x="417" y="1174"/>
      <ellipse cx="432" cy="1190" fill="#9ACD32" rx="11" ry="11" style="stroke:#181818;stroke-width:1.0;"/>
      <path d="M434.7656,1185.875 Q434.9219,1185.6563 435.1094,1185.5469 Q435.2969,1185.4375 435.5156,1185.4375 Q435.8906,1185.4375 436.125,1185.6953 Q436.3594,1185.9531 436.3594,1186.5625 L436.3594,1188.0156 Q436.3594,1188.625 436.125,1188.8906 Q435.8906,1189.1563 435.5156,1189.1563 Q435.1719,1189.1563 434.9688,1188.9531 Q434.7656,1188.7656 434.6563,1188.25 Q434.6094,1187.8906 434.4219,1187.7031 Q434.0938,1187.3281 433.4844,1187.1094 Q432.875,1186.8906 432.25,1186.8906 Q431.4844,1186.8906 430.8516,1187.2188 Q430.2188,1187.5469 429.7266,1188.2969 Q429.2344,1189.0469 429.2344,1190.0781 L429.2344,1191.1719 Q429.2344,1192.4063 430.125,1193.2266 Q431.0156,1194.0469 432.6094,1194.0469 Q433.5469,1194.0469 434.2031,1193.7969 Q434.5938,1193.6406 435.0156,1193.2031 Q435.2813,1192.9375 435.4297,1192.8594 Q435.5781,1192.7813 435.7813,1192.7813 Q436.1094,1192.7813 436.3672,1193.0391 Q436.625,1193.2969 436.625,1193.6406 Q436.625,1193.9844 436.2813,1194.3906 Q435.7813,1194.9688 434.9844,1195.2969 Q433.9063,1195.75 432.6094,1195.75 Q431.0938,1195.75 429.8906,1195.125 Q428.9063,1194.625 428.2188,1193.5547 Q427.5313,1192.4844 427.5313,1191.2031 L427.5313,1190.0469 Q427.5313,1188.7188 428.1484,1187.5703 Q428.7656,1186.4219 429.8594,1185.8047 Q430.9531,1185.1875 432.1875,1185.1875 Q432.9219,1185.1875 433.5703,1185.3516 Q434.2188,1185.5156 434.7656,1185.875 Z " fill="#000000"/>
      <text fill="#000000" font-family="sans-serif" font-size="14" lengthAdjust="spacing" textLength="106" x="446" y="1195.7285">TemplateService</text>
    </g>
    <!--MD5=[f34d3cae6d5f5520fa3597259176558d]
class com.credibledoc.substitution.core.configuration.ConfigurationService-->
    <g id="elem_com.credibledoc.substitution.core.configuration.ConfigurationService">
      <rect codeLine="20" fill="#98FB98" height="32" id="com.credibledoc.substitution.core.configuration.ConfigurationService" rx="2.5" ry="2.5" style="stroke:#00FF7F;stroke-width:0.5;" width="164" x="404" y="1282"/>
      <ellipse cx="419" cy="1298" fill="#9ACD32" rx="11" ry="11" style="stroke:#181818;stroke-width:1.0;"/>
      <path d="M421.7656,1293.875 Q421.9219,1293.6563 422.1094,1293.5469 Q422.2969,1293.4375 422.5156,1293.4375 Q422.8906,1293.4375 423.125,1293.6953 Q423.3594,1293.9531 423.3594,1294.5625 L423.3594,1296.0156 Q423.3594,1296.625 423.125,1296.8906 Q422.8906,1297.1563 422.5156,1297.1563 Q422.1719,1297.1563 421.9688,1296.9531 Q421.7656,1296.7656 421.6563,1296.25 Q421.6094,1295.8906 421.4219,1295.7031 Q421.0938,1295.3281 420.4844,1295.1094 Q419.875,1294.8906 419.25,1294.8906 Q418.4844,1294.8906 417.8516,1295.2188 Q417.2188,1295.5469 416.7266,1296.2969 Q416.2344,1297.0469 416.2344,1298.0781 L416.2344,1299.1719 Q416.2344,1300.4063 417.125,1301.2266 Q418.0156,1302.0469 419.6094,1302.0469 Q420.5469,1302.0469 421.2031,1301.7969 Q421.5938,1301.6406 422.0156,1301.2031 Q422.2813,1300.9375 422.4297,1300.8594 Q422.5781,1300.7813 422.7813,1300.7813 Q423.1094,1300.7813 423.3672,1301.0391 Q423.625,1301.2969 423.625,1301.6406 Q423.625,1301.9844 423.2813,1302.3906 Q422.7813,1302.9688 421.9844,1303.2969 Q420.9063,1303.75 419.6094,1303.75 Q418.0938,1303.75 416.8906,1303.125 Q415.9063,1302.625 415.2188,1301.5547 Q414.5313,1300.4844 414.5313,1299.2031 L414.5313,1298.0469 Q414.5313,1296.7188 415.1484,1295.5703 Q415.7656,1294.4219 416.8594,1293.8047 Q417.9531,1293.1875 419.1875,1293.1875 Q419.9219,1293.1875 420.5703,1293.3516 Q421.2188,1293.5156 421.7656,1293.875 Z " fill="#000000"/>
      <text fill="#000000" font-family="sans-serif" font-size="14" lengthAdjust="spacing" textLength="132" x="433" y="1303.7285">ConfigurationService</text>
    </g>
    <!--MD5=[2144794834e14012e336f06ac19b4f39]
class com.credibledoc.substitution.reporting.replacement.ReplacementService-->
    <g id="elem_com.credibledoc.substitution.reporting.replacement.ReplacementService">
      <rect codeLine="22" fill="#98FB98" height="32" id="com.credibledoc.substitution.reporting.replacement.ReplacementService" rx="2.5" ry="2.5" style="stroke:#00FF7F;stroke-width:0.5;" width="162" x="405" y="1390"/>
      <ellipse cx="420" cy="1406" fill="#9ACD32" rx="11" ry="11" style="stroke:#181818;stroke-width:1.0;"/>
      <path d="M422.7656,1401.875 Q422.9219,1401.6563 423.1094,1401.5469 Q423.2969,1401.4375 423.5156,1401.4375 Q423.8906,1401.4375 424.125,1401.6953 Q424.3594,1401.9531 424.3594,1402.5625 L424.3594,1404.0156 Q424.3594,1404.625 424.125,1404.8906 Q423.8906,1405.1563 423.5156,1405.1563 Q423.1719,1405.1563 422.9688,1404.9531 Q422.7656,1404.7656 422.6563,1404.25 Q422.6094,1403.8906 422.4219,1403.7031 Q422.0938,1403.3281 421.4844,1403.1094 Q420.875,1402.8906 420.25,1402.8906 Q419.4844,1402.8906 418.8516,1403.2188 Q418.2188,1403.5469 417.7266,1404.2969 Q417.2344,1405.0469 417.2344,1406.0781 L417.2344,1407.1719 Q417.2344,1408.4063 418.125,1409.2266 Q419.0156,1410.0469 420.6094,1410.0469 Q421.5469,1410.0469 422.2031,1409.7969 Q422.5938,1409.6406 423.0156,1409.2031 Q423.2813,1408.9375 423.4297,1408.8594 Q423.5781,1408.7813 423.7813,1408.7813 Q424.1094,1408.7813 424.3672,1409.0391 Q424.625,1409.2969 424.625,1409.6406 Q424.625,1409.9844 424.2813,1410.3906 Q423.7813,1410.9688 422.9844,1411.2969 Q421.9063,1411.75 420.6094,1411.75 Q419.0938,1411.75 417.8906,1411.125 Q416.9063,1410.625 416.2188,1409.5547 Q415.5313,1408.4844 415.5313,1407.2031 L415.5313,1406.0469 Q415.5313,1404.7188 416.1484,1403.5703 Q416.7656,1402.4219 417.8594,1401.8047 Q418.9531,1401.1875 420.1875,1401.1875 Q420.9219,1401.1875 421.5703,1401.3516 Q422.2188,1401.5156 422.7656,1401.875 Z " fill="#000000"/>
      <text fill="#000000" font-family="sans-serif" font-size="14" lengthAdjust="spacing" textLength="130" x="434" y="1411.7285">ReplacementService</text>
    </g>
    <!--MD5=[29968a5d37d6b3fe49470c30b586a72c]
class com.credibledoc.substitution.core.content.ContentGenerator-->
    <g id="elem_com.credibledoc.substitution.core.content.ContentGenerator">
      <rect codeLine="23" fill="#98FB98" height="32" id="com.credibledoc.substitution.core.content.ContentGenerator" rx="2.5" ry="2.5" style="stroke:#00FF7F;stroke-width:0.5;" width="147" x="412.5" y="1498"/>
      <ellipse cx="427.5" cy="1514" fill="#9ACD32" rx="11" ry="11" style="stroke:#181818;stroke-width:1.0;"/>
      <path d="M430.2656,1509.875 Q430.4219,1509.6563 430.6094,1509.5469 Q430.7969,1509.4375 431.0156,1509.4375 Q431.3906,1509.4375 431.625,1509.6953 Q431.8594,1509.9531 431.8594,1510.5625 L431.8594,1512.0156 Q431.8594,1512.625 431.625,1512.8906 Q431.3906,1513.1563 431.0156,1513.1563 Q430.6719,1513.1563 430.4688,1512.9531 Q430.2656,1512.7656 430.1563,1512.25 Q430.1094,1511.8906 429.9219,1511.7031 Q429.5938,1511.3281 428.9844,1511.1094 Q428.375,1510.8906 427.75,1510.8906 Q426.9844,1510.8906 426.3516,1511.2188 Q425.7188,1511.5469 425.2266,1512.2969 Q424.7344,1513.0469 424.7344,1514.0781 L424.7344,1515.1719 Q424.7344,1516.4063 425.625,1517.2266 Q426.5156,1518.0469 428.1094,1518.0469 Q429.0469,1518.0469 429.7031,1517.7969 Q430.0938,1517.6406 430.5156,1517.2031 Q430.7813,1516.9375 430.9297,1516.8594 Q431.0781,1516.7813 431.2813,1516.7813 Q431.6094,1516.7813 431.8672,1517.0391 Q432.125,1517.2969 432.125,1517.6406 Q432.125,1517.9844 431.7813,1518.3906 Q431.2813,1518.9688 430.4844,1519.2969 Q429.4063,1519.75 428.1094,1519.75 Q426.5938,1519.75 425.3906,1519.125 Q424.4063,1518.625 423.7188,1517.5547 Q423.0313,1516.4844 423.0313,1515.2031 L423.0313,1514.0469 Q423.0313,1512.7188 423.6484,1511.5703 Q424.2656,1510.4219 425.3594,1509.8047 Q426.4531,1509.1875 427.6875,1509.1875 Q428.4219,1509.1875 429.0703,1509.3516 Q429.7188,1509.5156 430.2656,1509.875 Z " fill="#000000"/>
      <text fill="#000000" font-family="sans-serif" font-size="14" lengthAdjust="spacing" textLength="115" x="441.5" y="1519.7285">ContentGenerator</text>
    </g>
    <!--MD5=[d3b8fea686fa7db660b77e8dcfb05006]
class com.credibledoc.substitution.core.content.Content-->
    <g id="elem_com.credibledoc.substitution.core.content.Content">
      <rect codeLine="26" fill="#98FB98" height="32" id="com.credibledoc.substitution.core.content.Content" rx="2.5" ry="2.5" style="stroke:#00FF7F;stroke-width:0.5;" width="82" x="445" y="1565"/>
      <ellipse cx="460" cy="1581" fill="#9ACD32" rx="11" ry="11" style="stroke:#181818;stroke-width:1.0;"/>
      <path d="M462.7656,1576.875 Q462.9219,1576.6563 463.1094,1576.5469 Q463.2969,1576.4375 463.5156,1576.4375 Q463.8906,1576.4375 464.125,1576.6953 Q464.3594,1576.9531 464.3594,1577.5625 L464.3594,1579.0156 Q464.3594,1579.625 464.125,1579.8906 Q463.8906,1580.1563 463.5156,1580.1563 Q463.1719,1580.1563 462.9688,1579.9531 Q462.7656,1579.7656 462.6563,1579.25 Q462.6094,1578.8906 462.4219,1578.7031 Q462.0938,1578.3281 461.4844,1578.1094 Q460.875,1577.8906 460.25,1577.8906 Q459.4844,1577.8906 458.8516,1578.2188 Q458.2188,1578.5469 457.7266,1579.2969 Q457.2344,1580.0469 457.2344,1581.0781 L457.2344,1582.1719 Q457.2344,1583.4063 458.125,1584.2266 Q459.0156,1585.0469 460.6094,1585.0469 Q461.5469,1585.0469 462.2031,1584.7969 Q462.5938,1584.6406 463.0156,1584.2031 Q463.2813,1583.9375 463.4297,1583.8594 Q463.5781,1583.7813 463.7813,1583.7813 Q464.1094,1583.7813 464.3672,1584.0391 Q464.625,1584.2969 464.625,1584.6406 Q464.625,1584.9844 464.2813,1585.3906 Q463.7813,1585.9688 462.9844,1586.2969 Q461.9063,1586.75 460.6094,1586.75 Q459.0938,1586.75 457.8906,1586.125 Q456.9063,1585.625 456.2188,1584.5547 Q455.5313,1583.4844 455.5313,1582.2031 L455.5313,1581.0469 Q455.5313,1579.7188 456.1484,1578.5703 Q456.7656,1577.4219 457.8594,1576.8047 Q458.9531,1576.1875 460.1875,1576.1875 Q460.9219,1576.1875 461.5703,1576.3516 Q462.2188,1576.5156 462.7656,1576.875 Z " fill="#000000"/>
      <text fill="#000000" font-family="sans-serif" font-size="14" lengthAdjust="spacing" textLength="50" x="474" y="1586.7285">Content</text>
    </g>
    <!--MD5=[c14cffe0b2defeec22661e2aec967a76]
link com.credibledoc.substitution.doc to com.credibledoc.substitution.core.configuration.ConfigurationService-->
    <g id="link_com.credibledoc.substitution.doc_com.credibledoc.substitution.core.configuration.ConfigurationService">
      <path codeLine="28" d="M118.01,856.08 C120.73,914.16 137.92,1115.27 246.5,1222 C287.03,1261.83 348.37,1280.8 398.7,1289.83 " fill="none" id="com.credibledoc.substitution.doc-to-com.credibledoc.substitution.core.configuration.ConfigurationService" style="stroke:#2E8B57;stroke-width:1.0;stroke-dasharray:7.0,7.0;"/>
      <polygon fill="#2E8B57" points="403.85,1290.73,395.6685,1285.2471,398.9239,1289.8733,394.2977,1293.1288,403.85,1290.73" style="stroke:#2E8B57;stroke-width:1.0;"/>
    </g>
    <!--MD5=[72387fb44c4bffa7ba2aded2b6b532d2]
link com.credibledoc.substitution.doc to com.credibledoc.substitution.content.generator.jar.LocalJarNameContentGenerator-->
    <g id="link_com.credibledoc.substitution.doc_com.credibledoc.substitution.content.generator.jar.LocalJarNameContentGenerator">
      <path codeLine="29" d="M119.32,823.91 C125.99,772.5 153.78,610.57 246.5,525 C278.49,495.48 321.97,477.42 363.04,466.38 " fill="none" id="com.credibledoc.substitution.doc-to-com.credibledoc.substitution.content.generator.jar.LocalJarNameContentGenerator" style="stroke:#2E8B57;stroke-width:1.0;stroke-dasharray:7.0,7.0;"/>
      <polygon fill="#2E8B57" points="368.04,465.07,358.3193,463.4865,363.2039,466.3397,360.3507,471.2243,368.04,465.07" style="stroke:#2E8B57;stroke-width:1.0;"/>
    </g>
    <!--MD5=[fe1b52f384b4412ee58cd72856759174]
link com.credibledoc.substitution.doc to com.credibledoc.substitution.core.resource.TemplateResource-->
    <g id="link_com.credibledoc.substitution.doc_com.credibledoc.substitution.core.resource.TemplateResource">
      <path codeLine="30" d="M144.23,840 C198.13,840 321.76,840 404.33,840 " fill="none" id="com.credibledoc.substitution.doc-to-com.credibledoc.substitution.core.resource.TemplateResource" style="stroke:#2E8B57;stroke-width:1.0;stroke-dasharray:7.0,7.0;"/>
      <polygon fill="#2E8B57" points="409.71,840,400.71,836,404.71,840,400.71,844,409.71,840" style="stroke:#2E8B57;stroke-width:1.0;"/>
    </g>
    <!--MD5=[10989d738cd39a43c13b5ec32812712b]
link com.credibledoc.substitution.doc to com.credibledoc.substitution.reporting.report.document.Document-->
    <g id="link_com.credibledoc.substitution.doc_com.credibledoc.substitution.reporting.report.document.Document">
      <path codeLine="31" d="M118.25,823.9 C122.96,728.89 151.55,241.93 246.5,134 C293.5,80.58 377.93,64.4 432.69,59.68 " fill="none" id="com.credibledoc.substitution.doc-to-com.credibledoc.substitution.reporting.report.document.Document" style="stroke:#2E8B57;stroke-width:1.0;stroke-dasharray:7.0,7.0;"/>
      <polygon fill="#2E8B57" points="437.89,59.26,428.5989,55.9926,432.906,59.6599,429.2387,63.9669,437.89,59.26" style="stroke:#2E8B57;stroke-width:1.0;"/>
    </g>
    <!--MD5=[361309265c965880cb5caf80892c0925]
link com.credibledoc.substitution.doc to com.credibledoc.substitution.core.context.SubstitutionContext-->
    <g id="link_com.credibledoc.substitution.doc_com.credibledoc.substitution.core.context.SubstitutionContext">
      <path codeLine="32" d="M123.07,823.84 C137.29,785.01 178.64,685.77 246.5,633 C291.94,597.66 354.2,578.55 403.72,568.33 " fill="none" id="com.credibledoc.substitution.doc-to-com.credibledoc.substitution.core.context.SubstitutionContext" style="stroke:#2E8B57;stroke-width:1.0;stroke-dasharray:7.0,7.0;"/>
      <polygon fill="#2E8B57" points="408.77,567.31,399.1519,565.1904,403.871,568.3098,400.7516,573.0289,408.77,567.31" style="stroke:#2E8B57;stroke-width:1.0;"/>
    </g>
    <!--MD5=[5f8858ad0ebb27cc4efc508cbf085ba7]
link com.credibledoc.substitution.doc to com.credibledoc.substitution.reporting.reportdocument.ReportDocumentType-->
    <g id="link_com.credibledoc.substitution.doc_com.credibledoc.substitution.reporting.reportdocument.ReportDocumentType">
      <path codeLine="33" d="M119.01,823.82 C126.92,742.51 166.37,379.5 246.5,307 C286.13,271.14 345.67,262.87 395.34,263.58 " fill="none" id="com.credibledoc.substitution.doc-to-com.credibledoc.substitution.reporting.reportdocument.ReportDocumentType" style="stroke:#2E8B57;stroke-width:1.0;stroke-dasharray:7.0,7.0;"/>
      <polygon fill="#2E8B57" points="400.42,263.68,391.5018,259.5008,395.421,263.58,391.3418,267.4992,400.42,263.68" style="stroke:#2E8B57;stroke-width:1.0;"/>
    </g>
    <!--MD5=[a75af4171043cec589e558f1c9d66ced]
link com.credibledoc.substitution.doc to com.credibledoc.substitution.core.resource.ResourceType-->
    <g id="link_com.credibledoc.substitution.doc_com.credibledoc.substitution.core.resource.ResourceType">
      <path codeLine="34" d="M132.81,856.33 C155.33,879.21 199.79,920.22 246.5,940 C301.42,963.25 369.16,971.15 418.4,973.59 " fill="none" id="com.credibledoc.substitution.doc-to-com.credibledoc.substitution.core.resource.ResourceType" style="stroke:#2E8B57;stroke-width:1.0;stroke-dasharray:7.0,7.0;"/>
      <polygon fill="#2E8B57" points="423.4,973.82,414.5926,969.412,418.4052,973.591,414.2263,977.4036,423.4,973.82" style="stroke:#2E8B57;stroke-width:1.0;"/>
    </g>
    <!--MD5=[b7be76b93cab8399d23056fc9bc6305e]
link com.credibledoc.substitution.doc to com.credibledoc.substitution.core.placeholder.PlaceholderService-->
    <g id="link_com.credibledoc.substitution.doc_com.credibledoc.substitution.core.placeholder.PlaceholderService">
      <path codeLine="35" d="M126.76,823.88 C145.2,793.47 189.64,727.99 246.5,698 C294.66,672.6 355.55,664.5 403.76,662.68 " fill="none" id="com.credibledoc.substitution.doc-to-com.credibledoc.substitution.core.placeholder.PlaceholderService" style="stroke:#2E8B57;stroke-width:1.0;stroke-dasharray:7.0,7.0;"/>
      <polygon fill="#2E8B57" points="408.97,662.5,399.8382,658.8107,403.9729,662.6713,400.1123,666.806,408.97,662.5" style="stroke:#2E8B57;stroke-width:1.0;"/>
    </g>
    <!--MD5=[e7cfedb0e6eb0d952ade452fef94243e]
link com.credibledoc.substitution.doc to com.credibledoc.substitution.core.template.TemplateService-->
    <g id="link_com.credibledoc.substitution.doc_com.credibledoc.substitution.core.template.TemplateService">
      <path codeLine="36" d="M120.46,856.31 C129.85,903.47 163.46,1041.23 246.5,1114 C292.65,1154.44 360.44,1173.39 411.97,1182.26 " fill="none" id="com.credibledoc.substitution.doc-to-com.credibledoc.substitution.core.template.TemplateService" style="stroke:#2E8B57;stroke-width:1.0;stroke-dasharray:7.0,7.0;"/>
      <polygon fill="#2E8B57" points="416.9,1183.08,408.6877,1177.6433,411.9692,1182.2511,407.3614,1185.5325,416.9,1183.08" style="stroke:#2E8B57;stroke-width:1.0;"/>
    </g>
    <!--MD5=[e96b5baf345deb1a600e5b2b6776a774]
link com.credibledoc.substitution.doc to com.credibledoc.substitution.core.resource.ResourceService-->
    <g id="link_com.credibledoc.substitution.doc_com.credibledoc.substitution.core.resource.ResourceService">
      <path codeLine="37" d="M144.48,847.82 C170.45,855.12 210.9,865.93 246.5,873 C301.12,883.85 363.44,892.61 410.68,898.52 " fill="none" id="com.credibledoc.substitution.doc-to-com.credibledoc.substitution.core.resource.ResourceService" style="stroke:#2E8B57;stroke-width:1.0;stroke-dasharray:7.0,7.0;"/>
      <polygon fill="#2E8B57" points="415.78,899.15,407.3547,894.0496,410.8197,898.521,406.3483,901.9861,415.78,899.15" style="stroke:#2E8B57;stroke-width:1.0;"/>
    </g>
    <!--MD5=[791a41cceeb1cab29f66cb2594478c85]
link com.credibledoc.substitution.doc to com.credibledoc.substitution.core.content.ContentGenerator-->
    <g id="link_com.credibledoc.substitution.doc_com.credibledoc.substitution.core.content.ContentGenerator">
      <path codeLine="38" d="M118.82,856.11 C126.2,942.28 164.91,1348.18 246.5,1438 C287.33,1482.95 354.65,1501.48 407.38,1509.03 " fill="none" id="com.credibledoc.substitution.doc-to-com.credibledoc.substitution.core.content.ContentGenerator" style="stroke:#2E8B57;stroke-width:1.0;stroke-dasharray:7.0,7.0;"/>
      <polygon fill="#2E8B57" points="412.43,1509.72,404.065,1504.5212,407.4774,1509.0329,402.9657,1512.4453,412.43,1509.72" style="stroke:#2E8B57;stroke-width:1.0;"/>
    </g>
    <!--MD5=[54180e2517bc662b66aef05505156612]
link com.credibledoc.substitution.doc to com.credibledoc.substitution.core.placeholder.Placeholder-->
    <g id="link_com.credibledoc.substitution.doc_com.credibledoc.substitution.core.placeholder.Placeholder">
      <path codeLine="39" d="M144.23,832.15 C203.38,814.76 346.51,772.7 427.2,748.99 " fill="none" id="com.credibledoc.substitution.doc-to-com.credibledoc.substitution.core.placeholder.Placeholder" style="stroke:#2E8B57;stroke-width:1.0;stroke-dasharray:7.0,7.0;"/>
      <polygon fill="#2E8B57" points="432.42,747.45,422.6564,746.1568,427.6239,748.8631,424.9175,753.8306,432.42,747.45" style="stroke:#2E8B57;stroke-width:1.0;"/>
    </g>
    <!--MD5=[d668dad145f7f973df3f5f220e04c3a1]
link com.credibledoc.substitution.doc to com.credibledoc.substitution.core.content.Content-->
    <g id="link_com.credibledoc.substitution.doc_com.credibledoc.substitution.core.content.Content">
      <path codeLine="40" d="M117.98,856.05 C121.18,951.83 142.64,1447.1 246.5,1547 C297.75,1596.29 386.12,1595.11 439.7,1588.75 " fill="none" id="com.credibledoc.substitution.doc-to-com.credibledoc.substitution.core.content.Content" style="stroke:#2E8B57;stroke-width:1.0;stroke-dasharray:7.0,7.0;"/>
      <polygon fill="#2E8B57" points="444.78,1588.12,435.3574,1585.2539,439.8177,1588.7332,436.3385,1593.1935,444.78,1588.12" style="stroke:#2E8B57;stroke-width:1.0;"/>
    </g>
    <!--MD5=[e145688e96e1b763c5c2d4918c55b299]
link com.credibledoc.substitution.doc to com.credibledoc.substitution.reporting.replacement.ReplacementService-->
    <g id="link_com.credibledoc.substitution.doc_com.credibledoc.substitution.reporting.replacement.ReplacementService">
      <path codeLine="41" d="M119.65,856.15 C130.13,932.67 178.18,1258.1 246.5,1330 C286.15,1371.73 348.61,1390.62 399.67,1399.14 " fill="none" id="com.credibledoc.substitution.doc-to-com.credibledoc.substitution.reporting.replacement.ReplacementService" style="stroke:#2E8B57;stroke-width:1.0;stroke-dasharray:7.0,7.0;"/>
      <polygon fill="#2E8B57" points="404.89,1399.98,396.632,1394.613,399.9524,1399.1928,395.3725,1402.5132,404.89,1399.98" style="stroke:#2E8B57;stroke-width:1.0;"/>
    </g>
    <!--MD5=[6bff7b36862dcb628ac8d930e12df50d]
link com.credibledoc.substitution.doc to com.credibledoc.substitution.reporting.reportdocument.ReportDocument-->
    <g id="link_com.credibledoc.substitution.doc_com.credibledoc.substitution.reporting.reportdocument.ReportDocument">
      <path codeLine="42" d="M117.4,823.97 C117.89,762.17 128.08,536.91 246.5,417 C289.91,373.04 358.66,354.47 411.22,346.64 " fill="none" id="com.credibledoc.substitution.doc-to-com.credibledoc.substitution.reporting.reportdocument.ReportDocument" style="stroke:#2E8B57;stroke-width:1.0;stroke-dasharray:7.0,7.0;"/>
      <polygon fill="#2E8B57" points="416.25,345.92,406.7704,343.2483,411.3014,346.6351,407.9146,351.1661,416.25,345.92" style="stroke:#2E8B57;stroke-width:1.0;"/>
    </g>
    <!--MD5=[e825f59b1202d74b5f3421cbc6e28f10]
link com.credibledoc.substitution.doc to com.credibledoc.substitution.reporting.reportdocument.creator.ReportDocumentCreator-->
    <g id="link_com.credibledoc.substitution.doc_com.credibledoc.substitution.reporting.reportdocument.creator.ReportDocumentCreator">
      <path codeLine="43" d="M125.77,856.33 C143.38,889.5 187.84,965.06 246.5,1006 C288.19,1035.1 341.58,1053.47 387.28,1064.85 " fill="none" id="com.credibledoc.substitution.doc-to-com.credibledoc.substitution.reporting.reportdocument.creator.ReportDocumentCreator" style="stroke:#2E8B57;stroke-width:1.0;stroke-dasharray:7.0,7.0;"/>
      <polygon fill="#2E8B57" points="392.24,1066.06,384.4454,1060.0397,387.3826,1064.8742,382.5481,1067.8115,392.24,1066.06" style="stroke:#2E8B57;stroke-width:1.0;"/>
    </g>
    <!--MD5=[b2083f92fe3f5a563dc27403056ff2a0]
link com.credibledoc.substitution.doc to com.credibledoc.substitution.core.exception.SubstitutionRuntimeException-->
    <g id="link_com.credibledoc.substitution.doc_com.credibledoc.substitution.core.exception.SubstitutionRuntimeException">
      <path codeLine="44" d="M118.82,823.89 C126.2,737.72 164.91,331.82 246.5,242 C278.43,206.84 326.57,187.85 371.25,177.63 " fill="none" id="com.credibledoc.substitution.doc-to-com.credibledoc.substitution.core.exception.SubstitutionRuntimeException" style="stroke:#2E8B57;stroke-width:1.0;stroke-dasharray:7.0,7.0;"/>
      <polygon fill="#2E8B57" points="376.4,176.49,366.7454,174.5436,371.5197,177.5777,368.4857,182.352,376.4,176.49" style="stroke:#2E8B57;stroke-width:1.0;"/>
    </g>
    <!--MD5=[27021f3b099b212412c4a7406a166a1a]
@startuml
left to right direction
hide empty members

skinparam class {
    BackgroundColor PaleGreen
    ArrowColor SeaGreen
    BorderColor SpringGreen
}

Class com.credibledoc.substitution.doc << (P,LightSeaGreen) >>
Class com.credibledoc.substitution.reporting.report.document.Document << (C,YellowGreen) >>
Class com.credibledoc.substitution.core.exception.SubstitutionRuntimeException << (C,YellowGreen) >>
Class com.credibledoc.substitution.reporting.reportdocument.ReportDocumentType << (C,YellowGreen) >>
Class com.credibledoc.substitution.content.generator.jar.LocalJarNameContentGenerator << (C,YellowGreen) >>
Class com.credibledoc.substitution.core.context.SubstitutionContext << (C,YellowGreen) >>
Class com.credibledoc.substitution.core.placeholder.PlaceholderService << (C,YellowGreen) >>
Class com.credibledoc.substitution.core.resource.TemplateResource << (C,YellowGreen) >>
Class com.credibledoc.substitution.reporting.reportdocument.creator.ReportDocumentCreator << (C,YellowGreen) >>
Class com.credibledoc.substitution.core.template.TemplateService << (C,YellowGreen) >>
Class com.credibledoc.substitution.core.configuration.ConfigurationService << (C,YellowGreen) >>
Class com.credibledoc.substitution.core.resource.ResourceService << (C,YellowGreen) >>
Class com.credibledoc.substitution.reporting.replacement.ReplacementService << (C,YellowGreen) >>
Class com.credibledoc.substitution.core.content.ContentGenerator << (C,YellowGreen) >>
Class com.credibledoc.substitution.core.resource.ResourceType << (C,YellowGreen) >>
Class com.credibledoc.substitution.reporting.reportdocument.ReportDocument << (C,YellowGreen) >>
Class com.credibledoc.substitution.core.content.Content << (C,YellowGreen) >>
Class com.credibledoc.substitution.core.placeholder.Placeholder << (C,YellowGreen) >>
com.credibledoc.substitution.doc ..> com.credibledoc.substitution.core.configuration.ConfigurationService
com.credibledoc.substitution.doc ..> com.credibledoc.substitution.content.generator.jar.LocalJarNameContentGenerator
com.credibledoc.substitution.doc ..> com.credibledoc.substitution.core.resource.TemplateResource
com.credibledoc.substitution.doc ..> com.credibledoc.substitution.reporting.report.document.Document
com.credibledoc.substitution.doc ..> com.credibledoc.substitution.core.context.SubstitutionContext
com.credibledoc.substitution.doc ..> com.credibledoc.substitution.reporting.reportdocument.ReportDocumentType
com.credibledoc.substitution.doc ..> com.credibledoc.substitution.core.resource.ResourceType
com.credibledoc.substitution.doc ..> com.credibledoc.substitution.core.placeholder.PlaceholderService
com.credibledoc.substitution.doc ..> com.credibledoc.substitution.core.template.TemplateService
com.credibledoc.substitution.doc ..> com.credibledoc.substitution.core.resource.ResourceService
com.credibledoc.substitution.doc ..> com.credibledoc.substitution.core.content.ContentGenerator
com.credibledoc.substitution.doc ..> com.credibledoc.substitution.core.placeholder.Placeholder
com.credibledoc.substitution.doc ..> com.credibledoc.substitution.core.content.Content
com.credibledoc.substitution.doc ..> com.credibledoc.substitution.reporting.replacement.ReplacementService
com.credibledoc.substitution.doc ..> com.credibledoc.substitution.reporting.reportdocument.ReportDocument
com.credibledoc.substitution.doc ..> com.credibledoc.substitution.reporting.reportdocument.creator.ReportDocumentCreator
com.credibledoc.substitution.doc ..> com.credibledoc.substitution.core.exception.SubstitutionRuntimeException
@enduml

PlantUML version 1.2022.12(Sun Oct 23 20:12:26 CEST 2022)
(GPL source distribution)
Java Runtime: Java(TM) SE Runtime Environment
JVM: Java HotSpot(TM) 64-Bit Server VM
Default Encoding: UTF-8
Language: en
Country: GB
-->
  </g>
</svg>
