<svg xmlns="http://www.w3.org/2000/svg" xmlns:xlink="http://www.w3.org/1999/xlink" contentScriptType="application/ecmascript" contentStyleType="text/css" height="1625px" preserveAspectRatio="none" style="width:751px;height:1625px;" version="1.1" viewBox="0 0 751 1625" width="751px" zoomAndPan="magnify">
  <defs>
    <filter height="300%" id="1" width="300%" x="-1" y="-1">
      <feGaussianBlur result="blurOut" stdDeviation="2.0"/>
      <feColorMatrix in="blurOut" result="blurOut2" type="matrix" values="0 0 0 0 0 0 0 0 0 0 0 0 0 0 0 0 0 0 .4 0"/>
      <feOffset dx="4.0" dy="4.0" in="blurOut2" result="blurOut3"/>
      <feBlend in="SourceGraphic" in2="blurOut3" mode="normal"/>
    </filter>
  </defs>
  <g>
    <!--MD5=[6bd5fed661691d3bad4a21d0634ed63c]
cluster com.credibledoc.substitution-->
    <polygon fill="#FFFFFF" filter="url(#1)" points="16,788,227,788,234,811.6094,237,811.6094,237,872,16,872,16,788" style="stroke: #000000; stroke-width: 1.5;"/>
    <line style="stroke: #000000; stroke-width: 1.5;" x1="16" x2="234" y1="811.6094" y2="811.6094"/>
    <text fill="#000000" font-family="sans-serif" font-size="14" font-weight="bold" lengthAdjust="spacingAndGlyphs" textLength="205" x="20" y="804.5332">com.credibledoc.substitution</text>
    <!--MD5=[b4b367a8f3b794c0512c242c02d7d20b]
cluster com.credibledoc.substitution.reporting.report.document-->
    <polygon fill="#FFFFFF" filter="url(#1)" points="290,6,693,6,700,29.6094,703,29.6094,703,90,290,90,290,6" style="stroke: #000000; stroke-width: 1.5;"/>
    <line style="stroke: #000000; stroke-width: 1.5;" x1="290" x2="700" y1="29.6094" y2="29.6094"/>
    <text fill="#000000" font-family="sans-serif" font-size="14" font-weight="bold" lengthAdjust="spacingAndGlyphs" textLength="397" x="294" y="22.5332">com.credibledoc.substitution.reporting.report.document</text>
    <!--MD5=[6aaa9b1fe7b3b9cd355b4aa4b9b93fb8]
cluster com.credibledoc.substitution.core.exception-->
    <polygon fill="#FFFFFF" filter="url(#1)" points="331,114,652,114,659,137.6094,662,137.6094,662,198,331,198,331,114" style="stroke: #000000; stroke-width: 1.5;"/>
    <line style="stroke: #000000; stroke-width: 1.5;" x1="331" x2="659" y1="137.6094" y2="137.6094"/>
    <text fill="#000000" font-family="sans-serif" font-size="14" font-weight="bold" lengthAdjust="spacingAndGlyphs" textLength="315" x="335" y="130.5332">com.credibledoc.substitution.core.exception</text>
    <!--MD5=[604668a39e118144da349442eead69dc]
cluster com.credibledoc.substitution.reporting.reportdocument-->
    <polygon fill="#FFFFFF" filter="url(#1)" points="292.5,222,691.5,222,698.5,245.6094,701.5,245.6094,701.5,373,292.5,373,292.5,222" style="stroke: #000000; stroke-width: 1.5;"/>
    <line style="stroke: #000000; stroke-width: 1.5;" x1="292.5" x2="698.5" y1="245.6094" y2="245.6094"/>
    <text fill="#000000" font-family="sans-serif" font-size="14" font-weight="bold" lengthAdjust="spacingAndGlyphs" textLength="393" x="296.5" y="238.5332">com.credibledoc.substitution.reporting.reportdocument</text>
    <!--MD5=[089cbeb571dbef2d151d2e2cf16503b4]
cluster com.credibledoc.substitution.content.generator.jar-->
    <polygon fill="#FFFFFF" filter="url(#1)" points="309,397,674,397,681,420.6094,684,420.6094,684,481,309,481,309,397" style="stroke: #000000; stroke-width: 1.5;"/>
    <line style="stroke: #000000; stroke-width: 1.5;" x1="309" x2="681" y1="420.6094" y2="420.6094"/>
    <text fill="#000000" font-family="sans-serif" font-size="14" font-weight="bold" lengthAdjust="spacingAndGlyphs" textLength="359" x="313" y="413.5332">com.credibledoc.substitution.content.generator.jar</text>
    <!--MD5=[f78070935425e6a95d03db3dc2e77f87]
cluster com.credibledoc.substitution.core.context-->
    <polygon fill="#FFFFFF" filter="url(#1)" points="339.5,505,643.5,505,650.5,528.6094,653.5,528.6094,653.5,589,339.5,589,339.5,505" style="stroke: #000000; stroke-width: 1.5;"/>
    <line style="stroke: #000000; stroke-width: 1.5;" x1="339.5" x2="650.5" y1="528.6094" y2="528.6094"/>
    <text fill="#000000" font-family="sans-serif" font-size="14" font-weight="bold" lengthAdjust="spacingAndGlyphs" textLength="298" x="343.5" y="521.5332">com.credibledoc.substitution.core.context</text>
    <!--MD5=[78253e8a40f9af2549829117a9d7d7ac]
cluster com.credibledoc.substitution.core.placeholder-->
    <polygon fill="#FFFFFF" filter="url(#1)" points="324.5,613,659.5,613,666.5,636.6094,669.5,636.6094,669.5,764,324.5,764,324.5,613" style="stroke: #000000; stroke-width: 1.5;"/>
    <line style="stroke: #000000; stroke-width: 1.5;" x1="324.5" x2="666.5" y1="636.6094" y2="636.6094"/>
    <text fill="#000000" font-family="sans-serif" font-size="14" font-weight="bold" lengthAdjust="spacingAndGlyphs" textLength="329" x="328.5" y="629.5332">com.credibledoc.substitution.core.placeholder</text>
    <!--MD5=[4d226a5b58f759dcb301ddf5905e7a50]
cluster com.credibledoc.substitution.core.resource-->
    <polygon fill="#FFFFFF" filter="url(#1)" points="334.5,788,649.5,788,656.5,811.6094,659.5,811.6094,659.5,1006,334.5,1006,334.5,788" style="stroke: #000000; stroke-width: 1.5;"/>
    <line style="stroke: #000000; stroke-width: 1.5;" x1="334.5" x2="656.5" y1="811.6094" y2="811.6094"/>
    <text fill="#000000" font-family="sans-serif" font-size="14" font-weight="bold" lengthAdjust="spacingAndGlyphs" textLength="309" x="338.5" y="804.5332">com.credibledoc.substitution.core.resource</text>
    <!--MD5=[22609b558f7955e0789638ecc9c88945]
cluster com.credibledoc.substitution.reporting.reportdocument.creator-->
    <polygon fill="#FFFFFF" filter="url(#1)" points="265,1030,719,1030,726,1053.6094,729,1053.6094,729,1114,265,1114,265,1030" style="stroke: #000000; stroke-width: 1.5;"/>
    <line style="stroke: #000000; stroke-width: 1.5;" x1="265" x2="726" y1="1053.6094" y2="1053.6094"/>
    <text fill="#000000" font-family="sans-serif" font-size="14" font-weight="bold" lengthAdjust="spacingAndGlyphs" textLength="448" x="269" y="1046.5332">com.credibledoc.substitution.reporting.reportdocument.creator</text>
    <!--MD5=[9702c35b080beb7f5ae80df4f8631438]
cluster com.credibledoc.substitution.core.template-->
    <polygon fill="#FFFFFF" filter="url(#1)" points="335.5,1138,647.5,1138,654.5,1161.6094,657.5,1161.6094,657.5,1222,335.5,1222,335.5,1138" style="stroke: #000000; stroke-width: 1.5;"/>
    <line style="stroke: #000000; stroke-width: 1.5;" x1="335.5" x2="654.5" y1="1161.6094" y2="1161.6094"/>
    <text fill="#000000" font-family="sans-serif" font-size="14" font-weight="bold" lengthAdjust="spacingAndGlyphs" textLength="306" x="339.5" y="1154.5332">com.credibledoc.substitution.core.template</text>
    <!--MD5=[6fea2340843c4c33bcaaaffa683def55]
cluster com.credibledoc.substitution.core.configuration-->
    <polygon fill="#FFFFFF" filter="url(#1)" points="319.5,1246,664.5,1246,671.5,1269.6094,674.5,1269.6094,674.5,1330,319.5,1330,319.5,1246" style="stroke: #000000; stroke-width: 1.5;"/>
    <line style="stroke: #000000; stroke-width: 1.5;" x1="319.5" x2="671.5" y1="1269.6094" y2="1269.6094"/>
    <text fill="#000000" font-family="sans-serif" font-size="14" font-weight="bold" lengthAdjust="spacingAndGlyphs" textLength="339" x="323.5" y="1262.5332">com.credibledoc.substitution.core.configuration</text>
    <!--MD5=[ce9195034ca59eb29b58526b44be340b]
cluster com.credibledoc.substitution.reporting.replacement-->
    <polygon fill="#FFFFFF" filter="url(#1)" points="305.5,1354,678.5,1354,685.5,1377.6094,688.5,1377.6094,688.5,1438,305.5,1438,305.5,1354" style="stroke: #000000; stroke-width: 1.5;"/>
    <line style="stroke: #000000; stroke-width: 1.5;" x1="305.5" x2="685.5" y1="1377.6094" y2="1377.6094"/>
    <text fill="#000000" font-family="sans-serif" font-size="14" font-weight="bold" lengthAdjust="spacingAndGlyphs" textLength="367" x="309.5" y="1370.5332">com.credibledoc.substitution.reporting.replacement</text>
    <!--MD5=[0f12076e88e759fddd5320f7dca15cee]
cluster com.credibledoc.substitution.core.content-->
    <polygon fill="#FFFFFF" filter="url(#1)" points="339.5,1462,644.5,1462,651.5,1485.6094,654.5,1485.6094,654.5,1613,339.5,1613,339.5,1462" style="stroke: #000000; stroke-width: 1.5;"/>
    <line style="stroke: #000000; stroke-width: 1.5;" x1="339.5" x2="651.5" y1="1485.6094" y2="1485.6094"/>
    <text fill="#000000" font-family="sans-serif" font-size="14" font-weight="bold" lengthAdjust="spacingAndGlyphs" textLength="299" x="343.5" y="1478.5332">com.credibledoc.substitution.core.content</text>
    <!--MD5=[184e894e943eea80494633c4a85fc481]
class com.credibledoc.substitution.doc-->
    <rect fill="#98FB98" filter="url(#1)" height="32" id="com.credibledoc.substitution.doc" style="stroke: #00FF7F; stroke-width: 1.5;" width="52" x="100" y="824"/>
    <ellipse cx="115" cy="840" fill="#20B2AA" rx="11" ry="11" style="stroke: #00FF7F; stroke-width: 1.0;"/>
    <path d="M115.625,841.5469 L115.625,843.2969 L117.3281,843.2969 Q117.9531,843.2969 118.2109,843.5313 Q118.4688,843.7656 118.4688,844.1563 Q118.4688,844.5313 118.2109,844.7656 Q117.9531,845 117.3281,845 L113.6563,845 Q113.0313,845 112.7734,844.7656 Q112.5156,844.5313 112.5156,844.1406 Q112.5156,843.7656 112.7813,843.5313 Q113.0469,843.2969 113.6563,843.2969 L113.9219,843.2969 L113.9219,836.6406 L113.6563,836.6406 Q113.0313,836.6406 112.7734,836.4063 Q112.5156,836.1719 112.5156,835.7813 Q112.5156,835.4063 112.7734,835.1719 Q113.0313,834.9375 113.6563,834.9375 L117.5625,834.9375 Q119.2969,834.9375 120.3047,835.8828 Q121.3125,836.8281 121.3125,838.1719 Q121.3125,838.9219 120.9688,839.5938 Q120.7188,840.0781 120.1172,840.5703 Q119.5156,841.0625 118.8828,841.3047 Q118.25,841.5469 117.2344,841.5469 L115.625,841.5469 Z M115.625,839.8438 L117.1875,839.8438 Q118.3125,839.8438 118.9609,839.3438 Q119.6094,838.8438 119.6094,838.1406 Q119.6094,837.5313 119.0859,837.0859 Q118.5625,836.6406 117.5781,836.6406 L115.625,836.6406 L115.625,839.8438 Z "/>
    <text fill="#000000" font-family="sans-serif" font-size="12" lengthAdjust="spacingAndGlyphs" textLength="20" x="129" y="844.9102">doc</text>
    <!--MD5=[c5a4acc6e28859c4ed5f977e6e109c29]
class com.credibledoc.substitution.reporting.report.document.Document-->
    <rect fill="#98FB98" filter="url(#1)" height="32" id="com.credibledoc.substitution.reporting.report.document.Document" style="stroke: #00FF7F; stroke-width: 1.5;" width="89" x="452" y="42"/>
    <ellipse cx="467" cy="58" fill="#9ACD32" rx="11" ry="11" style="stroke: #00FF7F; stroke-width: 1.0;"/>
    <path d="M469.7656,53.875 Q469.9219,53.6563 470.1094,53.5469 Q470.2969,53.4375 470.5156,53.4375 Q470.8906,53.4375 471.125,53.6953 Q471.3594,53.9531 471.3594,54.5625 L471.3594,56.0156 Q471.3594,56.625 471.125,56.8906 Q470.8906,57.1563 470.5156,57.1563 Q470.1719,57.1563 469.9688,56.9531 Q469.7656,56.7656 469.6563,56.25 Q469.6094,55.8906 469.4219,55.7031 Q469.0938,55.3281 468.4844,55.1094 Q467.875,54.8906 467.25,54.8906 Q466.4844,54.8906 465.8516,55.2188 Q465.2188,55.5469 464.7266,56.2969 Q464.2344,57.0469 464.2344,58.0781 L464.2344,59.1719 Q464.2344,60.4063 465.125,61.2266 Q466.0156,62.0469 467.6094,62.0469 Q468.5469,62.0469 469.2031,61.7969 Q469.5938,61.6406 470.0156,61.2031 Q470.2813,60.9375 470.4297,60.8594 Q470.5781,60.7813 470.7813,60.7813 Q471.1094,60.7813 471.3672,61.0391 Q471.625,61.2969 471.625,61.6406 Q471.625,61.9844 471.2813,62.3906 Q470.7813,62.9688 469.9844,63.2969 Q468.9063,63.75 467.6094,63.75 Q466.0938,63.75 464.8906,63.125 Q463.9063,62.625 463.2188,61.5547 Q462.5313,60.4844 462.5313,59.2031 L462.5313,58.0469 Q462.5313,56.7188 463.1484,55.5703 Q463.7656,54.4219 464.8594,53.8047 Q465.9531,53.1875 467.1875,53.1875 Q467.9219,53.1875 468.5703,53.3516 Q469.2188,53.5156 469.7656,53.875 Z "/>
    <text fill="#000000" font-family="sans-serif" font-size="12" lengthAdjust="spacingAndGlyphs" textLength="57" x="481" y="62.9102">Document</text>
    <!--MD5=[13694b838c4692c931c3f77704ea2c78]
class com.credibledoc.substitution.core.exception.SubstitutionRuntimeException-->
    <rect fill="#98FB98" filter="url(#1)" height="32" id="com.credibledoc.substitution.core.exception.SubstitutionRuntimeException" style="stroke: #00FF7F; stroke-width: 1.5;" width="197" x="398" y="150"/>
    <ellipse cx="413" cy="166" fill="#9ACD32" rx="11" ry="11" style="stroke: #00FF7F; stroke-width: 1.0;"/>
    <path d="M415.7656,161.875 Q415.9219,161.6563 416.1094,161.5469 Q416.2969,161.4375 416.5156,161.4375 Q416.8906,161.4375 417.125,161.6953 Q417.3594,161.9531 417.3594,162.5625 L417.3594,164.0156 Q417.3594,164.625 417.125,164.8906 Q416.8906,165.1563 416.5156,165.1563 Q416.1719,165.1563 415.9688,164.9531 Q415.7656,164.7656 415.6563,164.25 Q415.6094,163.8906 415.4219,163.7031 Q415.0938,163.3281 414.4844,163.1094 Q413.875,162.8906 413.25,162.8906 Q412.4844,162.8906 411.8516,163.2188 Q411.2188,163.5469 410.7266,164.2969 Q410.2344,165.0469 410.2344,166.0781 L410.2344,167.1719 Q410.2344,168.4063 411.125,169.2266 Q412.0156,170.0469 413.6094,170.0469 Q414.5469,170.0469 415.2031,169.7969 Q415.5938,169.6406 416.0156,169.2031 Q416.2813,168.9375 416.4297,168.8594 Q416.5781,168.7813 416.7813,168.7813 Q417.1094,168.7813 417.3672,169.0391 Q417.625,169.2969 417.625,169.6406 Q417.625,169.9844 417.2813,170.3906 Q416.7813,170.9688 415.9844,171.2969 Q414.9063,171.75 413.6094,171.75 Q412.0938,171.75 410.8906,171.125 Q409.9063,170.625 409.2188,169.5547 Q408.5313,168.4844 408.5313,167.2031 L408.5313,166.0469 Q408.5313,164.7188 409.1484,163.5703 Q409.7656,162.4219 410.8594,161.8047 Q411.9531,161.1875 413.1875,161.1875 Q413.9219,161.1875 414.5703,161.3516 Q415.2188,161.5156 415.7656,161.875 Z "/>
    <text fill="#000000" font-family="sans-serif" font-size="12" lengthAdjust="spacingAndGlyphs" textLength="165" x="427" y="170.9102">SubstitutionRuntimeException</text>
    <!--MD5=[de6fb2299aece456650c4cd9b365442a]
class com.credibledoc.substitution.reporting.reportdocument.ReportDocumentType-->
    <rect fill="#98FB98" filter="url(#1)" height="32" id="com.credibledoc.substitution.reporting.reportdocument.ReportDocumentType" style="stroke: #00FF7F; stroke-width: 1.5;" width="152" x="420.5" y="258"/>
    <ellipse cx="435.5" cy="274" fill="#9ACD32" rx="11" ry="11" style="stroke: #00FF7F; stroke-width: 1.0;"/>
    <path d="M438.2656,269.875 Q438.4219,269.6563 438.6094,269.5469 Q438.7969,269.4375 439.0156,269.4375 Q439.3906,269.4375 439.625,269.6953 Q439.8594,269.9531 439.8594,270.5625 L439.8594,272.0156 Q439.8594,272.625 439.625,272.8906 Q439.3906,273.1563 439.0156,273.1563 Q438.6719,273.1563 438.4688,272.9531 Q438.2656,272.7656 438.1563,272.25 Q438.1094,271.8906 437.9219,271.7031 Q437.5938,271.3281 436.9844,271.1094 Q436.375,270.8906 435.75,270.8906 Q434.9844,270.8906 434.3516,271.2188 Q433.7188,271.5469 433.2266,272.2969 Q432.7344,273.0469 432.7344,274.0781 L432.7344,275.1719 Q432.7344,276.4063 433.625,277.2266 Q434.5156,278.0469 436.1094,278.0469 Q437.0469,278.0469 437.7031,277.7969 Q438.0938,277.6406 438.5156,277.2031 Q438.7813,276.9375 438.9297,276.8594 Q439.0781,276.7813 439.2813,276.7813 Q439.6094,276.7813 439.8672,277.0391 Q440.125,277.2969 440.125,277.6406 Q440.125,277.9844 439.7813,278.3906 Q439.2813,278.9688 438.4844,279.2969 Q437.4063,279.75 436.1094,279.75 Q434.5938,279.75 433.3906,279.125 Q432.4063,278.625 431.7188,277.5547 Q431.0313,276.4844 431.0313,275.2031 L431.0313,274.0469 Q431.0313,272.7188 431.6484,271.5703 Q432.2656,270.4219 433.3594,269.8047 Q434.4531,269.1875 435.6875,269.1875 Q436.4219,269.1875 437.0703,269.3516 Q437.7188,269.5156 438.2656,269.875 Z "/>
    <text fill="#000000" font-family="sans-serif" font-size="12" lengthAdjust="spacingAndGlyphs" textLength="120" x="449.5" y="278.9102">ReportDocumentType</text>
    <!--MD5=[dd460d3c26151f28537ffa24ebd17c35]
class com.credibledoc.substitution.reporting.reportdocument.ReportDocument-->
    <rect fill="#98FB98" filter="url(#1)" height="32" id="com.credibledoc.substitution.reporting.reportdocument.ReportDocument" style="stroke: #00FF7F; stroke-width: 1.5;" width="126" x="433.5" y="325"/>
    <ellipse cx="448.5" cy="341" fill="#9ACD32" rx="11" ry="11" style="stroke: #00FF7F; stroke-width: 1.0;"/>
    <path d="M451.2656,336.875 Q451.4219,336.6563 451.6094,336.5469 Q451.7969,336.4375 452.0156,336.4375 Q452.3906,336.4375 452.625,336.6953 Q452.8594,336.9531 452.8594,337.5625 L452.8594,339.0156 Q452.8594,339.625 452.625,339.8906 Q452.3906,340.1563 452.0156,340.1563 Q451.6719,340.1563 451.4688,339.9531 Q451.2656,339.7656 451.1563,339.25 Q451.1094,338.8906 450.9219,338.7031 Q450.5938,338.3281 449.9844,338.1094 Q449.375,337.8906 448.75,337.8906 Q447.9844,337.8906 447.3516,338.2188 Q446.7188,338.5469 446.2266,339.2969 Q445.7344,340.0469 445.7344,341.0781 L445.7344,342.1719 Q445.7344,343.4063 446.625,344.2266 Q447.5156,345.0469 449.1094,345.0469 Q450.0469,345.0469 450.7031,344.7969 Q451.0938,344.6406 451.5156,344.2031 Q451.7813,343.9375 451.9297,343.8594 Q452.0781,343.7813 452.2813,343.7813 Q452.6094,343.7813 452.8672,344.0391 Q453.125,344.2969 453.125,344.6406 Q453.125,344.9844 452.7813,345.3906 Q452.2813,345.9688 451.4844,346.2969 Q450.4063,346.75 449.1094,346.75 Q447.5938,346.75 446.3906,346.125 Q445.4063,345.625 444.7188,344.5547 Q444.0313,343.4844 444.0313,342.2031 L444.0313,341.0469 Q444.0313,339.7188 444.6484,338.5703 Q445.2656,337.4219 446.3594,336.8047 Q447.4531,336.1875 448.6875,336.1875 Q449.4219,336.1875 450.0703,336.3516 Q450.7188,336.5156 451.2656,336.875 Z "/>
    <text fill="#000000" font-family="sans-serif" font-size="12" lengthAdjust="spacingAndGlyphs" textLength="94" x="462.5" y="345.9102">ReportDocument</text>
    <!--MD5=[104fd32fb6caa548d2ce9768d17dcbe3]
class com.credibledoc.substitution.content.generator.jar.LocalJarNameContentGenerator-->
    <rect fill="#98FB98" filter="url(#1)" height="32" id="com.credibledoc.substitution.content.generator.jar.LocalJarNameContentGenerator" style="stroke: #00FF7F; stroke-width: 1.5;" width="211" x="391" y="433"/>
    <ellipse cx="406" cy="449" fill="#9ACD32" rx="11" ry="11" style="stroke: #00FF7F; stroke-width: 1.0;"/>
    <path d="M408.7656,444.875 Q408.9219,444.6563 409.1094,444.5469 Q409.2969,444.4375 409.5156,444.4375 Q409.8906,444.4375 410.125,444.6953 Q410.3594,444.9531 410.3594,445.5625 L410.3594,447.0156 Q410.3594,447.625 410.125,447.8906 Q409.8906,448.1563 409.5156,448.1563 Q409.1719,448.1563 408.9688,447.9531 Q408.7656,447.7656 408.6563,447.25 Q408.6094,446.8906 408.4219,446.7031 Q408.0938,446.3281 407.4844,446.1094 Q406.875,445.8906 406.25,445.8906 Q405.4844,445.8906 404.8516,446.2188 Q404.2188,446.5469 403.7266,447.2969 Q403.2344,448.0469 403.2344,449.0781 L403.2344,450.1719 Q403.2344,451.4063 404.125,452.2266 Q405.0156,453.0469 406.6094,453.0469 Q407.5469,453.0469 408.2031,452.7969 Q408.5938,452.6406 409.0156,452.2031 Q409.2813,451.9375 409.4297,451.8594 Q409.5781,451.7813 409.7813,451.7813 Q410.1094,451.7813 410.3672,452.0391 Q410.625,452.2969 410.625,452.6406 Q410.625,452.9844 410.2813,453.3906 Q409.7813,453.9688 408.9844,454.2969 Q407.9063,454.75 406.6094,454.75 Q405.0938,454.75 403.8906,454.125 Q402.9063,453.625 402.2188,452.5547 Q401.5313,451.4844 401.5313,450.2031 L401.5313,449.0469 Q401.5313,447.7188 402.1484,446.5703 Q402.7656,445.4219 403.8594,444.8047 Q404.9531,444.1875 406.1875,444.1875 Q406.9219,444.1875 407.5703,444.3516 Q408.2188,444.5156 408.7656,444.875 Z "/>
    <text fill="#000000" font-family="sans-serif" font-size="12" lengthAdjust="spacingAndGlyphs" textLength="179" x="420" y="453.9102">LocalJarNameContentGenerator</text>
    <!--MD5=[49c5b8dc52a382acc6ecd565342c1456]
class com.credibledoc.substitution.core.context.SubstitutionContext-->
    <rect fill="#98FB98" filter="url(#1)" height="32" id="com.credibledoc.substitution.core.context.SubstitutionContext" style="stroke: #00FF7F; stroke-width: 1.5;" width="138" x="427.5" y="541"/>
    <ellipse cx="442.5" cy="557" fill="#9ACD32" rx="11" ry="11" style="stroke: #00FF7F; stroke-width: 1.0;"/>
    <path d="M445.2656,552.875 Q445.4219,552.6563 445.6094,552.5469 Q445.7969,552.4375 446.0156,552.4375 Q446.3906,552.4375 446.625,552.6953 Q446.8594,552.9531 446.8594,553.5625 L446.8594,555.0156 Q446.8594,555.625 446.625,555.8906 Q446.3906,556.1563 446.0156,556.1563 Q445.6719,556.1563 445.4688,555.9531 Q445.2656,555.7656 445.1563,555.25 Q445.1094,554.8906 444.9219,554.7031 Q444.5938,554.3281 443.9844,554.1094 Q443.375,553.8906 442.75,553.8906 Q441.9844,553.8906 441.3516,554.2188 Q440.7188,554.5469 440.2266,555.2969 Q439.7344,556.0469 439.7344,557.0781 L439.7344,558.1719 Q439.7344,559.4063 440.625,560.2266 Q441.5156,561.0469 443.1094,561.0469 Q444.0469,561.0469 444.7031,560.7969 Q445.0938,560.6406 445.5156,560.2031 Q445.7813,559.9375 445.9297,559.8594 Q446.0781,559.7813 446.2813,559.7813 Q446.6094,559.7813 446.8672,560.0391 Q447.125,560.2969 447.125,560.6406 Q447.125,560.9844 446.7813,561.3906 Q446.2813,561.9688 445.4844,562.2969 Q444.4063,562.75 443.1094,562.75 Q441.5938,562.75 440.3906,562.125 Q439.4063,561.625 438.7188,560.5547 Q438.0313,559.4844 438.0313,558.2031 L438.0313,557.0469 Q438.0313,555.7188 438.6484,554.5703 Q439.2656,553.4219 440.3594,552.8047 Q441.4531,552.1875 442.6875,552.1875 Q443.4219,552.1875 444.0703,552.3516 Q444.7188,552.5156 445.2656,552.875 Z "/>
    <text fill="#000000" font-family="sans-serif" font-size="12" lengthAdjust="spacingAndGlyphs" textLength="106" x="456.5" y="561.9102">SubstitutionContext</text>
    <!--MD5=[e564e4e147ca37e9e2799dcfbb8f5901]
class com.credibledoc.substitution.core.placeholder.PlaceholderService-->
    <rect fill="#98FB98" filter="url(#1)" height="32" id="com.credibledoc.substitution.core.placeholder.PlaceholderService" style="stroke: #00FF7F; stroke-width: 1.5;" width="138" x="427.5" y="649"/>
    <ellipse cx="442.5" cy="665" fill="#9ACD32" rx="11" ry="11" style="stroke: #00FF7F; stroke-width: 1.0;"/>
    <path d="M445.2656,660.875 Q445.4219,660.6563 445.6094,660.5469 Q445.7969,660.4375 446.0156,660.4375 Q446.3906,660.4375 446.625,660.6953 Q446.8594,660.9531 446.8594,661.5625 L446.8594,663.0156 Q446.8594,663.625 446.625,663.8906 Q446.3906,664.1563 446.0156,664.1563 Q445.6719,664.1563 445.4688,663.9531 Q445.2656,663.7656 445.1563,663.25 Q445.1094,662.8906 444.9219,662.7031 Q444.5938,662.3281 443.9844,662.1094 Q443.375,661.8906 442.75,661.8906 Q441.9844,661.8906 441.3516,662.2188 Q440.7188,662.5469 440.2266,663.2969 Q439.7344,664.0469 439.7344,665.0781 L439.7344,666.1719 Q439.7344,667.4063 440.625,668.2266 Q441.5156,669.0469 443.1094,669.0469 Q444.0469,669.0469 444.7031,668.7969 Q445.0938,668.6406 445.5156,668.2031 Q445.7813,667.9375 445.9297,667.8594 Q446.0781,667.7813 446.2813,667.7813 Q446.6094,667.7813 446.8672,668.0391 Q447.125,668.2969 447.125,668.6406 Q447.125,668.9844 446.7813,669.3906 Q446.2813,669.9688 445.4844,670.2969 Q444.4063,670.75 443.1094,670.75 Q441.5938,670.75 440.3906,670.125 Q439.4063,669.625 438.7188,668.5547 Q438.0313,667.4844 438.0313,666.2031 L438.0313,665.0469 Q438.0313,663.7188 438.6484,662.5703 Q439.2656,661.4219 440.3594,660.8047 Q441.4531,660.1875 442.6875,660.1875 Q443.4219,660.1875 444.0703,660.3516 Q444.7188,660.5156 445.2656,660.875 Z "/>
    <text fill="#000000" font-family="sans-serif" font-size="12" lengthAdjust="spacingAndGlyphs" textLength="106" x="456.5" y="669.9102">PlaceholderService</text>
    <!--MD5=[56a034bd30a3bed0b5d1d9cdd1ada984]
class com.credibledoc.substitution.core.placeholder.Placeholder-->
    <rect fill="#98FB98" filter="url(#1)" height="32" id="com.credibledoc.substitution.core.placeholder.Placeholder" style="stroke: #00FF7F; stroke-width: 1.5;" width="98" x="447.5" y="716"/>
    <ellipse cx="462.5" cy="732" fill="#9ACD32" rx="11" ry="11" style="stroke: #00FF7F; stroke-width: 1.0;"/>
    <path d="M465.2656,727.875 Q465.4219,727.6563 465.6094,727.5469 Q465.7969,727.4375 466.0156,727.4375 Q466.3906,727.4375 466.625,727.6953 Q466.8594,727.9531 466.8594,728.5625 L466.8594,730.0156 Q466.8594,730.625 466.625,730.8906 Q466.3906,731.1563 466.0156,731.1563 Q465.6719,731.1563 465.4688,730.9531 Q465.2656,730.7656 465.1563,730.25 Q465.1094,729.8906 464.9219,729.7031 Q464.5938,729.3281 463.9844,729.1094 Q463.375,728.8906 462.75,728.8906 Q461.9844,728.8906 461.3516,729.2188 Q460.7188,729.5469 460.2266,730.2969 Q459.7344,731.0469 459.7344,732.0781 L459.7344,733.1719 Q459.7344,734.4063 460.625,735.2266 Q461.5156,736.0469 463.1094,736.0469 Q464.0469,736.0469 464.7031,735.7969 Q465.0938,735.6406 465.5156,735.2031 Q465.7813,734.9375 465.9297,734.8594 Q466.0781,734.7813 466.2813,734.7813 Q466.6094,734.7813 466.8672,735.0391 Q467.125,735.2969 467.125,735.6406 Q467.125,735.9844 466.7813,736.3906 Q466.2813,736.9688 465.4844,737.2969 Q464.4063,737.75 463.1094,737.75 Q461.5938,737.75 460.3906,737.125 Q459.4063,736.625 458.7188,735.5547 Q458.0313,734.4844 458.0313,733.2031 L458.0313,732.0469 Q458.0313,730.7188 458.6484,729.5703 Q459.2656,728.4219 460.3594,727.8047 Q461.4531,727.1875 462.6875,727.1875 Q463.4219,727.1875 464.0703,727.3516 Q464.7188,727.5156 465.2656,727.875 Z "/>
    <text fill="#000000" font-family="sans-serif" font-size="12" lengthAdjust="spacingAndGlyphs" textLength="66" x="476.5" y="736.9102">Placeholder</text>
    <!--MD5=[b6d80539f3bead6292ad36c14bd5bb90]
class com.credibledoc.substitution.core.resource.TemplateResource-->
    <rect fill="#98FB98" filter="url(#1)" height="32" id="com.credibledoc.substitution.core.resource.TemplateResource" style="stroke: #00FF7F; stroke-width: 1.5;" width="138" x="427.5" y="824"/>
    <ellipse cx="442.5" cy="840" fill="#9ACD32" rx="11" ry="11" style="stroke: #00FF7F; stroke-width: 1.0;"/>
    <path d="M445.2656,835.875 Q445.4219,835.6563 445.6094,835.5469 Q445.7969,835.4375 446.0156,835.4375 Q446.3906,835.4375 446.625,835.6953 Q446.8594,835.9531 446.8594,836.5625 L446.8594,838.0156 Q446.8594,838.625 446.625,838.8906 Q446.3906,839.1563 446.0156,839.1563 Q445.6719,839.1563 445.4688,838.9531 Q445.2656,838.7656 445.1563,838.25 Q445.1094,837.8906 444.9219,837.7031 Q444.5938,837.3281 443.9844,837.1094 Q443.375,836.8906 442.75,836.8906 Q441.9844,836.8906 441.3516,837.2188 Q440.7188,837.5469 440.2266,838.2969 Q439.7344,839.0469 439.7344,840.0781 L439.7344,841.1719 Q439.7344,842.4063 440.625,843.2266 Q441.5156,844.0469 443.1094,844.0469 Q444.0469,844.0469 444.7031,843.7969 Q445.0938,843.6406 445.5156,843.2031 Q445.7813,842.9375 445.9297,842.8594 Q446.0781,842.7813 446.2813,842.7813 Q446.6094,842.7813 446.8672,843.0391 Q447.125,843.2969 447.125,843.6406 Q447.125,843.9844 446.7813,844.3906 Q446.2813,844.9688 445.4844,845.2969 Q444.4063,845.75 443.1094,845.75 Q441.5938,845.75 440.3906,845.125 Q439.4063,844.625 438.7188,843.5547 Q438.0313,842.4844 438.0313,841.2031 L438.0313,840.0469 Q438.0313,838.7188 438.6484,837.5703 Q439.2656,836.4219 440.3594,835.8047 Q441.4531,835.1875 442.6875,835.1875 Q443.4219,835.1875 444.0703,835.3516 Q444.7188,835.5156 445.2656,835.875 Z "/>
    <text fill="#000000" font-family="sans-serif" font-size="12" lengthAdjust="spacingAndGlyphs" textLength="106" x="456.5" y="844.9102">TemplateResource</text>
    <!--MD5=[00153bfefca05d263e9c6344f4443f50]
class com.credibledoc.substitution.core.resource.ResourceService-->
    <rect fill="#98FB98" filter="url(#1)" height="32" id="com.credibledoc.substitution.core.resource.ResourceService" style="stroke: #00FF7F; stroke-width: 1.5;" width="126" x="433.5" y="891"/>
    <ellipse cx="448.5" cy="907" fill="#9ACD32" rx="11" ry="11" style="stroke: #00FF7F; stroke-width: 1.0;"/>
    <path d="M451.2656,902.875 Q451.4219,902.6563 451.6094,902.5469 Q451.7969,902.4375 452.0156,902.4375 Q452.3906,902.4375 452.625,902.6953 Q452.8594,902.9531 452.8594,903.5625 L452.8594,905.0156 Q452.8594,905.625 452.625,905.8906 Q452.3906,906.1563 452.0156,906.1563 Q451.6719,906.1563 451.4688,905.9531 Q451.2656,905.7656 451.1563,905.25 Q451.1094,904.8906 450.9219,904.7031 Q450.5938,904.3281 449.9844,904.1094 Q449.375,903.8906 448.75,903.8906 Q447.9844,903.8906 447.3516,904.2188 Q446.7188,904.5469 446.2266,905.2969 Q445.7344,906.0469 445.7344,907.0781 L445.7344,908.1719 Q445.7344,909.4063 446.625,910.2266 Q447.5156,911.0469 449.1094,911.0469 Q450.0469,911.0469 450.7031,910.7969 Q451.0938,910.6406 451.5156,910.2031 Q451.7813,909.9375 451.9297,909.8594 Q452.0781,909.7813 452.2813,909.7813 Q452.6094,909.7813 452.8672,910.0391 Q453.125,910.2969 453.125,910.6406 Q453.125,910.9844 452.7813,911.3906 Q452.2813,911.9688 451.4844,912.2969 Q450.4063,912.75 449.1094,912.75 Q447.5938,912.75 446.3906,912.125 Q445.4063,911.625 444.7188,910.5547 Q444.0313,909.4844 444.0313,908.2031 L444.0313,907.0469 Q444.0313,905.7188 444.6484,904.5703 Q445.2656,903.4219 446.3594,902.8047 Q447.4531,902.1875 448.6875,902.1875 Q449.4219,902.1875 450.0703,902.3516 Q450.7188,902.5156 451.2656,902.875 Z "/>
    <text fill="#000000" font-family="sans-serif" font-size="12" lengthAdjust="spacingAndGlyphs" textLength="94" x="462.5" y="911.9102">ResourceService</text>
    <!--MD5=[43b55aca9cee8087ee601639b7ccee93]
class com.credibledoc.substitution.core.resource.ResourceType-->
    <rect fill="#98FB98" filter="url(#1)" height="32" id="com.credibledoc.substitution.core.resource.ResourceType" style="stroke: #00FF7F; stroke-width: 1.5;" width="112" x="440.5" y="958"/>
    <ellipse cx="455.5" cy="974" fill="#9ACD32" rx="11" ry="11" style="stroke: #00FF7F; stroke-width: 1.0;"/>
    <path d="M458.2656,969.875 Q458.4219,969.6563 458.6094,969.5469 Q458.7969,969.4375 459.0156,969.4375 Q459.3906,969.4375 459.625,969.6953 Q459.8594,969.9531 459.8594,970.5625 L459.8594,972.0156 Q459.8594,972.625 459.625,972.8906 Q459.3906,973.1563 459.0156,973.1563 Q458.6719,973.1563 458.4688,972.9531 Q458.2656,972.7656 458.1563,972.25 Q458.1094,971.8906 457.9219,971.7031 Q457.5938,971.3281 456.9844,971.1094 Q456.375,970.8906 455.75,970.8906 Q454.9844,970.8906 454.3516,971.2188 Q453.7188,971.5469 453.2266,972.2969 Q452.7344,973.0469 452.7344,974.0781 L452.7344,975.1719 Q452.7344,976.4063 453.625,977.2266 Q454.5156,978.0469 456.1094,978.0469 Q457.0469,978.0469 457.7031,977.7969 Q458.0938,977.6406 458.5156,977.2031 Q458.7813,976.9375 458.9297,976.8594 Q459.0781,976.7813 459.2813,976.7813 Q459.6094,976.7813 459.8672,977.0391 Q460.125,977.2969 460.125,977.6406 Q460.125,977.9844 459.7813,978.3906 Q459.2813,978.9688 458.4844,979.2969 Q457.4063,979.75 456.1094,979.75 Q454.5938,979.75 453.3906,979.125 Q452.4063,978.625 451.7188,977.5547 Q451.0313,976.4844 451.0313,975.2031 L451.0313,974.0469 Q451.0313,972.7188 451.6484,971.5703 Q452.2656,970.4219 453.3594,969.8047 Q454.4531,969.1875 455.6875,969.1875 Q456.4219,969.1875 457.0703,969.3516 Q457.7188,969.5156 458.2656,969.875 Z "/>
    <text fill="#000000" font-family="sans-serif" font-size="12" lengthAdjust="spacingAndGlyphs" textLength="80" x="469.5" y="978.9102">ResourceType</text>
    <!--MD5=[7607ff8ca570e4ff0c0e24433c905d6e]
class com.credibledoc.substitution.reporting.reportdocument.creator.ReportDocumentCreator-->
    <rect fill="#98FB98" filter="url(#1)" height="32" id="com.credibledoc.substitution.reporting.reportdocument.creator.ReportDocumentCreator" style="stroke: #00FF7F; stroke-width: 1.5;" width="167" x="413" y="1066"/>
    <ellipse cx="428" cy="1082" fill="#9ACD32" rx="11" ry="11" style="stroke: #00FF7F; stroke-width: 1.0;"/>
    <path d="M430.7656,1077.875 Q430.9219,1077.6563 431.1094,1077.5469 Q431.2969,1077.4375 431.5156,1077.4375 Q431.8906,1077.4375 432.125,1077.6953 Q432.3594,1077.9531 432.3594,1078.5625 L432.3594,1080.0156 Q432.3594,1080.625 432.125,1080.8906 Q431.8906,1081.1563 431.5156,1081.1563 Q431.1719,1081.1563 430.9688,1080.9531 Q430.7656,1080.7656 430.6563,1080.25 Q430.6094,1079.8906 430.4219,1079.7031 Q430.0938,1079.3281 429.4844,1079.1094 Q428.875,1078.8906 428.25,1078.8906 Q427.4844,1078.8906 426.8516,1079.2188 Q426.2188,1079.5469 425.7266,1080.2969 Q425.2344,1081.0469 425.2344,1082.0781 L425.2344,1083.1719 Q425.2344,1084.4063 426.125,1085.2266 Q427.0156,1086.0469 428.6094,1086.0469 Q429.5469,1086.0469 430.2031,1085.7969 Q430.5938,1085.6406 431.0156,1085.2031 Q431.2813,1084.9375 431.4297,1084.8594 Q431.5781,1084.7813 431.7813,1084.7813 Q432.1094,1084.7813 432.3672,1085.0391 Q432.625,1085.2969 432.625,1085.6406 Q432.625,1085.9844 432.2813,1086.3906 Q431.7813,1086.9688 430.9844,1087.2969 Q429.9063,1087.75 428.6094,1087.75 Q427.0938,1087.75 425.8906,1087.125 Q424.9063,1086.625 424.2188,1085.5547 Q423.5313,1084.4844 423.5313,1083.2031 L423.5313,1082.0469 Q423.5313,1080.7188 424.1484,1079.5703 Q424.7656,1078.4219 425.8594,1077.8047 Q426.9531,1077.1875 428.1875,1077.1875 Q428.9219,1077.1875 429.5703,1077.3516 Q430.2188,1077.5156 430.7656,1077.875 Z "/>
    <text fill="#000000" font-family="sans-serif" font-size="12" lengthAdjust="spacingAndGlyphs" textLength="135" x="442" y="1086.9102">ReportDocumentCreator</text>
    <!--MD5=[c6ed0641fbc9f581e2ff59c7e46144b2]
class com.credibledoc.substitution.core.template.TemplateService-->
    <rect fill="#98FB98" filter="url(#1)" height="32" id="com.credibledoc.substitution.core.template.TemplateService" style="stroke: #00FF7F; stroke-width: 1.5;" width="124" x="434.5" y="1174"/>
    <ellipse cx="449.5" cy="1190" fill="#9ACD32" rx="11" ry="11" style="stroke: #00FF7F; stroke-width: 1.0;"/>
    <path d="M452.2656,1185.875 Q452.4219,1185.6563 452.6094,1185.5469 Q452.7969,1185.4375 453.0156,1185.4375 Q453.3906,1185.4375 453.625,1185.6953 Q453.8594,1185.9531 453.8594,1186.5625 L453.8594,1188.0156 Q453.8594,1188.625 453.625,1188.8906 Q453.3906,1189.1563 453.0156,1189.1563 Q452.6719,1189.1563 452.4688,1188.9531 Q452.2656,1188.7656 452.1563,1188.25 Q452.1094,1187.8906 451.9219,1187.7031 Q451.5938,1187.3281 450.9844,1187.1094 Q450.375,1186.8906 449.75,1186.8906 Q448.9844,1186.8906 448.3516,1187.2188 Q447.7188,1187.5469 447.2266,1188.2969 Q446.7344,1189.0469 446.7344,1190.0781 L446.7344,1191.1719 Q446.7344,1192.4063 447.625,1193.2266 Q448.5156,1194.0469 450.1094,1194.0469 Q451.0469,1194.0469 451.7031,1193.7969 Q452.0938,1193.6406 452.5156,1193.2031 Q452.7813,1192.9375 452.9297,1192.8594 Q453.0781,1192.7813 453.2813,1192.7813 Q453.6094,1192.7813 453.8672,1193.0391 Q454.125,1193.2969 454.125,1193.6406 Q454.125,1193.9844 453.7813,1194.3906 Q453.2813,1194.9688 452.4844,1195.2969 Q451.4063,1195.75 450.1094,1195.75 Q448.5938,1195.75 447.3906,1195.125 Q446.4063,1194.625 445.7188,1193.5547 Q445.0313,1192.4844 445.0313,1191.2031 L445.0313,1190.0469 Q445.0313,1188.7188 445.6484,1187.5703 Q446.2656,1186.4219 447.3594,1185.8047 Q448.4531,1185.1875 449.6875,1185.1875 Q450.4219,1185.1875 451.0703,1185.3516 Q451.7188,1185.5156 452.2656,1185.875 Z "/>
    <text fill="#000000" font-family="sans-serif" font-size="12" lengthAdjust="spacingAndGlyphs" textLength="92" x="463.5" y="1194.9102">TemplateService</text>
    <!--MD5=[f34d3cae6d5f5520fa3597259176558d]
class com.credibledoc.substitution.core.configuration.ConfigurationService-->
    <rect fill="#98FB98" filter="url(#1)" height="32" id="com.credibledoc.substitution.core.configuration.ConfigurationService" style="stroke: #00FF7F; stroke-width: 1.5;" width="146" x="423.5" y="1282"/>
    <ellipse cx="438.5" cy="1298" fill="#9ACD32" rx="11" ry="11" style="stroke: #00FF7F; stroke-width: 1.0;"/>
    <path d="M441.2656,1293.875 Q441.4219,1293.6563 441.6094,1293.5469 Q441.7969,1293.4375 442.0156,1293.4375 Q442.3906,1293.4375 442.625,1293.6953 Q442.8594,1293.9531 442.8594,1294.5625 L442.8594,1296.0156 Q442.8594,1296.625 442.625,1296.8906 Q442.3906,1297.1563 442.0156,1297.1563 Q441.6719,1297.1563 441.4688,1296.9531 Q441.2656,1296.7656 441.1563,1296.25 Q441.1094,1295.8906 440.9219,1295.7031 Q440.5938,1295.3281 439.9844,1295.1094 Q439.375,1294.8906 438.75,1294.8906 Q437.9844,1294.8906 437.3516,1295.2188 Q436.7188,1295.5469 436.2266,1296.2969 Q435.7344,1297.0469 435.7344,1298.0781 L435.7344,1299.1719 Q435.7344,1300.4063 436.625,1301.2266 Q437.5156,1302.0469 439.1094,1302.0469 Q440.0469,1302.0469 440.7031,1301.7969 Q441.0938,1301.6406 441.5156,1301.2031 Q441.7813,1300.9375 441.9297,1300.8594 Q442.0781,1300.7813 442.2813,1300.7813 Q442.6094,1300.7813 442.8672,1301.0391 Q443.125,1301.2969 443.125,1301.6406 Q443.125,1301.9844 442.7813,1302.3906 Q442.2813,1302.9688 441.4844,1303.2969 Q440.4063,1303.75 439.1094,1303.75 Q437.5938,1303.75 436.3906,1303.125 Q435.4063,1302.625 434.7188,1301.5547 Q434.0313,1300.4844 434.0313,1299.2031 L434.0313,1298.0469 Q434.0313,1296.7188 434.6484,1295.5703 Q435.2656,1294.4219 436.3594,1293.8047 Q437.4531,1293.1875 438.6875,1293.1875 Q439.4219,1293.1875 440.0703,1293.3516 Q440.7188,1293.5156 441.2656,1293.875 Z "/>
    <text fill="#000000" font-family="sans-serif" font-size="12" lengthAdjust="spacingAndGlyphs" textLength="114" x="452.5" y="1302.9102">ConfigurationService</text>
    <!--MD5=[2144794834e14012e336f06ac19b4f39]
class com.credibledoc.substitution.reporting.replacement.ReplacementService-->
    <rect fill="#98FB98" filter="url(#1)" height="32" id="com.credibledoc.substitution.reporting.replacement.ReplacementService" style="stroke: #00FF7F; stroke-width: 1.5;" width="146" x="423.5" y="1390"/>
    <ellipse cx="438.5" cy="1406" fill="#9ACD32" rx="11" ry="11" style="stroke: #00FF7F; stroke-width: 1.0;"/>
    <path d="M441.2656,1401.875 Q441.4219,1401.6563 441.6094,1401.5469 Q441.7969,1401.4375 442.0156,1401.4375 Q442.3906,1401.4375 442.625,1401.6953 Q442.8594,1401.9531 442.8594,1402.5625 L442.8594,1404.0156 Q442.8594,1404.625 442.625,1404.8906 Q442.3906,1405.1563 442.0156,1405.1563 Q441.6719,1405.1563 441.4688,1404.9531 Q441.2656,1404.7656 441.1563,1404.25 Q441.1094,1403.8906 440.9219,1403.7031 Q440.5938,1403.3281 439.9844,1403.1094 Q439.375,1402.8906 438.75,1402.8906 Q437.9844,1402.8906 437.3516,1403.2188 Q436.7188,1403.5469 436.2266,1404.2969 Q435.7344,1405.0469 435.7344,1406.0781 L435.7344,1407.1719 Q435.7344,1408.4063 436.625,1409.2266 Q437.5156,1410.0469 439.1094,1410.0469 Q440.0469,1410.0469 440.7031,1409.7969 Q441.0938,1409.6406 441.5156,1409.2031 Q441.7813,1408.9375 441.9297,1408.8594 Q442.0781,1408.7813 442.2813,1408.7813 Q442.6094,1408.7813 442.8672,1409.0391 Q443.125,1409.2969 443.125,1409.6406 Q443.125,1409.9844 442.7813,1410.3906 Q442.2813,1410.9688 441.4844,1411.2969 Q440.4063,1411.75 439.1094,1411.75 Q437.5938,1411.75 436.3906,1411.125 Q435.4063,1410.625 434.7188,1409.5547 Q434.0313,1408.4844 434.0313,1407.2031 L434.0313,1406.0469 Q434.0313,1404.7188 434.6484,1403.5703 Q435.2656,1402.4219 436.3594,1401.8047 Q437.4531,1401.1875 438.6875,1401.1875 Q439.4219,1401.1875 440.0703,1401.3516 Q440.7188,1401.5156 441.2656,1401.875 Z "/>
    <text fill="#000000" font-family="sans-serif" font-size="12" lengthAdjust="spacingAndGlyphs" textLength="114" x="452.5" y="1410.9102">ReplacementService</text>
    <!--MD5=[29968a5d37d6b3fe49470c30b586a72c]
class com.credibledoc.substitution.core.content.ContentGenerator-->
    <rect fill="#98FB98" filter="url(#1)" height="32" id="com.credibledoc.substitution.core.content.ContentGenerator" style="stroke: #00FF7F; stroke-width: 1.5;" width="130" x="431.5" y="1498"/>
    <ellipse cx="446.5" cy="1514" fill="#9ACD32" rx="11" ry="11" style="stroke: #00FF7F; stroke-width: 1.0;"/>
    <path d="M449.2656,1509.875 Q449.4219,1509.6563 449.6094,1509.5469 Q449.7969,1509.4375 450.0156,1509.4375 Q450.3906,1509.4375 450.625,1509.6953 Q450.8594,1509.9531 450.8594,1510.5625 L450.8594,1512.0156 Q450.8594,1512.625 450.625,1512.8906 Q450.3906,1513.1563 450.0156,1513.1563 Q449.6719,1513.1563 449.4688,1512.9531 Q449.2656,1512.7656 449.1563,1512.25 Q449.1094,1511.8906 448.9219,1511.7031 Q448.5938,1511.3281 447.9844,1511.1094 Q447.375,1510.8906 446.75,1510.8906 Q445.9844,1510.8906 445.3516,1511.2188 Q444.7188,1511.5469 444.2266,1512.2969 Q443.7344,1513.0469 443.7344,1514.0781 L443.7344,1515.1719 Q443.7344,1516.4063 444.625,1517.2266 Q445.5156,1518.0469 447.1094,1518.0469 Q448.0469,1518.0469 448.7031,1517.7969 Q449.0938,1517.6406 449.5156,1517.2031 Q449.7813,1516.9375 449.9297,1516.8594 Q450.0781,1516.7813 450.2813,1516.7813 Q450.6094,1516.7813 450.8672,1517.0391 Q451.125,1517.2969 451.125,1517.6406 Q451.125,1517.9844 450.7813,1518.3906 Q450.2813,1518.9688 449.4844,1519.2969 Q448.4063,1519.75 447.1094,1519.75 Q445.5938,1519.75 444.3906,1519.125 Q443.4063,1518.625 442.7188,1517.5547 Q442.0313,1516.4844 442.0313,1515.2031 L442.0313,1514.0469 Q442.0313,1512.7188 442.6484,1511.5703 Q443.2656,1510.4219 444.3594,1509.8047 Q445.4531,1509.1875 446.6875,1509.1875 Q447.4219,1509.1875 448.0703,1509.3516 Q448.7188,1509.5156 449.2656,1509.875 Z "/>
    <text fill="#000000" font-family="sans-serif" font-size="12" lengthAdjust="spacingAndGlyphs" textLength="98" x="460.5" y="1518.9102">ContentGenerator</text>
    <!--MD5=[d3b8fea686fa7db660b77e8dcfb05006]
class com.credibledoc.substitution.core.content.Content-->
    <rect fill="#98FB98" filter="url(#1)" height="32" id="com.credibledoc.substitution.core.content.Content" style="stroke: #00FF7F; stroke-width: 1.5;" width="75" x="459" y="1565"/>
    <ellipse cx="474" cy="1581" fill="#9ACD32" rx="11" ry="11" style="stroke: #00FF7F; stroke-width: 1.0;"/>
    <path d="M476.7656,1576.875 Q476.9219,1576.6563 477.1094,1576.5469 Q477.2969,1576.4375 477.5156,1576.4375 Q477.8906,1576.4375 478.125,1576.6953 Q478.3594,1576.9531 478.3594,1577.5625 L478.3594,1579.0156 Q478.3594,1579.625 478.125,1579.8906 Q477.8906,1580.1563 477.5156,1580.1563 Q477.1719,1580.1563 476.9688,1579.9531 Q476.7656,1579.7656 476.6563,1579.25 Q476.6094,1578.8906 476.4219,1578.7031 Q476.0938,1578.3281 475.4844,1578.1094 Q474.875,1577.8906 474.25,1577.8906 Q473.4844,1577.8906 472.8516,1578.2188 Q472.2188,1578.5469 471.7266,1579.2969 Q471.2344,1580.0469 471.2344,1581.0781 L471.2344,1582.1719 Q471.2344,1583.4063 472.125,1584.2266 Q473.0156,1585.0469 474.6094,1585.0469 Q475.5469,1585.0469 476.2031,1584.7969 Q476.5938,1584.6406 477.0156,1584.2031 Q477.2813,1583.9375 477.4297,1583.8594 Q477.5781,1583.7813 477.7813,1583.7813 Q478.1094,1583.7813 478.3672,1584.0391 Q478.625,1584.2969 478.625,1584.6406 Q478.625,1584.9844 478.2813,1585.3906 Q477.7813,1585.9688 476.9844,1586.2969 Q475.9063,1586.75 474.6094,1586.75 Q473.0938,1586.75 471.8906,1586.125 Q470.9063,1585.625 470.2188,1584.5547 Q469.5313,1583.4844 469.5313,1582.2031 L469.5313,1581.0469 Q469.5313,1579.7188 470.1484,1578.5703 Q470.7656,1577.4219 471.8594,1576.8047 Q472.9531,1576.1875 474.1875,1576.1875 Q474.9219,1576.1875 475.5703,1576.3516 Q476.2188,1576.5156 476.7656,1576.875 Z "/>
    <text fill="#000000" font-family="sans-serif" font-size="12" lengthAdjust="spacingAndGlyphs" textLength="43" x="488" y="1585.9102">Content</text>
    <!--MD5=[c14cffe0b2defeec22661e2aec967a76]
link com.credibledoc.substitution.doc to com.credibledoc.substitution.core.configuration.ConfigurationService-->
    <path d="M127.555,856.082 C130.44,914.17 148.212,1115.316 257,1222 C300.058,1264.225 366.519,1283.004 418.356,1291.349 " fill="none" id="com.credibledoc.substitution.doc-&gt;com.credibledoc.substitution.core.configuration.ConfigurationService" style="stroke: #2E8B57; stroke-width: 1.0; stroke-dasharray: 7.0,7.0;"/>
    <polygon fill="#2E8B57" points="423.326,1292.124,415.0509,1286.7833,418.3859,1291.3526,413.8166,1294.6875,423.326,1292.124" style="stroke: #2E8B57; stroke-width: 1.0;"/>
    <!--MD5=[72387fb44c4bffa7ba2aded2b6b532d2]
link com.credibledoc.substitution.doc to com.credibledoc.substitution.content.generator.jar.LocalJarNameContentGenerator-->
    <path d="M128.875,823.91 C135.722,772.493 164.06,610.54 257,525 C292.177,492.62 341.164,474.04 385.596,463.37 " fill="none" id="com.credibledoc.substitution.doc-&gt;com.credibledoc.substitution.content.generator.jar.LocalJarNameContentGenerator" style="stroke: #2E8B57; stroke-width: 1.0; stroke-dasharray: 7.0,7.0;"/>
    <polygon fill="#2E8B57" points="390.712,462.17,381.0368,460.3287,385.8438,463.3107,382.8619,468.1177,390.712,462.17" style="stroke: #2E8B57; stroke-width: 1.0;"/>
    <!--MD5=[fe1b52f384b4412ee58cd72856759174]
link com.credibledoc.substitution.doc to com.credibledoc.substitution.core.resource.TemplateResource-->
    <path d="M152.039,840 C206.646,840 338.232,840 421.761,840 " fill="none" id="com.credibledoc.substitution.doc-&gt;com.credibledoc.substitution.core.resource.TemplateResource" style="stroke: #2E8B57; stroke-width: 1.0; stroke-dasharray: 7.0,7.0;"/>
    <polygon fill="#2E8B57" points="427.192,840,418.192,836,422.192,840,418.192,844,427.192,840" style="stroke: #2E8B57; stroke-width: 1.0;"/>
    <!--MD5=[10989d738cd39a43c13b5ec32812712b]
link com.credibledoc.substitution.doc to com.credibledoc.substitution.reporting.report.document.Document-->
    <path d="M127.77,823.899 C132.629,728.883 161.948,241.89 257,134 C305.006,79.51 391.965,63.77 446.567,59.42 " fill="none" id="com.credibledoc.substitution.doc-&gt;com.credibledoc.substitution.reporting.report.document.Document" style="stroke: #2E8B57; stroke-width: 1.0; stroke-dasharray: 7.0,7.0;"/>
    <polygon fill="#2E8B57" points="451.748,59.03,442.4748,55.7123,446.7619,59.4029,443.0714,63.6901,451.748,59.03" style="stroke: #2E8B57; stroke-width: 1.0;"/>
    <!--MD5=[361309265c965880cb5caf80892c0925]
link com.credibledoc.substitution.doc to com.credibledoc.substitution.core.context.SubstitutionContext-->
    <path d="M132.653,823.842 C147.061,785.011 188.906,685.767 257,633 C304.989,595.81 371.627,576.58 422.269,566.78 " fill="none" id="com.credibledoc.substitution.doc-&gt;com.credibledoc.substitution.core.context.SubstitutionContext" style="stroke: #2E8B57; stroke-width: 1.0; stroke-dasharray: 7.0,7.0;"/>
    <polygon fill="#2E8B57" points="427.429,565.8,417.8422,563.5433,422.5162,566.7297,419.3297,571.4037,427.429,565.8" style="stroke: #2E8B57; stroke-width: 1.0;"/>
    <!--MD5=[5f8858ad0ebb27cc4efc508cbf085ba7]
link com.credibledoc.substitution.doc to com.credibledoc.substitution.reporting.reportdocument.ReportDocumentType-->
    <path d="M128.538,823.82 C136.608,742.498 176.77,379.46 257,307 C299.139,268.94 363.708,261.98 415.039,263.83 " fill="none" id="com.credibledoc.substitution.doc-&gt;com.credibledoc.substitution.reporting.reportdocument.ReportDocumentType" style="stroke: #2E8B57; stroke-width: 1.0; stroke-dasharray: 7.0,7.0;"/>
    <polygon fill="#2E8B57" points="420.28,264.05,411.457,259.6733,415.2845,263.8388,411.119,267.6662,420.28,264.05" style="stroke: #2E8B57; stroke-width: 1.0;"/>
    <!--MD5=[a75af4171043cec589e558f1c9d66ced]
link com.credibledoc.substitution.doc to com.credibledoc.substitution.core.resource.ResourceType-->
    <path d="M142.459,856.329 C165.185,879.207 210.028,920.215 257,940 C314.389,964.172 385.696,971.728 435.32,973.819 " fill="none" id="com.credibledoc.substitution.doc-&gt;com.credibledoc.substitution.core.resource.ResourceType" style="stroke: #2E8B57; stroke-width: 1.0; stroke-dasharray: 7.0,7.0;"/>
    <polygon fill="#2E8B57" points="440.355,974.016,431.5184,969.6668,435.3588,973.8203,431.2054,977.6607,440.355,974.016" style="stroke: #2E8B57; stroke-width: 1.0;"/>
    <!--MD5=[b7be76b93cab8399d23056fc9bc6305e]
link com.credibledoc.substitution.doc to com.credibledoc.substitution.core.placeholder.PlaceholderService-->
    <path d="M136.367,823.882 C155.001,793.469 199.886,727.988 257,698 C307.898,671.276 372.941,663.741 422.241,662.491 " fill="none" id="com.credibledoc.substitution.doc-&gt;com.credibledoc.substitution.core.placeholder.PlaceholderService" style="stroke: #2E8B57; stroke-width: 1.0; stroke-dasharray: 7.0,7.0;"/>
    <polygon fill="#2E8B57" points="427.264,662.384,418.1814,658.5752,422.2651,662.4897,418.3506,666.5734,427.264,662.384" style="stroke: #2E8B57; stroke-width: 1.0;"/>
    <!--MD5=[e7cfedb0e6eb0d952ade452fef94243e]
link com.credibledoc.substitution.doc to com.credibledoc.substitution.core.template.TemplateService-->
    <path d="M130.019,856.314 C139.599,903.476 173.738,1041.247 257,1114 C305.267,1156.175 377.084,1174.98 429.293,1183.344 " fill="none" id="com.credibledoc.substitution.doc-&gt;com.credibledoc.substitution.core.template.TemplateService" style="stroke: #2E8B57; stroke-width: 1.0; stroke-dasharray: 7.0,7.0;"/>
    <polygon fill="#2E8B57" points="434.283,1184.121,426.0062,1178.783,429.3426,1183.3512,424.7744,1186.6876,434.283,1184.121" style="stroke: #2E8B57; stroke-width: 1.0;"/>
    <!--MD5=[e96b5baf345deb1a600e5b2b6776a774]
link com.credibledoc.substitution.doc to com.credibledoc.substitution.core.resource.ResourceService-->
    <path d="M152.226,847.258 C178.286,854.554 220.222,865.732 257,873 C314.404,884.344 380.295,893.443 428.254,899.363 " fill="none" id="com.credibledoc.substitution.doc-&gt;com.credibledoc.substitution.core.resource.ResourceService" style="stroke: #2E8B57; stroke-width: 1.0; stroke-dasharray: 7.0,7.0;"/>
    <polygon fill="#2E8B57" points="433.423,899.998,424.9782,894.9299,428.4603,899.388,424.0022,902.8702,433.423,899.998" style="stroke: #2E8B57; stroke-width: 1.0;"/>
    <!--MD5=[791a41cceeb1cab29f66cb2594478c85]
link com.credibledoc.substitution.doc to com.credibledoc.substitution.core.content.ContentGenerator-->
    <path d="M128.35,856.111 C135.88,942.286 175.315,1348.213 257,1438 C300.063,1485.334 372.494,1503.36 426.262,1510.133 " fill="none" id="com.credibledoc.substitution.doc-&gt;com.credibledoc.substitution.core.content.ContentGenerator" style="stroke: #2E8B57; stroke-width: 1.0; stroke-dasharray: 7.0,7.0;"/>
    <polygon fill="#2E8B57" points="431.405,1510.754,422.95,1505.703,426.4411,1510.154,421.9901,1513.6452,431.405,1510.754" style="stroke: #2E8B57; stroke-width: 1.0;"/>
    <!--MD5=[54180e2517bc662b66aef05505156612]
link com.credibledoc.substitution.doc to com.credibledoc.substitution.core.placeholder.Placeholder-->
    <path d="M152.039,832.662 C211.322,815.287 361.332,771.322 442.083,747.655 " fill="none" id="com.credibledoc.substitution.doc-&gt;com.credibledoc.substitution.core.placeholder.Placeholder" style="stroke: #2E8B57; stroke-width: 1.0; stroke-dasharray: 7.0,7.0;"/>
    <polygon fill="#2E8B57" points="447.3,746.126,437.5385,744.8175,442.5017,747.5316,439.7875,752.4948,447.3,746.126" style="stroke: #2E8B57; stroke-width: 1.0;"/>
    <!--MD5=[d668dad145f7f973df3f5f220e04c3a1]
link com.credibledoc.substitution.doc to com.credibledoc.substitution.core.content.Content-->
    <path d="M127.503,856.054 C130.847,951.841 153.044,1447.145 257,1547 C309.452,1597.3825 400.689,1595.0067 453.82,1588.2997 " fill="none" id="com.credibledoc.substitution.doc-&gt;com.credibledoc.substitution.core.content.Content" style="stroke: #2E8B57; stroke-width: 1.0; stroke-dasharray: 7.0,7.0;"/>
    <polygon fill="#2E8B57" points="458.841,1587.6387,449.3958,1584.8481,453.8838,1588.2916,450.4403,1592.7796,458.841,1587.6387" style="stroke: #2E8B57; stroke-width: 1.0;"/>
    <!--MD5=[e145688e96e1b763c5c2d4918c55b299]
link com.credibledoc.substitution.doc to com.credibledoc.substitution.reporting.replacement.ReplacementService-->
    <path d="M129.182,856.148 C139.827,932.677 188.576,1258.128 257,1330 C298.801,1373.908 365.865,1392.53 418.248,1400.387 " fill="none" id="com.credibledoc.substitution.doc-&gt;com.credibledoc.substitution.reporting.replacement.ReplacementService" style="stroke: #2E8B57; stroke-width: 1.0; stroke-dasharray: 7.0,7.0;"/>
    <polygon fill="#2E8B57" points="423.27,1401.114,414.9352,1395.8669,418.3215,1400.3983,413.7901,1403.7845,423.27,1401.114" style="stroke: #2E8B57; stroke-width: 1.0;"/>
    <!--MD5=[6bff7b36862dcb628ac8d930e12df50d]
link com.credibledoc.substitution.doc to com.credibledoc.substitution.reporting.reportdocument.ReportDocument-->
    <path d="M126.94,823.965 C127.6,762.156 138.373,536.86 257,417 C302.311,371.22 375.103,352.97 428.365,345.73 " fill="none" id="com.credibledoc.substitution.doc-&gt;com.credibledoc.substitution.reporting.reportdocument.ReportDocument" style="stroke: #2E8B57; stroke-width: 1.0; stroke-dasharray: 7.0,7.0;"/>
    <polygon fill="#2E8B57" points="433.457,345.06,424.0133,342.264,428.4994,345.7101,425.0534,350.1961,433.457,345.06" style="stroke: #2E8B57; stroke-width: 1.0;"/>
    <!--MD5=[e825f59b1202d74b5f3421cbc6e28f10]
link com.credibledoc.substitution.doc to com.credibledoc.substitution.reporting.reportdocument.creator.ReportDocumentCreator-->
    <path d="M135.368,856.333 C153.182,889.498 198.089,965.049 257,1006 C301.848,1037.176 360.146,1056.058 407.878,1067.204 " fill="none" id="com.credibledoc.substitution.doc-&gt;com.credibledoc.substitution.reporting.reportdocument.creator.ReportDocumentCreator" style="stroke: #2E8B57; stroke-width: 1.0; stroke-dasharray: 7.0,7.0;"/>
    <polygon fill="#2E8B57" points="412.757,1068.325,404.8817,1062.4106,407.8841,1067.205,403.0897,1070.2073,412.757,1068.325" style="stroke: #2E8B57; stroke-width: 1.0;"/>
    <!--MD5=[b2083f92fe3f5a563dc27403056ff2a0]
link com.credibledoc.substitution.doc to com.credibledoc.substitution.core.exception.SubstitutionRuntimeException-->
    <path d="M128.35,823.889 C135.88,737.714 175.315,331.79 257,242 C291.565,204.01 345.052,184.9 392.621,175.33 " fill="none" id="com.credibledoc.substitution.doc-&gt;com.credibledoc.substitution.core.exception.SubstitutionRuntimeException" style="stroke: #2E8B57; stroke-width: 1.0; stroke-dasharray: 7.0,7.0;"/>
    <polygon fill="#2E8B57" points="397.796,174.32,388.1979,172.1117,392.888,175.2745,389.7251,179.9645,397.796,174.32" style="stroke: #2E8B57; stroke-width: 1.0;"/>
    <!--MD5=[b3cfe82eb2773486ac7bd8374d597db7]
@startuml
left to right direction
hide empty members

skinparam class {
    BackgroundColor PaleGreen
    ArrowColor SeaGreen
    BorderColor SpringGreen
}

Class com.credibledoc.substitution.doc << (P,LightSeaGreen) >>
Class com.credibledoc.substitution.reporting.report.document.Document << (C,YellowGreen) >>
Class com.credibledoc.substitution.core.exception.SubstitutionRuntimeException << (C,YellowGreen) >>
Class com.credibledoc.substitution.reporting.reportdocument.ReportDocumentType << (C,YellowGreen) >>
Class com.credibledoc.substitution.content.generator.jar.LocalJarNameContentGenerator << (C,YellowGreen) >>
Class com.credibledoc.substitution.core.context.SubstitutionContext << (C,YellowGreen) >>
Class com.credibledoc.substitution.core.placeholder.PlaceholderService << (C,YellowGreen) >>
Class com.credibledoc.substitution.core.resource.TemplateResource << (C,YellowGreen) >>
Class com.credibledoc.substitution.reporting.reportdocument.creator.ReportDocumentCreator << (C,YellowGreen) >>
Class com.credibledoc.substitution.core.template.TemplateService << (C,YellowGreen) >>
Class com.credibledoc.substitution.core.configuration.ConfigurationService << (C,YellowGreen) >>
Class com.credibledoc.substitution.core.resource.ResourceService << (C,YellowGreen) >>
Class com.credibledoc.substitution.reporting.replacement.ReplacementService << (C,YellowGreen) >>
Class com.credibledoc.substitution.core.content.ContentGenerator << (C,YellowGreen) >>
Class com.credibledoc.substitution.core.resource.ResourceType << (C,YellowGreen) >>
Class com.credibledoc.substitution.reporting.reportdocument.ReportDocument << (C,YellowGreen) >>
Class com.credibledoc.substitution.core.content.Content << (C,YellowGreen) >>
Class com.credibledoc.substitution.core.placeholder.Placeholder << (C,YellowGreen) >>
com.credibledoc.substitution.doc ..> com.credibledoc.substitution.core.configuration.ConfigurationService
com.credibledoc.substitution.doc ..> com.credibledoc.substitution.content.generator.jar.LocalJarNameContentGenerator
com.credibledoc.substitution.doc ..> com.credibledoc.substitution.core.resource.TemplateResource
com.credibledoc.substitution.doc ..> com.credibledoc.substitution.reporting.report.document.Document
com.credibledoc.substitution.doc ..> com.credibledoc.substitution.core.context.SubstitutionContext
com.credibledoc.substitution.doc ..> com.credibledoc.substitution.reporting.reportdocument.ReportDocumentType
com.credibledoc.substitution.doc ..> com.credibledoc.substitution.core.resource.ResourceType
com.credibledoc.substitution.doc ..> com.credibledoc.substitution.core.placeholder.PlaceholderService
com.credibledoc.substitution.doc ..> com.credibledoc.substitution.core.template.TemplateService
com.credibledoc.substitution.doc ..> com.credibledoc.substitution.core.resource.ResourceService
com.credibledoc.substitution.doc ..> com.credibledoc.substitution.core.content.ContentGenerator
com.credibledoc.substitution.doc ..> com.credibledoc.substitution.core.placeholder.Placeholder
com.credibledoc.substitution.doc ..> com.credibledoc.substitution.core.content.Content
com.credibledoc.substitution.doc ..> com.credibledoc.substitution.reporting.replacement.ReplacementService
com.credibledoc.substitution.doc ..> com.credibledoc.substitution.reporting.reportdocument.ReportDocument
com.credibledoc.substitution.doc ..> com.credibledoc.substitution.reporting.reportdocument.creator.ReportDocumentCreator
com.credibledoc.substitution.doc ..> com.credibledoc.substitution.core.exception.SubstitutionRuntimeException
@enduml

PlantUML version 1.2020.14(Sat Jun 20 16:14:34 CEST 2020)
(GPL source distribution)
Java Runtime: Java(TM) SE Runtime Environment
JVM: Java HotSpot(TM) Client VM
Default Encoding: Cp1250
Language: en
Country: US
-->
  </g>
</svg>
