<svg xmlns="http://www.w3.org/2000/svg" xmlns:xlink="http://www.w3.org/1999/xlink" contentStyleType="text/css" height="1620px" preserveAspectRatio="none" style="width:724px;height:1620px;background:#FFFFFF;" version="1.1" viewBox="0 0 724 1620" width="724px" zoomAndPan="magnify">
  <defs/>
  <g>
    <!--MD5=[6bd5fed661691d3bad4a21d0634ed63c]
cluster com.credibledoc.substitution-->
    <g id="cluster_com.credibledoc.substitution">
      <path d="M8.5,788 L214.5,788 A3.75,3.75 0 0 1 217,790.5 L224,811.6094 L224.5,811.6094 A2.5,2.5 0 0 1 227,814.1094 L227,869.5 A2.5,2.5 0 0 1 224.5,872 L8.5,872 A2.5,2.5 0 0 1 6,869.5 L6,790.5 A2.5,2.5 0 0 1 8.5,788 " style="stroke:#000000;stroke-width:1.5;fill:none;"/>
      <line style="stroke:#000000;stroke-width:1.5;fill:none;" x1="6" x2="224" y1="811.6094" y2="811.6094"/>
      <text fill="#000000" font-family="sans-serif" font-size="14" font-weight="bold" lengthAdjust="spacing" textLength="205" x="10" y="804.5332">com.credibledoc.substitution</text>
    </g>
    <!--MD5=[b4b367a8f3b794c0512c242c02d7d20b]
cluster com.credibledoc.substitution.reporting.report.document-->
    <g id="cluster_com.credibledoc.substitution.reporting.report.document">
      <path d="M281.5,6 L679.5,6 A3.75,3.75 0 0 1 682,8.5 L689,29.6094 L689.5,29.6094 A2.5,2.5 0 0 1 692,32.1094 L692,87.5 A2.5,2.5 0 0 1 689.5,90 L281.5,90 A2.5,2.5 0 0 1 279,87.5 L279,8.5 A2.5,2.5 0 0 1 281.5,6 " style="stroke:#000000;stroke-width:1.5;fill:none;"/>
      <line style="stroke:#000000;stroke-width:1.5;fill:none;" x1="279" x2="689" y1="29.6094" y2="29.6094"/>
      <text fill="#000000" font-family="sans-serif" font-size="14" font-weight="bold" lengthAdjust="spacing" textLength="397" x="283" y="22.5332">com.credibledoc.substitution.reporting.report.document</text>
    </g>
    <!--MD5=[6aaa9b1fe7b3b9cd355b4aa4b9b93fb8]
cluster com.credibledoc.substitution.core.exception-->
    <g id="cluster_com.credibledoc.substitution.core.exception">
      <path d="M322,114 L638,114 A3.75,3.75 0 0 1 640.5,116.5 L647.5,137.6094 L648,137.6094 A2.5,2.5 0 0 1 650.5,140.1094 L650.5,195.5 A2.5,2.5 0 0 1 648,198 L322,198 A2.5,2.5 0 0 1 319.5,195.5 L319.5,116.5 A2.5,2.5 0 0 1 322,114 " style="stroke:#000000;stroke-width:1.5;fill:none;"/>
      <line style="stroke:#000000;stroke-width:1.5;fill:none;" x1="319.5" x2="647.5" y1="137.6094" y2="137.6094"/>
      <text fill="#000000" font-family="sans-serif" font-size="14" font-weight="bold" lengthAdjust="spacing" textLength="315" x="323.5" y="130.5332">com.credibledoc.substitution.core.exception</text>
    </g>
    <!--MD5=[604668a39e118144da349442eead69dc]
cluster com.credibledoc.substitution.reporting.reportdocument-->
    <g id="cluster_com.credibledoc.substitution.reporting.reportdocument">
      <path d="M283,222 L677,222 A3.75,3.75 0 0 1 679.5,224.5 L686.5,245.6094 L687,245.6094 A2.5,2.5 0 0 1 689.5,248.1094 L689.5,370.5 A2.5,2.5 0 0 1 687,373 L283,373 A2.5,2.5 0 0 1 280.5,370.5 L280.5,224.5 A2.5,2.5 0 0 1 283,222 " style="stroke:#000000;stroke-width:1.5;fill:none;"/>
      <line style="stroke:#000000;stroke-width:1.5;fill:none;" x1="280.5" x2="686.5" y1="245.6094" y2="245.6094"/>
      <text fill="#000000" font-family="sans-serif" font-size="14" font-weight="bold" lengthAdjust="spacing" textLength="393" x="284.5" y="238.5332">com.credibledoc.substitution.reporting.reportdocument</text>
    </g>
    <!--MD5=[089cbeb571dbef2d151d2e2cf16503b4]
cluster com.credibledoc.substitution.content.generator.jar-->
    <g id="cluster_com.credibledoc.substitution.content.generator.jar">
      <path d="M300.5,397 L660.5,397 A3.75,3.75 0 0 1 663,399.5 L670,420.6094 L670.5,420.6094 A2.5,2.5 0 0 1 673,423.1094 L673,478.5 A2.5,2.5 0 0 1 670.5,481 L300.5,481 A2.5,2.5 0 0 1 298,478.5 L298,399.5 A2.5,2.5 0 0 1 300.5,397 " style="stroke:#000000;stroke-width:1.5;fill:none;"/>
      <line style="stroke:#000000;stroke-width:1.5;fill:none;" x1="298" x2="670" y1="420.6094" y2="420.6094"/>
      <text fill="#000000" font-family="sans-serif" font-size="14" font-weight="bold" lengthAdjust="spacing" textLength="359" x="302" y="413.5332">com.credibledoc.substitution.content.generator.jar</text>
    </g>
    <!--MD5=[f78070935425e6a95d03db3dc2e77f87]
cluster com.credibledoc.substitution.core.context-->
    <g id="cluster_com.credibledoc.substitution.core.context">
      <path d="M330.5,505 L629.5,505 A3.75,3.75 0 0 1 632,507.5 L639,528.6094 L639.5,528.6094 A2.5,2.5 0 0 1 642,531.1094 L642,586.5 A2.5,2.5 0 0 1 639.5,589 L330.5,589 A2.5,2.5 0 0 1 328,586.5 L328,507.5 A2.5,2.5 0 0 1 330.5,505 " style="stroke:#000000;stroke-width:1.5;fill:none;"/>
      <line style="stroke:#000000;stroke-width:1.5;fill:none;" x1="328" x2="639" y1="528.6094" y2="528.6094"/>
      <text fill="#000000" font-family="sans-serif" font-size="14" font-weight="bold" lengthAdjust="spacing" textLength="298" x="332" y="521.5332">com.credibledoc.substitution.core.context</text>
    </g>
    <!--MD5=[78253e8a40f9af2549829117a9d7d7ac]
cluster com.credibledoc.substitution.core.placeholder-->
    <g id="cluster_com.credibledoc.substitution.core.placeholder">
      <path d="M315.5,613 L645.5,613 A3.75,3.75 0 0 1 648,615.5 L655,636.6094 L655.5,636.6094 A2.5,2.5 0 0 1 658,639.1094 L658,761.5 A2.5,2.5 0 0 1 655.5,764 L315.5,764 A2.5,2.5 0 0 1 313,761.5 L313,615.5 A2.5,2.5 0 0 1 315.5,613 " style="stroke:#000000;stroke-width:1.5;fill:none;"/>
      <line style="stroke:#000000;stroke-width:1.5;fill:none;" x1="313" x2="655" y1="636.6094" y2="636.6094"/>
      <text fill="#000000" font-family="sans-serif" font-size="14" font-weight="bold" lengthAdjust="spacing" textLength="329" x="317" y="629.5332">com.credibledoc.substitution.core.placeholder</text>
    </g>
    <!--MD5=[4d226a5b58f759dcb301ddf5905e7a50]
cluster com.credibledoc.substitution.core.resource-->
    <g id="cluster_com.credibledoc.substitution.core.resource">
      <path d="M325.5,788 L635.5,788 A3.75,3.75 0 0 1 638,790.5 L645,811.6094 L645.5,811.6094 A2.5,2.5 0 0 1 648,814.1094 L648,1003.5 A2.5,2.5 0 0 1 645.5,1006 L325.5,1006 A2.5,2.5 0 0 1 323,1003.5 L323,790.5 A2.5,2.5 0 0 1 325.5,788 " style="stroke:#000000;stroke-width:1.5;fill:none;"/>
      <line style="stroke:#000000;stroke-width:1.5;fill:none;" x1="323" x2="645" y1="811.6094" y2="811.6094"/>
      <text fill="#000000" font-family="sans-serif" font-size="14" font-weight="bold" lengthAdjust="spacing" textLength="309" x="327" y="804.5332">com.credibledoc.substitution.core.resource</text>
    </g>
    <!--MD5=[22609b558f7955e0789638ecc9c88945]
cluster com.credibledoc.substitution.reporting.reportdocument.creator-->
    <g id="cluster_com.credibledoc.substitution.reporting.reportdocument.creator">
      <path d="M256,1030 L705,1030 A3.75,3.75 0 0 1 707.5,1032.5 L714.5,1053.6094 L715,1053.6094 A2.5,2.5 0 0 1 717.5,1056.1094 L717.5,1111.5 A2.5,2.5 0 0 1 715,1114 L256,1114 A2.5,2.5 0 0 1 253.5,1111.5 L253.5,1032.5 A2.5,2.5 0 0 1 256,1030 " style="stroke:#000000;stroke-width:1.5;fill:none;"/>
      <line style="stroke:#000000;stroke-width:1.5;fill:none;" x1="253.5" x2="714.5" y1="1053.6094" y2="1053.6094"/>
      <text fill="#000000" font-family="sans-serif" font-size="14" font-weight="bold" lengthAdjust="spacing" textLength="448" x="257.5" y="1046.5332">com.credibledoc.substitution.reporting.reportdocument.creator</text>
    </g>
    <!--MD5=[9702c35b080beb7f5ae80df4f8631438]
cluster com.credibledoc.substitution.core.template-->
    <g id="cluster_com.credibledoc.substitution.core.template">
      <path d="M326.5,1138 L633.5,1138 A3.75,3.75 0 0 1 636,1140.5 L643,1161.6094 L643.5,1161.6094 A2.5,2.5 0 0 1 646,1164.1094 L646,1219.5 A2.5,2.5 0 0 1 643.5,1222 L326.5,1222 A2.5,2.5 0 0 1 324,1219.5 L324,1140.5 A2.5,2.5 0 0 1 326.5,1138 " style="stroke:#000000;stroke-width:1.5;fill:none;"/>
      <line style="stroke:#000000;stroke-width:1.5;fill:none;" x1="324" x2="643" y1="1161.6094" y2="1161.6094"/>
      <text fill="#000000" font-family="sans-serif" font-size="14" font-weight="bold" lengthAdjust="spacing" textLength="306" x="328" y="1154.5332">com.credibledoc.substitution.core.template</text>
    </g>
    <!--MD5=[6fea2340843c4c33bcaaaffa683def55]
cluster com.credibledoc.substitution.core.configuration-->
    <g id="cluster_com.credibledoc.substitution.core.configuration">
      <path d="M310.5,1246 L650.5,1246 A3.75,3.75 0 0 1 653,1248.5 L660,1269.6094 L660.5,1269.6094 A2.5,2.5 0 0 1 663,1272.1094 L663,1327.5 A2.5,2.5 0 0 1 660.5,1330 L310.5,1330 A2.5,2.5 0 0 1 308,1327.5 L308,1248.5 A2.5,2.5 0 0 1 310.5,1246 " style="stroke:#000000;stroke-width:1.5;fill:none;"/>
      <line style="stroke:#000000;stroke-width:1.5;fill:none;" x1="308" x2="660" y1="1269.6094" y2="1269.6094"/>
      <text fill="#000000" font-family="sans-serif" font-size="14" font-weight="bold" lengthAdjust="spacing" textLength="339" x="312" y="1262.5332">com.credibledoc.substitution.core.configuration</text>
    </g>
    <!--MD5=[ce9195034ca59eb29b58526b44be340b]
cluster com.credibledoc.substitution.reporting.replacement-->
    <g id="cluster_com.credibledoc.substitution.reporting.replacement">
      <path d="M296.5,1354 L664.5,1354 A3.75,3.75 0 0 1 667,1356.5 L674,1377.6094 L674.5,1377.6094 A2.5,2.5 0 0 1 677,1380.1094 L677,1435.5 A2.5,2.5 0 0 1 674.5,1438 L296.5,1438 A2.5,2.5 0 0 1 294,1435.5 L294,1356.5 A2.5,2.5 0 0 1 296.5,1354 " style="stroke:#000000;stroke-width:1.5;fill:none;"/>
      <line style="stroke:#000000;stroke-width:1.5;fill:none;" x1="294" x2="674" y1="1377.6094" y2="1377.6094"/>
      <text fill="#000000" font-family="sans-serif" font-size="14" font-weight="bold" lengthAdjust="spacing" textLength="367" x="298" y="1370.5332">com.credibledoc.substitution.reporting.replacement</text>
    </g>
    <!--MD5=[0f12076e88e759fddd5320f7dca15cee]
cluster com.credibledoc.substitution.core.content-->
    <g id="cluster_com.credibledoc.substitution.core.content">
      <path d="M330,1462 L630,1462 A3.75,3.75 0 0 1 632.5,1464.5 L639.5,1485.6094 L640,1485.6094 A2.5,2.5 0 0 1 642.5,1488.1094 L642.5,1610.5 A2.5,2.5 0 0 1 640,1613 L330,1613 A2.5,2.5 0 0 1 327.5,1610.5 L327.5,1464.5 A2.5,2.5 0 0 1 330,1462 " style="stroke:#000000;stroke-width:1.5;fill:none;"/>
      <line style="stroke:#000000;stroke-width:1.5;fill:none;" x1="327.5" x2="639.5" y1="1485.6094" y2="1485.6094"/>
      <text fill="#000000" font-family="sans-serif" font-size="14" font-weight="bold" lengthAdjust="spacing" textLength="299" x="331.5" y="1478.5332">com.credibledoc.substitution.core.content</text>
    </g>
    <!--MD5=[184e894e943eea80494633c4a85fc481]
class com.credibledoc.substitution.doc-->
    <g id="elem_com.credibledoc.substitution.doc">
      <rect codeLine="10" fill="#98FB98" height="32" id="com.credibledoc.substitution.doc" rx="2.5" ry="2.5" style="stroke:#00FF7F;stroke-width:0.5;" width="55" x="89" y="824"/>
      <ellipse cx="104" cy="840" fill="#20B2AA" rx="11" ry="11" style="stroke:#00FF7F;stroke-width:1.0;"/>
      <path d="M104.625,841.5469 L104.625,843.2969 L106.3281,843.2969 Q106.9531,843.2969 107.2109,843.5313 Q107.4688,843.7656 107.4688,844.1563 Q107.4688,844.5313 107.2109,844.7656 Q106.9531,845 106.3281,845 L102.6563,845 Q102.0313,845 101.7734,844.7656 Q101.5156,844.5313 101.5156,844.1406 Q101.5156,843.7656 101.7813,843.5313 Q102.0469,843.2969 102.6563,843.2969 L102.9219,843.2969 L102.9219,836.6406 L102.6563,836.6406 Q102.0313,836.6406 101.7734,836.4063 Q101.5156,836.1719 101.5156,835.7813 Q101.5156,835.4063 101.7734,835.1719 Q102.0313,834.9375 102.6563,834.9375 L106.5625,834.9375 Q108.2969,834.9375 109.3047,835.8828 Q110.3125,836.8281 110.3125,838.1719 Q110.3125,838.9219 109.9688,839.5938 Q109.7188,840.0781 109.1172,840.5703 Q108.5156,841.0625 107.8828,841.3047 Q107.25,841.5469 106.2344,841.5469 L104.625,841.5469 Z M104.625,839.8438 L106.1875,839.8438 Q107.3125,839.8438 107.9609,839.3438 Q108.6094,838.8438 108.6094,838.1406 Q108.6094,837.5313 108.0859,837.0859 Q107.5625,836.6406 106.5781,836.6406 L104.625,836.6406 L104.625,839.8438 Z " fill="#000000"/>
      <text fill="#000000" font-family="sans-serif" font-size="14" lengthAdjust="spacing" textLength="23" x="118" y="845.7285">doc</text>
    </g>
    <!--MD5=[c5a4acc6e28859c4ed5f977e6e109c29]
class com.credibledoc.substitution.reporting.report.document.Document-->
    <g id="elem_com.credibledoc.substitution.reporting.report.document.Document">
      <rect codeLine="11" fill="#98FB98" height="32" id="com.credibledoc.substitution.reporting.report.document.Document" rx="2.5" ry="2.5" style="stroke:#00FF7F;stroke-width:0.5;" width="96" x="437" y="42"/>
      <ellipse cx="452" cy="58" fill="#9ACD32" rx="11" ry="11" style="stroke:#00FF7F;stroke-width:1.0;"/>
      <path d="M454.7656,53.875 Q454.9219,53.6563 455.1094,53.5469 Q455.2969,53.4375 455.5156,53.4375 Q455.8906,53.4375 456.125,53.6953 Q456.3594,53.9531 456.3594,54.5625 L456.3594,56.0156 Q456.3594,56.625 456.125,56.8906 Q455.8906,57.1563 455.5156,57.1563 Q455.1719,57.1563 454.9688,56.9531 Q454.7656,56.7656 454.6563,56.25 Q454.6094,55.8906 454.4219,55.7031 Q454.0938,55.3281 453.4844,55.1094 Q452.875,54.8906 452.25,54.8906 Q451.4844,54.8906 450.8516,55.2188 Q450.2188,55.5469 449.7266,56.2969 Q449.2344,57.0469 449.2344,58.0781 L449.2344,59.1719 Q449.2344,60.4063 450.125,61.2266 Q451.0156,62.0469 452.6094,62.0469 Q453.5469,62.0469 454.2031,61.7969 Q454.5938,61.6406 455.0156,61.2031 Q455.2813,60.9375 455.4297,60.8594 Q455.5781,60.7813 455.7813,60.7813 Q456.1094,60.7813 456.3672,61.0391 Q456.625,61.2969 456.625,61.6406 Q456.625,61.9844 456.2813,62.3906 Q455.7813,62.9688 454.9844,63.2969 Q453.9063,63.75 452.6094,63.75 Q451.0938,63.75 449.8906,63.125 Q448.9063,62.625 448.2188,61.5547 Q447.5313,60.4844 447.5313,59.2031 L447.5313,58.0469 Q447.5313,56.7188 448.1484,55.5703 Q448.7656,54.4219 449.8594,53.8047 Q450.9531,53.1875 452.1875,53.1875 Q452.9219,53.1875 453.5703,53.3516 Q454.2188,53.5156 454.7656,53.875 Z " fill="#000000"/>
      <text fill="#000000" font-family="sans-serif" font-size="14" lengthAdjust="spacing" textLength="64" x="466" y="63.7285">Document</text>
    </g>
    <!--MD5=[13694b838c4692c931c3f77704ea2c78]
class com.credibledoc.substitution.core.exception.SubstitutionRuntimeException-->
    <g id="elem_com.credibledoc.substitution.core.exception.SubstitutionRuntimeException">
      <rect codeLine="12" fill="#98FB98" height="32" id="com.credibledoc.substitution.core.exception.SubstitutionRuntimeException" rx="2.5" ry="2.5" style="stroke:#00FF7F;stroke-width:0.5;" width="219" x="375.5" y="150"/>
      <ellipse cx="390.5" cy="166" fill="#9ACD32" rx="11" ry="11" style="stroke:#00FF7F;stroke-width:1.0;"/>
      <path d="M393.2656,161.875 Q393.4219,161.6563 393.6094,161.5469 Q393.7969,161.4375 394.0156,161.4375 Q394.3906,161.4375 394.625,161.6953 Q394.8594,161.9531 394.8594,162.5625 L394.8594,164.0156 Q394.8594,164.625 394.625,164.8906 Q394.3906,165.1563 394.0156,165.1563 Q393.6719,165.1563 393.4688,164.9531 Q393.2656,164.7656 393.1563,164.25 Q393.1094,163.8906 392.9219,163.7031 Q392.5938,163.3281 391.9844,163.1094 Q391.375,162.8906 390.75,162.8906 Q389.9844,162.8906 389.3516,163.2188 Q388.7188,163.5469 388.2266,164.2969 Q387.7344,165.0469 387.7344,166.0781 L387.7344,167.1719 Q387.7344,168.4063 388.625,169.2266 Q389.5156,170.0469 391.1094,170.0469 Q392.0469,170.0469 392.7031,169.7969 Q393.0938,169.6406 393.5156,169.2031 Q393.7813,168.9375 393.9297,168.8594 Q394.0781,168.7813 394.2813,168.7813 Q394.6094,168.7813 394.8672,169.0391 Q395.125,169.2969 395.125,169.6406 Q395.125,169.9844 394.7813,170.3906 Q394.2813,170.9688 393.4844,171.2969 Q392.4063,171.75 391.1094,171.75 Q389.5938,171.75 388.3906,171.125 Q387.4063,170.625 386.7188,169.5547 Q386.0313,168.4844 386.0313,167.2031 L386.0313,166.0469 Q386.0313,164.7188 386.6484,163.5703 Q387.2656,162.4219 388.3594,161.8047 Q389.4531,161.1875 390.6875,161.1875 Q391.4219,161.1875 392.0703,161.3516 Q392.7188,161.5156 393.2656,161.875 Z " fill="#000000"/>
      <text fill="#000000" font-family="sans-serif" font-size="14" lengthAdjust="spacing" textLength="187" x="404.5" y="171.7285">SubstitutionRuntimeException</text>
    </g>
    <!--MD5=[de6fb2299aece456650c4cd9b365442a]
class com.credibledoc.substitution.reporting.reportdocument.ReportDocumentType-->
    <g id="elem_com.credibledoc.substitution.reporting.reportdocument.ReportDocumentType">
      <rect codeLine="13" fill="#98FB98" height="32" id="com.credibledoc.substitution.reporting.reportdocument.ReportDocumentType" rx="2.5" ry="2.5" style="stroke:#00FF7F;stroke-width:0.5;" width="171" x="399.5" y="258"/>
      <ellipse cx="414.5" cy="274" fill="#9ACD32" rx="11" ry="11" style="stroke:#00FF7F;stroke-width:1.0;"/>
      <path d="M417.2656,269.875 Q417.4219,269.6563 417.6094,269.5469 Q417.7969,269.4375 418.0156,269.4375 Q418.3906,269.4375 418.625,269.6953 Q418.8594,269.9531 418.8594,270.5625 L418.8594,272.0156 Q418.8594,272.625 418.625,272.8906 Q418.3906,273.1563 418.0156,273.1563 Q417.6719,273.1563 417.4688,272.9531 Q417.2656,272.7656 417.1563,272.25 Q417.1094,271.8906 416.9219,271.7031 Q416.5938,271.3281 415.9844,271.1094 Q415.375,270.8906 414.75,270.8906 Q413.9844,270.8906 413.3516,271.2188 Q412.7188,271.5469 412.2266,272.2969 Q411.7344,273.0469 411.7344,274.0781 L411.7344,275.1719 Q411.7344,276.4063 412.625,277.2266 Q413.5156,278.0469 415.1094,278.0469 Q416.0469,278.0469 416.7031,277.7969 Q417.0938,277.6406 417.5156,277.2031 Q417.7813,276.9375 417.9297,276.8594 Q418.0781,276.7813 418.2813,276.7813 Q418.6094,276.7813 418.8672,277.0391 Q419.125,277.2969 419.125,277.6406 Q419.125,277.9844 418.7813,278.3906 Q418.2813,278.9688 417.4844,279.2969 Q416.4063,279.75 415.1094,279.75 Q413.5938,279.75 412.3906,279.125 Q411.4063,278.625 410.7188,277.5547 Q410.0313,276.4844 410.0313,275.2031 L410.0313,274.0469 Q410.0313,272.7188 410.6484,271.5703 Q411.2656,270.4219 412.3594,269.8047 Q413.4531,269.1875 414.6875,269.1875 Q415.4219,269.1875 416.0703,269.3516 Q416.7188,269.5156 417.2656,269.875 Z " fill="#000000"/>
      <text fill="#000000" font-family="sans-serif" font-size="14" lengthAdjust="spacing" textLength="139" x="428.5" y="279.7285">ReportDocumentType</text>
    </g>
    <!--MD5=[dd460d3c26151f28537ffa24ebd17c35]
class com.credibledoc.substitution.reporting.reportdocument.ReportDocument-->
    <g id="elem_com.credibledoc.substitution.reporting.reportdocument.ReportDocument">
      <rect codeLine="25" fill="#98FB98" height="32" id="com.credibledoc.substitution.reporting.reportdocument.ReportDocument" rx="2.5" ry="2.5" style="stroke:#00FF7F;stroke-width:0.5;" width="139" x="415.5" y="325"/>
      <ellipse cx="430.5" cy="341" fill="#9ACD32" rx="11" ry="11" style="stroke:#00FF7F;stroke-width:1.0;"/>
      <path d="M433.2656,336.875 Q433.4219,336.6563 433.6094,336.5469 Q433.7969,336.4375 434.0156,336.4375 Q434.3906,336.4375 434.625,336.6953 Q434.8594,336.9531 434.8594,337.5625 L434.8594,339.0156 Q434.8594,339.625 434.625,339.8906 Q434.3906,340.1563 434.0156,340.1563 Q433.6719,340.1563 433.4688,339.9531 Q433.2656,339.7656 433.1563,339.25 Q433.1094,338.8906 432.9219,338.7031 Q432.5938,338.3281 431.9844,338.1094 Q431.375,337.8906 430.75,337.8906 Q429.9844,337.8906 429.3516,338.2188 Q428.7188,338.5469 428.2266,339.2969 Q427.7344,340.0469 427.7344,341.0781 L427.7344,342.1719 Q427.7344,343.4063 428.625,344.2266 Q429.5156,345.0469 431.1094,345.0469 Q432.0469,345.0469 432.7031,344.7969 Q433.0938,344.6406 433.5156,344.2031 Q433.7813,343.9375 433.9297,343.8594 Q434.0781,343.7813 434.2813,343.7813 Q434.6094,343.7813 434.8672,344.0391 Q435.125,344.2969 435.125,344.6406 Q435.125,344.9844 434.7813,345.3906 Q434.2813,345.9688 433.4844,346.2969 Q432.4063,346.75 431.1094,346.75 Q429.5938,346.75 428.3906,346.125 Q427.4063,345.625 426.7188,344.5547 Q426.0313,343.4844 426.0313,342.2031 L426.0313,341.0469 Q426.0313,339.7188 426.6484,338.5703 Q427.2656,337.4219 428.3594,336.8047 Q429.4531,336.1875 430.6875,336.1875 Q431.4219,336.1875 432.0703,336.3516 Q432.7188,336.5156 433.2656,336.875 Z " fill="#000000"/>
      <text fill="#000000" font-family="sans-serif" font-size="14" lengthAdjust="spacing" textLength="107" x="444.5" y="346.7285">ReportDocument</text>
    </g>
    <!--MD5=[104fd32fb6caa548d2ce9768d17dcbe3]
class com.credibledoc.substitution.content.generator.jar.LocalJarNameContentGenerator-->
    <g id="elem_com.credibledoc.substitution.content.generator.jar.LocalJarNameContentGenerator">
      <rect codeLine="14" fill="#98FB98" height="32" id="com.credibledoc.substitution.content.generator.jar.LocalJarNameContentGenerator" rx="2.5" ry="2.5" style="stroke:#00FF7F;stroke-width:0.5;" width="236" x="367" y="433"/>
      <ellipse cx="382" cy="449" fill="#9ACD32" rx="11" ry="11" style="stroke:#00FF7F;stroke-width:1.0;"/>
      <path d="M384.7656,444.875 Q384.9219,444.6563 385.1094,444.5469 Q385.2969,444.4375 385.5156,444.4375 Q385.8906,444.4375 386.125,444.6953 Q386.3594,444.9531 386.3594,445.5625 L386.3594,447.0156 Q386.3594,447.625 386.125,447.8906 Q385.8906,448.1563 385.5156,448.1563 Q385.1719,448.1563 384.9688,447.9531 Q384.7656,447.7656 384.6563,447.25 Q384.6094,446.8906 384.4219,446.7031 Q384.0938,446.3281 383.4844,446.1094 Q382.875,445.8906 382.25,445.8906 Q381.4844,445.8906 380.8516,446.2188 Q380.2188,446.5469 379.7266,447.2969 Q379.2344,448.0469 379.2344,449.0781 L379.2344,450.1719 Q379.2344,451.4063 380.125,452.2266 Q381.0156,453.0469 382.6094,453.0469 Q383.5469,453.0469 384.2031,452.7969 Q384.5938,452.6406 385.0156,452.2031 Q385.2813,451.9375 385.4297,451.8594 Q385.5781,451.7813 385.7813,451.7813 Q386.1094,451.7813 386.3672,452.0391 Q386.625,452.2969 386.625,452.6406 Q386.625,452.9844 386.2813,453.3906 Q385.7813,453.9688 384.9844,454.2969 Q383.9063,454.75 382.6094,454.75 Q381.0938,454.75 379.8906,454.125 Q378.9063,453.625 378.2188,452.5547 Q377.5313,451.4844 377.5313,450.2031 L377.5313,449.0469 Q377.5313,447.7188 378.1484,446.5703 Q378.7656,445.4219 379.8594,444.8047 Q380.9531,444.1875 382.1875,444.1875 Q382.9219,444.1875 383.5703,444.3516 Q384.2188,444.5156 384.7656,444.875 Z " fill="#000000"/>
      <text fill="#000000" font-family="sans-serif" font-size="14" lengthAdjust="spacing" textLength="204" x="396" y="454.7285">LocalJarNameContentGenerator</text>
    </g>
    <!--MD5=[49c5b8dc52a382acc6ecd565342c1456]
class com.credibledoc.substitution.core.context.SubstitutionContext-->
    <g id="elem_com.credibledoc.substitution.core.context.SubstitutionContext">
      <rect codeLine="15" fill="#98FB98" height="32" id="com.credibledoc.substitution.core.context.SubstitutionContext" rx="2.5" ry="2.5" style="stroke:#00FF7F;stroke-width:0.5;" width="154" x="408" y="541"/>
      <ellipse cx="423" cy="557" fill="#9ACD32" rx="11" ry="11" style="stroke:#00FF7F;stroke-width:1.0;"/>
      <path d="M425.7656,552.875 Q425.9219,552.6563 426.1094,552.5469 Q426.2969,552.4375 426.5156,552.4375 Q426.8906,552.4375 427.125,552.6953 Q427.3594,552.9531 427.3594,553.5625 L427.3594,555.0156 Q427.3594,555.625 427.125,555.8906 Q426.8906,556.1563 426.5156,556.1563 Q426.1719,556.1563 425.9688,555.9531 Q425.7656,555.7656 425.6563,555.25 Q425.6094,554.8906 425.4219,554.7031 Q425.0938,554.3281 424.4844,554.1094 Q423.875,553.8906 423.25,553.8906 Q422.4844,553.8906 421.8516,554.2188 Q421.2188,554.5469 420.7266,555.2969 Q420.2344,556.0469 420.2344,557.0781 L420.2344,558.1719 Q420.2344,559.4063 421.125,560.2266 Q422.0156,561.0469 423.6094,561.0469 Q424.5469,561.0469 425.2031,560.7969 Q425.5938,560.6406 426.0156,560.2031 Q426.2813,559.9375 426.4297,559.8594 Q426.5781,559.7813 426.7813,559.7813 Q427.1094,559.7813 427.3672,560.0391 Q427.625,560.2969 427.625,560.6406 Q427.625,560.9844 427.2813,561.3906 Q426.7813,561.9688 425.9844,562.2969 Q424.9063,562.75 423.6094,562.75 Q422.0938,562.75 420.8906,562.125 Q419.9063,561.625 419.2188,560.5547 Q418.5313,559.4844 418.5313,558.2031 L418.5313,557.0469 Q418.5313,555.7188 419.1484,554.5703 Q419.7656,553.4219 420.8594,552.8047 Q421.9531,552.1875 423.1875,552.1875 Q423.9219,552.1875 424.5703,552.3516 Q425.2188,552.5156 425.7656,552.875 Z " fill="#000000"/>
      <text fill="#000000" font-family="sans-serif" font-size="14" lengthAdjust="spacing" textLength="122" x="437" y="562.7285">SubstitutionContext</text>
    </g>
    <!--MD5=[e564e4e147ca37e9e2799dcfbb8f5901]
class com.credibledoc.substitution.core.placeholder.PlaceholderService-->
    <g id="elem_com.credibledoc.substitution.core.placeholder.PlaceholderService">
      <rect codeLine="16" fill="#98FB98" height="32" id="com.credibledoc.substitution.core.placeholder.PlaceholderService" rx="2.5" ry="2.5" style="stroke:#00FF7F;stroke-width:0.5;" width="154" x="408" y="649"/>
      <ellipse cx="423" cy="665" fill="#9ACD32" rx="11" ry="11" style="stroke:#00FF7F;stroke-width:1.0;"/>
      <path d="M425.7656,660.875 Q425.9219,660.6563 426.1094,660.5469 Q426.2969,660.4375 426.5156,660.4375 Q426.8906,660.4375 427.125,660.6953 Q427.3594,660.9531 427.3594,661.5625 L427.3594,663.0156 Q427.3594,663.625 427.125,663.8906 Q426.8906,664.1563 426.5156,664.1563 Q426.1719,664.1563 425.9688,663.9531 Q425.7656,663.7656 425.6563,663.25 Q425.6094,662.8906 425.4219,662.7031 Q425.0938,662.3281 424.4844,662.1094 Q423.875,661.8906 423.25,661.8906 Q422.4844,661.8906 421.8516,662.2188 Q421.2188,662.5469 420.7266,663.2969 Q420.2344,664.0469 420.2344,665.0781 L420.2344,666.1719 Q420.2344,667.4063 421.125,668.2266 Q422.0156,669.0469 423.6094,669.0469 Q424.5469,669.0469 425.2031,668.7969 Q425.5938,668.6406 426.0156,668.2031 Q426.2813,667.9375 426.4297,667.8594 Q426.5781,667.7813 426.7813,667.7813 Q427.1094,667.7813 427.3672,668.0391 Q427.625,668.2969 427.625,668.6406 Q427.625,668.9844 427.2813,669.3906 Q426.7813,669.9688 425.9844,670.2969 Q424.9063,670.75 423.6094,670.75 Q422.0938,670.75 420.8906,670.125 Q419.9063,669.625 419.2188,668.5547 Q418.5313,667.4844 418.5313,666.2031 L418.5313,665.0469 Q418.5313,663.7188 419.1484,662.5703 Q419.7656,661.4219 420.8594,660.8047 Q421.9531,660.1875 423.1875,660.1875 Q423.9219,660.1875 424.5703,660.3516 Q425.2188,660.5156 425.7656,660.875 Z " fill="#000000"/>
      <text fill="#000000" font-family="sans-serif" font-size="14" lengthAdjust="spacing" textLength="122" x="437" y="670.7285">PlaceholderService</text>
    </g>
    <!--MD5=[56a034bd30a3bed0b5d1d9cdd1ada984]
class com.credibledoc.substitution.core.placeholder.Placeholder-->
    <g id="elem_com.credibledoc.substitution.core.placeholder.Placeholder">
      <rect codeLine="27" fill="#98FB98" height="32" id="com.credibledoc.substitution.core.placeholder.Placeholder" rx="2.5" ry="2.5" style="stroke:#00FF7F;stroke-width:0.5;" width="107" x="431.5" y="716"/>
      <ellipse cx="446.5" cy="732" fill="#9ACD32" rx="11" ry="11" style="stroke:#00FF7F;stroke-width:1.0;"/>
      <path d="M449.2656,727.875 Q449.4219,727.6563 449.6094,727.5469 Q449.7969,727.4375 450.0156,727.4375 Q450.3906,727.4375 450.625,727.6953 Q450.8594,727.9531 450.8594,728.5625 L450.8594,730.0156 Q450.8594,730.625 450.625,730.8906 Q450.3906,731.1563 450.0156,731.1563 Q449.6719,731.1563 449.4688,730.9531 Q449.2656,730.7656 449.1563,730.25 Q449.1094,729.8906 448.9219,729.7031 Q448.5938,729.3281 447.9844,729.1094 Q447.375,728.8906 446.75,728.8906 Q445.9844,728.8906 445.3516,729.2188 Q444.7188,729.5469 444.2266,730.2969 Q443.7344,731.0469 443.7344,732.0781 L443.7344,733.1719 Q443.7344,734.4063 444.625,735.2266 Q445.5156,736.0469 447.1094,736.0469 Q448.0469,736.0469 448.7031,735.7969 Q449.0938,735.6406 449.5156,735.2031 Q449.7813,734.9375 449.9297,734.8594 Q450.0781,734.7813 450.2813,734.7813 Q450.6094,734.7813 450.8672,735.0391 Q451.125,735.2969 451.125,735.6406 Q451.125,735.9844 450.7813,736.3906 Q450.2813,736.9688 449.4844,737.2969 Q448.4063,737.75 447.1094,737.75 Q445.5938,737.75 444.3906,737.125 Q443.4063,736.625 442.7188,735.5547 Q442.0313,734.4844 442.0313,733.2031 L442.0313,732.0469 Q442.0313,730.7188 442.6484,729.5703 Q443.2656,728.4219 444.3594,727.8047 Q445.4531,727.1875 446.6875,727.1875 Q447.4219,727.1875 448.0703,727.3516 Q448.7188,727.5156 449.2656,727.875 Z " fill="#000000"/>
      <text fill="#000000" font-family="sans-serif" font-size="14" lengthAdjust="spacing" textLength="75" x="460.5" y="737.7285">Placeholder</text>
    </g>
    <!--MD5=[b6d80539f3bead6292ad36c14bd5bb90]
class com.credibledoc.substitution.core.resource.TemplateResource-->
    <g id="elem_com.credibledoc.substitution.core.resource.TemplateResource">
      <rect codeLine="17" fill="#98FB98" height="32" id="com.credibledoc.substitution.core.resource.TemplateResource" rx="2.5" ry="2.5" style="stroke:#00FF7F;stroke-width:0.5;" width="152" x="409" y="824"/>
      <ellipse cx="424" cy="840" fill="#9ACD32" rx="11" ry="11" style="stroke:#00FF7F;stroke-width:1.0;"/>
      <path d="M426.7656,835.875 Q426.9219,835.6563 427.1094,835.5469 Q427.2969,835.4375 427.5156,835.4375 Q427.8906,835.4375 428.125,835.6953 Q428.3594,835.9531 428.3594,836.5625 L428.3594,838.0156 Q428.3594,838.625 428.125,838.8906 Q427.8906,839.1563 427.5156,839.1563 Q427.1719,839.1563 426.9688,838.9531 Q426.7656,838.7656 426.6563,838.25 Q426.6094,837.8906 426.4219,837.7031 Q426.0938,837.3281 425.4844,837.1094 Q424.875,836.8906 424.25,836.8906 Q423.4844,836.8906 422.8516,837.2188 Q422.2188,837.5469 421.7266,838.2969 Q421.2344,839.0469 421.2344,840.0781 L421.2344,841.1719 Q421.2344,842.4063 422.125,843.2266 Q423.0156,844.0469 424.6094,844.0469 Q425.5469,844.0469 426.2031,843.7969 Q426.5938,843.6406 427.0156,843.2031 Q427.2813,842.9375 427.4297,842.8594 Q427.5781,842.7813 427.7813,842.7813 Q428.1094,842.7813 428.3672,843.0391 Q428.625,843.2969 428.625,843.6406 Q428.625,843.9844 428.2813,844.3906 Q427.7813,844.9688 426.9844,845.2969 Q425.9063,845.75 424.6094,845.75 Q423.0938,845.75 421.8906,845.125 Q420.9063,844.625 420.2188,843.5547 Q419.5313,842.4844 419.5313,841.2031 L419.5313,840.0469 Q419.5313,838.7188 420.1484,837.5703 Q420.7656,836.4219 421.8594,835.8047 Q422.9531,835.1875 424.1875,835.1875 Q424.9219,835.1875 425.5703,835.3516 Q426.2188,835.5156 426.7656,835.875 Z " fill="#000000"/>
      <text fill="#000000" font-family="sans-serif" font-size="14" lengthAdjust="spacing" textLength="120" x="438" y="845.7285">TemplateResource</text>
    </g>
    <!--MD5=[00153bfefca05d263e9c6344f4443f50]
class com.credibledoc.substitution.core.resource.ResourceService-->
    <g id="elem_com.credibledoc.substitution.core.resource.ResourceService">
      <rect codeLine="21" fill="#98FB98" height="32" id="com.credibledoc.substitution.core.resource.ResourceService" rx="2.5" ry="2.5" style="stroke:#00FF7F;stroke-width:0.5;" width="140" x="415" y="891"/>
      <ellipse cx="430" cy="907" fill="#9ACD32" rx="11" ry="11" style="stroke:#00FF7F;stroke-width:1.0;"/>
      <path d="M432.7656,902.875 Q432.9219,902.6563 433.1094,902.5469 Q433.2969,902.4375 433.5156,902.4375 Q433.8906,902.4375 434.125,902.6953 Q434.3594,902.9531 434.3594,903.5625 L434.3594,905.0156 Q434.3594,905.625 434.125,905.8906 Q433.8906,906.1563 433.5156,906.1563 Q433.1719,906.1563 432.9688,905.9531 Q432.7656,905.7656 432.6563,905.25 Q432.6094,904.8906 432.4219,904.7031 Q432.0938,904.3281 431.4844,904.1094 Q430.875,903.8906 430.25,903.8906 Q429.4844,903.8906 428.8516,904.2188 Q428.2188,904.5469 427.7266,905.2969 Q427.2344,906.0469 427.2344,907.0781 L427.2344,908.1719 Q427.2344,909.4063 428.125,910.2266 Q429.0156,911.0469 430.6094,911.0469 Q431.5469,911.0469 432.2031,910.7969 Q432.5938,910.6406 433.0156,910.2031 Q433.2813,909.9375 433.4297,909.8594 Q433.5781,909.7813 433.7813,909.7813 Q434.1094,909.7813 434.3672,910.0391 Q434.625,910.2969 434.625,910.6406 Q434.625,910.9844 434.2813,911.3906 Q433.7813,911.9688 432.9844,912.2969 Q431.9063,912.75 430.6094,912.75 Q429.0938,912.75 427.8906,912.125 Q426.9063,911.625 426.2188,910.5547 Q425.5313,909.4844 425.5313,908.2031 L425.5313,907.0469 Q425.5313,905.7188 426.1484,904.5703 Q426.7656,903.4219 427.8594,902.8047 Q428.9531,902.1875 430.1875,902.1875 Q430.9219,902.1875 431.5703,902.3516 Q432.2188,902.5156 432.7656,902.875 Z " fill="#000000"/>
      <text fill="#000000" font-family="sans-serif" font-size="14" lengthAdjust="spacing" textLength="108" x="444" y="912.7285">ResourceService</text>
    </g>
    <!--MD5=[43b55aca9cee8087ee601639b7ccee93]
class com.credibledoc.substitution.core.resource.ResourceType-->
    <g id="elem_com.credibledoc.substitution.core.resource.ResourceType">
      <rect codeLine="24" fill="#98FB98" height="32" id="com.credibledoc.substitution.core.resource.ResourceType" rx="2.5" ry="2.5" style="stroke:#00FF7F;stroke-width:0.5;" width="125" x="422.5" y="958"/>
      <ellipse cx="437.5" cy="974" fill="#9ACD32" rx="11" ry="11" style="stroke:#00FF7F;stroke-width:1.0;"/>
      <path d="M440.2656,969.875 Q440.4219,969.6563 440.6094,969.5469 Q440.7969,969.4375 441.0156,969.4375 Q441.3906,969.4375 441.625,969.6953 Q441.8594,969.9531 441.8594,970.5625 L441.8594,972.0156 Q441.8594,972.625 441.625,972.8906 Q441.3906,973.1563 441.0156,973.1563 Q440.6719,973.1563 440.4688,972.9531 Q440.2656,972.7656 440.1563,972.25 Q440.1094,971.8906 439.9219,971.7031 Q439.5938,971.3281 438.9844,971.1094 Q438.375,970.8906 437.75,970.8906 Q436.9844,970.8906 436.3516,971.2188 Q435.7188,971.5469 435.2266,972.2969 Q434.7344,973.0469 434.7344,974.0781 L434.7344,975.1719 Q434.7344,976.4063 435.625,977.2266 Q436.5156,978.0469 438.1094,978.0469 Q439.0469,978.0469 439.7031,977.7969 Q440.0938,977.6406 440.5156,977.2031 Q440.7813,976.9375 440.9297,976.8594 Q441.0781,976.7813 441.2813,976.7813 Q441.6094,976.7813 441.8672,977.0391 Q442.125,977.2969 442.125,977.6406 Q442.125,977.9844 441.7813,978.3906 Q441.2813,978.9688 440.4844,979.2969 Q439.4063,979.75 438.1094,979.75 Q436.5938,979.75 435.3906,979.125 Q434.4063,978.625 433.7188,977.5547 Q433.0313,976.4844 433.0313,975.2031 L433.0313,974.0469 Q433.0313,972.7188 433.6484,971.5703 Q434.2656,970.4219 435.3594,969.8047 Q436.4531,969.1875 437.6875,969.1875 Q438.4219,969.1875 439.0703,969.3516 Q439.7188,969.5156 440.2656,969.875 Z " fill="#000000"/>
      <text fill="#000000" font-family="sans-serif" font-size="14" lengthAdjust="spacing" textLength="93" x="451.5" y="979.7285">ResourceType</text>
    </g>
    <!--MD5=[7607ff8ca570e4ff0c0e24433c905d6e]
class com.credibledoc.substitution.reporting.reportdocument.creator.ReportDocumentCreator-->
    <g id="elem_com.credibledoc.substitution.reporting.reportdocument.creator.ReportDocumentCreator">
      <rect codeLine="18" fill="#98FB98" height="32" id="com.credibledoc.substitution.reporting.reportdocument.creator.ReportDocumentCreator" rx="2.5" ry="2.5" style="stroke:#00FF7F;stroke-width:0.5;" width="187" x="391.5" y="1066"/>
      <ellipse cx="406.5" cy="1082" fill="#9ACD32" rx="11" ry="11" style="stroke:#00FF7F;stroke-width:1.0;"/>
      <path d="M409.2656,1077.875 Q409.4219,1077.6563 409.6094,1077.5469 Q409.7969,1077.4375 410.0156,1077.4375 Q410.3906,1077.4375 410.625,1077.6953 Q410.8594,1077.9531 410.8594,1078.5625 L410.8594,1080.0156 Q410.8594,1080.625 410.625,1080.8906 Q410.3906,1081.1563 410.0156,1081.1563 Q409.6719,1081.1563 409.4688,1080.9531 Q409.2656,1080.7656 409.1563,1080.25 Q409.1094,1079.8906 408.9219,1079.7031 Q408.5938,1079.3281 407.9844,1079.1094 Q407.375,1078.8906 406.75,1078.8906 Q405.9844,1078.8906 405.3516,1079.2188 Q404.7188,1079.5469 404.2266,1080.2969 Q403.7344,1081.0469 403.7344,1082.0781 L403.7344,1083.1719 Q403.7344,1084.4063 404.625,1085.2266 Q405.5156,1086.0469 407.1094,1086.0469 Q408.0469,1086.0469 408.7031,1085.7969 Q409.0938,1085.6406 409.5156,1085.2031 Q409.7813,1084.9375 409.9297,1084.8594 Q410.0781,1084.7813 410.2813,1084.7813 Q410.6094,1084.7813 410.8672,1085.0391 Q411.125,1085.2969 411.125,1085.6406 Q411.125,1085.9844 410.7813,1086.3906 Q410.2813,1086.9688 409.4844,1087.2969 Q408.4063,1087.75 407.1094,1087.75 Q405.5938,1087.75 404.3906,1087.125 Q403.4063,1086.625 402.7188,1085.5547 Q402.0313,1084.4844 402.0313,1083.2031 L402.0313,1082.0469 Q402.0313,1080.7188 402.6484,1079.5703 Q403.2656,1078.4219 404.3594,1077.8047 Q405.4531,1077.1875 406.6875,1077.1875 Q407.4219,1077.1875 408.0703,1077.3516 Q408.7188,1077.5156 409.2656,1077.875 Z " fill="#000000"/>
      <text fill="#000000" font-family="sans-serif" font-size="14" lengthAdjust="spacing" textLength="155" x="420.5" y="1087.7285">ReportDocumentCreator</text>
    </g>
    <!--MD5=[c6ed0641fbc9f581e2ff59c7e46144b2]
class com.credibledoc.substitution.core.template.TemplateService-->
    <g id="elem_com.credibledoc.substitution.core.template.TemplateService">
      <rect codeLine="19" fill="#98FB98" height="32" id="com.credibledoc.substitution.core.template.TemplateService" rx="2.5" ry="2.5" style="stroke:#00FF7F;stroke-width:0.5;" width="138" x="416" y="1174"/>
      <ellipse cx="431" cy="1190" fill="#9ACD32" rx="11" ry="11" style="stroke:#00FF7F;stroke-width:1.0;"/>
      <path d="M433.7656,1185.875 Q433.9219,1185.6563 434.1094,1185.5469 Q434.2969,1185.4375 434.5156,1185.4375 Q434.8906,1185.4375 435.125,1185.6953 Q435.3594,1185.9531 435.3594,1186.5625 L435.3594,1188.0156 Q435.3594,1188.625 435.125,1188.8906 Q434.8906,1189.1563 434.5156,1189.1563 Q434.1719,1189.1563 433.9688,1188.9531 Q433.7656,1188.7656 433.6563,1188.25 Q433.6094,1187.8906 433.4219,1187.7031 Q433.0938,1187.3281 432.4844,1187.1094 Q431.875,1186.8906 431.25,1186.8906 Q430.4844,1186.8906 429.8516,1187.2188 Q429.2188,1187.5469 428.7266,1188.2969 Q428.2344,1189.0469 428.2344,1190.0781 L428.2344,1191.1719 Q428.2344,1192.4063 429.125,1193.2266 Q430.0156,1194.0469 431.6094,1194.0469 Q432.5469,1194.0469 433.2031,1193.7969 Q433.5938,1193.6406 434.0156,1193.2031 Q434.2813,1192.9375 434.4297,1192.8594 Q434.5781,1192.7813 434.7813,1192.7813 Q435.1094,1192.7813 435.3672,1193.0391 Q435.625,1193.2969 435.625,1193.6406 Q435.625,1193.9844 435.2813,1194.3906 Q434.7813,1194.9688 433.9844,1195.2969 Q432.9063,1195.75 431.6094,1195.75 Q430.0938,1195.75 428.8906,1195.125 Q427.9063,1194.625 427.2188,1193.5547 Q426.5313,1192.4844 426.5313,1191.2031 L426.5313,1190.0469 Q426.5313,1188.7188 427.1484,1187.5703 Q427.7656,1186.4219 428.8594,1185.8047 Q429.9531,1185.1875 431.1875,1185.1875 Q431.9219,1185.1875 432.5703,1185.3516 Q433.2188,1185.5156 433.7656,1185.875 Z " fill="#000000"/>
      <text fill="#000000" font-family="sans-serif" font-size="14" lengthAdjust="spacing" textLength="106" x="445" y="1195.7285">TemplateService</text>
    </g>
    <!--MD5=[f34d3cae6d5f5520fa3597259176558d]
class com.credibledoc.substitution.core.configuration.ConfigurationService-->
    <g id="elem_com.credibledoc.substitution.core.configuration.ConfigurationService">
      <rect codeLine="20" fill="#98FB98" height="32" id="com.credibledoc.substitution.core.configuration.ConfigurationService" rx="2.5" ry="2.5" style="stroke:#00FF7F;stroke-width:0.5;" width="164" x="403" y="1282"/>
      <ellipse cx="418" cy="1298" fill="#9ACD32" rx="11" ry="11" style="stroke:#00FF7F;stroke-width:1.0;"/>
      <path d="M420.7656,1293.875 Q420.9219,1293.6563 421.1094,1293.5469 Q421.2969,1293.4375 421.5156,1293.4375 Q421.8906,1293.4375 422.125,1293.6953 Q422.3594,1293.9531 422.3594,1294.5625 L422.3594,1296.0156 Q422.3594,1296.625 422.125,1296.8906 Q421.8906,1297.1563 421.5156,1297.1563 Q421.1719,1297.1563 420.9688,1296.9531 Q420.7656,1296.7656 420.6563,1296.25 Q420.6094,1295.8906 420.4219,1295.7031 Q420.0938,1295.3281 419.4844,1295.1094 Q418.875,1294.8906 418.25,1294.8906 Q417.4844,1294.8906 416.8516,1295.2188 Q416.2188,1295.5469 415.7266,1296.2969 Q415.2344,1297.0469 415.2344,1298.0781 L415.2344,1299.1719 Q415.2344,1300.4063 416.125,1301.2266 Q417.0156,1302.0469 418.6094,1302.0469 Q419.5469,1302.0469 420.2031,1301.7969 Q420.5938,1301.6406 421.0156,1301.2031 Q421.2813,1300.9375 421.4297,1300.8594 Q421.5781,1300.7813 421.7813,1300.7813 Q422.1094,1300.7813 422.3672,1301.0391 Q422.625,1301.2969 422.625,1301.6406 Q422.625,1301.9844 422.2813,1302.3906 Q421.7813,1302.9688 420.9844,1303.2969 Q419.9063,1303.75 418.6094,1303.75 Q417.0938,1303.75 415.8906,1303.125 Q414.9063,1302.625 414.2188,1301.5547 Q413.5313,1300.4844 413.5313,1299.2031 L413.5313,1298.0469 Q413.5313,1296.7188 414.1484,1295.5703 Q414.7656,1294.4219 415.8594,1293.8047 Q416.9531,1293.1875 418.1875,1293.1875 Q418.9219,1293.1875 419.5703,1293.3516 Q420.2188,1293.5156 420.7656,1293.875 Z " fill="#000000"/>
      <text fill="#000000" font-family="sans-serif" font-size="14" lengthAdjust="spacing" textLength="132" x="432" y="1303.7285">ConfigurationService</text>
    </g>
    <!--MD5=[2144794834e14012e336f06ac19b4f39]
class com.credibledoc.substitution.reporting.replacement.ReplacementService-->
    <g id="elem_com.credibledoc.substitution.reporting.replacement.ReplacementService">
      <rect codeLine="22" fill="#98FB98" height="32" id="com.credibledoc.substitution.reporting.replacement.ReplacementService" rx="2.5" ry="2.5" style="stroke:#00FF7F;stroke-width:0.5;" width="162" x="404" y="1390"/>
      <ellipse cx="419" cy="1406" fill="#9ACD32" rx="11" ry="11" style="stroke:#00FF7F;stroke-width:1.0;"/>
      <path d="M421.7656,1401.875 Q421.9219,1401.6563 422.1094,1401.5469 Q422.2969,1401.4375 422.5156,1401.4375 Q422.8906,1401.4375 423.125,1401.6953 Q423.3594,1401.9531 423.3594,1402.5625 L423.3594,1404.0156 Q423.3594,1404.625 423.125,1404.8906 Q422.8906,1405.1563 422.5156,1405.1563 Q422.1719,1405.1563 421.9688,1404.9531 Q421.7656,1404.7656 421.6563,1404.25 Q421.6094,1403.8906 421.4219,1403.7031 Q421.0938,1403.3281 420.4844,1403.1094 Q419.875,1402.8906 419.25,1402.8906 Q418.4844,1402.8906 417.8516,1403.2188 Q417.2188,1403.5469 416.7266,1404.2969 Q416.2344,1405.0469 416.2344,1406.0781 L416.2344,1407.1719 Q416.2344,1408.4063 417.125,1409.2266 Q418.0156,1410.0469 419.6094,1410.0469 Q420.5469,1410.0469 421.2031,1409.7969 Q421.5938,1409.6406 422.0156,1409.2031 Q422.2813,1408.9375 422.4297,1408.8594 Q422.5781,1408.7813 422.7813,1408.7813 Q423.1094,1408.7813 423.3672,1409.0391 Q423.625,1409.2969 423.625,1409.6406 Q423.625,1409.9844 423.2813,1410.3906 Q422.7813,1410.9688 421.9844,1411.2969 Q420.9063,1411.75 419.6094,1411.75 Q418.0938,1411.75 416.8906,1411.125 Q415.9063,1410.625 415.2188,1409.5547 Q414.5313,1408.4844 414.5313,1407.2031 L414.5313,1406.0469 Q414.5313,1404.7188 415.1484,1403.5703 Q415.7656,1402.4219 416.8594,1401.8047 Q417.9531,1401.1875 419.1875,1401.1875 Q419.9219,1401.1875 420.5703,1401.3516 Q421.2188,1401.5156 421.7656,1401.875 Z " fill="#000000"/>
      <text fill="#000000" font-family="sans-serif" font-size="14" lengthAdjust="spacing" textLength="130" x="433" y="1411.7285">ReplacementService</text>
    </g>
    <!--MD5=[29968a5d37d6b3fe49470c30b586a72c]
class com.credibledoc.substitution.core.content.ContentGenerator-->
    <g id="elem_com.credibledoc.substitution.core.content.ContentGenerator">
      <rect codeLine="23" fill="#98FB98" height="32" id="com.credibledoc.substitution.core.content.ContentGenerator" rx="2.5" ry="2.5" style="stroke:#00FF7F;stroke-width:0.5;" width="147" x="411.5" y="1498"/>
      <ellipse cx="426.5" cy="1514" fill="#9ACD32" rx="11" ry="11" style="stroke:#00FF7F;stroke-width:1.0;"/>
      <path d="M429.2656,1509.875 Q429.4219,1509.6563 429.6094,1509.5469 Q429.7969,1509.4375 430.0156,1509.4375 Q430.3906,1509.4375 430.625,1509.6953 Q430.8594,1509.9531 430.8594,1510.5625 L430.8594,1512.0156 Q430.8594,1512.625 430.625,1512.8906 Q430.3906,1513.1563 430.0156,1513.1563 Q429.6719,1513.1563 429.4688,1512.9531 Q429.2656,1512.7656 429.1563,1512.25 Q429.1094,1511.8906 428.9219,1511.7031 Q428.5938,1511.3281 427.9844,1511.1094 Q427.375,1510.8906 426.75,1510.8906 Q425.9844,1510.8906 425.3516,1511.2188 Q424.7188,1511.5469 424.2266,1512.2969 Q423.7344,1513.0469 423.7344,1514.0781 L423.7344,1515.1719 Q423.7344,1516.4063 424.625,1517.2266 Q425.5156,1518.0469 427.1094,1518.0469 Q428.0469,1518.0469 428.7031,1517.7969 Q429.0938,1517.6406 429.5156,1517.2031 Q429.7813,1516.9375 429.9297,1516.8594 Q430.0781,1516.7813 430.2813,1516.7813 Q430.6094,1516.7813 430.8672,1517.0391 Q431.125,1517.2969 431.125,1517.6406 Q431.125,1517.9844 430.7813,1518.3906 Q430.2813,1518.9688 429.4844,1519.2969 Q428.4063,1519.75 427.1094,1519.75 Q425.5938,1519.75 424.3906,1519.125 Q423.4063,1518.625 422.7188,1517.5547 Q422.0313,1516.4844 422.0313,1515.2031 L422.0313,1514.0469 Q422.0313,1512.7188 422.6484,1511.5703 Q423.2656,1510.4219 424.3594,1509.8047 Q425.4531,1509.1875 426.6875,1509.1875 Q427.4219,1509.1875 428.0703,1509.3516 Q428.7188,1509.5156 429.2656,1509.875 Z " fill="#000000"/>
      <text fill="#000000" font-family="sans-serif" font-size="14" lengthAdjust="spacing" textLength="115" x="440.5" y="1519.7285">ContentGenerator</text>
    </g>
    <!--MD5=[d3b8fea686fa7db660b77e8dcfb05006]
class com.credibledoc.substitution.core.content.Content-->
    <g id="elem_com.credibledoc.substitution.core.content.Content">
      <rect codeLine="26" fill="#98FB98" height="32" id="com.credibledoc.substitution.core.content.Content" rx="2.5" ry="2.5" style="stroke:#00FF7F;stroke-width:0.5;" width="82" x="444" y="1565"/>
      <ellipse cx="459" cy="1581" fill="#9ACD32" rx="11" ry="11" style="stroke:#00FF7F;stroke-width:1.0;"/>
      <path d="M461.7656,1576.875 Q461.9219,1576.6563 462.1094,1576.5469 Q462.2969,1576.4375 462.5156,1576.4375 Q462.8906,1576.4375 463.125,1576.6953 Q463.3594,1576.9531 463.3594,1577.5625 L463.3594,1579.0156 Q463.3594,1579.625 463.125,1579.8906 Q462.8906,1580.1563 462.5156,1580.1563 Q462.1719,1580.1563 461.9688,1579.9531 Q461.7656,1579.7656 461.6563,1579.25 Q461.6094,1578.8906 461.4219,1578.7031 Q461.0938,1578.3281 460.4844,1578.1094 Q459.875,1577.8906 459.25,1577.8906 Q458.4844,1577.8906 457.8516,1578.2188 Q457.2188,1578.5469 456.7266,1579.2969 Q456.2344,1580.0469 456.2344,1581.0781 L456.2344,1582.1719 Q456.2344,1583.4063 457.125,1584.2266 Q458.0156,1585.0469 459.6094,1585.0469 Q460.5469,1585.0469 461.2031,1584.7969 Q461.5938,1584.6406 462.0156,1584.2031 Q462.2813,1583.9375 462.4297,1583.8594 Q462.5781,1583.7813 462.7813,1583.7813 Q463.1094,1583.7813 463.3672,1584.0391 Q463.625,1584.2969 463.625,1584.6406 Q463.625,1584.9844 463.2813,1585.3906 Q462.7813,1585.9688 461.9844,1586.2969 Q460.9063,1586.75 459.6094,1586.75 Q458.0938,1586.75 456.8906,1586.125 Q455.9063,1585.625 455.2188,1584.5547 Q454.5313,1583.4844 454.5313,1582.2031 L454.5313,1581.0469 Q454.5313,1579.7188 455.1484,1578.5703 Q455.7656,1577.4219 456.8594,1576.8047 Q457.9531,1576.1875 459.1875,1576.1875 Q459.9219,1576.1875 460.5703,1576.3516 Q461.2188,1576.5156 461.7656,1576.875 Z " fill="#000000"/>
      <text fill="#000000" font-family="sans-serif" font-size="14" lengthAdjust="spacing" textLength="50" x="473" y="1586.7285">Content</text>
    </g>
    <!--MD5=[c14cffe0b2defeec22661e2aec967a76]
link com.credibledoc.substitution.doc to com.credibledoc.substitution.core.configuration.ConfigurationService-->
    <g id="link_com.credibledoc.substitution.doc_com.credibledoc.substitution.core.configuration.ConfigurationService">
      <path codeLine="28" d="M117.96,856.08 C120.51,914.14 137.13,1115.23 245.5,1222 C285.98,1261.88 347.33,1280.85 397.67,1289.86 " fill="none" id="com.credibledoc.substitution.doc-to-com.credibledoc.substitution.core.configuration.ConfigurationService" style="stroke:#2E8B57;stroke-width:1.0;stroke-dasharray:7.0,7.0;"/>
      <polygon fill="#2E8B57" points="402.82,1290.76,394.6385,1285.2771,397.8939,1289.9033,393.2677,1293.1588,402.82,1290.76" style="stroke:#2E8B57;stroke-width:1.0;"/>
    </g>
    <!--MD5=[72387fb44c4bffa7ba2aded2b6b532d2]
link com.credibledoc.substitution.doc to com.credibledoc.substitution.content.generator.jar.LocalJarNameContentGenerator-->
    <g id="link_com.credibledoc.substitution.doc_com.credibledoc.substitution.content.generator.jar.LocalJarNameContentGenerator">
      <path codeLine="29" d="M119.26,823.91 C125.76,772.51 153,610.6 245.5,525 C277.45,495.43 320.92,477.37 362,466.33 " fill="none" id="com.credibledoc.substitution.doc-to-com.credibledoc.substitution.content.generator.jar.LocalJarNameContentGenerator" style="stroke:#2E8B57;stroke-width:1.0;stroke-dasharray:7.0,7.0;"/>
      <polygon fill="#2E8B57" points="366.99,465.02,357.2681,463.4436,362.1548,466.2932,359.3052,471.1799,366.99,465.02" style="stroke:#2E8B57;stroke-width:1.0;"/>
    </g>
    <!--MD5=[fe1b52f384b4412ee58cd72856759174]
link com.credibledoc.substitution.doc to com.credibledoc.substitution.core.resource.TemplateResource-->
    <g id="link_com.credibledoc.substitution.doc_com.credibledoc.substitution.core.resource.TemplateResource">
      <path codeLine="30" d="M144.15,840 C197.91,840 321.2,840 403.55,840 " fill="none" id="com.credibledoc.substitution.doc-to-com.credibledoc.substitution.core.resource.TemplateResource" style="stroke:#2E8B57;stroke-width:1.0;stroke-dasharray:7.0,7.0;"/>
      <polygon fill="#2E8B57" points="408.91,840,399.91,836,403.91,840,399.91,844,408.91,840" style="stroke:#2E8B57;stroke-width:1.0;"/>
    </g>
    <!--MD5=[10989d738cd39a43c13b5ec32812712b]
link com.credibledoc.substitution.doc to com.credibledoc.substitution.reporting.report.document.Document-->
    <g id="link_com.credibledoc.substitution.doc_com.credibledoc.substitution.reporting.report.document.Document">
      <path codeLine="31" d="M118.22,823.9 C122.79,728.9 150.64,241.97 245.5,134 C292.46,80.55 376.9,64.38 431.68,59.67 " fill="none" id="com.credibledoc.substitution.doc-to-com.credibledoc.substitution.reporting.report.document.Document" style="stroke:#2E8B57;stroke-width:1.0;stroke-dasharray:7.0,7.0;"/>
      <polygon fill="#2E8B57" points="436.88,59.25,427.5889,55.9826,431.896,59.6499,428.2287,63.9569,436.88,59.25" style="stroke:#2E8B57;stroke-width:1.0;"/>
    </g>
    <!--MD5=[361309265c965880cb5caf80892c0925]
link com.credibledoc.substitution.doc to com.credibledoc.substitution.core.context.SubstitutionContext-->
    <g id="link_com.credibledoc.substitution.doc_com.credibledoc.substitution.core.context.SubstitutionContext">
      <path codeLine="32" d="M122.99,823.84 C137.02,785.01 177.88,685.77 245.5,633 C290.88,597.58 353.14,578.47 402.67,568.27 " fill="none" id="com.credibledoc.substitution.doc-to-com.credibledoc.substitution.core.context.SubstitutionContext" style="stroke:#2E8B57;stroke-width:1.0;stroke-dasharray:7.0,7.0;"/>
      <polygon fill="#2E8B57" points="407.73,567.25,398.1119,565.1304,402.831,568.2498,399.7116,572.9689,407.73,567.25" style="stroke:#2E8B57;stroke-width:1.0;"/>
    </g>
    <!--MD5=[5f8858ad0ebb27cc4efc508cbf085ba7]
link com.credibledoc.substitution.doc to com.credibledoc.substitution.reporting.reportdocument.ReportDocumentType-->
    <g id="link_com.credibledoc.substitution.doc_com.credibledoc.substitution.reporting.reportdocument.ReportDocumentType">
      <path codeLine="33" d="M118.97,823.82 C126.72,742.52 165.47,379.54 245.5,307 C285.1,271.11 344.64,262.84 394.32,263.55 " fill="none" id="com.credibledoc.substitution.doc-to-com.credibledoc.substitution.reporting.reportdocument.ReportDocumentType" style="stroke:#2E8B57;stroke-width:1.0;stroke-dasharray:7.0,7.0;"/>
      <polygon fill="#2E8B57" points="399.4,263.65,390.4818,259.4708,394.401,263.55,390.3218,267.4692,399.4,263.65" style="stroke:#2E8B57;stroke-width:1.0;"/>
    </g>
    <!--MD5=[a75af4171043cec589e558f1c9d66ced]
link com.credibledoc.substitution.doc to com.credibledoc.substitution.core.resource.ResourceType-->
    <g id="link_com.credibledoc.substitution.doc_com.credibledoc.substitution.core.resource.ResourceType">
      <path codeLine="34" d="M132.67,856.33 C154.98,879.22 199.05,920.23 245.5,940 C300.38,963.36 368.12,971.24 417.37,973.65 " fill="none" id="com.credibledoc.substitution.doc-to-com.credibledoc.substitution.core.resource.ResourceType" style="stroke:#2E8B57;stroke-width:1.0;stroke-dasharray:7.0,7.0;"/>
      <polygon fill="#2E8B57" points="422.38,973.87,413.5726,969.462,417.3852,973.641,413.2063,977.4536,422.38,973.87" style="stroke:#2E8B57;stroke-width:1.0;"/>
    </g>
    <!--MD5=[b7be76b93cab8399d23056fc9bc6305e]
link com.credibledoc.substitution.doc to com.credibledoc.substitution.core.placeholder.PlaceholderService-->
    <g id="link_com.credibledoc.substitution.doc_com.credibledoc.substitution.core.placeholder.PlaceholderService">
      <path codeLine="35" d="M126.66,823.88 C144.89,793.47 188.9,728 245.5,698 C293.61,672.5 354.5,664.41 402.72,662.61 " fill="none" id="com.credibledoc.substitution.doc-to-com.credibledoc.substitution.core.placeholder.PlaceholderService" style="stroke:#2E8B57;stroke-width:1.0;stroke-dasharray:7.0,7.0;"/>
      <polygon fill="#2E8B57" points="407.94,662.44,398.8082,658.7507,402.9429,662.6113,399.0823,666.746,407.94,662.44" style="stroke:#2E8B57;stroke-width:1.0;"/>
    </g>
    <!--MD5=[e7cfedb0e6eb0d952ade452fef94243e]
link com.credibledoc.substitution.doc to com.credibledoc.substitution.core.template.TemplateService-->
    <g id="link_com.credibledoc.substitution.doc_com.credibledoc.substitution.core.template.TemplateService">
      <path codeLine="36" d="M120.39,856.31 C129.61,903.46 162.69,1041.2 245.5,1114 C291.59,1154.51 359.39,1173.45 410.93,1182.3 " fill="none" id="com.credibledoc.substitution.doc-to-com.credibledoc.substitution.core.template.TemplateService" style="stroke:#2E8B57;stroke-width:1.0;stroke-dasharray:7.0,7.0;"/>
      <polygon fill="#2E8B57" points="415.87,1183.12,407.6424,1177.7064,410.9369,1182.305,406.3383,1185.5994,415.87,1183.12" style="stroke:#2E8B57;stroke-width:1.0;"/>
    </g>
    <!--MD5=[e96b5baf345deb1a600e5b2b6776a774]
link com.credibledoc.substitution.doc to com.credibledoc.substitution.core.resource.ResourceService-->
    <g id="link_com.credibledoc.substitution.doc_com.credibledoc.substitution.core.resource.ResourceService">
      <path codeLine="37" d="M144.27,847.83 C170.03,855.14 210.17,865.95 245.5,873 C300.11,883.9 362.43,892.66 409.67,898.55 " fill="none" id="com.credibledoc.substitution.doc-to-com.credibledoc.substitution.core.resource.ResourceService" style="stroke:#2E8B57;stroke-width:1.0;stroke-dasharray:7.0,7.0;"/>
      <polygon fill="#2E8B57" points="414.77,899.19,406.3285,894.1165,409.8077,898.5768,405.3474,902.0561,414.77,899.19" style="stroke:#2E8B57;stroke-width:1.0;"/>
    </g>
    <!--MD5=[791a41cceeb1cab29f66cb2594478c85]
link com.credibledoc.substitution.doc to com.credibledoc.substitution.core.content.ContentGenerator-->
    <g id="link_com.credibledoc.substitution.doc_com.credibledoc.substitution.core.content.ContentGenerator">
      <path codeLine="38" d="M118.79,856.11 C126.02,942.27 164.01,1348.14 245.5,1438 C286.3,1482.99 353.62,1501.5 406.35,1509.05 " fill="none" id="com.credibledoc.substitution.doc-to-com.credibledoc.substitution.core.content.ContentGenerator" style="stroke:#2E8B57;stroke-width:1.0;stroke-dasharray:7.0,7.0;"/>
      <polygon fill="#2E8B57" points="411.41,1509.74,403.043,1504.5445,406.4572,1509.0549,401.9468,1512.4691,411.41,1509.74" style="stroke:#2E8B57;stroke-width:1.0;"/>
    </g>
    <!--MD5=[54180e2517bc662b66aef05505156612]
link com.credibledoc.substitution.doc to com.credibledoc.substitution.core.placeholder.Placeholder-->
    <g id="link_com.credibledoc.substitution.doc_com.credibledoc.substitution.core.placeholder.Placeholder">
      <path codeLine="39" d="M144.15,832.15 C203.07,814.79 345.5,772.81 426.03,749.08 " fill="none" id="com.credibledoc.substitution.doc-to-com.credibledoc.substitution.core.placeholder.Placeholder" style="stroke:#2E8B57;stroke-width:1.0;stroke-dasharray:7.0,7.0;"/>
      <polygon fill="#2E8B57" points="431.24,747.55,421.4764,746.2568,426.4439,748.9631,423.7375,753.9306,431.24,747.55" style="stroke:#2E8B57;stroke-width:1.0;"/>
    </g>
    <!--MD5=[d668dad145f7f973df3f5f220e04c3a1]
link com.credibledoc.substitution.doc to com.credibledoc.substitution.core.content.Content-->
    <g id="link_com.credibledoc.substitution.doc_com.credibledoc.substitution.core.content.Content">
      <path codeLine="40" d="M117.95,856.05 C121.01,951.82 141.73,1447.05 245.5,1547 C296.72,1596.33 385.1,1595.13 438.69,1588.76 " fill="none" id="com.credibledoc.substitution.doc-to-com.credibledoc.substitution.core.content.Content" style="stroke:#2E8B57;stroke-width:1.0;stroke-dasharray:7.0,7.0;"/>
      <polygon fill="#2E8B57" points="443.77,1588.13,434.3474,1585.2639,438.8077,1588.7432,435.3285,1593.2035,443.77,1588.13" style="stroke:#2E8B57;stroke-width:1.0;"/>
    </g>
    <!--MD5=[e145688e96e1b763c5c2d4918c55b299]
link com.credibledoc.substitution.doc to com.credibledoc.substitution.reporting.replacement.ReplacementService-->
    <g id="link_com.credibledoc.substitution.doc_com.credibledoc.substitution.reporting.replacement.ReplacementService">
      <path codeLine="41" d="M119.61,856.15 C129.93,932.66 177.28,1258.07 245.5,1330 C285.11,1371.76 347.58,1390.66 398.64,1399.16 " fill="none" id="com.credibledoc.substitution.doc-to-com.credibledoc.substitution.reporting.replacement.ReplacementService" style="stroke:#2E8B57;stroke-width:1.0;stroke-dasharray:7.0,7.0;"/>
      <polygon fill="#2E8B57" points="403.86,1400,395.6147,1394.6134,398.9242,1399.2011,394.3365,1402.5107,403.86,1400" style="stroke:#2E8B57;stroke-width:1.0;"/>
    </g>
    <!--MD5=[6bff7b36862dcb628ac8d930e12df50d]
link com.credibledoc.substitution.doc to com.credibledoc.substitution.reporting.reportdocument.ReportDocument-->
    <g id="link_com.credibledoc.substitution.doc_com.credibledoc.substitution.reporting.reportdocument.ReportDocument">
      <path codeLine="42" d="M117.35,823.97 C117.69,762.18 127.29,536.96 245.5,417 C288.94,372.92 357.85,354.36 410.46,346.57 " fill="none" id="com.credibledoc.substitution.doc-to-com.credibledoc.substitution.reporting.reportdocument.ReportDocument" style="stroke:#2E8B57;stroke-width:1.0;stroke-dasharray:7.0,7.0;"/>
      <polygon fill="#2E8B57" points="415.49,345.85,406.018,343.1515,410.5394,346.5511,407.1398,351.0725,415.49,345.85" style="stroke:#2E8B57;stroke-width:1.0;"/>
    </g>
    <!--MD5=[e825f59b1202d74b5f3421cbc6e28f10]
link com.credibledoc.substitution.doc to com.credibledoc.substitution.reporting.reportdocument.creator.ReportDocumentCreator-->
    <g id="link_com.credibledoc.substitution.doc_com.credibledoc.substitution.reporting.reportdocument.creator.ReportDocumentCreator">
      <path codeLine="43" d="M125.67,856.34 C143.09,889.51 187.09,965.07 245.5,1006 C287.22,1035.24 340.74,1053.63 386.51,1064.99 " fill="none" id="com.credibledoc.substitution.doc-to-com.credibledoc.substitution.reporting.reportdocument.creator.ReportDocumentCreator" style="stroke:#2E8B57;stroke-width:1.0;stroke-dasharray:7.0,7.0;"/>
      <polygon fill="#2E8B57" points="391.48,1066.2,383.6854,1060.1797,386.6226,1065.0142,381.7881,1067.9515,391.48,1066.2" style="stroke:#2E8B57;stroke-width:1.0;"/>
    </g>
    <!--MD5=[b2083f92fe3f5a563dc27403056ff2a0]
link com.credibledoc.substitution.doc to com.credibledoc.substitution.core.exception.SubstitutionRuntimeException-->
    <g id="link_com.credibledoc.substitution.doc_com.credibledoc.substitution.core.exception.SubstitutionRuntimeException">
      <path codeLine="44" d="M118.79,823.89 C126.02,737.73 164.01,331.86 245.5,242 C277.4,206.82 325.54,187.82 370.22,177.61 " fill="none" id="com.credibledoc.substitution.doc-to-com.credibledoc.substitution.core.exception.SubstitutionRuntimeException" style="stroke:#2E8B57;stroke-width:1.0;stroke-dasharray:7.0,7.0;"/>
      <polygon fill="#2E8B57" points="375.37,176.47,365.7166,174.5176,370.4891,177.5547,367.452,182.3271,375.37,176.47" style="stroke:#2E8B57;stroke-width:1.0;"/>
    </g>
    <!--MD5=[e4abaf767e0d8ec772d4b90b8d888407]
@startuml
left to right direction
hide empty members

skinparam class {
    BackgroundColor PaleGreen
    ArrowColor SeaGreen
    BorderColor SpringGreen
}

Class com.credibledoc.substitution.doc << (P,LightSeaGreen) >>
Class com.credibledoc.substitution.reporting.report.document.Document << (C,YellowGreen) >>
Class com.credibledoc.substitution.core.exception.SubstitutionRuntimeException << (C,YellowGreen) >>
Class com.credibledoc.substitution.reporting.reportdocument.ReportDocumentType << (C,YellowGreen) >>
Class com.credibledoc.substitution.content.generator.jar.LocalJarNameContentGenerator << (C,YellowGreen) >>
Class com.credibledoc.substitution.core.context.SubstitutionContext << (C,YellowGreen) >>
Class com.credibledoc.substitution.core.placeholder.PlaceholderService << (C,YellowGreen) >>
Class com.credibledoc.substitution.core.resource.TemplateResource << (C,YellowGreen) >>
Class com.credibledoc.substitution.reporting.reportdocument.creator.ReportDocumentCreator << (C,YellowGreen) >>
Class com.credibledoc.substitution.core.template.TemplateService << (C,YellowGreen) >>
Class com.credibledoc.substitution.core.configuration.ConfigurationService << (C,YellowGreen) >>
Class com.credibledoc.substitution.core.resource.ResourceService << (C,YellowGreen) >>
Class com.credibledoc.substitution.reporting.replacement.ReplacementService << (C,YellowGreen) >>
Class com.credibledoc.substitution.core.content.ContentGenerator << (C,YellowGreen) >>
Class com.credibledoc.substitution.core.resource.ResourceType << (C,YellowGreen) >>
Class com.credibledoc.substitution.reporting.reportdocument.ReportDocument << (C,YellowGreen) >>
Class com.credibledoc.substitution.core.content.Content << (C,YellowGreen) >>
Class com.credibledoc.substitution.core.placeholder.Placeholder << (C,YellowGreen) >>
com.credibledoc.substitution.doc ..> com.credibledoc.substitution.core.configuration.ConfigurationService
com.credibledoc.substitution.doc ..> com.credibledoc.substitution.content.generator.jar.LocalJarNameContentGenerator
com.credibledoc.substitution.doc ..> com.credibledoc.substitution.core.resource.TemplateResource
com.credibledoc.substitution.doc ..> com.credibledoc.substitution.reporting.report.document.Document
com.credibledoc.substitution.doc ..> com.credibledoc.substitution.core.context.SubstitutionContext
com.credibledoc.substitution.doc ..> com.credibledoc.substitution.reporting.reportdocument.ReportDocumentType
com.credibledoc.substitution.doc ..> com.credibledoc.substitution.core.resource.ResourceType
com.credibledoc.substitution.doc ..> com.credibledoc.substitution.core.placeholder.PlaceholderService
com.credibledoc.substitution.doc ..> com.credibledoc.substitution.core.template.TemplateService
com.credibledoc.substitution.doc ..> com.credibledoc.substitution.core.resource.ResourceService
com.credibledoc.substitution.doc ..> com.credibledoc.substitution.core.content.ContentGenerator
com.credibledoc.substitution.doc ..> com.credibledoc.substitution.core.placeholder.Placeholder
com.credibledoc.substitution.doc ..> com.credibledoc.substitution.core.content.Content
com.credibledoc.substitution.doc ..> com.credibledoc.substitution.reporting.replacement.ReplacementService
com.credibledoc.substitution.doc ..> com.credibledoc.substitution.reporting.reportdocument.ReportDocument
com.credibledoc.substitution.doc ..> com.credibledoc.substitution.reporting.reportdocument.creator.ReportDocumentCreator
com.credibledoc.substitution.doc ..> com.credibledoc.substitution.core.exception.SubstitutionRuntimeException
@enduml

PlantUML version 1.2022.4(Sat Apr 09 15:29:17 CEST 2022)
(GPL source distribution)
Java Runtime: Java(TM) SE Runtime Environment
JVM: Java HotSpot(TM) 64-Bit Server VM
Default Encoding: UTF-8
Language: en
Country: GB
-->
  </g>
</svg>
