<svg xmlns="http://www.w3.org/2000/svg" xmlns:xlink="http://www.w3.org/1999/xlink" contentScriptType="application/ecmascript" contentStyleType="text/css" height="1509px" preserveAspectRatio="none" style="width:749px;height:1509px;" version="1.1" viewBox="0 0 749 1509" width="749px" zoomAndPan="magnify">
  <defs>
    <filter height="300%" id="f1pcqqcz8laoyc" width="300%" x="-1" y="-1">
      <feGaussianBlur result="blurOut" stdDeviation="2.0"/>
      <feColorMatrix in="blurOut" result="blurOut2" type="matrix" values="0 0 0 0 0 0 0 0 0 0 0 0 0 0 0 0 0 0 .4 0"/>
      <feOffset dx="4.0" dy="4.0" in="blurOut2" result="blurOut3"/>
      <feBlend in="SourceGraphic" in2="blurOut3" mode="normal"/>
    </filter>
  </defs>
  <g>
    <!--cluster com.credibledoc.substitution-->
    <polygon fill="#FFFFFF" filter="url(#f1pcqqcz8laoyc)" points="14,698,225,698,232,721.6094,235,721.6094,235,782,14,782,14,698" style="stroke: #000000; stroke-width: 1.5;"/>
    <line style="stroke: #000000; stroke-width: 1.5;" x1="14" x2="232" y1="721.6094" y2="721.6094"/>
    <text fill="#000000" font-family="sans-serif" font-size="14" font-weight="bold" lengthAdjust="spacingAndGlyphs" textLength="205" x="18" y="714.5332">com.credibledoc.substitution</text>
    <!--cluster com.credibledoc.substitution.reporting.report.document-->
    <polygon fill="#FFFFFF" filter="url(#f1pcqqcz8laoyc)" points="288,24,691,24,698,47.6094,701,47.6094,701,108,288,108,288,24" style="stroke: #000000; stroke-width: 1.5;"/>
    <line style="stroke: #000000; stroke-width: 1.5;" x1="288" x2="698" y1="47.6094" y2="47.6094"/>
    <text fill="#000000" font-family="sans-serif" font-size="14" font-weight="bold" lengthAdjust="spacingAndGlyphs" textLength="397" x="292" y="40.5332">com.credibledoc.substitution.reporting.report.document</text>
    <!--cluster com.credibledoc.substitution.core.exception-->
    <polygon fill="#FFFFFF" filter="url(#f1pcqqcz8laoyc)" points="329,132,650,132,657,155.6094,660,155.6094,660,216,329,216,329,132" style="stroke: #000000; stroke-width: 1.5;"/>
    <line style="stroke: #000000; stroke-width: 1.5;" x1="329" x2="657" y1="155.6094" y2="155.6094"/>
    <text fill="#000000" font-family="sans-serif" font-size="14" font-weight="bold" lengthAdjust="spacingAndGlyphs" textLength="315" x="333" y="148.5332">com.credibledoc.substitution.core.exception</text>
    <!--cluster com.credibledoc.substitution.reporting.reportdocument-->
    <polygon fill="#FFFFFF" filter="url(#f1pcqqcz8laoyc)" points="290.5,240,689.5,240,696.5,263.6094,699.5,263.6094,699.5,391,290.5,391,290.5,240" style="stroke: #000000; stroke-width: 1.5;"/>
    <line style="stroke: #000000; stroke-width: 1.5;" x1="290.5" x2="696.5" y1="263.6094" y2="263.6094"/>
    <text fill="#000000" font-family="sans-serif" font-size="14" font-weight="bold" lengthAdjust="spacingAndGlyphs" textLength="393" x="294.5" y="256.5332">com.credibledoc.substitution.reporting.reportdocument</text>
    <!--cluster com.credibledoc.substitution.content.generator.jar-->
    <polygon fill="#FFFFFF" filter="url(#f1pcqqcz8laoyc)" points="307,415,672,415,679,438.6094,682,438.6094,682,499,307,499,307,415" style="stroke: #000000; stroke-width: 1.5;"/>
    <line style="stroke: #000000; stroke-width: 1.5;" x1="307" x2="679" y1="438.6094" y2="438.6094"/>
    <text fill="#000000" font-family="sans-serif" font-size="14" font-weight="bold" lengthAdjust="spacingAndGlyphs" textLength="359" x="311" y="431.5332">com.credibledoc.substitution.content.generator.jar</text>
    <!--cluster com.credibledoc.substitution.core.placeholder-->
    <polygon fill="#FFFFFF" filter="url(#f1pcqqcz8laoyc)" points="322.5,523,657.5,523,664.5,546.6094,667.5,546.6094,667.5,674,322.5,674,322.5,523" style="stroke: #000000; stroke-width: 1.5;"/>
    <line style="stroke: #000000; stroke-width: 1.5;" x1="322.5" x2="664.5" y1="546.6094" y2="546.6094"/>
    <text fill="#000000" font-family="sans-serif" font-size="14" font-weight="bold" lengthAdjust="spacingAndGlyphs" textLength="329" x="326.5" y="539.5332">com.credibledoc.substitution.core.placeholder</text>
    <!--cluster com.credibledoc.substitution.reporting.reportdocument.creator-->
    <polygon fill="#FFFFFF" filter="url(#f1pcqqcz8laoyc)" points="263,698,717,698,724,721.6094,727,721.6094,727,782,263,782,263,698" style="stroke: #000000; stroke-width: 1.5;"/>
    <line style="stroke: #000000; stroke-width: 1.5;" x1="263" x2="724" y1="721.6094" y2="721.6094"/>
    <text fill="#000000" font-family="sans-serif" font-size="14" font-weight="bold" lengthAdjust="spacingAndGlyphs" textLength="448" x="267" y="714.5332">com.credibledoc.substitution.reporting.reportdocument.creator</text>
    <!--cluster com.credibledoc.substitution.core.template-->
    <polygon fill="#FFFFFF" filter="url(#f1pcqqcz8laoyc)" points="333.5,806,645.5,806,652.5,829.6094,655.5,829.6094,655.5,890,333.5,890,333.5,806" style="stroke: #000000; stroke-width: 1.5;"/>
    <line style="stroke: #000000; stroke-width: 1.5;" x1="333.5" x2="652.5" y1="829.6094" y2="829.6094"/>
    <text fill="#000000" font-family="sans-serif" font-size="14" font-weight="bold" lengthAdjust="spacingAndGlyphs" textLength="306" x="337.5" y="822.5332">com.credibledoc.substitution.core.template</text>
    <!--cluster com.credibledoc.substitution.core.configuration-->
    <polygon fill="#FFFFFF" filter="url(#f1pcqqcz8laoyc)" points="317.5,914,662.5,914,669.5,937.6094,672.5,937.6094,672.5,998,317.5,998,317.5,914" style="stroke: #000000; stroke-width: 1.5;"/>
    <line style="stroke: #000000; stroke-width: 1.5;" x1="317.5" x2="669.5" y1="937.6094" y2="937.6094"/>
    <text fill="#000000" font-family="sans-serif" font-size="14" font-weight="bold" lengthAdjust="spacingAndGlyphs" textLength="339" x="321.5" y="930.5332">com.credibledoc.substitution.core.configuration</text>
    <!--cluster com.credibledoc.substitution.reporting.markdown-->
    <polygon fill="#FFFFFF" filter="url(#f1pcqqcz8laoyc)" points="311.5,1022,668.5,1022,675.5,1045.6094,678.5,1045.6094,678.5,1106,311.5,1106,311.5,1022" style="stroke: #000000; stroke-width: 1.5;"/>
    <line style="stroke: #000000; stroke-width: 1.5;" x1="311.5" x2="675.5" y1="1045.6094" y2="1045.6094"/>
    <text fill="#000000" font-family="sans-serif" font-size="14" font-weight="bold" lengthAdjust="spacingAndGlyphs" textLength="351" x="315.5" y="1038.5332">com.credibledoc.substitution.reporting.markdown</text>
    <!--cluster com.credibledoc.substitution.core.resource-->
    <polygon fill="#FFFFFF" filter="url(#f1pcqqcz8laoyc)" points="332.5,1130,647.5,1130,654.5,1153.6094,657.5,1153.6094,657.5,1214,332.5,1214,332.5,1130" style="stroke: #000000; stroke-width: 1.5;"/>
    <line style="stroke: #000000; stroke-width: 1.5;" x1="332.5" x2="654.5" y1="1153.6094" y2="1153.6094"/>
    <text fill="#000000" font-family="sans-serif" font-size="14" font-weight="bold" lengthAdjust="spacingAndGlyphs" textLength="309" x="336.5" y="1146.5332">com.credibledoc.substitution.core.resource</text>
    <!--cluster com.credibledoc.substitution.core.content-->
    <polygon fill="#FFFFFF" filter="url(#f1pcqqcz8laoyc)" points="337.5,1238,642.5,1238,649.5,1261.6094,652.5,1261.6094,652.5,1389,337.5,1389,337.5,1238" style="stroke: #000000; stroke-width: 1.5;"/>
    <line style="stroke: #000000; stroke-width: 1.5;" x1="337.5" x2="649.5" y1="1261.6094" y2="1261.6094"/>
    <text fill="#000000" font-family="sans-serif" font-size="14" font-weight="bold" lengthAdjust="spacingAndGlyphs" textLength="299" x="341.5" y="1254.5332">com.credibledoc.substitution.core.content</text>
    <!--cluster com.credibledoc.substitution.reporting.report-->
    <polygon fill="#FFFFFF" filter="url(#f1pcqqcz8laoyc)" points="325,1413,654,1413,661,1436.6094,664,1436.6094,664,1497,325,1497,325,1413" style="stroke: #000000; stroke-width: 1.5;"/>
    <line style="stroke: #000000; stroke-width: 1.5;" x1="325" x2="661" y1="1436.6094" y2="1436.6094"/>
    <text fill="#000000" font-family="sans-serif" font-size="14" font-weight="bold" lengthAdjust="spacingAndGlyphs" textLength="323" x="329" y="1429.5332">com.credibledoc.substitution.reporting.report</text>
    <!--class com.credibledoc.substitution.doc-->
    <rect fill="#98FB98" filter="url(#f1pcqqcz8laoyc)" height="32" id="com.credibledoc.substitution.doc" style="stroke: #00FF7F; stroke-width: 1.5;" width="52" x="98" y="734"/>
    <ellipse cx="113" cy="750" fill="#20B2AA" rx="11" ry="11" style="stroke: #00FF7F; stroke-width: 1.0;"/>
    <path d="M113.625,751.5469 L113.625,753.2969 L115.3281,753.2969 Q115.9531,753.2969 116.2109,753.5313 Q116.4688,753.7656 116.4688,754.1563 Q116.4688,754.5313 116.2109,754.7656 Q115.9531,755 115.3281,755 L111.6563,755 Q111.0313,755 110.7734,754.7656 Q110.5156,754.5313 110.5156,754.1406 Q110.5156,753.7656 110.7813,753.5313 Q111.0469,753.2969 111.6563,753.2969 L111.9219,753.2969 L111.9219,746.6406 L111.6563,746.6406 Q111.0313,746.6406 110.7734,746.4063 Q110.5156,746.1719 110.5156,745.7813 Q110.5156,745.4063 110.7734,745.1719 Q111.0313,744.9375 111.6563,744.9375 L115.5625,744.9375 Q117.2969,744.9375 118.3047,745.8828 Q119.3125,746.8281 119.3125,748.1719 Q119.3125,748.9219 118.9688,749.5938 Q118.7188,750.0781 118.1172,750.5703 Q117.5156,751.0625 116.8828,751.3047 Q116.25,751.5469 115.2344,751.5469 L113.625,751.5469 Z M113.625,749.8438 L115.1875,749.8438 Q116.3125,749.8438 116.9609,749.3438 Q117.6094,748.8438 117.6094,748.1406 Q117.6094,747.5313 117.0859,747.0859 Q116.5625,746.6406 115.5781,746.6406 L113.625,746.6406 L113.625,749.8438 Z "/>
    <text fill="#000000" font-family="sans-serif" font-size="12" lengthAdjust="spacingAndGlyphs" textLength="20" x="127" y="754.9102">doc</text>
    <!--class com.credibledoc.substitution.reporting.report.document.Document-->
    <rect fill="#98FB98" filter="url(#f1pcqqcz8laoyc)" height="32" id="com.credibledoc.substitution.reporting.report.document.Document" style="stroke: #00FF7F; stroke-width: 1.5;" width="89" x="450" y="60"/>
    <ellipse cx="465" cy="76" fill="#9ACD32" rx="11" ry="11" style="stroke: #00FF7F; stroke-width: 1.0;"/>
    <path d="M467.7656,71.875 Q467.9219,71.6563 468.1094,71.5469 Q468.2969,71.4375 468.5156,71.4375 Q468.8906,71.4375 469.125,71.6953 Q469.3594,71.9531 469.3594,72.5625 L469.3594,74.0156 Q469.3594,74.625 469.125,74.8906 Q468.8906,75.1563 468.5156,75.1563 Q468.1719,75.1563 467.9688,74.9531 Q467.7656,74.7656 467.6563,74.25 Q467.6094,73.8906 467.4219,73.7031 Q467.0938,73.3281 466.4844,73.1094 Q465.875,72.8906 465.25,72.8906 Q464.4844,72.8906 463.8516,73.2188 Q463.2188,73.5469 462.7266,74.2969 Q462.2344,75.0469 462.2344,76.0781 L462.2344,77.1719 Q462.2344,78.4063 463.125,79.2266 Q464.0156,80.0469 465.6094,80.0469 Q466.5469,80.0469 467.2031,79.7969 Q467.5938,79.6406 468.0156,79.2031 Q468.2813,78.9375 468.4297,78.8594 Q468.5781,78.7813 468.7813,78.7813 Q469.1094,78.7813 469.3672,79.0391 Q469.625,79.2969 469.625,79.6406 Q469.625,79.9844 469.2813,80.3906 Q468.7813,80.9688 467.9844,81.2969 Q466.9063,81.75 465.6094,81.75 Q464.0938,81.75 462.8906,81.125 Q461.9063,80.625 461.2188,79.5547 Q460.5313,78.4844 460.5313,77.2031 L460.5313,76.0469 Q460.5313,74.7188 461.1484,73.5703 Q461.7656,72.4219 462.8594,71.8047 Q463.9531,71.1875 465.1875,71.1875 Q465.9219,71.1875 466.5703,71.3516 Q467.2188,71.5156 467.7656,71.875 Z "/>
    <text fill="#000000" font-family="sans-serif" font-size="12" lengthAdjust="spacingAndGlyphs" textLength="57" x="479" y="80.9102">Document</text>
    <!--class com.credibledoc.substitution.core.exception.SubstitutionRuntimeException-->
    <rect fill="#98FB98" filter="url(#f1pcqqcz8laoyc)" height="32" id="com.credibledoc.substitution.core.exception.SubstitutionRuntimeException" style="stroke: #00FF7F; stroke-width: 1.5;" width="197" x="396" y="168"/>
    <ellipse cx="411" cy="184" fill="#9ACD32" rx="11" ry="11" style="stroke: #00FF7F; stroke-width: 1.0;"/>
    <path d="M413.7656,179.875 Q413.9219,179.6563 414.1094,179.5469 Q414.2969,179.4375 414.5156,179.4375 Q414.8906,179.4375 415.125,179.6953 Q415.3594,179.9531 415.3594,180.5625 L415.3594,182.0156 Q415.3594,182.625 415.125,182.8906 Q414.8906,183.1563 414.5156,183.1563 Q414.1719,183.1563 413.9688,182.9531 Q413.7656,182.7656 413.6563,182.25 Q413.6094,181.8906 413.4219,181.7031 Q413.0938,181.3281 412.4844,181.1094 Q411.875,180.8906 411.25,180.8906 Q410.4844,180.8906 409.8516,181.2188 Q409.2188,181.5469 408.7266,182.2969 Q408.2344,183.0469 408.2344,184.0781 L408.2344,185.1719 Q408.2344,186.4063 409.125,187.2266 Q410.0156,188.0469 411.6094,188.0469 Q412.5469,188.0469 413.2031,187.7969 Q413.5938,187.6406 414.0156,187.2031 Q414.2813,186.9375 414.4297,186.8594 Q414.5781,186.7813 414.7813,186.7813 Q415.1094,186.7813 415.3672,187.0391 Q415.625,187.2969 415.625,187.6406 Q415.625,187.9844 415.2813,188.3906 Q414.7813,188.9688 413.9844,189.2969 Q412.9063,189.75 411.6094,189.75 Q410.0938,189.75 408.8906,189.125 Q407.9063,188.625 407.2188,187.5547 Q406.5313,186.4844 406.5313,185.2031 L406.5313,184.0469 Q406.5313,182.7188 407.1484,181.5703 Q407.7656,180.4219 408.8594,179.8047 Q409.9531,179.1875 411.1875,179.1875 Q411.9219,179.1875 412.5703,179.3516 Q413.2188,179.5156 413.7656,179.875 Z "/>
    <text fill="#000000" font-family="sans-serif" font-size="12" lengthAdjust="spacingAndGlyphs" textLength="165" x="425" y="188.9102">SubstitutionRuntimeException</text>
    <!--class com.credibledoc.substitution.reporting.reportdocument.ReportDocumentType-->
    <rect fill="#98FB98" filter="url(#f1pcqqcz8laoyc)" height="32" id="com.credibledoc.substitution.reporting.reportdocument.ReportDocumentType" style="stroke: #00FF7F; stroke-width: 1.5;" width="152" x="418.5" y="276"/>
    <ellipse cx="433.5" cy="292" fill="#9ACD32" rx="11" ry="11" style="stroke: #00FF7F; stroke-width: 1.0;"/>
    <path d="M436.2656,287.875 Q436.4219,287.6563 436.6094,287.5469 Q436.7969,287.4375 437.0156,287.4375 Q437.3906,287.4375 437.625,287.6953 Q437.8594,287.9531 437.8594,288.5625 L437.8594,290.0156 Q437.8594,290.625 437.625,290.8906 Q437.3906,291.1563 437.0156,291.1563 Q436.6719,291.1563 436.4688,290.9531 Q436.2656,290.7656 436.1563,290.25 Q436.1094,289.8906 435.9219,289.7031 Q435.5938,289.3281 434.9844,289.1094 Q434.375,288.8906 433.75,288.8906 Q432.9844,288.8906 432.3516,289.2188 Q431.7188,289.5469 431.2266,290.2969 Q430.7344,291.0469 430.7344,292.0781 L430.7344,293.1719 Q430.7344,294.4063 431.625,295.2266 Q432.5156,296.0469 434.1094,296.0469 Q435.0469,296.0469 435.7031,295.7969 Q436.0938,295.6406 436.5156,295.2031 Q436.7813,294.9375 436.9297,294.8594 Q437.0781,294.7813 437.2813,294.7813 Q437.6094,294.7813 437.8672,295.0391 Q438.125,295.2969 438.125,295.6406 Q438.125,295.9844 437.7813,296.3906 Q437.2813,296.9688 436.4844,297.2969 Q435.4063,297.75 434.1094,297.75 Q432.5938,297.75 431.3906,297.125 Q430.4063,296.625 429.7188,295.5547 Q429.0313,294.4844 429.0313,293.2031 L429.0313,292.0469 Q429.0313,290.7188 429.6484,289.5703 Q430.2656,288.4219 431.3594,287.8047 Q432.4531,287.1875 433.6875,287.1875 Q434.4219,287.1875 435.0703,287.3516 Q435.7188,287.5156 436.2656,287.875 Z "/>
    <text fill="#000000" font-family="sans-serif" font-size="12" lengthAdjust="spacingAndGlyphs" textLength="120" x="447.5" y="296.9102">ReportDocumentType</text>
    <!--class com.credibledoc.substitution.reporting.reportdocument.ReportDocument-->
    <rect fill="#98FB98" filter="url(#f1pcqqcz8laoyc)" height="32" id="com.credibledoc.substitution.reporting.reportdocument.ReportDocument" style="stroke: #00FF7F; stroke-width: 1.5;" width="126" x="431.5" y="343"/>
    <ellipse cx="446.5" cy="359" fill="#9ACD32" rx="11" ry="11" style="stroke: #00FF7F; stroke-width: 1.0;"/>
    <path d="M449.2656,354.875 Q449.4219,354.6563 449.6094,354.5469 Q449.7969,354.4375 450.0156,354.4375 Q450.3906,354.4375 450.625,354.6953 Q450.8594,354.9531 450.8594,355.5625 L450.8594,357.0156 Q450.8594,357.625 450.625,357.8906 Q450.3906,358.1563 450.0156,358.1563 Q449.6719,358.1563 449.4688,357.9531 Q449.2656,357.7656 449.1563,357.25 Q449.1094,356.8906 448.9219,356.7031 Q448.5938,356.3281 447.9844,356.1094 Q447.375,355.8906 446.75,355.8906 Q445.9844,355.8906 445.3516,356.2188 Q444.7188,356.5469 444.2266,357.2969 Q443.7344,358.0469 443.7344,359.0781 L443.7344,360.1719 Q443.7344,361.4063 444.625,362.2266 Q445.5156,363.0469 447.1094,363.0469 Q448.0469,363.0469 448.7031,362.7969 Q449.0938,362.6406 449.5156,362.2031 Q449.7813,361.9375 449.9297,361.8594 Q450.0781,361.7813 450.2813,361.7813 Q450.6094,361.7813 450.8672,362.0391 Q451.125,362.2969 451.125,362.6406 Q451.125,362.9844 450.7813,363.3906 Q450.2813,363.9688 449.4844,364.2969 Q448.4063,364.75 447.1094,364.75 Q445.5938,364.75 444.3906,364.125 Q443.4063,363.625 442.7188,362.5547 Q442.0313,361.4844 442.0313,360.2031 L442.0313,359.0469 Q442.0313,357.7188 442.6484,356.5703 Q443.2656,355.4219 444.3594,354.8047 Q445.4531,354.1875 446.6875,354.1875 Q447.4219,354.1875 448.0703,354.3516 Q448.7188,354.5156 449.2656,354.875 Z "/>
    <text fill="#000000" font-family="sans-serif" font-size="12" lengthAdjust="spacingAndGlyphs" textLength="94" x="460.5" y="363.9102">ReportDocument</text>
    <!--class com.credibledoc.substitution.content.generator.jar.LocalJarNameContentGenerator-->
    <rect fill="#98FB98" filter="url(#f1pcqqcz8laoyc)" height="32" id="com.credibledoc.substitution.content.generator.jar.LocalJarNameContentGenerator" style="stroke: #00FF7F; stroke-width: 1.5;" width="211" x="389" y="451"/>
    <ellipse cx="404" cy="467" fill="#9ACD32" rx="11" ry="11" style="stroke: #00FF7F; stroke-width: 1.0;"/>
    <path d="M406.7656,462.875 Q406.9219,462.6563 407.1094,462.5469 Q407.2969,462.4375 407.5156,462.4375 Q407.8906,462.4375 408.125,462.6953 Q408.3594,462.9531 408.3594,463.5625 L408.3594,465.0156 Q408.3594,465.625 408.125,465.8906 Q407.8906,466.1563 407.5156,466.1563 Q407.1719,466.1563 406.9688,465.9531 Q406.7656,465.7656 406.6563,465.25 Q406.6094,464.8906 406.4219,464.7031 Q406.0938,464.3281 405.4844,464.1094 Q404.875,463.8906 404.25,463.8906 Q403.4844,463.8906 402.8516,464.2188 Q402.2188,464.5469 401.7266,465.2969 Q401.2344,466.0469 401.2344,467.0781 L401.2344,468.1719 Q401.2344,469.4063 402.125,470.2266 Q403.0156,471.0469 404.6094,471.0469 Q405.5469,471.0469 406.2031,470.7969 Q406.5938,470.6406 407.0156,470.2031 Q407.2813,469.9375 407.4297,469.8594 Q407.5781,469.7813 407.7813,469.7813 Q408.1094,469.7813 408.3672,470.0391 Q408.625,470.2969 408.625,470.6406 Q408.625,470.9844 408.2813,471.3906 Q407.7813,471.9688 406.9844,472.2969 Q405.9063,472.75 404.6094,472.75 Q403.0938,472.75 401.8906,472.125 Q400.9063,471.625 400.2188,470.5547 Q399.5313,469.4844 399.5313,468.2031 L399.5313,467.0469 Q399.5313,465.7188 400.1484,464.5703 Q400.7656,463.4219 401.8594,462.8047 Q402.9531,462.1875 404.1875,462.1875 Q404.9219,462.1875 405.5703,462.3516 Q406.2188,462.5156 406.7656,462.875 Z "/>
    <text fill="#000000" font-family="sans-serif" font-size="12" lengthAdjust="spacingAndGlyphs" textLength="179" x="418" y="471.9102">LocalJarNameContentGenerator</text>
    <!--class com.credibledoc.substitution.core.placeholder.PlaceholderService-->
    <rect fill="#98FB98" filter="url(#f1pcqqcz8laoyc)" height="32" id="com.credibledoc.substitution.core.placeholder.PlaceholderService" style="stroke: #00FF7F; stroke-width: 1.5;" width="138" x="425.5" y="559"/>
    <ellipse cx="440.5" cy="575" fill="#9ACD32" rx="11" ry="11" style="stroke: #00FF7F; stroke-width: 1.0;"/>
    <path d="M443.2656,570.875 Q443.4219,570.6563 443.6094,570.5469 Q443.7969,570.4375 444.0156,570.4375 Q444.3906,570.4375 444.625,570.6953 Q444.8594,570.9531 444.8594,571.5625 L444.8594,573.0156 Q444.8594,573.625 444.625,573.8906 Q444.3906,574.1563 444.0156,574.1563 Q443.6719,574.1563 443.4688,573.9531 Q443.2656,573.7656 443.1563,573.25 Q443.1094,572.8906 442.9219,572.7031 Q442.5938,572.3281 441.9844,572.1094 Q441.375,571.8906 440.75,571.8906 Q439.9844,571.8906 439.3516,572.2188 Q438.7188,572.5469 438.2266,573.2969 Q437.7344,574.0469 437.7344,575.0781 L437.7344,576.1719 Q437.7344,577.4063 438.625,578.2266 Q439.5156,579.0469 441.1094,579.0469 Q442.0469,579.0469 442.7031,578.7969 Q443.0938,578.6406 443.5156,578.2031 Q443.7813,577.9375 443.9297,577.8594 Q444.0781,577.7813 444.2813,577.7813 Q444.6094,577.7813 444.8672,578.0391 Q445.125,578.2969 445.125,578.6406 Q445.125,578.9844 444.7813,579.3906 Q444.2813,579.9688 443.4844,580.2969 Q442.4063,580.75 441.1094,580.75 Q439.5938,580.75 438.3906,580.125 Q437.4063,579.625 436.7188,578.5547 Q436.0313,577.4844 436.0313,576.2031 L436.0313,575.0469 Q436.0313,573.7188 436.6484,572.5703 Q437.2656,571.4219 438.3594,570.8047 Q439.4531,570.1875 440.6875,570.1875 Q441.4219,570.1875 442.0703,570.3516 Q442.7188,570.5156 443.2656,570.875 Z "/>
    <text fill="#000000" font-family="sans-serif" font-size="12" lengthAdjust="spacingAndGlyphs" textLength="106" x="454.5" y="579.9102">PlaceholderService</text>
    <!--class com.credibledoc.substitution.core.placeholder.Placeholder-->
    <rect fill="#98FB98" filter="url(#f1pcqqcz8laoyc)" height="32" id="com.credibledoc.substitution.core.placeholder.Placeholder" style="stroke: #00FF7F; stroke-width: 1.5;" width="98" x="445.5" y="626"/>
    <ellipse cx="460.5" cy="642" fill="#9ACD32" rx="11" ry="11" style="stroke: #00FF7F; stroke-width: 1.0;"/>
    <path d="M463.2656,637.875 Q463.4219,637.6563 463.6094,637.5469 Q463.7969,637.4375 464.0156,637.4375 Q464.3906,637.4375 464.625,637.6953 Q464.8594,637.9531 464.8594,638.5625 L464.8594,640.0156 Q464.8594,640.625 464.625,640.8906 Q464.3906,641.1563 464.0156,641.1563 Q463.6719,641.1563 463.4688,640.9531 Q463.2656,640.7656 463.1563,640.25 Q463.1094,639.8906 462.9219,639.7031 Q462.5938,639.3281 461.9844,639.1094 Q461.375,638.8906 460.75,638.8906 Q459.9844,638.8906 459.3516,639.2188 Q458.7188,639.5469 458.2266,640.2969 Q457.7344,641.0469 457.7344,642.0781 L457.7344,643.1719 Q457.7344,644.4063 458.625,645.2266 Q459.5156,646.0469 461.1094,646.0469 Q462.0469,646.0469 462.7031,645.7969 Q463.0938,645.6406 463.5156,645.2031 Q463.7813,644.9375 463.9297,644.8594 Q464.0781,644.7813 464.2813,644.7813 Q464.6094,644.7813 464.8672,645.0391 Q465.125,645.2969 465.125,645.6406 Q465.125,645.9844 464.7813,646.3906 Q464.2813,646.9688 463.4844,647.2969 Q462.4063,647.75 461.1094,647.75 Q459.5938,647.75 458.3906,647.125 Q457.4063,646.625 456.7188,645.5547 Q456.0313,644.4844 456.0313,643.2031 L456.0313,642.0469 Q456.0313,640.7188 456.6484,639.5703 Q457.2656,638.4219 458.3594,637.8047 Q459.4531,637.1875 460.6875,637.1875 Q461.4219,637.1875 462.0703,637.3516 Q462.7188,637.5156 463.2656,637.875 Z "/>
    <text fill="#000000" font-family="sans-serif" font-size="12" lengthAdjust="spacingAndGlyphs" textLength="66" x="474.5" y="646.9102">Placeholder</text>
    <!--class com.credibledoc.substitution.reporting.reportdocument.creator.ReportDocumentCreator-->
    <rect fill="#98FB98" filter="url(#f1pcqqcz8laoyc)" height="32" id="com.credibledoc.substitution.reporting.reportdocument.creator.ReportDocumentCreator" style="stroke: #00FF7F; stroke-width: 1.5;" width="167" x="411" y="734"/>
    <ellipse cx="426" cy="750" fill="#9ACD32" rx="11" ry="11" style="stroke: #00FF7F; stroke-width: 1.0;"/>
    <path d="M428.7656,745.875 Q428.9219,745.6563 429.1094,745.5469 Q429.2969,745.4375 429.5156,745.4375 Q429.8906,745.4375 430.125,745.6953 Q430.3594,745.9531 430.3594,746.5625 L430.3594,748.0156 Q430.3594,748.625 430.125,748.8906 Q429.8906,749.1563 429.5156,749.1563 Q429.1719,749.1563 428.9688,748.9531 Q428.7656,748.7656 428.6563,748.25 Q428.6094,747.8906 428.4219,747.7031 Q428.0938,747.3281 427.4844,747.1094 Q426.875,746.8906 426.25,746.8906 Q425.4844,746.8906 424.8516,747.2188 Q424.2188,747.5469 423.7266,748.2969 Q423.2344,749.0469 423.2344,750.0781 L423.2344,751.1719 Q423.2344,752.4063 424.125,753.2266 Q425.0156,754.0469 426.6094,754.0469 Q427.5469,754.0469 428.2031,753.7969 Q428.5938,753.6406 429.0156,753.2031 Q429.2813,752.9375 429.4297,752.8594 Q429.5781,752.7813 429.7813,752.7813 Q430.1094,752.7813 430.3672,753.0391 Q430.625,753.2969 430.625,753.6406 Q430.625,753.9844 430.2813,754.3906 Q429.7813,754.9688 428.9844,755.2969 Q427.9063,755.75 426.6094,755.75 Q425.0938,755.75 423.8906,755.125 Q422.9063,754.625 422.2188,753.5547 Q421.5313,752.4844 421.5313,751.2031 L421.5313,750.0469 Q421.5313,748.7188 422.1484,747.5703 Q422.7656,746.4219 423.8594,745.8047 Q424.9531,745.1875 426.1875,745.1875 Q426.9219,745.1875 427.5703,745.3516 Q428.2188,745.5156 428.7656,745.875 Z "/>
    <text fill="#000000" font-family="sans-serif" font-size="12" lengthAdjust="spacingAndGlyphs" textLength="135" x="440" y="754.9102">ReportDocumentCreator</text>
    <!--class com.credibledoc.substitution.core.template.TemplateService-->
    <rect fill="#98FB98" filter="url(#f1pcqqcz8laoyc)" height="32" id="com.credibledoc.substitution.core.template.TemplateService" style="stroke: #00FF7F; stroke-width: 1.5;" width="124" x="432.5" y="842"/>
    <ellipse cx="447.5" cy="858" fill="#9ACD32" rx="11" ry="11" style="stroke: #00FF7F; stroke-width: 1.0;"/>
    <path d="M450.2656,853.875 Q450.4219,853.6563 450.6094,853.5469 Q450.7969,853.4375 451.0156,853.4375 Q451.3906,853.4375 451.625,853.6953 Q451.8594,853.9531 451.8594,854.5625 L451.8594,856.0156 Q451.8594,856.625 451.625,856.8906 Q451.3906,857.1563 451.0156,857.1563 Q450.6719,857.1563 450.4688,856.9531 Q450.2656,856.7656 450.1563,856.25 Q450.1094,855.8906 449.9219,855.7031 Q449.5938,855.3281 448.9844,855.1094 Q448.375,854.8906 447.75,854.8906 Q446.9844,854.8906 446.3516,855.2188 Q445.7188,855.5469 445.2266,856.2969 Q444.7344,857.0469 444.7344,858.0781 L444.7344,859.1719 Q444.7344,860.4063 445.625,861.2266 Q446.5156,862.0469 448.1094,862.0469 Q449.0469,862.0469 449.7031,861.7969 Q450.0938,861.6406 450.5156,861.2031 Q450.7813,860.9375 450.9297,860.8594 Q451.0781,860.7813 451.2813,860.7813 Q451.6094,860.7813 451.8672,861.0391 Q452.125,861.2969 452.125,861.6406 Q452.125,861.9844 451.7813,862.3906 Q451.2813,862.9688 450.4844,863.2969 Q449.4063,863.75 448.1094,863.75 Q446.5938,863.75 445.3906,863.125 Q444.4063,862.625 443.7188,861.5547 Q443.0313,860.4844 443.0313,859.2031 L443.0313,858.0469 Q443.0313,856.7188 443.6484,855.5703 Q444.2656,854.4219 445.3594,853.8047 Q446.4531,853.1875 447.6875,853.1875 Q448.4219,853.1875 449.0703,853.3516 Q449.7188,853.5156 450.2656,853.875 Z "/>
    <text fill="#000000" font-family="sans-serif" font-size="12" lengthAdjust="spacingAndGlyphs" textLength="92" x="461.5" y="862.9102">TemplateService</text>
    <!--class com.credibledoc.substitution.core.configuration.ConfigurationService-->
    <rect fill="#98FB98" filter="url(#f1pcqqcz8laoyc)" height="32" id="com.credibledoc.substitution.core.configuration.ConfigurationService" style="stroke: #00FF7F; stroke-width: 1.5;" width="146" x="421.5" y="950"/>
    <ellipse cx="436.5" cy="966" fill="#9ACD32" rx="11" ry="11" style="stroke: #00FF7F; stroke-width: 1.0;"/>
    <path d="M439.2656,961.875 Q439.4219,961.6563 439.6094,961.5469 Q439.7969,961.4375 440.0156,961.4375 Q440.3906,961.4375 440.625,961.6953 Q440.8594,961.9531 440.8594,962.5625 L440.8594,964.0156 Q440.8594,964.625 440.625,964.8906 Q440.3906,965.1563 440.0156,965.1563 Q439.6719,965.1563 439.4688,964.9531 Q439.2656,964.7656 439.1563,964.25 Q439.1094,963.8906 438.9219,963.7031 Q438.5938,963.3281 437.9844,963.1094 Q437.375,962.8906 436.75,962.8906 Q435.9844,962.8906 435.3516,963.2188 Q434.7188,963.5469 434.2266,964.2969 Q433.7344,965.0469 433.7344,966.0781 L433.7344,967.1719 Q433.7344,968.4063 434.625,969.2266 Q435.5156,970.0469 437.1094,970.0469 Q438.0469,970.0469 438.7031,969.7969 Q439.0938,969.6406 439.5156,969.2031 Q439.7813,968.9375 439.9297,968.8594 Q440.0781,968.7813 440.2813,968.7813 Q440.6094,968.7813 440.8672,969.0391 Q441.125,969.2969 441.125,969.6406 Q441.125,969.9844 440.7813,970.3906 Q440.2813,970.9688 439.4844,971.2969 Q438.4063,971.75 437.1094,971.75 Q435.5938,971.75 434.3906,971.125 Q433.4063,970.625 432.7188,969.5547 Q432.0313,968.4844 432.0313,967.2031 L432.0313,966.0469 Q432.0313,964.7188 432.6484,963.5703 Q433.2656,962.4219 434.3594,961.8047 Q435.4531,961.1875 436.6875,961.1875 Q437.4219,961.1875 438.0703,961.3516 Q438.7188,961.5156 439.2656,961.875 Z "/>
    <text fill="#000000" font-family="sans-serif" font-size="12" lengthAdjust="spacingAndGlyphs" textLength="114" x="450.5" y="970.9102">ConfigurationService</text>
    <!--class com.credibledoc.substitution.reporting.markdown.MarkdownService-->
    <rect fill="#98FB98" filter="url(#f1pcqqcz8laoyc)" height="32" id="com.credibledoc.substitution.reporting.markdown.MarkdownService" style="stroke: #00FF7F; stroke-width: 1.5;" width="128" x="430.5" y="1058"/>
    <ellipse cx="445.5" cy="1074" fill="#9ACD32" rx="11" ry="11" style="stroke: #00FF7F; stroke-width: 1.0;"/>
    <path d="M448.2656,1069.875 Q448.4219,1069.6563 448.6094,1069.5469 Q448.7969,1069.4375 449.0156,1069.4375 Q449.3906,1069.4375 449.625,1069.6953 Q449.8594,1069.9531 449.8594,1070.5625 L449.8594,1072.0156 Q449.8594,1072.625 449.625,1072.8906 Q449.3906,1073.1563 449.0156,1073.1563 Q448.6719,1073.1563 448.4688,1072.9531 Q448.2656,1072.7656 448.1563,1072.25 Q448.1094,1071.8906 447.9219,1071.7031 Q447.5938,1071.3281 446.9844,1071.1094 Q446.375,1070.8906 445.75,1070.8906 Q444.9844,1070.8906 444.3516,1071.2188 Q443.7188,1071.5469 443.2266,1072.2969 Q442.7344,1073.0469 442.7344,1074.0781 L442.7344,1075.1719 Q442.7344,1076.4063 443.625,1077.2266 Q444.5156,1078.0469 446.1094,1078.0469 Q447.0469,1078.0469 447.7031,1077.7969 Q448.0938,1077.6406 448.5156,1077.2031 Q448.7813,1076.9375 448.9297,1076.8594 Q449.0781,1076.7813 449.2813,1076.7813 Q449.6094,1076.7813 449.8672,1077.0391 Q450.125,1077.2969 450.125,1077.6406 Q450.125,1077.9844 449.7813,1078.3906 Q449.2813,1078.9688 448.4844,1079.2969 Q447.4063,1079.75 446.1094,1079.75 Q444.5938,1079.75 443.3906,1079.125 Q442.4063,1078.625 441.7188,1077.5547 Q441.0313,1076.4844 441.0313,1075.2031 L441.0313,1074.0469 Q441.0313,1072.7188 441.6484,1071.5703 Q442.2656,1070.4219 443.3594,1069.8047 Q444.4531,1069.1875 445.6875,1069.1875 Q446.4219,1069.1875 447.0703,1069.3516 Q447.7188,1069.5156 448.2656,1069.875 Z "/>
    <text fill="#000000" font-family="sans-serif" font-size="12" lengthAdjust="spacingAndGlyphs" textLength="96" x="459.5" y="1078.9102">MarkdownService</text>
    <!--class com.credibledoc.substitution.core.resource.ResourceService-->
    <rect fill="#98FB98" filter="url(#f1pcqqcz8laoyc)" height="32" id="com.credibledoc.substitution.core.resource.ResourceService" style="stroke: #00FF7F; stroke-width: 1.5;" width="126" x="431.5" y="1166"/>
    <ellipse cx="446.5" cy="1182" fill="#9ACD32" rx="11" ry="11" style="stroke: #00FF7F; stroke-width: 1.0;"/>
    <path d="M449.2656,1177.875 Q449.4219,1177.6563 449.6094,1177.5469 Q449.7969,1177.4375 450.0156,1177.4375 Q450.3906,1177.4375 450.625,1177.6953 Q450.8594,1177.9531 450.8594,1178.5625 L450.8594,1180.0156 Q450.8594,1180.625 450.625,1180.8906 Q450.3906,1181.1563 450.0156,1181.1563 Q449.6719,1181.1563 449.4688,1180.9531 Q449.2656,1180.7656 449.1563,1180.25 Q449.1094,1179.8906 448.9219,1179.7031 Q448.5938,1179.3281 447.9844,1179.1094 Q447.375,1178.8906 446.75,1178.8906 Q445.9844,1178.8906 445.3516,1179.2188 Q444.7188,1179.5469 444.2266,1180.2969 Q443.7344,1181.0469 443.7344,1182.0781 L443.7344,1183.1719 Q443.7344,1184.4063 444.625,1185.2266 Q445.5156,1186.0469 447.1094,1186.0469 Q448.0469,1186.0469 448.7031,1185.7969 Q449.0938,1185.6406 449.5156,1185.2031 Q449.7813,1184.9375 449.9297,1184.8594 Q450.0781,1184.7813 450.2813,1184.7813 Q450.6094,1184.7813 450.8672,1185.0391 Q451.125,1185.2969 451.125,1185.6406 Q451.125,1185.9844 450.7813,1186.3906 Q450.2813,1186.9688 449.4844,1187.2969 Q448.4063,1187.75 447.1094,1187.75 Q445.5938,1187.75 444.3906,1187.125 Q443.4063,1186.625 442.7188,1185.5547 Q442.0313,1184.4844 442.0313,1183.2031 L442.0313,1182.0469 Q442.0313,1180.7188 442.6484,1179.5703 Q443.2656,1178.4219 444.3594,1177.8047 Q445.4531,1177.1875 446.6875,1177.1875 Q447.4219,1177.1875 448.0703,1177.3516 Q448.7188,1177.5156 449.2656,1177.875 Z "/>
    <text fill="#000000" font-family="sans-serif" font-size="12" lengthAdjust="spacingAndGlyphs" textLength="94" x="460.5" y="1186.9102">ResourceService</text>
    <!--class com.credibledoc.substitution.core.content.ContentGenerator-->
    <rect fill="#98FB98" filter="url(#f1pcqqcz8laoyc)" height="32" id="com.credibledoc.substitution.core.content.ContentGenerator" style="stroke: #00FF7F; stroke-width: 1.5;" width="130" x="429.5" y="1274"/>
    <ellipse cx="444.5" cy="1290" fill="#9ACD32" rx="11" ry="11" style="stroke: #00FF7F; stroke-width: 1.0;"/>
    <path d="M447.2656,1285.875 Q447.4219,1285.6563 447.6094,1285.5469 Q447.7969,1285.4375 448.0156,1285.4375 Q448.3906,1285.4375 448.625,1285.6953 Q448.8594,1285.9531 448.8594,1286.5625 L448.8594,1288.0156 Q448.8594,1288.625 448.625,1288.8906 Q448.3906,1289.1563 448.0156,1289.1563 Q447.6719,1289.1563 447.4688,1288.9531 Q447.2656,1288.7656 447.1563,1288.25 Q447.1094,1287.8906 446.9219,1287.7031 Q446.5938,1287.3281 445.9844,1287.1094 Q445.375,1286.8906 444.75,1286.8906 Q443.9844,1286.8906 443.3516,1287.2188 Q442.7188,1287.5469 442.2266,1288.2969 Q441.7344,1289.0469 441.7344,1290.0781 L441.7344,1291.1719 Q441.7344,1292.4063 442.625,1293.2266 Q443.5156,1294.0469 445.1094,1294.0469 Q446.0469,1294.0469 446.7031,1293.7969 Q447.0938,1293.6406 447.5156,1293.2031 Q447.7813,1292.9375 447.9297,1292.8594 Q448.0781,1292.7813 448.2813,1292.7813 Q448.6094,1292.7813 448.8672,1293.0391 Q449.125,1293.2969 449.125,1293.6406 Q449.125,1293.9844 448.7813,1294.3906 Q448.2813,1294.9688 447.4844,1295.2969 Q446.4063,1295.75 445.1094,1295.75 Q443.5938,1295.75 442.3906,1295.125 Q441.4063,1294.625 440.7188,1293.5547 Q440.0313,1292.4844 440.0313,1291.2031 L440.0313,1290.0469 Q440.0313,1288.7188 440.6484,1287.5703 Q441.2656,1286.4219 442.3594,1285.8047 Q443.4531,1285.1875 444.6875,1285.1875 Q445.4219,1285.1875 446.0703,1285.3516 Q446.7188,1285.5156 447.2656,1285.875 Z "/>
    <text fill="#000000" font-family="sans-serif" font-size="12" lengthAdjust="spacingAndGlyphs" textLength="98" x="458.5" y="1294.9102">ContentGenerator</text>
    <!--class com.credibledoc.substitution.core.content.Content-->
    <rect fill="#98FB98" filter="url(#f1pcqqcz8laoyc)" height="32" id="com.credibledoc.substitution.core.content.Content" style="stroke: #00FF7F; stroke-width: 1.5;" width="75" x="457" y="1341"/>
    <ellipse cx="472" cy="1357" fill="#9ACD32" rx="11" ry="11" style="stroke: #00FF7F; stroke-width: 1.0;"/>
    <path d="M474.7656,1352.875 Q474.9219,1352.6563 475.1094,1352.5469 Q475.2969,1352.4375 475.5156,1352.4375 Q475.8906,1352.4375 476.125,1352.6953 Q476.3594,1352.9531 476.3594,1353.5625 L476.3594,1355.0156 Q476.3594,1355.625 476.125,1355.8906 Q475.8906,1356.1563 475.5156,1356.1563 Q475.1719,1356.1563 474.9688,1355.9531 Q474.7656,1355.7656 474.6563,1355.25 Q474.6094,1354.8906 474.4219,1354.7031 Q474.0938,1354.3281 473.4844,1354.1094 Q472.875,1353.8906 472.25,1353.8906 Q471.4844,1353.8906 470.8516,1354.2188 Q470.2188,1354.5469 469.7266,1355.2969 Q469.2344,1356.0469 469.2344,1357.0781 L469.2344,1358.1719 Q469.2344,1359.4063 470.125,1360.2266 Q471.0156,1361.0469 472.6094,1361.0469 Q473.5469,1361.0469 474.2031,1360.7969 Q474.5938,1360.6406 475.0156,1360.2031 Q475.2813,1359.9375 475.4297,1359.8594 Q475.5781,1359.7813 475.7813,1359.7813 Q476.1094,1359.7813 476.3672,1360.0391 Q476.625,1360.2969 476.625,1360.6406 Q476.625,1360.9844 476.2813,1361.3906 Q475.7813,1361.9688 474.9844,1362.2969 Q473.9063,1362.75 472.6094,1362.75 Q471.0938,1362.75 469.8906,1362.125 Q468.9063,1361.625 468.2188,1360.5547 Q467.5313,1359.4844 467.5313,1358.2031 L467.5313,1357.0469 Q467.5313,1355.7188 468.1484,1354.5703 Q468.7656,1353.4219 469.8594,1352.8047 Q470.9531,1352.1875 472.1875,1352.1875 Q472.9219,1352.1875 473.5703,1352.3516 Q474.2188,1352.5156 474.7656,1352.875 Z "/>
    <text fill="#000000" font-family="sans-serif" font-size="12" lengthAdjust="spacingAndGlyphs" textLength="43" x="486" y="1361.9102">Content</text>
    <!--class com.credibledoc.substitution.reporting.report.ReportService-->
    <rect fill="#98FB98" filter="url(#f1pcqqcz8laoyc)" height="32" id="com.credibledoc.substitution.reporting.report.ReportService" style="stroke: #00FF7F; stroke-width: 1.5;" width="109" x="440" y="1449"/>
    <ellipse cx="455" cy="1465" fill="#9ACD32" rx="11" ry="11" style="stroke: #00FF7F; stroke-width: 1.0;"/>
    <path d="M457.7656,1460.875 Q457.9219,1460.6563 458.1094,1460.5469 Q458.2969,1460.4375 458.5156,1460.4375 Q458.8906,1460.4375 459.125,1460.6953 Q459.3594,1460.9531 459.3594,1461.5625 L459.3594,1463.0156 Q459.3594,1463.625 459.125,1463.8906 Q458.8906,1464.1563 458.5156,1464.1563 Q458.1719,1464.1563 457.9688,1463.9531 Q457.7656,1463.7656 457.6563,1463.25 Q457.6094,1462.8906 457.4219,1462.7031 Q457.0938,1462.3281 456.4844,1462.1094 Q455.875,1461.8906 455.25,1461.8906 Q454.4844,1461.8906 453.8516,1462.2188 Q453.2188,1462.5469 452.7266,1463.2969 Q452.2344,1464.0469 452.2344,1465.0781 L452.2344,1466.1719 Q452.2344,1467.4063 453.125,1468.2266 Q454.0156,1469.0469 455.6094,1469.0469 Q456.5469,1469.0469 457.2031,1468.7969 Q457.5938,1468.6406 458.0156,1468.2031 Q458.2813,1467.9375 458.4297,1467.8594 Q458.5781,1467.7813 458.7813,1467.7813 Q459.1094,1467.7813 459.3672,1468.0391 Q459.625,1468.2969 459.625,1468.6406 Q459.625,1468.9844 459.2813,1469.3906 Q458.7813,1469.9688 457.9844,1470.2969 Q456.9063,1470.75 455.6094,1470.75 Q454.0938,1470.75 452.8906,1470.125 Q451.9063,1469.625 451.2188,1468.5547 Q450.5313,1467.4844 450.5313,1466.2031 L450.5313,1465.0469 Q450.5313,1463.7188 451.1484,1462.5703 Q451.7656,1461.4219 452.8594,1460.8047 Q453.9531,1460.1875 455.1875,1460.1875 Q455.9219,1460.1875 456.5703,1460.3516 Q457.2188,1460.5156 457.7656,1460.875 Z "/>
    <text fill="#000000" font-family="sans-serif" font-size="12" lengthAdjust="spacingAndGlyphs" textLength="77" x="469" y="1469.9102">ReportService</text>
    <!--link com.credibledoc.substitution.doc to com.credibledoc.substitution.core.configuration.ConfigurationService-->
    <path d="M135.857,766.385 C155.954,795.472 201.789,856.234 255,890 C304.222,921.235 367.345,940.603 416.286,951.965 " fill="none" id="com.credibledoc.substitution.doc-com.credibledoc.substitution.core.configuration.ConfigurationService" style="stroke: #2E8B57; stroke-width: 1.0; stroke-dasharray: 7.0,7.0;"/>
    <polygon fill="#2E8B57" points="421.277,953.107,413.3968,947.1992,416.4031,951.9911,411.6113,954.9974,421.277,953.107" style="stroke: #2E8B57; stroke-width: 1.0;"/>
    <!--link com.credibledoc.substitution.doc to com.credibledoc.substitution.content.generator.jar.LocalJarNameContentGenerator-->
    <path d="M130.653,733.842 C145.061,695.011 186.906,595.767 255,543 C292.872,513.652 342.36,495.49 386.433,484.31 " fill="none" id="com.credibledoc.substitution.doc-com.credibledoc.substitution.content.generator.jar.LocalJarNameContentGenerator" style="stroke: #2E8B57; stroke-width: 1.0; stroke-dasharray: 7.0,7.0;"/>
    <polygon fill="#2E8B57" points="391.504,483.05,381.8049,481.3388,386.6516,484.256,383.7345,489.1026,391.504,483.05" style="stroke: #2E8B57; stroke-width: 1.0;"/>
    <!--link com.credibledoc.substitution.doc to com.credibledoc.substitution.reporting.markdown.MarkdownService-->
    <path d="M128.828,766.031 C140.136,809.905 177.549,932.997 255,998 C303.371,1038.597 373.674,1057.593 425.424,1066.431 " fill="none" id="com.credibledoc.substitution.doc-com.credibledoc.substitution.reporting.markdown.MarkdownService" style="stroke: #2E8B57; stroke-width: 1.0; stroke-dasharray: 7.0,7.0;"/>
    <polygon fill="#2E8B57" points="430.373,1067.255,422.1523,1061.831,425.4409,1066.4337,420.8382,1069.7223,430.373,1067.255" style="stroke: #2E8B57; stroke-width: 1.0;"/>
    <!--link com.credibledoc.substitution.doc to com.credibledoc.substitution.reporting.report.document.Document-->
    <path d="M126.35,733.889 C133.88,647.714 173.315,241.79 255,152 C303.729,98.44 390.064,82.4 444.407,77.74 " fill="none" id="com.credibledoc.substitution.doc-com.credibledoc.substitution.reporting.report.document.Document" style="stroke: #2E8B57; stroke-width: 1.0; stroke-dasharray: 7.0,7.0;"/>
    <polygon fill="#2E8B57" points="449.563,77.32,440.2701,74.0579,444.5792,77.7227,440.9144,82.0319,449.563,77.32" style="stroke: #2E8B57; stroke-width: 1.0;"/>
    <!--link com.credibledoc.substitution.doc to com.credibledoc.substitution.reporting.report.ReportService-->
    <path d="M126.101,766.016 C132.555,855.431 168.222,1292.326 255,1389 C300.628,1439.8317 380.135,1456.8939 434.718,1462.4921 " fill="none" id="com.credibledoc.substitution.doc-com.credibledoc.substitution.reporting.report.ReportService" style="stroke: #2E8B57; stroke-width: 1.0; stroke-dasharray: 7.0,7.0;"/>
    <polygon fill="#2E8B57" points="439.921,1462.9988,431.3521,1458.1434,434.9446,1462.5131,430.575,1466.1056,439.921,1462.9988" style="stroke: #2E8B57; stroke-width: 1.0;"/>
    <!--link com.credibledoc.substitution.doc to com.credibledoc.substitution.reporting.reportdocument.ReportDocumentType-->
    <path d="M124.324,733.682 C122.653,669.838 125.795,435.1 255,325 C298.064,288.3 362.261,281.19 413.207,282.63 " fill="none" id="com.credibledoc.substitution.doc-com.credibledoc.substitution.reporting.reportdocument.ReportDocumentType" style="stroke: #2E8B57; stroke-width: 1.0; stroke-dasharray: 7.0,7.0;"/>
    <polygon fill="#2E8B57" points="418.407,282.81,409.5498,278.5031,413.41,282.6382,409.2749,286.4984,418.407,282.81" style="stroke: #2E8B57; stroke-width: 1.0;"/>
    <!--link com.credibledoc.substitution.doc to com.credibledoc.substitution.core.placeholder.PlaceholderService-->
    <path d="M134.367,733.882 C153.001,703.469 197.886,637.988 255,608 C305.898,581.276 370.941,573.741 420.241,572.491 " fill="none" id="com.credibledoc.substitution.doc-com.credibledoc.substitution.core.placeholder.PlaceholderService" style="stroke: #2E8B57; stroke-width: 1.0; stroke-dasharray: 7.0,7.0;"/>
    <polygon fill="#2E8B57" points="425.264,572.384,416.1814,568.5752,420.2651,572.4897,416.3506,576.5734,425.264,572.384" style="stroke: #2E8B57; stroke-width: 1.0;"/>
    <!--link com.credibledoc.substitution.doc to com.credibledoc.substitution.core.template.TemplateService-->
    <path d="M150.039,757.338 C207.852,774.282 351.949,816.514 433.951,840.547 " fill="none" id="com.credibledoc.substitution.doc-com.credibledoc.substitution.core.template.TemplateService" style="stroke: #2E8B57; stroke-width: 1.0; stroke-dasharray: 7.0,7.0;"/>
    <polygon fill="#2E8B57" points="438.776,841.962,431.2635,835.5932,433.9777,840.5564,429.0145,843.2705,438.776,841.962" style="stroke: #2E8B57; stroke-width: 1.0;"/>
    <!--link com.credibledoc.substitution.doc to com.credibledoc.substitution.core.resource.ResourceService-->
    <path d="M126.017,766.152 C130.399,821.814 152.434,1007.618 255,1106 C301.257,1150.37 373.38,1168.84 426.21,1176.527 " fill="none" id="com.credibledoc.substitution.doc-com.credibledoc.substitution.core.resource.ResourceService" style="stroke: #2E8B57; stroke-width: 1.0; stroke-dasharray: 7.0,7.0;"/>
    <polygon fill="#2E8B57" points="431.261,1177.238,422.9051,1172.0246,426.3096,1176.5423,421.792,1179.9468,431.261,1177.238" style="stroke: #2E8B57; stroke-width: 1.0;"/>
    <!--link com.credibledoc.substitution.doc to com.credibledoc.substitution.core.content.ContentGenerator-->
    <path d="M124.425,766.188 C123.007,831.829 126.597,1080.98 255,1214 C299.223,1259.814 370.955,1278.081 424.218,1285.326 " fill="none" id="com.credibledoc.substitution.doc-com.credibledoc.substitution.core.content.ContentGenerator" style="stroke: #2E8B57; stroke-width: 1.0; stroke-dasharray: 7.0,7.0;"/>
    <polygon fill="#2E8B57" points="429.313,1285.993,420.9094,1280.8569,424.3554,1285.3429,419.8693,1288.789,429.313,1285.993" style="stroke: #2E8B57; stroke-width: 1.0;"/>
    <!--link com.credibledoc.substitution.doc to com.credibledoc.substitution.core.placeholder.Placeholder-->
    <path d="M150.039,742.662 C209.322,725.287 359.332,681.322 440.083,657.655 " fill="none" id="com.credibledoc.substitution.doc-com.credibledoc.substitution.core.placeholder.Placeholder" style="stroke: #2E8B57; stroke-width: 1.0; stroke-dasharray: 7.0,7.0;"/>
    <polygon fill="#2E8B57" points="445.3,656.126,435.5385,654.8175,440.5017,657.5316,437.7875,662.4948,445.3,656.126" style="stroke: #2E8B57; stroke-width: 1.0;"/>
    <!--link com.credibledoc.substitution.doc to com.credibledoc.substitution.core.content.Content-->
    <path d="M126.257,766.236 C133.177,851.249 169.49,1244.19 255,1323 C308.331,1372.153 398.843,1370.317 451.696,1364.015 " fill="none" id="com.credibledoc.substitution.doc-com.credibledoc.substitution.core.content.Content" style="stroke: #2E8B57; stroke-width: 1.0; stroke-dasharray: 7.0,7.0;"/>
    <polygon fill="#2E8B57" points="456.69,1363.393,447.2643,1360.5372,451.7284,1364.0116,448.254,1368.4757,456.69,1363.393" style="stroke: #2E8B57; stroke-width: 1.0;"/>
    <!--link com.credibledoc.substitution.doc to com.credibledoc.substitution.reporting.reportdocument.ReportDocument-->
    <path d="M126.875,733.91 C133.722,682.493 162.06,520.536 255,435 C302.085,391.67 373.912,373.04 426.439,365.03 " fill="none" id="com.credibledoc.substitution.doc-com.credibledoc.substitution.reporting.reportdocument.ReportDocument" style="stroke: #2E8B57; stroke-width: 1.0; stroke-dasharray: 7.0,7.0;"/>
    <polygon fill="#2E8B57" points="431.461,364.29,421.9732,361.6479,426.5147,365.0205,423.142,369.562,431.461,364.29" style="stroke: #2E8B57; stroke-width: 1.0;"/>
    <!--link com.credibledoc.substitution.doc to com.credibledoc.substitution.reporting.reportdocument.creator.ReportDocumentCreator-->
    <path d="M150.039,750 C201.634,750 321.952,750 405.523,750 " fill="none" id="com.credibledoc.substitution.doc-com.credibledoc.substitution.reporting.reportdocument.creator.ReportDocumentCreator" style="stroke: #2E8B57; stroke-width: 1.0; stroke-dasharray: 7.0,7.0;"/>
    <polygon fill="#2E8B57" points="410.973,750,401.973,746,405.973,750,401.973,754,410.973,750" style="stroke: #2E8B57; stroke-width: 1.0;"/>
    <!--link com.credibledoc.substitution.doc to com.credibledoc.substitution.core.exception.SubstitutionRuntimeException-->
    <path d="M127.182,733.852 C137.827,657.323 186.576,331.87 255,260 C290.272,222.95 343.532,203.9 390.78,194.14 " fill="none" id="com.credibledoc.substitution.doc-com.credibledoc.substitution.core.exception.SubstitutionRuntimeException" style="stroke: #2E8B57; stroke-width: 1.0; stroke-dasharray: 7.0,7.0;"/>
    <polygon fill="#2E8B57" points="395.92,193.11,386.3097,190.9554,391.0174,194.092,387.8808,198.7996,395.92,193.11" style="stroke: #2E8B57; stroke-width: 1.0;"/>
    <!--
@startuml
left to right direction
hide empty members

skinparam class {
    BackgroundColor PaleGreen
    ArrowColor SeaGreen
    BorderColor SpringGreen
}

Class com.credibledoc.substitution.doc << (P,LightSeaGreen) >>
Class com.credibledoc.substitution.reporting.report.document.Document << (C,YellowGreen) >>
Class com.credibledoc.substitution.core.exception.SubstitutionRuntimeException << (C,YellowGreen) >>
Class com.credibledoc.substitution.reporting.reportdocument.ReportDocumentType << (C,YellowGreen) >>
Class com.credibledoc.substitution.content.generator.jar.LocalJarNameContentGenerator << (C,YellowGreen) >>
Class com.credibledoc.substitution.core.placeholder.PlaceholderService << (C,YellowGreen) >>
Class com.credibledoc.substitution.reporting.reportdocument.creator.ReportDocumentCreator << (C,YellowGreen) >>
Class com.credibledoc.substitution.core.template.TemplateService << (C,YellowGreen) >>
Class com.credibledoc.substitution.core.configuration.ConfigurationService << (C,YellowGreen) >>
Class com.credibledoc.substitution.reporting.markdown.MarkdownService << (C,YellowGreen) >>
Class com.credibledoc.substitution.core.resource.ResourceService << (C,YellowGreen) >>
Class com.credibledoc.substitution.core.content.ContentGenerator << (C,YellowGreen) >>
Class com.credibledoc.substitution.reporting.reportdocument.ReportDocument << (C,YellowGreen) >>
Class com.credibledoc.substitution.core.content.Content << (C,YellowGreen) >>
Class com.credibledoc.substitution.core.placeholder.Placeholder << (C,YellowGreen) >>
Class com.credibledoc.substitution.reporting.report.ReportService << (C,YellowGreen) >>
com.credibledoc.substitution.doc ..> com.credibledoc.substitution.core.configuration.ConfigurationService
com.credibledoc.substitution.doc ..> com.credibledoc.substitution.content.generator.jar.LocalJarNameContentGenerator
com.credibledoc.substitution.doc ..> com.credibledoc.substitution.reporting.markdown.MarkdownService
com.credibledoc.substitution.doc ..> com.credibledoc.substitution.reporting.report.document.Document
com.credibledoc.substitution.doc ..> com.credibledoc.substitution.reporting.report.ReportService
com.credibledoc.substitution.doc ..> com.credibledoc.substitution.reporting.reportdocument.ReportDocumentType
com.credibledoc.substitution.doc ..> com.credibledoc.substitution.core.placeholder.PlaceholderService
com.credibledoc.substitution.doc ..> com.credibledoc.substitution.core.template.TemplateService
com.credibledoc.substitution.doc ..> com.credibledoc.substitution.core.resource.ResourceService
com.credibledoc.substitution.doc ..> com.credibledoc.substitution.core.content.ContentGenerator
com.credibledoc.substitution.doc ..> com.credibledoc.substitution.core.placeholder.Placeholder
com.credibledoc.substitution.doc ..> com.credibledoc.substitution.core.content.Content
com.credibledoc.substitution.doc ..> com.credibledoc.substitution.reporting.reportdocument.ReportDocument
com.credibledoc.substitution.doc ..> com.credibledoc.substitution.reporting.reportdocument.creator.ReportDocumentCreator
com.credibledoc.substitution.doc ..> com.credibledoc.substitution.core.exception.SubstitutionRuntimeException
@enduml

PlantUML version 1.2019.05(Sat Apr 20 18:45:36 CEST 2019)
(GPL source distribution)
Java Runtime: Java(TM) SE Runtime Environment
JVM: Java HotSpot(TM) 64-Bit Server VM
Java Version: 1.8.0_71-b15
Operating System: Windows 7
OS Version: 6.1
Default Encoding: UTF-8
Language: cs
Country: CZ
-->
  </g>
</svg>
