<svg xmlns="http://www.w3.org/2000/svg" xmlns:xlink="http://www.w3.org/1999/xlink" contentScriptType="application/ecmascript" contentStyleType="text/css" height="1638px" preserveAspectRatio="none" style="width:733px;height:1638px;" version="1.1" viewBox="0 0 733 1638" width="733px" zoomAndPan="magnify">
  <defs>
    <filter height="300%" id="fbgkgu3" width="300%" x="-1" y="-1">
      <feGaussianBlur result="blurOut" stdDeviation="2.0"/>
      <feColorMatrix in="blurOut" result="blurOut2" type="matrix" values="0 0 0 0 0 0 0 0 0 0 0 0 0 0 0 0 0 0 .4 0"/>
      <feOffset dx="4.0" dy="4.0" in="blurOut2" result="blurOut3"/>
      <feBlend in="SourceGraphic" in2="blurOut3" mode="normal"/>
    </filter>
  </defs>
  <g>
    <!--cluster com.credibledoc.substitution-->
    <polygon fill="#FFFFFF" filter="url(#fbgkgu3)" points="14,806,225,806,232,829.6094,235,829.6094,235,890,14,890,14,806" style="stroke: #000000; stroke-width: 2.0;"/>
    <line style="stroke: #000000; stroke-width: 2.0;" x1="14" x2="232" y1="829.6094" y2="829.6094"/>
    <text fill="#000000" font-family="sans-serif" font-size="14" font-weight="bold" lengthAdjust="spacingAndGlyphs" textLength="205" x="18" y="822.5332">com.credibledoc.substitution</text>
    <!--cluster com.credibledoc.substitution.core.exception-->
    <polygon fill="#FFFFFF" filter="url(#fbgkgu3)" points="328,24,649,24,656,47.6094,659,47.6094,659,108,328,108,328,24" style="stroke: #000000; stroke-width: 2.0;"/>
    <line style="stroke: #000000; stroke-width: 2.0;" x1="328" x2="656" y1="47.6094" y2="47.6094"/>
    <text fill="#000000" font-family="sans-serif" font-size="14" font-weight="bold" lengthAdjust="spacingAndGlyphs" textLength="315" x="332" y="40.5332">com.credibledoc.substitution.core.exception</text>
    <!--cluster com.credibledoc.substitution.reporting.reportdocument-->
    <polygon fill="#FFFFFF" filter="url(#fbgkgu3)" points="289.5,132,688.5,132,695.5,155.6094,698.5,155.6094,698.5,283,289.5,283,289.5,132" style="stroke: #000000; stroke-width: 2.0;"/>
    <line style="stroke: #000000; stroke-width: 2.0;" x1="289.5" x2="695.5" y1="155.6094" y2="155.6094"/>
    <text fill="#000000" font-family="sans-serif" font-size="14" font-weight="bold" lengthAdjust="spacingAndGlyphs" textLength="393" x="293.5" y="148.5332">com.credibledoc.substitution.reporting.reportdocument</text>
    <!--cluster com.credibledoc.substitution.content.generator.jar-->
    <polygon fill="#FFFFFF" filter="url(#fbgkgu3)" points="306,307,671,307,678,330.6094,681,330.6094,681,391,306,391,306,307" style="stroke: #000000; stroke-width: 2.0;"/>
    <line style="stroke: #000000; stroke-width: 2.0;" x1="306" x2="678" y1="330.6094" y2="330.6094"/>
    <text fill="#000000" font-family="sans-serif" font-size="14" font-weight="bold" lengthAdjust="spacingAndGlyphs" textLength="359" x="310" y="323.5332">com.credibledoc.substitution.content.generator.jar</text>
    <!--cluster com.credibledoc.substitution.reporting.visualizer-->
    <polygon fill="#FFFFFF" filter="url(#fbgkgu3)" points="312,415,665,415,672,438.6094,675,438.6094,675,499,312,499,312,415" style="stroke: #000000; stroke-width: 2.0;"/>
    <line style="stroke: #000000; stroke-width: 2.0;" x1="312" x2="672" y1="438.6094" y2="438.6094"/>
    <text fill="#000000" font-family="sans-serif" font-size="14" font-weight="bold" lengthAdjust="spacingAndGlyphs" textLength="347" x="316" y="431.5332">com.credibledoc.substitution.reporting.visualizer</text>
    <!--cluster com.credibledoc.substitution.core.placeholder-->
    <polygon fill="#FFFFFF" filter="url(#fbgkgu3)" points="321.5,523,656.5,523,663.5,546.6094,666.5,546.6094,666.5,674,321.5,674,321.5,523" style="stroke: #000000; stroke-width: 2.0;"/>
    <line style="stroke: #000000; stroke-width: 2.0;" x1="321.5" x2="663.5" y1="546.6094" y2="546.6094"/>
    <text fill="#000000" font-family="sans-serif" font-size="14" font-weight="bold" lengthAdjust="spacingAndGlyphs" textLength="329" x="325.5" y="539.5332">com.credibledoc.substitution.core.placeholder</text>
    <!--cluster com.credibledoc.substitution.core.template-->
    <polygon fill="#FFFFFF" filter="url(#fbgkgu3)" points="332.5,698,644.5,698,651.5,721.6094,654.5,721.6094,654.5,782,332.5,782,332.5,698" style="stroke: #000000; stroke-width: 2.0;"/>
    <line style="stroke: #000000; stroke-width: 2.0;" x1="332.5" x2="651.5" y1="721.6094" y2="721.6094"/>
    <text fill="#000000" font-family="sans-serif" font-size="14" font-weight="bold" lengthAdjust="spacingAndGlyphs" textLength="306" x="336.5" y="714.5332">com.credibledoc.substitution.core.template</text>
    <!--cluster com.credibledoc.substitution.reporting.reportdocument.creator-->
    <polygon fill="#FFFFFF" filter="url(#fbgkgu3)" points="262,806,716,806,723,829.6094,726,829.6094,726,957,262,957,262,806" style="stroke: #000000; stroke-width: 2.0;"/>
    <line style="stroke: #000000; stroke-width: 2.0;" x1="262" x2="723" y1="829.6094" y2="829.6094"/>
    <text fill="#000000" font-family="sans-serif" font-size="14" font-weight="bold" lengthAdjust="spacingAndGlyphs" textLength="448" x="266" y="822.5332">com.credibledoc.substitution.reporting.reportdocument.creator</text>
    <!--cluster com.credibledoc.substitution.core.configuration-->
    <polygon fill="#FFFFFF" filter="url(#fbgkgu3)" points="316.5,981,661.5,981,668.5,1004.6094,671.5,1004.6094,671.5,1132,316.5,1132,316.5,981" style="stroke: #000000; stroke-width: 2.0;"/>
    <line style="stroke: #000000; stroke-width: 2.0;" x1="316.5" x2="668.5" y1="1004.6094" y2="1004.6094"/>
    <text fill="#000000" font-family="sans-serif" font-size="14" font-weight="bold" lengthAdjust="spacingAndGlyphs" textLength="339" x="320.5" y="997.5332">com.credibledoc.substitution.core.configuration</text>
    <!--cluster com.credibledoc.substitution.reporting.markdown-->
    <polygon fill="#FFFFFF" filter="url(#fbgkgu3)" points="310.5,1156,667.5,1156,674.5,1179.6094,677.5,1179.6094,677.5,1240,310.5,1240,310.5,1156" style="stroke: #000000; stroke-width: 2.0;"/>
    <line style="stroke: #000000; stroke-width: 2.0;" x1="310.5" x2="674.5" y1="1179.6094" y2="1179.6094"/>
    <text fill="#000000" font-family="sans-serif" font-size="14" font-weight="bold" lengthAdjust="spacingAndGlyphs" textLength="351" x="314.5" y="1172.5332">com.credibledoc.substitution.reporting.markdown</text>
    <!--cluster com.credibledoc.substitution.core.resource-->
    <polygon fill="#FFFFFF" filter="url(#fbgkgu3)" points="331.5,1264,646.5,1264,653.5,1287.6094,656.5,1287.6094,656.5,1348,331.5,1348,331.5,1264" style="stroke: #000000; stroke-width: 2.0;"/>
    <line style="stroke: #000000; stroke-width: 2.0;" x1="331.5" x2="653.5" y1="1287.6094" y2="1287.6094"/>
    <text fill="#000000" font-family="sans-serif" font-size="14" font-weight="bold" lengthAdjust="spacingAndGlyphs" textLength="309" x="335.5" y="1280.5332">com.credibledoc.substitution.core.resource</text>
    <!--cluster com.credibledoc.substitution.core.content-->
    <polygon fill="#FFFFFF" filter="url(#fbgkgu3)" points="336.5,1372,641.5,1372,648.5,1395.6094,651.5,1395.6094,651.5,1523,336.5,1523,336.5,1372" style="stroke: #000000; stroke-width: 2.0;"/>
    <line style="stroke: #000000; stroke-width: 2.0;" x1="336.5" x2="648.5" y1="1395.6094" y2="1395.6094"/>
    <text fill="#000000" font-family="sans-serif" font-size="14" font-weight="bold" lengthAdjust="spacingAndGlyphs" textLength="299" x="340.5" y="1388.5332">com.credibledoc.substitution.core.content</text>
    <!--cluster com.credibledoc.substitution.reporting.report-->
    <polygon fill="#FFFFFF" filter="url(#fbgkgu3)" points="324,1547,653,1547,660,1570.6094,663,1570.6094,663,1631,324,1631,324,1547" style="stroke: #000000; stroke-width: 2.0;"/>
    <line style="stroke: #000000; stroke-width: 2.0;" x1="324" x2="660" y1="1570.6094" y2="1570.6094"/>
    <text fill="#000000" font-family="sans-serif" font-size="14" font-weight="bold" lengthAdjust="spacingAndGlyphs" textLength="323" x="328" y="1563.5332">com.credibledoc.substitution.reporting.report</text>
    <!--class com.credibledoc.substitution.doc-->
    <rect fill="#98FB98" filter="url(#fbgkgu3)" height="32" style="stroke: #00FF7F; stroke-width: 1.5;" width="52" x="98" y="842"/>
    <ellipse cx="113" cy="858" fill="#20B2AA" rx="11" ry="11" style="stroke: #00FF7F; stroke-width: 1.0;"/>
    <path d="M113.625,859.5469 L113.625,861.2969 L115.3281,861.2969 Q115.9531,861.2969 116.2109,861.5313 Q116.4688,861.7656 116.4688,862.1563 Q116.4688,862.5313 116.2109,862.7656 Q115.9531,863 115.3281,863 L111.6563,863 Q111.0313,863 110.7734,862.7656 Q110.5156,862.5313 110.5156,862.1406 Q110.5156,861.7656 110.7813,861.5313 Q111.0469,861.2969 111.6563,861.2969 L111.9219,861.2969 L111.9219,854.6406 L111.6563,854.6406 Q111.0313,854.6406 110.7734,854.4063 Q110.5156,854.1719 110.5156,853.7813 Q110.5156,853.4063 110.7734,853.1719 Q111.0313,852.9375 111.6563,852.9375 L115.5625,852.9375 Q117.2969,852.9375 118.3047,853.8828 Q119.3125,854.8281 119.3125,856.1719 Q119.3125,856.9219 118.9688,857.5938 Q118.7188,858.0781 118.1172,858.5703 Q117.5156,859.0625 116.8828,859.3047 Q116.25,859.5469 115.2344,859.5469 L113.625,859.5469 Z M113.625,857.8438 L115.1875,857.8438 Q116.3125,857.8438 116.9609,857.3438 Q117.6094,856.8438 117.6094,856.1406 Q117.6094,855.5313 117.0859,855.0859 Q116.5625,854.6406 115.5781,854.6406 L113.625,854.6406 L113.625,857.8438 Z "/>
    <text fill="#000000" font-family="sans-serif" font-size="12" lengthAdjust="spacingAndGlyphs" textLength="20" x="127" y="862.9102">doc</text>
    <!--class com.credibledoc.substitution.core.exception.SubstitutionRuntimeException-->
    <rect fill="#98FB98" filter="url(#fbgkgu3)" height="32" style="stroke: #00FF7F; stroke-width: 1.5;" width="197" x="395" y="60"/>
    <ellipse cx="410" cy="76" fill="#9ACD32" rx="11" ry="11" style="stroke: #00FF7F; stroke-width: 1.0;"/>
    <path d="M412.7656,71.875 Q412.9219,71.6563 413.1094,71.5469 Q413.2969,71.4375 413.5156,71.4375 Q413.8906,71.4375 414.125,71.6953 Q414.3594,71.9531 414.3594,72.5625 L414.3594,74.0156 Q414.3594,74.625 414.125,74.8906 Q413.8906,75.1563 413.5156,75.1563 Q413.1719,75.1563 412.9688,74.9531 Q412.7656,74.7656 412.6563,74.25 Q412.6094,73.8906 412.4219,73.7031 Q412.0938,73.3281 411.4844,73.1094 Q410.875,72.8906 410.25,72.8906 Q409.4844,72.8906 408.8516,73.2188 Q408.2188,73.5469 407.7266,74.2969 Q407.2344,75.0469 407.2344,76.0781 L407.2344,77.1719 Q407.2344,78.4063 408.125,79.2266 Q409.0156,80.0469 410.6094,80.0469 Q411.5469,80.0469 412.2031,79.7969 Q412.5938,79.6406 413.0156,79.2031 Q413.2813,78.9375 413.4297,78.8594 Q413.5781,78.7813 413.7813,78.7813 Q414.1094,78.7813 414.3672,79.0391 Q414.625,79.2969 414.625,79.6406 Q414.625,79.9844 414.2813,80.3906 Q413.7813,80.9688 412.9844,81.2969 Q411.9063,81.75 410.6094,81.75 Q409.0938,81.75 407.8906,81.125 Q406.9063,80.625 406.2188,79.5547 Q405.5313,78.4844 405.5313,77.2031 L405.5313,76.0469 Q405.5313,74.7188 406.1484,73.5703 Q406.7656,72.4219 407.8594,71.8047 Q408.9531,71.1875 410.1875,71.1875 Q410.9219,71.1875 411.5703,71.3516 Q412.2188,71.5156 412.7656,71.875 Z "/>
    <text fill="#000000" font-family="sans-serif" font-size="12" lengthAdjust="spacingAndGlyphs" textLength="165" x="424" y="80.9102">SubstitutionRuntimeException</text>
    <!--class com.credibledoc.substitution.reporting.reportdocument.ReportDocumentType-->
    <rect fill="#98FB98" filter="url(#fbgkgu3)" height="32" style="stroke: #00FF7F; stroke-width: 1.5;" width="152" x="417.5" y="168"/>
    <ellipse cx="432.5" cy="184" fill="#9ACD32" rx="11" ry="11" style="stroke: #00FF7F; stroke-width: 1.0;"/>
    <path d="M435.2656,179.875 Q435.4219,179.6563 435.6094,179.5469 Q435.7969,179.4375 436.0156,179.4375 Q436.3906,179.4375 436.625,179.6953 Q436.8594,179.9531 436.8594,180.5625 L436.8594,182.0156 Q436.8594,182.625 436.625,182.8906 Q436.3906,183.1563 436.0156,183.1563 Q435.6719,183.1563 435.4688,182.9531 Q435.2656,182.7656 435.1563,182.25 Q435.1094,181.8906 434.9219,181.7031 Q434.5938,181.3281 433.9844,181.1094 Q433.375,180.8906 432.75,180.8906 Q431.9844,180.8906 431.3516,181.2188 Q430.7188,181.5469 430.2266,182.2969 Q429.7344,183.0469 429.7344,184.0781 L429.7344,185.1719 Q429.7344,186.4063 430.625,187.2266 Q431.5156,188.0469 433.1094,188.0469 Q434.0469,188.0469 434.7031,187.7969 Q435.0938,187.6406 435.5156,187.2031 Q435.7813,186.9375 435.9297,186.8594 Q436.0781,186.7813 436.2813,186.7813 Q436.6094,186.7813 436.8672,187.0391 Q437.125,187.2969 437.125,187.6406 Q437.125,187.9844 436.7813,188.3906 Q436.2813,188.9688 435.4844,189.2969 Q434.4063,189.75 433.1094,189.75 Q431.5938,189.75 430.3906,189.125 Q429.4063,188.625 428.7188,187.5547 Q428.0313,186.4844 428.0313,185.2031 L428.0313,184.0469 Q428.0313,182.7188 428.6484,181.5703 Q429.2656,180.4219 430.3594,179.8047 Q431.4531,179.1875 432.6875,179.1875 Q433.4219,179.1875 434.0703,179.3516 Q434.7188,179.5156 435.2656,179.875 Z "/>
    <text fill="#000000" font-family="sans-serif" font-size="12" lengthAdjust="spacingAndGlyphs" textLength="120" x="446.5" y="188.9102">ReportDocumentType</text>
    <!--class com.credibledoc.substitution.reporting.reportdocument.ReportDocument-->
    <rect fill="#98FB98" filter="url(#fbgkgu3)" height="32" style="stroke: #00FF7F; stroke-width: 1.5;" width="126" x="430.5" y="235"/>
    <ellipse cx="445.5" cy="251" fill="#9ACD32" rx="11" ry="11" style="stroke: #00FF7F; stroke-width: 1.0;"/>
    <path d="M448.2656,246.875 Q448.4219,246.6563 448.6094,246.5469 Q448.7969,246.4375 449.0156,246.4375 Q449.3906,246.4375 449.625,246.6953 Q449.8594,246.9531 449.8594,247.5625 L449.8594,249.0156 Q449.8594,249.625 449.625,249.8906 Q449.3906,250.1563 449.0156,250.1563 Q448.6719,250.1563 448.4688,249.9531 Q448.2656,249.7656 448.1563,249.25 Q448.1094,248.8906 447.9219,248.7031 Q447.5938,248.3281 446.9844,248.1094 Q446.375,247.8906 445.75,247.8906 Q444.9844,247.8906 444.3516,248.2188 Q443.7188,248.5469 443.2266,249.2969 Q442.7344,250.0469 442.7344,251.0781 L442.7344,252.1719 Q442.7344,253.4063 443.625,254.2266 Q444.5156,255.0469 446.1094,255.0469 Q447.0469,255.0469 447.7031,254.7969 Q448.0938,254.6406 448.5156,254.2031 Q448.7813,253.9375 448.9297,253.8594 Q449.0781,253.7813 449.2813,253.7813 Q449.6094,253.7813 449.8672,254.0391 Q450.125,254.2969 450.125,254.6406 Q450.125,254.9844 449.7813,255.3906 Q449.2813,255.9688 448.4844,256.2969 Q447.4063,256.75 446.1094,256.75 Q444.5938,256.75 443.3906,256.125 Q442.4063,255.625 441.7188,254.5547 Q441.0313,253.4844 441.0313,252.2031 L441.0313,251.0469 Q441.0313,249.7188 441.6484,248.5703 Q442.2656,247.4219 443.3594,246.8047 Q444.4531,246.1875 445.6875,246.1875 Q446.4219,246.1875 447.0703,246.3516 Q447.7188,246.5156 448.2656,246.875 Z "/>
    <text fill="#000000" font-family="sans-serif" font-size="12" lengthAdjust="spacingAndGlyphs" textLength="94" x="459.5" y="255.9102">ReportDocument</text>
    <!--class com.credibledoc.substitution.content.generator.jar.LocalJarNameContentGenerator-->
    <rect fill="#98FB98" filter="url(#fbgkgu3)" height="32" style="stroke: #00FF7F; stroke-width: 1.5;" width="211" x="388" y="343"/>
    <ellipse cx="403" cy="359" fill="#9ACD32" rx="11" ry="11" style="stroke: #00FF7F; stroke-width: 1.0;"/>
    <path d="M405.7656,354.875 Q405.9219,354.6563 406.1094,354.5469 Q406.2969,354.4375 406.5156,354.4375 Q406.8906,354.4375 407.125,354.6953 Q407.3594,354.9531 407.3594,355.5625 L407.3594,357.0156 Q407.3594,357.625 407.125,357.8906 Q406.8906,358.1563 406.5156,358.1563 Q406.1719,358.1563 405.9688,357.9531 Q405.7656,357.7656 405.6563,357.25 Q405.6094,356.8906 405.4219,356.7031 Q405.0938,356.3281 404.4844,356.1094 Q403.875,355.8906 403.25,355.8906 Q402.4844,355.8906 401.8516,356.2188 Q401.2188,356.5469 400.7266,357.2969 Q400.2344,358.0469 400.2344,359.0781 L400.2344,360.1719 Q400.2344,361.4063 401.125,362.2266 Q402.0156,363.0469 403.6094,363.0469 Q404.5469,363.0469 405.2031,362.7969 Q405.5938,362.6406 406.0156,362.2031 Q406.2813,361.9375 406.4297,361.8594 Q406.5781,361.7813 406.7813,361.7813 Q407.1094,361.7813 407.3672,362.0391 Q407.625,362.2969 407.625,362.6406 Q407.625,362.9844 407.2813,363.3906 Q406.7813,363.9688 405.9844,364.2969 Q404.9063,364.75 403.6094,364.75 Q402.0938,364.75 400.8906,364.125 Q399.9063,363.625 399.2188,362.5547 Q398.5313,361.4844 398.5313,360.2031 L398.5313,359.0469 Q398.5313,357.7188 399.1484,356.5703 Q399.7656,355.4219 400.8594,354.8047 Q401.9531,354.1875 403.1875,354.1875 Q403.9219,354.1875 404.5703,354.3516 Q405.2188,354.5156 405.7656,354.875 Z "/>
    <text fill="#000000" font-family="sans-serif" font-size="12" lengthAdjust="spacingAndGlyphs" textLength="179" x="417" y="363.9102">LocalJarNameContentGenerator</text>
    <!--class com.credibledoc.substitution.reporting.visualizer.VisualizerService-->
    <rect fill="#98FB98" filter="url(#fbgkgu3)" height="32" style="stroke: #00FF7F; stroke-width: 1.5;" width="125" x="431" y="451"/>
    <ellipse cx="446" cy="467" fill="#9ACD32" rx="11" ry="11" style="stroke: #00FF7F; stroke-width: 1.0;"/>
    <path d="M448.7656,462.875 Q448.9219,462.6563 449.1094,462.5469 Q449.2969,462.4375 449.5156,462.4375 Q449.8906,462.4375 450.125,462.6953 Q450.3594,462.9531 450.3594,463.5625 L450.3594,465.0156 Q450.3594,465.625 450.125,465.8906 Q449.8906,466.1563 449.5156,466.1563 Q449.1719,466.1563 448.9688,465.9531 Q448.7656,465.7656 448.6563,465.25 Q448.6094,464.8906 448.4219,464.7031 Q448.0938,464.3281 447.4844,464.1094 Q446.875,463.8906 446.25,463.8906 Q445.4844,463.8906 444.8516,464.2188 Q444.2188,464.5469 443.7266,465.2969 Q443.2344,466.0469 443.2344,467.0781 L443.2344,468.1719 Q443.2344,469.4063 444.125,470.2266 Q445.0156,471.0469 446.6094,471.0469 Q447.5469,471.0469 448.2031,470.7969 Q448.5938,470.6406 449.0156,470.2031 Q449.2813,469.9375 449.4297,469.8594 Q449.5781,469.7813 449.7813,469.7813 Q450.1094,469.7813 450.3672,470.0391 Q450.625,470.2969 450.625,470.6406 Q450.625,470.9844 450.2813,471.3906 Q449.7813,471.9688 448.9844,472.2969 Q447.9063,472.75 446.6094,472.75 Q445.0938,472.75 443.8906,472.125 Q442.9063,471.625 442.2188,470.5547 Q441.5313,469.4844 441.5313,468.2031 L441.5313,467.0469 Q441.5313,465.7188 442.1484,464.5703 Q442.7656,463.4219 443.8594,462.8047 Q444.9531,462.1875 446.1875,462.1875 Q446.9219,462.1875 447.5703,462.3516 Q448.2188,462.5156 448.7656,462.875 Z "/>
    <text fill="#000000" font-family="sans-serif" font-size="12" lengthAdjust="spacingAndGlyphs" textLength="93" x="460" y="471.9102">VisualizerService</text>
    <!--class com.credibledoc.substitution.core.placeholder.PlaceholderService-->
    <rect fill="#98FB98" filter="url(#fbgkgu3)" height="32" style="stroke: #00FF7F; stroke-width: 1.5;" width="138" x="424.5" y="559"/>
    <ellipse cx="439.5" cy="575" fill="#9ACD32" rx="11" ry="11" style="stroke: #00FF7F; stroke-width: 1.0;"/>
    <path d="M442.2656,570.875 Q442.4219,570.6563 442.6094,570.5469 Q442.7969,570.4375 443.0156,570.4375 Q443.3906,570.4375 443.625,570.6953 Q443.8594,570.9531 443.8594,571.5625 L443.8594,573.0156 Q443.8594,573.625 443.625,573.8906 Q443.3906,574.1563 443.0156,574.1563 Q442.6719,574.1563 442.4688,573.9531 Q442.2656,573.7656 442.1563,573.25 Q442.1094,572.8906 441.9219,572.7031 Q441.5938,572.3281 440.9844,572.1094 Q440.375,571.8906 439.75,571.8906 Q438.9844,571.8906 438.3516,572.2188 Q437.7188,572.5469 437.2266,573.2969 Q436.7344,574.0469 436.7344,575.0781 L436.7344,576.1719 Q436.7344,577.4063 437.625,578.2266 Q438.5156,579.0469 440.1094,579.0469 Q441.0469,579.0469 441.7031,578.7969 Q442.0938,578.6406 442.5156,578.2031 Q442.7813,577.9375 442.9297,577.8594 Q443.0781,577.7813 443.2813,577.7813 Q443.6094,577.7813 443.8672,578.0391 Q444.125,578.2969 444.125,578.6406 Q444.125,578.9844 443.7813,579.3906 Q443.2813,579.9688 442.4844,580.2969 Q441.4063,580.75 440.1094,580.75 Q438.5938,580.75 437.3906,580.125 Q436.4063,579.625 435.7188,578.5547 Q435.0313,577.4844 435.0313,576.2031 L435.0313,575.0469 Q435.0313,573.7188 435.6484,572.5703 Q436.2656,571.4219 437.3594,570.8047 Q438.4531,570.1875 439.6875,570.1875 Q440.4219,570.1875 441.0703,570.3516 Q441.7188,570.5156 442.2656,570.875 Z "/>
    <text fill="#000000" font-family="sans-serif" font-size="12" lengthAdjust="spacingAndGlyphs" textLength="106" x="453.5" y="579.9102">PlaceholderService</text>
    <!--class com.credibledoc.substitution.core.placeholder.Placeholder-->
    <rect fill="#98FB98" filter="url(#fbgkgu3)" height="32" style="stroke: #00FF7F; stroke-width: 1.5;" width="98" x="444.5" y="626"/>
    <ellipse cx="459.5" cy="642" fill="#9ACD32" rx="11" ry="11" style="stroke: #00FF7F; stroke-width: 1.0;"/>
    <path d="M462.2656,637.875 Q462.4219,637.6563 462.6094,637.5469 Q462.7969,637.4375 463.0156,637.4375 Q463.3906,637.4375 463.625,637.6953 Q463.8594,637.9531 463.8594,638.5625 L463.8594,640.0156 Q463.8594,640.625 463.625,640.8906 Q463.3906,641.1563 463.0156,641.1563 Q462.6719,641.1563 462.4688,640.9531 Q462.2656,640.7656 462.1563,640.25 Q462.1094,639.8906 461.9219,639.7031 Q461.5938,639.3281 460.9844,639.1094 Q460.375,638.8906 459.75,638.8906 Q458.9844,638.8906 458.3516,639.2188 Q457.7188,639.5469 457.2266,640.2969 Q456.7344,641.0469 456.7344,642.0781 L456.7344,643.1719 Q456.7344,644.4063 457.625,645.2266 Q458.5156,646.0469 460.1094,646.0469 Q461.0469,646.0469 461.7031,645.7969 Q462.0938,645.6406 462.5156,645.2031 Q462.7813,644.9375 462.9297,644.8594 Q463.0781,644.7813 463.2813,644.7813 Q463.6094,644.7813 463.8672,645.0391 Q464.125,645.2969 464.125,645.6406 Q464.125,645.9844 463.7813,646.3906 Q463.2813,646.9688 462.4844,647.2969 Q461.4063,647.75 460.1094,647.75 Q458.5938,647.75 457.3906,647.125 Q456.4063,646.625 455.7188,645.5547 Q455.0313,644.4844 455.0313,643.2031 L455.0313,642.0469 Q455.0313,640.7188 455.6484,639.5703 Q456.2656,638.4219 457.3594,637.8047 Q458.4531,637.1875 459.6875,637.1875 Q460.4219,637.1875 461.0703,637.3516 Q461.7188,637.5156 462.2656,637.875 Z "/>
    <text fill="#000000" font-family="sans-serif" font-size="12" lengthAdjust="spacingAndGlyphs" textLength="66" x="473.5" y="646.9102">Placeholder</text>
    <!--class com.credibledoc.substitution.core.template.TemplateService-->
    <rect fill="#98FB98" filter="url(#fbgkgu3)" height="32" style="stroke: #00FF7F; stroke-width: 1.5;" width="124" x="431.5" y="734"/>
    <ellipse cx="446.5" cy="750" fill="#9ACD32" rx="11" ry="11" style="stroke: #00FF7F; stroke-width: 1.0;"/>
    <path d="M449.2656,745.875 Q449.4219,745.6563 449.6094,745.5469 Q449.7969,745.4375 450.0156,745.4375 Q450.3906,745.4375 450.625,745.6953 Q450.8594,745.9531 450.8594,746.5625 L450.8594,748.0156 Q450.8594,748.625 450.625,748.8906 Q450.3906,749.1563 450.0156,749.1563 Q449.6719,749.1563 449.4688,748.9531 Q449.2656,748.7656 449.1563,748.25 Q449.1094,747.8906 448.9219,747.7031 Q448.5938,747.3281 447.9844,747.1094 Q447.375,746.8906 446.75,746.8906 Q445.9844,746.8906 445.3516,747.2188 Q444.7188,747.5469 444.2266,748.2969 Q443.7344,749.0469 443.7344,750.0781 L443.7344,751.1719 Q443.7344,752.4063 444.625,753.2266 Q445.5156,754.0469 447.1094,754.0469 Q448.0469,754.0469 448.7031,753.7969 Q449.0938,753.6406 449.5156,753.2031 Q449.7813,752.9375 449.9297,752.8594 Q450.0781,752.7813 450.2813,752.7813 Q450.6094,752.7813 450.8672,753.0391 Q451.125,753.2969 451.125,753.6406 Q451.125,753.9844 450.7813,754.3906 Q450.2813,754.9688 449.4844,755.2969 Q448.4063,755.75 447.1094,755.75 Q445.5938,755.75 444.3906,755.125 Q443.4063,754.625 442.7188,753.5547 Q442.0313,752.4844 442.0313,751.2031 L442.0313,750.0469 Q442.0313,748.7188 442.6484,747.5703 Q443.2656,746.4219 444.3594,745.8047 Q445.4531,745.1875 446.6875,745.1875 Q447.4219,745.1875 448.0703,745.3516 Q448.7188,745.5156 449.2656,745.875 Z "/>
    <text fill="#000000" font-family="sans-serif" font-size="12" lengthAdjust="spacingAndGlyphs" textLength="92" x="460.5" y="754.9102">TemplateService</text>
    <!--class com.credibledoc.substitution.reporting.reportdocument.creator.ReportDocumentCreator-->
    <rect fill="#98FB98" filter="url(#fbgkgu3)" height="32" style="stroke: #00FF7F; stroke-width: 1.5;" width="167" x="410" y="842"/>
    <ellipse cx="425" cy="858" fill="#9ACD32" rx="11" ry="11" style="stroke: #00FF7F; stroke-width: 1.0;"/>
    <path d="M427.7656,853.875 Q427.9219,853.6563 428.1094,853.5469 Q428.2969,853.4375 428.5156,853.4375 Q428.8906,853.4375 429.125,853.6953 Q429.3594,853.9531 429.3594,854.5625 L429.3594,856.0156 Q429.3594,856.625 429.125,856.8906 Q428.8906,857.1563 428.5156,857.1563 Q428.1719,857.1563 427.9688,856.9531 Q427.7656,856.7656 427.6563,856.25 Q427.6094,855.8906 427.4219,855.7031 Q427.0938,855.3281 426.4844,855.1094 Q425.875,854.8906 425.25,854.8906 Q424.4844,854.8906 423.8516,855.2188 Q423.2188,855.5469 422.7266,856.2969 Q422.2344,857.0469 422.2344,858.0781 L422.2344,859.1719 Q422.2344,860.4063 423.125,861.2266 Q424.0156,862.0469 425.6094,862.0469 Q426.5469,862.0469 427.2031,861.7969 Q427.5938,861.6406 428.0156,861.2031 Q428.2813,860.9375 428.4297,860.8594 Q428.5781,860.7813 428.7813,860.7813 Q429.1094,860.7813 429.3672,861.0391 Q429.625,861.2969 429.625,861.6406 Q429.625,861.9844 429.2813,862.3906 Q428.7813,862.9688 427.9844,863.2969 Q426.9063,863.75 425.6094,863.75 Q424.0938,863.75 422.8906,863.125 Q421.9063,862.625 421.2188,861.5547 Q420.5313,860.4844 420.5313,859.2031 L420.5313,858.0469 Q420.5313,856.7188 421.1484,855.5703 Q421.7656,854.4219 422.8594,853.8047 Q423.9531,853.1875 425.1875,853.1875 Q425.9219,853.1875 426.5703,853.3516 Q427.2188,853.5156 427.7656,853.875 Z "/>
    <text fill="#000000" font-family="sans-serif" font-size="12" lengthAdjust="spacingAndGlyphs" textLength="135" x="439" y="862.9102">ReportDocumentCreator</text>
    <!--class com.credibledoc.substitution.reporting.reportdocument.creator.ReportDocumentCreatorService-->
    <rect fill="#98FB98" filter="url(#fbgkgu3)" height="32" style="stroke: #00FF7F; stroke-width: 1.5;" width="207" x="390" y="909"/>
    <ellipse cx="405" cy="925" fill="#9ACD32" rx="11" ry="11" style="stroke: #00FF7F; stroke-width: 1.0;"/>
    <path d="M407.7656,920.875 Q407.9219,920.6563 408.1094,920.5469 Q408.2969,920.4375 408.5156,920.4375 Q408.8906,920.4375 409.125,920.6953 Q409.3594,920.9531 409.3594,921.5625 L409.3594,923.0156 Q409.3594,923.625 409.125,923.8906 Q408.8906,924.1563 408.5156,924.1563 Q408.1719,924.1563 407.9688,923.9531 Q407.7656,923.7656 407.6563,923.25 Q407.6094,922.8906 407.4219,922.7031 Q407.0938,922.3281 406.4844,922.1094 Q405.875,921.8906 405.25,921.8906 Q404.4844,921.8906 403.8516,922.2188 Q403.2188,922.5469 402.7266,923.2969 Q402.2344,924.0469 402.2344,925.0781 L402.2344,926.1719 Q402.2344,927.4063 403.125,928.2266 Q404.0156,929.0469 405.6094,929.0469 Q406.5469,929.0469 407.2031,928.7969 Q407.5938,928.6406 408.0156,928.2031 Q408.2813,927.9375 408.4297,927.8594 Q408.5781,927.7813 408.7813,927.7813 Q409.1094,927.7813 409.3672,928.0391 Q409.625,928.2969 409.625,928.6406 Q409.625,928.9844 409.2813,929.3906 Q408.7813,929.9688 407.9844,930.2969 Q406.9063,930.75 405.6094,930.75 Q404.0938,930.75 402.8906,930.125 Q401.9063,929.625 401.2188,928.5547 Q400.5313,927.4844 400.5313,926.2031 L400.5313,925.0469 Q400.5313,923.7188 401.1484,922.5703 Q401.7656,921.4219 402.8594,920.8047 Q403.9531,920.1875 405.1875,920.1875 Q405.9219,920.1875 406.5703,920.3516 Q407.2188,920.5156 407.7656,920.875 Z "/>
    <text fill="#000000" font-family="sans-serif" font-size="12" lengthAdjust="spacingAndGlyphs" textLength="175" x="419" y="929.9102">ReportDocumentCreatorService</text>
    <!--class com.credibledoc.substitution.core.configuration.ConfigurationService-->
    <rect fill="#98FB98" filter="url(#fbgkgu3)" height="32" style="stroke: #00FF7F; stroke-width: 1.5;" width="146" x="420.5" y="1017"/>
    <ellipse cx="435.5" cy="1033" fill="#9ACD32" rx="11" ry="11" style="stroke: #00FF7F; stroke-width: 1.0;"/>
    <path d="M438.2656,1028.875 Q438.4219,1028.6563 438.6094,1028.5469 Q438.7969,1028.4375 439.0156,1028.4375 Q439.3906,1028.4375 439.625,1028.6953 Q439.8594,1028.9531 439.8594,1029.5625 L439.8594,1031.0156 Q439.8594,1031.625 439.625,1031.8906 Q439.3906,1032.1563 439.0156,1032.1563 Q438.6719,1032.1563 438.4688,1031.9531 Q438.2656,1031.7656 438.1563,1031.25 Q438.1094,1030.8906 437.9219,1030.7031 Q437.5938,1030.3281 436.9844,1030.1094 Q436.375,1029.8906 435.75,1029.8906 Q434.9844,1029.8906 434.3516,1030.2188 Q433.7188,1030.5469 433.2266,1031.2969 Q432.7344,1032.0469 432.7344,1033.0781 L432.7344,1034.1719 Q432.7344,1035.4063 433.625,1036.2266 Q434.5156,1037.0469 436.1094,1037.0469 Q437.0469,1037.0469 437.7031,1036.7969 Q438.0938,1036.6406 438.5156,1036.2031 Q438.7813,1035.9375 438.9297,1035.8594 Q439.0781,1035.7813 439.2813,1035.7813 Q439.6094,1035.7813 439.8672,1036.0391 Q440.125,1036.2969 440.125,1036.6406 Q440.125,1036.9844 439.7813,1037.3906 Q439.2813,1037.9688 438.4844,1038.2969 Q437.4063,1038.75 436.1094,1038.75 Q434.5938,1038.75 433.3906,1038.125 Q432.4063,1037.625 431.7188,1036.5547 Q431.0313,1035.4844 431.0313,1034.2031 L431.0313,1033.0469 Q431.0313,1031.7188 431.6484,1030.5703 Q432.2656,1029.4219 433.3594,1028.8047 Q434.4531,1028.1875 435.6875,1028.1875 Q436.4219,1028.1875 437.0703,1028.3516 Q437.7188,1028.5156 438.2656,1028.875 Z "/>
    <text fill="#000000" font-family="sans-serif" font-size="12" lengthAdjust="spacingAndGlyphs" textLength="114" x="449.5" y="1037.9102">ConfigurationService</text>
    <!--class com.credibledoc.substitution.core.configuration.Configuration-->
    <rect fill="#98FB98" filter="url(#fbgkgu3)" height="32" style="stroke: #00FF7F; stroke-width: 1.5;" width="106" x="440.5" y="1084"/>
    <ellipse cx="455.5" cy="1100" fill="#9ACD32" rx="11" ry="11" style="stroke: #00FF7F; stroke-width: 1.0;"/>
    <path d="M458.2656,1095.875 Q458.4219,1095.6563 458.6094,1095.5469 Q458.7969,1095.4375 459.0156,1095.4375 Q459.3906,1095.4375 459.625,1095.6953 Q459.8594,1095.9531 459.8594,1096.5625 L459.8594,1098.0156 Q459.8594,1098.625 459.625,1098.8906 Q459.3906,1099.1563 459.0156,1099.1563 Q458.6719,1099.1563 458.4688,1098.9531 Q458.2656,1098.7656 458.1563,1098.25 Q458.1094,1097.8906 457.9219,1097.7031 Q457.5938,1097.3281 456.9844,1097.1094 Q456.375,1096.8906 455.75,1096.8906 Q454.9844,1096.8906 454.3516,1097.2188 Q453.7188,1097.5469 453.2266,1098.2969 Q452.7344,1099.0469 452.7344,1100.0781 L452.7344,1101.1719 Q452.7344,1102.4063 453.625,1103.2266 Q454.5156,1104.0469 456.1094,1104.0469 Q457.0469,1104.0469 457.7031,1103.7969 Q458.0938,1103.6406 458.5156,1103.2031 Q458.7813,1102.9375 458.9297,1102.8594 Q459.0781,1102.7813 459.2813,1102.7813 Q459.6094,1102.7813 459.8672,1103.0391 Q460.125,1103.2969 460.125,1103.6406 Q460.125,1103.9844 459.7813,1104.3906 Q459.2813,1104.9688 458.4844,1105.2969 Q457.4063,1105.75 456.1094,1105.75 Q454.5938,1105.75 453.3906,1105.125 Q452.4063,1104.625 451.7188,1103.5547 Q451.0313,1102.4844 451.0313,1101.2031 L451.0313,1100.0469 Q451.0313,1098.7188 451.6484,1097.5703 Q452.2656,1096.4219 453.3594,1095.8047 Q454.4531,1095.1875 455.6875,1095.1875 Q456.4219,1095.1875 457.0703,1095.3516 Q457.7188,1095.5156 458.2656,1095.875 Z "/>
    <text fill="#000000" font-family="sans-serif" font-size="12" lengthAdjust="spacingAndGlyphs" textLength="74" x="469.5" y="1104.9102">Configuration</text>
    <!--class com.credibledoc.substitution.reporting.markdown.MarkdownService-->
    <rect fill="#98FB98" filter="url(#fbgkgu3)" height="32" style="stroke: #00FF7F; stroke-width: 1.5;" width="128" x="429.5" y="1192"/>
    <ellipse cx="444.5" cy="1208" fill="#9ACD32" rx="11" ry="11" style="stroke: #00FF7F; stroke-width: 1.0;"/>
    <path d="M447.2656,1203.875 Q447.4219,1203.6563 447.6094,1203.5469 Q447.7969,1203.4375 448.0156,1203.4375 Q448.3906,1203.4375 448.625,1203.6953 Q448.8594,1203.9531 448.8594,1204.5625 L448.8594,1206.0156 Q448.8594,1206.625 448.625,1206.8906 Q448.3906,1207.1563 448.0156,1207.1563 Q447.6719,1207.1563 447.4688,1206.9531 Q447.2656,1206.7656 447.1563,1206.25 Q447.1094,1205.8906 446.9219,1205.7031 Q446.5938,1205.3281 445.9844,1205.1094 Q445.375,1204.8906 444.75,1204.8906 Q443.9844,1204.8906 443.3516,1205.2188 Q442.7188,1205.5469 442.2266,1206.2969 Q441.7344,1207.0469 441.7344,1208.0781 L441.7344,1209.1719 Q441.7344,1210.4063 442.625,1211.2266 Q443.5156,1212.0469 445.1094,1212.0469 Q446.0469,1212.0469 446.7031,1211.7969 Q447.0938,1211.6406 447.5156,1211.2031 Q447.7813,1210.9375 447.9297,1210.8594 Q448.0781,1210.7813 448.2813,1210.7813 Q448.6094,1210.7813 448.8672,1211.0391 Q449.125,1211.2969 449.125,1211.6406 Q449.125,1211.9844 448.7813,1212.3906 Q448.2813,1212.9688 447.4844,1213.2969 Q446.4063,1213.75 445.1094,1213.75 Q443.5938,1213.75 442.3906,1213.125 Q441.4063,1212.625 440.7188,1211.5547 Q440.0313,1210.4844 440.0313,1209.2031 L440.0313,1208.0469 Q440.0313,1206.7188 440.6484,1205.5703 Q441.2656,1204.4219 442.3594,1203.8047 Q443.4531,1203.1875 444.6875,1203.1875 Q445.4219,1203.1875 446.0703,1203.3516 Q446.7188,1203.5156 447.2656,1203.875 Z "/>
    <text fill="#000000" font-family="sans-serif" font-size="12" lengthAdjust="spacingAndGlyphs" textLength="96" x="458.5" y="1212.9102">MarkdownService</text>
    <!--class com.credibledoc.substitution.core.resource.ResourceService-->
    <rect fill="#98FB98" filter="url(#fbgkgu3)" height="32" style="stroke: #00FF7F; stroke-width: 1.5;" width="126" x="430.5" y="1300"/>
    <ellipse cx="445.5" cy="1316" fill="#9ACD32" rx="11" ry="11" style="stroke: #00FF7F; stroke-width: 1.0;"/>
    <path d="M448.2656,1311.875 Q448.4219,1311.6563 448.6094,1311.5469 Q448.7969,1311.4375 449.0156,1311.4375 Q449.3906,1311.4375 449.625,1311.6953 Q449.8594,1311.9531 449.8594,1312.5625 L449.8594,1314.0156 Q449.8594,1314.625 449.625,1314.8906 Q449.3906,1315.1563 449.0156,1315.1563 Q448.6719,1315.1563 448.4688,1314.9531 Q448.2656,1314.7656 448.1563,1314.25 Q448.1094,1313.8906 447.9219,1313.7031 Q447.5938,1313.3281 446.9844,1313.1094 Q446.375,1312.8906 445.75,1312.8906 Q444.9844,1312.8906 444.3516,1313.2188 Q443.7188,1313.5469 443.2266,1314.2969 Q442.7344,1315.0469 442.7344,1316.0781 L442.7344,1317.1719 Q442.7344,1318.4063 443.625,1319.2266 Q444.5156,1320.0469 446.1094,1320.0469 Q447.0469,1320.0469 447.7031,1319.7969 Q448.0938,1319.6406 448.5156,1319.2031 Q448.7813,1318.9375 448.9297,1318.8594 Q449.0781,1318.7813 449.2813,1318.7813 Q449.6094,1318.7813 449.8672,1319.0391 Q450.125,1319.2969 450.125,1319.6406 Q450.125,1319.9844 449.7813,1320.3906 Q449.2813,1320.9688 448.4844,1321.2969 Q447.4063,1321.75 446.1094,1321.75 Q444.5938,1321.75 443.3906,1321.125 Q442.4063,1320.625 441.7188,1319.5547 Q441.0313,1318.4844 441.0313,1317.2031 L441.0313,1316.0469 Q441.0313,1314.7188 441.6484,1313.5703 Q442.2656,1312.4219 443.3594,1311.8047 Q444.4531,1311.1875 445.6875,1311.1875 Q446.4219,1311.1875 447.0703,1311.3516 Q447.7188,1311.5156 448.2656,1311.875 Z "/>
    <text fill="#000000" font-family="sans-serif" font-size="12" lengthAdjust="spacingAndGlyphs" textLength="94" x="459.5" y="1320.9102">ResourceService</text>
    <!--class com.credibledoc.substitution.core.content.ContentGenerator-->
    <rect fill="#98FB98" filter="url(#fbgkgu3)" height="32" style="stroke: #00FF7F; stroke-width: 1.5;" width="130" x="428.5" y="1408"/>
    <ellipse cx="443.5" cy="1424" fill="#9ACD32" rx="11" ry="11" style="stroke: #00FF7F; stroke-width: 1.0;"/>
    <path d="M446.2656,1419.875 Q446.4219,1419.6563 446.6094,1419.5469 Q446.7969,1419.4375 447.0156,1419.4375 Q447.3906,1419.4375 447.625,1419.6953 Q447.8594,1419.9531 447.8594,1420.5625 L447.8594,1422.0156 Q447.8594,1422.625 447.625,1422.8906 Q447.3906,1423.1563 447.0156,1423.1563 Q446.6719,1423.1563 446.4688,1422.9531 Q446.2656,1422.7656 446.1563,1422.25 Q446.1094,1421.8906 445.9219,1421.7031 Q445.5938,1421.3281 444.9844,1421.1094 Q444.375,1420.8906 443.75,1420.8906 Q442.9844,1420.8906 442.3516,1421.2188 Q441.7188,1421.5469 441.2266,1422.2969 Q440.7344,1423.0469 440.7344,1424.0781 L440.7344,1425.1719 Q440.7344,1426.4063 441.625,1427.2266 Q442.5156,1428.0469 444.1094,1428.0469 Q445.0469,1428.0469 445.7031,1427.7969 Q446.0938,1427.6406 446.5156,1427.2031 Q446.7813,1426.9375 446.9297,1426.8594 Q447.0781,1426.7813 447.2813,1426.7813 Q447.6094,1426.7813 447.8672,1427.0391 Q448.125,1427.2969 448.125,1427.6406 Q448.125,1427.9844 447.7813,1428.3906 Q447.2813,1428.9688 446.4844,1429.2969 Q445.4063,1429.75 444.1094,1429.75 Q442.5938,1429.75 441.3906,1429.125 Q440.4063,1428.625 439.7188,1427.5547 Q439.0313,1426.4844 439.0313,1425.2031 L439.0313,1424.0469 Q439.0313,1422.7188 439.6484,1421.5703 Q440.2656,1420.4219 441.3594,1419.8047 Q442.4531,1419.1875 443.6875,1419.1875 Q444.4219,1419.1875 445.0703,1419.3516 Q445.7188,1419.5156 446.2656,1419.875 Z "/>
    <text fill="#000000" font-family="sans-serif" font-size="12" lengthAdjust="spacingAndGlyphs" textLength="98" x="457.5" y="1428.9102">ContentGenerator</text>
    <!--class com.credibledoc.substitution.core.content.Content-->
    <rect fill="#98FB98" filter="url(#fbgkgu3)" height="32" style="stroke: #00FF7F; stroke-width: 1.5;" width="75" x="456" y="1475"/>
    <ellipse cx="471" cy="1491" fill="#9ACD32" rx="11" ry="11" style="stroke: #00FF7F; stroke-width: 1.0;"/>
    <path d="M473.7656,1486.875 Q473.9219,1486.6563 474.1094,1486.5469 Q474.2969,1486.4375 474.5156,1486.4375 Q474.8906,1486.4375 475.125,1486.6953 Q475.3594,1486.9531 475.3594,1487.5625 L475.3594,1489.0156 Q475.3594,1489.625 475.125,1489.8906 Q474.8906,1490.1563 474.5156,1490.1563 Q474.1719,1490.1563 473.9688,1489.9531 Q473.7656,1489.7656 473.6563,1489.25 Q473.6094,1488.8906 473.4219,1488.7031 Q473.0938,1488.3281 472.4844,1488.1094 Q471.875,1487.8906 471.25,1487.8906 Q470.4844,1487.8906 469.8516,1488.2188 Q469.2188,1488.5469 468.7266,1489.2969 Q468.2344,1490.0469 468.2344,1491.0781 L468.2344,1492.1719 Q468.2344,1493.4063 469.125,1494.2266 Q470.0156,1495.0469 471.6094,1495.0469 Q472.5469,1495.0469 473.2031,1494.7969 Q473.5938,1494.6406 474.0156,1494.2031 Q474.2813,1493.9375 474.4297,1493.8594 Q474.5781,1493.7813 474.7813,1493.7813 Q475.1094,1493.7813 475.3672,1494.0391 Q475.625,1494.2969 475.625,1494.6406 Q475.625,1494.9844 475.2813,1495.3906 Q474.7813,1495.9688 473.9844,1496.2969 Q472.9063,1496.75 471.6094,1496.75 Q470.0938,1496.75 468.8906,1496.125 Q467.9063,1495.625 467.2188,1494.5547 Q466.5313,1493.4844 466.5313,1492.2031 L466.5313,1491.0469 Q466.5313,1489.7188 467.1484,1488.5703 Q467.7656,1487.4219 468.8594,1486.8047 Q469.9531,1486.1875 471.1875,1486.1875 Q471.9219,1486.1875 472.5703,1486.3516 Q473.2188,1486.5156 473.7656,1486.875 Z "/>
    <text fill="#000000" font-family="sans-serif" font-size="12" lengthAdjust="spacingAndGlyphs" textLength="43" x="485" y="1495.9102">Content</text>
    <!--class com.credibledoc.substitution.reporting.report.ReportService-->
    <rect fill="#98FB98" filter="url(#fbgkgu3)" height="32" style="stroke: #00FF7F; stroke-width: 1.5;" width="109" x="439" y="1583"/>
    <ellipse cx="454" cy="1599" fill="#9ACD32" rx="11" ry="11" style="stroke: #00FF7F; stroke-width: 1.0;"/>
    <path d="M456.7656,1594.875 Q456.9219,1594.6563 457.1094,1594.5469 Q457.2969,1594.4375 457.5156,1594.4375 Q457.8906,1594.4375 458.125,1594.6953 Q458.3594,1594.9531 458.3594,1595.5625 L458.3594,1597.0156 Q458.3594,1597.625 458.125,1597.8906 Q457.8906,1598.1563 457.5156,1598.1563 Q457.1719,1598.1563 456.9688,1597.9531 Q456.7656,1597.7656 456.6563,1597.25 Q456.6094,1596.8906 456.4219,1596.7031 Q456.0938,1596.3281 455.4844,1596.1094 Q454.875,1595.8906 454.25,1595.8906 Q453.4844,1595.8906 452.8516,1596.2188 Q452.2188,1596.5469 451.7266,1597.2969 Q451.2344,1598.0469 451.2344,1599.0781 L451.2344,1600.1719 Q451.2344,1601.4063 452.125,1602.2266 Q453.0156,1603.0469 454.6094,1603.0469 Q455.5469,1603.0469 456.2031,1602.7969 Q456.5938,1602.6406 457.0156,1602.2031 Q457.2813,1601.9375 457.4297,1601.8594 Q457.5781,1601.7813 457.7813,1601.7813 Q458.1094,1601.7813 458.3672,1602.0391 Q458.625,1602.2969 458.625,1602.6406 Q458.625,1602.9844 458.2813,1603.3906 Q457.7813,1603.9688 456.9844,1604.2969 Q455.9063,1604.75 454.6094,1604.75 Q453.0938,1604.75 451.8906,1604.125 Q450.9063,1603.625 450.2188,1602.5547 Q449.5313,1601.4844 449.5313,1600.2031 L449.5313,1599.0469 Q449.5313,1597.7188 450.1484,1596.5703 Q450.7656,1595.4219 451.8594,1594.8047 Q452.9531,1594.1875 454.1875,1594.1875 Q454.9219,1594.1875 455.5703,1594.3516 Q456.2188,1594.5156 456.7656,1594.875 Z "/>
    <text fill="#000000" font-family="sans-serif" font-size="12" lengthAdjust="spacingAndGlyphs" textLength="77" x="468" y="1603.9102">ReportService</text>
    <path d="M142.018,874.22 C165.505,895.825 209.964,933.989 254,957 C305.108,983.707 367.311,1003.146 415.377,1015.677 " fill="none" style="stroke: #2E8B57; stroke-width: 1.0; stroke-dasharray: 7.0,7.0;"/>
    <polygon fill="#2E8B57" points="420.278,1016.944,412.5654,1010.819,415.4371,1015.6927,410.5634,1018.5644,420.278,1016.944" style="stroke: #2E8B57; stroke-width: 1.0;"/>
    <path d="M124.898,841.968 C125.395,780.17 135.581,554.91 254,435 C288.03,400.54 337.628,381.68 382.79,371.37 " fill="none" style="stroke: #2E8B57; stroke-width: 1.0; stroke-dasharray: 7.0,7.0;"/>
    <polygon fill="#2E8B57" points="387.709,370.28,378.0556,368.3276,382.8281,371.3647,379.791,376.1371,387.709,370.28" style="stroke: #2E8B57; stroke-width: 1.0;"/>
    <path d="M127.955,874.312 C137.353,921.469 170.964,1059.226 254,1132 C301.65,1173.761 372.383,1192.605 424.451,1201.091 " fill="none" style="stroke: #2E8B57; stroke-width: 1.0; stroke-dasharray: 7.0,7.0;"/>
    <polygon fill="#2E8B57" points="429.43,1201.88,421.1672,1196.5203,424.4917,1201.0972,419.9147,1204.4216,429.43,1201.88" style="stroke: #2E8B57; stroke-width: 1.0;"/>
    <path d="M125.94,874.058 C131.615,965.692 164.117,1421.946 254,1523 C299.397,1574.0387 378.956,1591.0537 433.615,1596.5847 " fill="none" style="stroke: #2E8B57; stroke-width: 1.0; stroke-dasharray: 7.0,7.0;"/>
    <polygon fill="#2E8B57" points="438.824,1597.0848,430.2482,1592.2418,433.847,1596.6062,429.4825,1600.205,438.824,1597.0848" style="stroke: #2E8B57; stroke-width: 1.0;"/>
    <path d="M125.795,841.982 C130.62,751.608 159.019,306.35 254,217 C295.504,177.96 360.434,171.14 412.072,173.29 " fill="none" style="stroke: #2E8B57; stroke-width: 1.0; stroke-dasharray: 7.0,7.0;"/>
    <polygon fill="#2E8B57" points="417.344,173.55,408.5461,169.1231,412.3498,173.3103,408.1626,177.1139,417.344,173.55" style="stroke: #2E8B57; stroke-width: 1.0;"/>
    <path d="M128.023,841.778 C137.426,796.284 170.684,666.974 254,608 C301.664,574.26 368.332,567.52 419.068,568.36 " fill="none" style="stroke: #2E8B57; stroke-width: 1.0; stroke-dasharray: 7.0,7.0;"/>
    <polygon fill="#2E8B57" points="424.238,568.47,415.327,564.2756,419.2392,568.3615,415.1533,572.2737,424.238,568.47" style="stroke: #2E8B57; stroke-width: 1.0;"/>
    <path d="M150.26,850.577 C208.135,833.568 351.614,791.403 433.236,767.416 " fill="none" style="stroke: #2E8B57; stroke-width: 1.0; stroke-dasharray: 7.0,7.0;"/>
    <polygon fill="#2E8B57" points="438.039,766.005,428.2763,764.7053,433.2419,767.415,430.5322,772.3806,438.039,766.005" style="stroke: #2E8B57; stroke-width: 1.0;"/>
    <path d="M125.508,874.079 C128.225,932.157 145.424,1133.274 254,1240 C299.786,1285.006 372.155,1303.377 425.177,1310.867 " fill="none" style="stroke: #2E8B57; stroke-width: 1.0; stroke-dasharray: 7.0,7.0;"/>
    <polygon fill="#2E8B57" points="430.246,1311.558,421.8693,1306.3781,425.2919,1310.8821,420.7879,1314.3047,430.246,1311.558" style="stroke: #2E8B57; stroke-width: 1.0;"/>
    <path d="M127.148,874.147 C137.628,950.67 185.68,1276.099 254,1348 C297.934,1394.237 369.882,1412.437 423.284,1419.552 " fill="none" style="stroke: #2E8B57; stroke-width: 1.0; stroke-dasharray: 7.0,7.0;"/>
    <polygon fill="#2E8B57" points="428.392,1420.206,419.9737,1415.094,423.4326,1419.5702,418.9564,1423.029,428.392,1420.206" style="stroke: #2E8B57; stroke-width: 1.0;"/>
    <path d="M135.742,841.611 C155.636,812.519 201.043,751.748 254,718 C311.576,681.308 388.307,661.028 438.999,650.836 " fill="none" style="stroke: #2E8B57; stroke-width: 1.0; stroke-dasharray: 7.0,7.0;"/>
    <polygon fill="#2E8B57" points="444.128,649.821,434.5229,647.6433,439.223,650.7911,436.0751,655.4912,444.128,649.821" style="stroke: #2E8B57; stroke-width: 1.0;"/>
    <path d="M126.819,841.912 C133.491,790.503 161.28,628.57 254,543 C301.181,499.46 373.335,480.86 425.925,472.92 " fill="none" style="stroke: #2E8B57; stroke-width: 1.0; stroke-dasharray: 7.0,7.0;"/>
    <polygon fill="#2E8B57" points="430.952,472.18,421.4672,469.5271,426.0048,472.9049,422.627,477.4426,430.952,472.18" style="stroke: #2E8B57; stroke-width: 1.0;"/>
    <path d="M150.028,865.266 C175.884,872.568 217.494,883.751 254,891 C296.575,899.454 343.827,906.642 384.967,912.2 " fill="none" style="stroke: #2E8B57; stroke-width: 1.0; stroke-dasharray: 7.0,7.0;"/>
    <polygon fill="#2E8B57" points="389.953,912.87,381.5657,907.7074,384.9975,912.2043,380.5006,915.6362,389.953,912.87" style="stroke: #2E8B57; stroke-width: 1.0;"/>
    <path d="M126.048,874.097 C132.051,961.076 164.988,1374.053 254,1457 C307.06,1506.445 397.668,1504.505 450.611,1498.107 " fill="none" style="stroke: #2E8B57; stroke-width: 1.0; stroke-dasharray: 7.0,7.0;"/>
    <polygon fill="#2E8B57" points="455.615,1497.475,446.1852,1494.6326,450.6543,1498.1006,447.1862,1502.5697,455.615,1497.475" style="stroke: #2E8B57; stroke-width: 1.0;"/>
    <path d="M126.795,841.869 C136.035,761.569 180.66,405.68 254,327 C298.064,279.73 371.41,261.73 425.152,254.95 " fill="none" style="stroke: #2E8B57; stroke-width: 1.0; stroke-dasharray: 7.0,7.0;"/>
    <polygon fill="#2E8B57" points="430.29,254.33,420.8756,251.4372,425.326,254.9291,421.8341,259.3796,430.29,254.33" style="stroke: #2E8B57; stroke-width: 1.0;"/>
    <path d="M129.729,874.097 C142.411,914.15 181.249,1018.478 254,1066 C307.997,1101.271 383.479,1106.387 434.971,1104.879 " fill="none" style="stroke: #2E8B57; stroke-width: 1.0; stroke-dasharray: 7.0,7.0;"/>
    <polygon fill="#2E8B57" points="440.19,1104.701,431.0592,1101.0093,435.1929,1104.871,431.3312,1109.0047,440.19,1104.701" style="stroke: #2E8B57; stroke-width: 1.0;"/>
    <path d="M150.26,858 C201.831,858 321.374,858 404.554,858 " fill="none" style="stroke: #2E8B57; stroke-width: 1.0; stroke-dasharray: 7.0,7.0;"/>
    <polygon fill="#2E8B57" points="409.979,858,400.979,854,404.979,858,400.979,862,409.979,858" style="stroke: #2E8B57; stroke-width: 1.0;"/>
    <path d="M125.746,841.9 C130.461,746.89 159.046,259.93 254,152 C288.135,113.2 342.02,94.05 389.941,84.66 " fill="none" style="stroke: #2E8B57; stroke-width: 1.0; stroke-dasharray: 7.0,7.0;"/>
    <polygon fill="#2E8B57" points="394.856,83.73,385.2679,81.4786,389.9437,84.6625,386.7599,89.3383,394.856,83.73" style="stroke: #2E8B57; stroke-width: 1.0;"/>
<!--
!WARNING! Original strings (double dash) has been replaced by '- -' (dash+space+dash) in this comment, because the string (double dash) is not permitted within comments. And link parameters, for example ?search=... have also been REMOVED from the comment, because they are not readable for humans.
<img uml="
@startuml
left to right direction
hide empty members

skinparam class {
    BackgroundColor PaleGreen
    ArrowColor SeaGreen
    BorderColor SpringGreen
}

Class com.credibledoc.substitution.doc << (P,LightSeaGreen) >>
Class com.credibledoc.substitution.core.exception.SubstitutionRuntimeException << (C,YellowGreen) >>
Class com.credibledoc.substitution.reporting.reportdocument.ReportDocumentType << (C,YellowGreen) >>
Class com.credibledoc.substitution.content.generator.jar.LocalJarNameContentGenerator << (C,YellowGreen) >>
Class com.credibledoc.substitution.reporting.visualizer.VisualizerService << (C,YellowGreen) >>
Class com.credibledoc.substitution.core.placeholder.PlaceholderService << (C,YellowGreen) >>
Class com.credibledoc.substitution.core.template.TemplateService << (C,YellowGreen) >>
Class com.credibledoc.substitution.reporting.reportdocument.creator.ReportDocumentCreator << (C,YellowGreen) >>
Class com.credibledoc.substitution.core.configuration.ConfigurationService << (C,YellowGreen) >>
Class com.credibledoc.substitution.reporting.markdown.MarkdownService << (C,YellowGreen) >>
Class com.credibledoc.substitution.core.resource.ResourceService << (C,YellowGreen) >>
Class com.credibledoc.substitution.core.content.ContentGenerator << (C,YellowGreen) >>
Class com.credibledoc.substitution.reporting.reportdocument.creator.ReportDocumentCreatorService << (C,YellowGreen) >>
Class com.credibledoc.substitution.reporting.reportdocument.ReportDocument << (C,YellowGreen) >>
Class com.credibledoc.substitution.core.content.Content << (C,YellowGreen) >>
Class com.credibledoc.substitution.core.placeholder.Placeholder << (C,YellowGreen) >>
Class com.credibledoc.substitution.reporting.report.ReportService << (C,YellowGreen) >>
Class com.credibledoc.substitution.core.configuration.Configuration << (C,YellowGreen) >>
com.credibledoc.substitution.doc ..> com.credibledoc.substitution.core.configuration.ConfigurationService
com.credibledoc.substitution.doc ..> com.credibledoc.substitution.content.generator.jar.LocalJarNameContentGenerator
com.credibledoc.substitution.doc ..> com.credibledoc.substitution.reporting.markdown.MarkdownService
com.credibledoc.substitution.doc ..> com.credibledoc.substitution.reporting.report.ReportService
com.credibledoc.substitution.doc ..> com.credibledoc.substitution.reporting.reportdocument.ReportDocumentType
com.credibledoc.substitution.doc ..> com.credibledoc.substitution.core.placeholder.PlaceholderService
com.credibledoc.substitution.doc ..> com.credibledoc.substitution.core.template.TemplateService
com.credibledoc.substitution.doc ..> com.credibledoc.substitution.core.resource.ResourceService
com.credibledoc.substitution.doc ..> com.credibledoc.substitution.core.content.ContentGenerator
com.credibledoc.substitution.doc ..> com.credibledoc.substitution.core.placeholder.Placeholder
com.credibledoc.substitution.doc ..> com.credibledoc.substitution.reporting.visualizer.VisualizerService
com.credibledoc.substitution.doc ..> com.credibledoc.substitution.reporting.reportdocument.creator.ReportDocumentCreatorService
com.credibledoc.substitution.doc ..> com.credibledoc.substitution.core.content.Content
com.credibledoc.substitution.doc ..> com.credibledoc.substitution.reporting.reportdocument.ReportDocument
com.credibledoc.substitution.doc ..> com.credibledoc.substitution.core.configuration.Configuration
com.credibledoc.substitution.doc ..> com.credibledoc.substitution.reporting.reportdocument.creator.ReportDocumentCreator
com.credibledoc.substitution.doc ..> com.credibledoc.substitution.core.exception.SubstitutionRuntimeException
@enduml
"/>
--></g>
</svg>
